<?xml version="1.0" encoding="iso-8859-1"?>
<!-- Generator: Adobe Illustrator 19.0.0, SVG Export Plug-In . SVG Version: 6.00 Build 0)  -->
<svg version="1.1" id="Capa_1" xmlns="http://www.w3.org/2000/svg" xmlns:xlink="http://www.w3.org/1999/xlink" x="0px" y="0px"
	 viewBox="0 0 512 512" style="enable-background:new 0 0 512 512;" xml:space="preserve">
<g>
	<g>
		<g>
			<path d="M330.667,298.667H53.333c-3.938,0-7.542,2.167-9.396,5.635c-1.875,3.469-1.667,7.677,0.521,10.948l42.667,64
				C89.104,382.219,92.438,384,96,384h192c3.563,0,6.896-1.781,8.875-4.75l42.667-64c2.188-3.271,2.396-7.479,0.521-10.948
				C338.208,300.833,334.604,298.667,330.667,298.667z M282.292,362.667H101.708L73.271,320h237.458L282.292,362.667z"/>
			<path d="M53.333,213.333h277.333c3.938,0,7.542-2.167,9.396-5.635c1.875-3.469,1.667-7.677-0.521-10.948l-42.667-64
				c-1.979-2.969-5.313-4.75-8.875-4.75H96c-3.563,0-6.896,1.781-8.875,4.75l-42.667,64c-2.188,3.271-2.396,7.479-0.521,10.948
				C45.792,211.167,49.396,213.333,53.333,213.333z M101.708,149.333h180.583L310.729,192H73.271L101.708,149.333z"/>
			<path d="M501.333,224h-76.181c-4.771-18.352-21.335-32-41.152-32c0-9.156-3.021-18.24-8.521-25.594l-48-64
				c-8.021-10.688-20.771-17.073-34.146-17.073H90.667c-13.375,0-26.125,6.385-34.146,17.073l-48,64.01
				C3.021,173.76,0,182.844,0,192v128c0,9.156,3.021,18.24,8.521,25.594l48,64c8.021,10.688,20.771,17.073,34.146,17.073h202.667
				c13.375,0,26.125-6.385,34.146-17.073l48-64.01C380.979,338.24,384,329.156,384,320c19.818,0,36.382-13.648,41.152-32h76.181
				c5.896,0,10.667-4.771,10.667-10.667v-42.667C512,228.771,507.229,224,501.333,224z M362.667,320
				c0,4.583-1.521,9.125-4.271,12.802l-48,64c-4,5.344-10.375,8.531-17.063,8.531H90.667c-6.688,0-13.063-3.188-17.063-8.531
				l-48-63.99c-2.75-3.688-4.271-8.229-4.271-12.813V192c0-4.583,1.521-9.125,4.271-12.802l48-64c4-5.344,10.375-8.531,17.063-8.531
				h202.667c6.688,0,13.063,3.188,17.063,8.531l48,63.99c2.75,3.688,4.271,8.229,4.271,12.813V320z M405.333,277.333
				c0,11.76-9.563,21.333-21.333,21.333v-85.333c11.771,0,21.333,9.573,21.333,21.333V277.333z M490.667,266.667h-64v-21.333h64
				V266.667z"/>
			<path d="M48.417,237.792c-4.167,4.167-4.167,10.917,0,15.083l21.333,21.333c2.083,2.083,4.813,3.125,7.542,3.125
				c2.729,0,5.458-1.042,7.542-3.125c4.167-4.167,4.167-10.917,0-15.083L63.5,237.792C59.333,233.625,52.583,233.625,48.417,237.792
				z"/>
			<path d="M112.417,237.792c-4.167,4.167-4.167,10.917,0,15.083l21.333,21.333c2.083,2.083,4.813,3.125,7.542,3.125
				c2.729,0,5.458-1.042,7.542-3.125c4.167-4.167,4.167-10.917,0-15.083L127.5,237.792
				C123.333,233.625,116.583,233.625,112.417,237.792z"/>
			<path d="M176.417,237.792c-4.167,4.167-4.167,10.917,0,15.083l21.333,21.333c2.083,2.083,4.813,3.125,7.542,3.125
				c2.729,0,5.458-1.042,7.542-3.125c4.167-4.167,4.167-10.917,0-15.083L191.5,237.792
				C187.333,233.625,180.583,233.625,176.417,237.792z"/>
			<path d="M240.417,237.792c-4.167,4.167-4.167,10.917,0,15.083l21.333,21.333c2.083,2.083,4.813,3.125,7.542,3.125
				c2.729,0,5.458-1.042,7.542-3.125c4.167-4.167,4.167-10.917,0-15.083L255.5,237.792
				C251.333,233.625,244.583,233.625,240.417,237.792z"/>
			<path d="M316.875,237.792c-4.167-4.167-10.917-4.167-15.083,0c-4.167,4.167-4.167,10.917,0,15.083l21.333,21.333
				c2.083,2.083,4.813,3.125,7.542,3.125c2.729,0,5.458-1.042,7.542-3.125c4.167-4.167,4.167-10.917,0-15.083L316.875,237.792z"/>
		</g>
	</g>
</g>
<g>
</g>
<g>
</g>
<g>
</g>
<g>
</g>
<g>
</g>
<g>
</g>
<g>
</g>
<g>
</g>
<g>
</g>
<g>
</g>
<g>
</g>
<g>
</g>
<g>
</g>
<g>
</g>
<g>
</g>
</svg>
