<?xml version="1.0" encoding="iso-8859-1"?>
<!-- Generator: Adobe Illustrator 19.0.0, SVG Export Plug-In . SVG Version: 6.00 Build 0)  -->
<svg version="1.1" id="Capa_1" xmlns="http://www.w3.org/2000/svg" xmlns:xlink="http://www.w3.org/1999/xlink" x="0px" y="0px"
	 viewBox="0 0 512 512" style="enable-background:new 0 0 512 512;" xml:space="preserve">
<g>
	<g>
		<path d="M437.333,256h-64c-17.646,0-32,14.354-32,32v53.333H320V234.667h96c5.896,0,10.667-4.771,10.667-10.667v-42.667
			c0-5.896-4.771-10.667-10.667-10.667h-96c-35.292,0-64,28.708-64,64v106.667h-21.333v-192H352c5.896,0,10.667-4.771,10.667-10.667
			V96c0-5.896-4.771-10.667-10.667-10.667H234.667c-35.292,0-64,28.708-64,64v192h-21.333V64h117.333
			c5.896,0,10.667-4.771,10.667-10.667V10.667C277.333,4.771,272.563,0,266.667,0H149.333c-35.292,0-64,28.708-64,64v277.333
			c-11.771,0-21.333,9.573-21.333,21.333v42.667c0,11.76,9.563,21.333,21.333,21.333v74.667C85.333,507.229,90.104,512,96,512
			h42.667c5.896,0,10.667-4.771,10.667-10.667v-74.667h21.333v74.667c0,5.896,4.771,10.667,10.667,10.667H224
			c5.896,0,10.667-4.771,10.667-10.667v-74.667H256v74.667c0,5.896,4.771,10.667,10.667,10.667h42.667
			c5.896,0,10.667-4.771,10.667-10.667v-74.667h21.333v74.667c0,5.896,4.771,10.667,10.667,10.667h10.667
			c5.896,0,10.667-4.771,10.667-10.667v-74.667H384c11.771,0,21.333-9.573,21.333-21.333v-42.667
			c0-11.76-9.563-21.333-21.333-21.333h-10.667V288h64c5.896,0,10.667-4.771,10.667-10.667v-10.667
			C448,260.771,443.229,256,437.333,256z M277.333,234.667C277.333,211.135,296.479,192,320,192h85.333v21.333H320
			c-11.771,0-21.333,9.573-21.333,21.333v106.667h-21.333V234.667z M192,149.333c0-23.531,19.146-42.667,42.667-42.667h106.667V128
			H234.667c-11.771,0-21.333,9.573-21.333,21.333v192H192V149.333z M106.667,64c0-23.531,19.146-42.667,42.667-42.667H256v21.333
			H149.333C137.563,42.667,128,52.24,128,64v277.333h-21.333V64z M128,490.667h-21.333v-64H128V490.667z M213.333,490.667H192v-64
			h21.333V490.667z M298.667,490.667h-21.333v-64h21.333V490.667z M384,362.667v42.667h0.021L384,416v-10.667H85.333v-42.667H384z"
			/>
	</g>
</g>
<g>
</g>
<g>
</g>
<g>
</g>
<g>
</g>
<g>
</g>
<g>
</g>
<g>
</g>
<g>
</g>
<g>
</g>
<g>
</g>
<g>
</g>
<g>
</g>
<g>
</g>
<g>
</g>
<g>
</g>
</svg>
