<?xml version="1.0" encoding="iso-8859-1"?>
<!-- Generator: Adobe Illustrator 19.0.0, SVG Export Plug-In . SVG Version: 6.00 Build 0)  -->
<svg version="1.1" id="Capa_1" xmlns="http://www.w3.org/2000/svg" xmlns:xlink="http://www.w3.org/1999/xlink" x="0px" y="0px"
	 viewBox="0 0 426.667 426.667" style="enable-background:new 0 0 426.667 426.667;" xml:space="preserve">
<g>
	<g>
		<path d="M373.333,0H288c-5.219,0-9.667,3.771-10.521,8.917C277.104,11.167,267.677,64,213.333,64
			c-53.958,0-63.76-52.875-64.146-55.125C148.292,3.771,143.854,0,138.667,0H53.333c-5.896,0-10.667,4.771-10.667,10.667
			c0,5.896,4.771,10.667,10.667,10.667h76.875c7.023,24.165,28.465,58.072,72.458,63.008v87.84c-18.352,4.77-32,21.326-32,41.152
			v84.073l-65.381,32.69c-2.129-16.083-7.379-31.43-19.952-31.43C66.771,298.667,64,332.083,64,352s2.771,53.333,21.333,53.333
			c18.194,0,21.197-32.033,21.309-52.061l64.025-32.012V384c0,23.531,19.135,42.667,42.667,42.667S256,407.531,256,384v-62.74
			l64.025,32.012c0.112,20.029,3.115,52.061,21.309,52.061c18.563,0,21.333-33.417,21.333-53.333s-2.771-53.333-21.333-53.333
			c-12.573,0-17.823,15.346-19.952,31.43L256,297.406v-84.073c0-19.827-13.648-36.383-32-41.152v-87.84
			c43.993-4.936,65.435-38.842,72.458-63.008h76.875c5.896,0,10.667-4.771,10.667-10.667C384,4.771,379.229,0,373.333,0z
			 M234.667,213.333V384c0,11.76-9.573,21.333-21.333,21.333S192,395.76,192,384V213.333c0-11.76,9.573-21.333,21.333-21.333
			S234.667,201.573,234.667,213.333z"/>
	</g>
</g>
<g>
</g>
<g>
</g>
<g>
</g>
<g>
</g>
<g>
</g>
<g>
</g>
<g>
</g>
<g>
</g>
<g>
</g>
<g>
</g>
<g>
</g>
<g>
</g>
<g>
</g>
<g>
</g>
<g>
</g>
</svg>
