<?xml version="1.0" encoding="iso-8859-1"?>
<!-- Generator: Adobe Illustrator 19.0.0, SVG Export Plug-In . SVG Version: 6.00 Build 0)  -->
<svg version="1.1" id="Capa_1" xmlns="http://www.w3.org/2000/svg" xmlns:xlink="http://www.w3.org/1999/xlink" x="0px" y="0px"
	 viewBox="0 0 512 512" style="enable-background:new 0 0 512 512;" xml:space="preserve">
<g>
	<g>
		<g>
			<path d="M288,117.333c0-2.771-0.333-5.438-0.917-9.698c-0.479-3.74-2.896-6.948-6.375-8.438c-42.75-18.396-92-18.396-134.75,0
				c-3.438,1.479-6.083,6.333-6.583,10.031c-0.375,2.667-0.708,5.333-0.708,8.104c0,14.262,4.228,27.471,11.195,38.818
				c0.072,0.158,0.057,0.328,0.138,0.484c0.07,0.135,0.221,0.184,0.297,0.315C163.531,177.93,186.753,192,213.333,192
				C254.5,192,288,158.5,288,117.333z M213.333,170.667c-14.238,0-27.115-5.688-36.688-14.806c23.596-8.585,49.798-8.587,73.376,0
				C240.449,164.98,227.572,170.667,213.333,170.667z M164.184,138.031c-2.691-6.367-4.184-13.362-4.184-20.698
				c0-0.281,0-0.552,0.021-0.823c34.083-13.083,72.542-13.083,106.625,0c0.021,0.271,0.021,0.542,0.021,0.823
				c0,7.336-1.492,14.331-4.184,20.699C231.435,125.253,195.22,125.242,164.184,138.031z"/>
			<path d="M138.667,394.667c0,2.771,0.333,5.438,0.917,9.698c0.479,3.74,2.896,6.948,6.375,8.438
				c21.375,9.198,44.063,13.865,67.375,13.865s46-4.667,67.375-13.865c3.438-1.479,6.083-6.333,6.583-10.031
				c0.375-2.667,0.708-5.333,0.708-8.104c0-14.185-4.195-27.323-11.094-38.63c-0.098-0.227-0.082-0.47-0.198-0.693
				c-0.142-0.275-0.393-0.435-0.555-0.691C262.878,333.885,239.753,320,213.333,320C172.167,320,138.667,353.5,138.667,394.667z
				 M266.667,394.667c0,0.271,0,0.552-0.021,0.823c-34.083,13.063-72.542,13.083-106.625,0C160,395.219,160,394.948,160,394.667
				c0-7.328,1.491-14.314,4.177-20.677c15.572,6.514,32.033,10.01,49.156,10.01c17.155,0,33.611-3.477,49.164-9.984
				C265.177,380.371,266.667,387.348,266.667,394.667z M176.645,356.139c9.573-9.118,22.451-14.806,36.689-14.806
				c14.233,0,27.107,5.685,36.678,14.798C226.458,364.708,200.241,364.721,176.645,356.139z"/>
			<path d="M469.333,213.333h-47.408C401.802,113.943,315.62,42.667,213.333,42.667C95.708,42.667,0,138.365,0,256
				s95.708,213.333,213.333,213.333c102.286,0,188.469-71.276,208.592-170.667h47.408C492.854,298.667,512,279.531,512,256
				S492.854,213.333,469.333,213.333z M469.333,277.333c0,0-202.582,0-202.651,0l-0.016,0.003c-1.344,0.001-2.707,0.238-4.021,0.789
				c-5.458,2.219-8.083,8.438-5.854,13.896c7.496,18.421,22.921,34.177,41.846,44.947c0.055,0.046,0.077,0.113,0.133,0.158
				c0.115,0.09,0.27,0.049,0.385,0.134c14.88,8.365,31.835,13.728,49.135,14.397c0.146,0.01,0.271,0.01,0.417,0.01
				c3.667,0,7.063-1.875,9.021-4.99c9.118-14.474,15.82-30.646,20.266-48.01h22.161C380.492,385.889,303.927,448,213.333,448
				c-105.875,0-192-86.135-192-192s86.125-192,192-192c90.594,0,167.159,62.111,186.823,149.333h-22.161
				c-4.445-17.366-11.147-33.536-20.266-48.01c-2.042-3.24-5.667-5.5-9.438-4.979c-17.223,0.667-34.1,5.987-48.932,14.284
				c-0.18,0.125-0.395,0.151-0.568,0.289c-0.02,0.016-0.027,0.04-0.047,0.056c-18.974,10.771-34.443,26.552-41.953,45.007
				c-2.229,5.458,0.396,11.677,5.854,13.896c1.313,0.542,2.687,0.792,4.021,0.792h202.667c11.771,0,21.333,9.573,21.333,21.333
				S481.104,277.333,469.333,277.333z M355.591,298.667c-3.246,11.012-7.214,21.6-12.654,31.188
				c-7.514-0.879-14.934-2.845-21.997-5.626c5.12-8.059,9.34-16.559,12.538-25.561H355.591z M310.661,298.667
				c-2.375,5.421-5.258,10.569-8.527,15.54c-6.449-4.484-12.053-9.767-16.671-15.54H310.661z M355.591,213.333h-22.074
				c-3.201-9.01-7.44-17.509-12.563-25.568c7.06-2.779,14.474-4.742,21.983-5.62C348.378,191.733,352.345,202.322,355.591,213.333z
				 M310.656,213.333h-25.193c4.62-5.776,10.224-11.061,16.677-15.546C305.41,202.757,308.279,207.913,310.656,213.333z"/>
			<circle cx="448" cy="256" r="10.667"/>
			<path d="M170.667,256c0-33.549-17.26-62.809-43.436-79.9c-0.094-0.078-0.134-0.191-0.23-0.267
				c-0.529-0.411-1.154-0.563-1.729-0.858c-13.712-8.499-29.57-13.962-46.896-14.632c-3.583-0.135-7.396,1.74-9.438,4.969
				C51.75,192.604,42.667,223.958,42.667,256s9.083,63.396,26.271,90.688c1.958,3.104,5.375,4.979,9.021,4.979
				c0.146,0,0.271,0,0.417-0.01c17.762-0.686,34.021-6.354,47.956-15.24c0.206-0.138,0.47-0.076,0.669-0.229
				c0.112-0.087,0.159-0.217,0.267-0.307C153.422,318.786,170.667,289.534,170.667,256z M105.137,323.677
				c-6.706,2.983-13.813,5.266-21.428,6.177C70.792,307.302,64,281.896,64,256s6.792-51.302,19.708-73.854
				c7.62,0.911,14.728,3.195,21.436,6.181C92.389,208.613,85.333,231.65,85.333,256C85.333,280.345,92.387,303.384,105.137,323.677z
				 M123.169,312.392c-10.624-16.908-16.503-36.102-16.503-56.392c0-20.296,5.88-39.487,16.509-56.387
				c15.977,13.639,26.158,33.743,26.158,56.387C149.333,278.646,139.15,298.754,123.169,312.392z"/>
		</g>
	</g>
</g>
<g>
</g>
<g>
</g>
<g>
</g>
<g>
</g>
<g>
</g>
<g>
</g>
<g>
</g>
<g>
</g>
<g>
</g>
<g>
</g>
<g>
</g>
<g>
</g>
<g>
</g>
<g>
</g>
<g>
</g>
</svg>
