<?xml version="1.0" encoding="iso-8859-1"?>
<!-- Generator: Adobe Illustrator 19.0.0, SVG Export Plug-In . SVG Version: 6.00 Build 0)  -->
<svg version="1.1" id="Capa_1" xmlns="http://www.w3.org/2000/svg" xmlns:xlink="http://www.w3.org/1999/xlink" x="0px" y="0px"
	 viewBox="0 0 512 512" style="enable-background:new 0 0 512 512;" xml:space="preserve">
<g>
	<g>
		<path d="M426.667,234.667c-13.169,0-25.503,3.249-36.651,8.6l-43.953-68.371l32.042-16.021c3.615-1.813,5.896-5.5,5.896-9.542v-32
			c0-5.896-4.771-10.667-10.667-10.667c-5.896,0-10.667,4.771-10.667,10.667v25.406l-36.771,18.385
			c-2.708,1.354-4.708,3.802-5.51,6.719c-0.802,2.917-0.333,6.042,1.313,8.594l13.988,21.759l-124.682,54.859l-18.208-50.082
			l34.579-11.526c5.583-1.854,8.604-7.896,6.74-13.49c-1.854-5.583-7.844-8.615-13.49-6.74l-64,21.333
			c-5.583,1.854-8.604,7.896-6.74,13.49c1.49,4.469,5.646,7.292,10.115,7.292c1.115,0,2.25-0.177,3.375-0.552l9.181-3.06
			l18.885,51.943l-33.217,14.616c-14.941-24.811-41.878-41.613-72.891-41.613C38.281,234.667,0,272.948,0,320
			c0,47.052,38.281,85.333,85.333,85.333c39.643,0,72.762-27.301,82.303-64h36.109c2.547,12.069,12.77,21.333,25.587,21.333
			C244.042,362.667,256,350.708,256,336c0-3.716-0.78-7.246-2.159-10.464l96.224-104.971l22.079,34.345
			c-18.671,15.667-30.811,38.868-30.811,65.09c0,47.052,38.281,85.333,85.333,85.333S512,367.052,512,320
			C512,272.948,473.719,234.667,426.667,234.667z M85.333,384c-35.292,0-64-28.708-64-64s28.708-64,64-64
			c22.309,0,41.932,11.507,53.392,28.859l-57.684,25.38c-4.26,1.875-6.813,6.292-6.313,10.917s3.948,8.396,8.51,9.302l55.427,10.875
			h6.736C136.568,366.112,113.108,384,85.333,384z M149.315,320.184l-8.555,0.025l-20.219-4.042l26.656-11.729
			c1.263,5.009,2.135,10.167,2.135,15.563C149.333,320.063,149.315,320.121,149.315,320.184z M208.551,320.016l-37.897,0.108
			c0-0.042,0.013-0.081,0.013-0.124c0-8.451-1.613-16.456-3.913-24.169l31.991-14.077l12.647,34.785
			C210.275,317.569,209.479,318.81,208.551,320.016z M224,336c0-2.938,2.396-5.333,5.333-5.333s5.333,2.396,5.333,5.333
			C234.667,341.875,224,341.875,224,336z M238.12,311.111c-2.053-0.728-4.238-1.109-6.486-1.313l-13.327-36.652l91.538-40.28
			L238.12,311.111z M426.667,384c-35.292,0-64-28.708-64-64c0-18.703,8.204-35.397,21.036-47.109l33.995,52.88
			c2.031,3.167,5.469,4.896,8.979,4.896c1.979,0,3.969-0.542,5.76-1.698c4.948-3.177,6.385-9.781,3.198-14.74l-34.108-53.056
			c7.725-3.314,16.215-5.173,25.139-5.173c35.292,0,64,28.708,64,64S461.958,384,426.667,384z"/>
	</g>
</g>
<g>
</g>
<g>
</g>
<g>
</g>
<g>
</g>
<g>
</g>
<g>
</g>
<g>
</g>
<g>
</g>
<g>
</g>
<g>
</g>
<g>
</g>
<g>
</g>
<g>
</g>
<g>
</g>
<g>
</g>
</svg>
