<?xml version="1.0" encoding="iso-8859-1"?>
<!-- Generator: Adobe Illustrator 19.0.0, SVG Export Plug-In . SVG Version: 6.00 Build 0)  -->
<svg version="1.1" id="Capa_1" xmlns="http://www.w3.org/2000/svg" xmlns:xlink="http://www.w3.org/1999/xlink" x="0px" y="0px"
	 viewBox="0 0 512 512" style="enable-background:new 0 0 512 512;" xml:space="preserve">
<g>
	<g>
		<g>
			<path d="M224,298.667H74.667c-17.646,0-32,14.354-32,32c0,17.646,14.354,32,32,32H224c17.646,0,32-14.354,32-32
				C256,313.021,241.646,298.667,224,298.667z M224,341.333H74.667c-5.875,0-10.667-4.781-10.667-10.667
				C64,324.781,68.792,320,74.667,320H224c5.875,0,10.667,4.781,10.667,10.667C234.667,336.552,229.875,341.333,224,341.333z"/>
			<path d="M501.333,64H448V53.333c0-5.896-4.771-10.667-10.667-10.667H384V32c0-5.896-4.771-10.667-10.667-10.667h-64
				c-5.896,0-10.667,4.771-10.667,10.667v10.667h-53.458c-5.896,0-10.667,4.771-10.667,10.667V128h-21.208v-10.667
				c0-5.896-4.771-10.667-10.667-10.667h-64c-5.896,0-10.667,4.771-10.667,10.667V128H74.667C68.771,128,64,132.771,64,138.667
				v10.667H10.667C4.771,149.333,0,154.104,0,160v149.333c0,24,7.292,66.469,21.042,88.208V448
				c0,23.531,19.146,42.667,42.688,42.667h149.417c23.521,0,42.667-19.135,42.667-42.667v-24.167
				c1.438-1.271,2.833-2.583,4.187-3.948c0.542-0.542,1.021-1.125,1.438-1.771c0.171-0.264,5.345-8.296,13.384-20.612
				c7.042,4.866,15.306,7.831,24.033,7.831h149.417c23.542,0,42.688-19.135,42.688-42.667v-50.458C504.708,290.469,512,248,512,224
				V74.667C512,68.771,507.229,64,501.333,64z M244.125,405.573c-1.292,1.26-2.625,2.469-4,3.615
				c-3.375,1.802-5.646,5.354-5.646,9.417V448c0,11.76-9.563,21.333-21.333,21.333H63.729c-11.771,0-21.354-9.573-21.354-21.333
				v-51.094c0.667-3.01,0-6.188-1.875-8.698c-10.792-14.375-19.167-54.198-19.167-78.875V170.667H64v10.667
				C64,187.229,68.771,192,74.667,192c5.896,0,10.667-4.771,10.667-10.667v-32H128v32c0,5.896,4.771,10.667,10.667,10.667
				c5.896,0,10.667-4.771,10.667-10.667V128H192v53.333c0,5.896,4.771,10.667,10.667,10.667c5.896,0,10.667-4.771,10.667-10.667v-32
				h42.792v117.333c0,4.802,3.208,9.021,7.854,10.292c4.646,1.24,9.563-0.729,12-4.865c0.125-0.219,10.917-18.396,22.417-33.938
				l36.188,32.823C299.313,320.25,250.313,396.01,244.125,405.573z M326.298,234.667h111.035c5.875,0,10.667,4.781,10.667,10.667
				c0,5.885-4.792,10.667-10.667,10.667h-87.52L326.298,234.667z M490.667,224c0,24.677-8.375,64.5-19.167,78.875
				c-1.75,2.344-2.375,5.302-1.875,8.135v51.656c0,11.76-9.583,21.333-21.354,21.333H298.854c-4.594,0-8.845-1.559-12.432-4.195
				c20.056-30.478,48.268-72.693,69.891-102.471h81.021c17.646,0,32-14.354,32-32c0-17.646-14.354-32-32-32H301.962
				c-1.749-0.893-3.647-1.474-5.65-1.438c-2.896,0.208-5.583,1.583-7.438,3.813c-3.833,4.594-7.729,9.792-11.417,14.979v-92.021
				c0-5.896-4.771-10.667-10.667-10.667h-10.917V64h42.792v32c0,5.896,4.771,10.667,10.667,10.667
				c5.896,0,10.667-4.771,10.667-10.667V42.667h42.667V96c0,5.896,4.771,10.667,10.667,10.667c5.896,0,10.667-4.771,10.667-10.667
				V64h42.667v32c0,5.896,4.771,10.667,10.667,10.667c5.896,0,10.667-4.771,10.667-10.667V85.333h42.667V224z"/>
		</g>
	</g>
</g>
<g>
</g>
<g>
</g>
<g>
</g>
<g>
</g>
<g>
</g>
<g>
</g>
<g>
</g>
<g>
</g>
<g>
</g>
<g>
</g>
<g>
</g>
<g>
</g>
<g>
</g>
<g>
</g>
<g>
</g>
</svg>
