<?xml version="1.0" encoding="iso-8859-1"?>
<!-- Generator: Adobe Illustrator 19.0.0, SVG Export Plug-In . SVG Version: 6.00 Build 0)  -->
<svg version="1.1" id="Capa_1" xmlns="http://www.w3.org/2000/svg" xmlns:xlink="http://www.w3.org/1999/xlink" x="0px" y="0px"
	 viewBox="0 0 512 512" style="enable-background:new 0 0 512 512;" xml:space="preserve">
<g>
	<g>
		<path d="M416,234.664c-5.871,0-11.563,0.719-17.145,1.733l-33.668-112.223l54.188-18.063c5.583-1.854,8.604-7.896,6.74-13.49
			c-1.865-5.583-7.865-8.594-13.49-6.74l-64,21.333c-5.469,1.823-8.5,7.656-6.844,13.177l15.081,50.271H198.594l-21.333-42.667
			h25.406c5.896,0,10.667-4.771,10.667-10.667c0-5.896-4.771-10.667-10.667-10.667h-64c-5.896,0-10.667,4.771-10.667,10.667
			c0,5.896,4.771,10.667,10.667,10.667h14.74l26.339,52.676l-41.339,64.303c-12.845-6.388-27.113-10.313-42.406-10.313
			c-52.938,0-96,43.063-96,96s43.063,96,96,96c49.285,0,89.536-37.465,94.922-85.333h35.043
			c4.418,12.389,16.147,21.333,30.035,21.333c17.646,0,32-14.354,32-32c0-6.391-1.93-12.319-5.169-17.32l84.121-109.048
			l11.424,38.082C344.095,257.043,320,291.078,320,330.664c0,52.938,43.063,96,96,96s96-43.063,96-96
			C512,277.727,468.938,234.664,416,234.664z M96,405.331c-41.167,0-74.667-33.5-74.667-74.667s33.5-74.667,74.667-74.667
			c11.046,0,21.451,2.564,30.893,6.888l-39.862,62.008c-2.115,3.281-2.26,7.458-0.396,10.885c1.875,3.417,5.458,5.552,9.365,5.552
			h73.589C164.357,377.419,133.514,405.331,96,405.331z M115.542,319.997l29.202-45.428c13.185,11.473,22.223,27.339,24.845,45.428
			H115.542z M225.965,319.997h-35.043c-2.876-25.573-15.652-47.943-34.617-63.414l34.534-53.721l49.921,99.841
			C233.913,306.452,228.618,312.556,225.965,319.997z M256,341.331c-5.885,0-10.667-4.781-10.667-10.667
			c0-5.885,4.781-10.667,10.667-10.667s10.667,4.781,10.667,10.667C266.667,336.55,261.885,341.331,256,341.331z M265.885,300.387
			c-0.954-0.313-1.885-0.673-2.878-0.896L209.26,191.997H349.5L265.885,300.387z M416,405.331c-41.167,0-74.667-33.5-74.667-74.667
			c0-29.919,17.803-55.605,43.276-67.508l21.172,70.57c1.385,4.625,5.625,7.604,10.219,7.604c1.01,0,2.042-0.146,3.063-0.448
			c5.646-1.698,8.844-7.646,7.156-13.281l-21.151-70.499c3.598-0.535,7.189-1.105,10.932-1.105c41.167,0,74.667,33.5,74.667,74.667
			C490.667,371.831,457.167,405.331,416,405.331z"/>
	</g>
</g>
<g>
</g>
<g>
</g>
<g>
</g>
<g>
</g>
<g>
</g>
<g>
</g>
<g>
</g>
<g>
</g>
<g>
</g>
<g>
</g>
<g>
</g>
<g>
</g>
<g>
</g>
<g>
</g>
<g>
</g>
</svg>
