<?xml version="1.0" encoding="iso-8859-1"?>
<!-- Generator: Adobe Illustrator 19.0.0, SVG Export Plug-In . SVG Version: 6.00 Build 0)  -->
<svg version="1.1" id="Capa_1" xmlns="http://www.w3.org/2000/svg" xmlns:xlink="http://www.w3.org/1999/xlink" x="0px" y="0px"
	 viewBox="0 0 512 512" style="enable-background:new 0 0 512 512;" xml:space="preserve">
<g>
	<g>
		<g>
			<path d="M64,213.333c-11.771,0-21.333,9.573-21.333,21.333C42.667,246.427,52.229,256,64,256s21.333-9.573,21.333-21.333
				C85.333,222.906,75.771,213.333,64,213.333z"/>
			<path d="M458.667,64c-29.417,0-53.333,23.927-53.333,53.333c0,3.865,0.417,7.698,1.271,11.458L274.75,187.406
				c-6.854,3.042-14.146,4.594-21.667,4.594H122.065c-7.404-12.691-21.014-21.333-36.732-21.333H42.667
				C19.146,170.667,0,189.802,0,213.333V256c0,23.531,19.146,42.667,42.667,42.667v138.667c0,5.896,4.771,10.667,10.667,10.667
				h149.333c3.083,0,6.042-1.344,8.063-3.677c2.021-2.333,2.938-5.438,2.5-8.5c-1.652-11.586-16.092-103.875-57.384-141.975
				l118.342-15.077c11.354-1.135,22.479-4.938,32.125-10.99l155.563-97.208c27.917-1.667,50.125-24.906,50.125-53.24
				C512,87.927,488.083,64,458.667,64z M190.083,426.667H64V288c0-5.896-4.771-10.667-10.667-10.667H42.667
				c-11.771,0-21.333-9.573-21.333-21.333v-42.667c0-11.76,9.563-21.333,21.333-21.333h42.667c11.771,0,21.333,9.573,21.333,21.333
				v50.271c0,16.281,9.333,31.229,23.75,38.083C163.438,317.354,182.958,388.625,190.083,426.667z M458.667,149.333
				c-2,0-3.958,0.563-5.646,1.625L295,249.698c-6.896,4.323-14.833,7.031-23.229,7.875l-140.1,17.842
				C129.379,272,128,267.934,128,263.604v-50.271h125.083c10.521,0,20.729-2.167,30.333-6.438l140.646-62.51
				c2.583-1.156,4.604-3.281,5.625-5.927c1.021-2.635,0.938-5.573-0.208-8.156c-1.875-4.188-2.813-8.552-2.813-12.969
				c0-17.646,14.354-32,32-32s32,14.354,32,32C490.667,134.979,476.313,149.333,458.667,149.333z"/>
		</g>
	</g>
</g>
<g>
</g>
<g>
</g>
<g>
</g>
<g>
</g>
<g>
</g>
<g>
</g>
<g>
</g>
<g>
</g>
<g>
</g>
<g>
</g>
<g>
</g>
<g>
</g>
<g>
</g>
<g>
</g>
<g>
</g>
</svg>
