<?xml version="1.0" encoding="iso-8859-1"?>
<!-- Generator: Adobe Illustrator 19.0.0, SVG Export Plug-In . SVG Version: 6.00 Build 0)  -->
<svg version="1.1" id="Capa_1" xmlns="http://www.w3.org/2000/svg" xmlns:xlink="http://www.w3.org/1999/xlink" x="0px" y="0px"
	 viewBox="0 0 512 512" style="enable-background:new 0 0 512 512;" xml:space="preserve">
<g>
	<g>
		<path d="M435.083,259.646C414.208,217.917,372.281,192,325.635,192h-16.302c-67.667,0.01-139.406-121.479-140.125-122.708
			C167.302,66.01,163.792,64,160,64V21.333C160,9.573,150.427,0,138.667,0h-21.333C105.573,0,96,9.573,96,21.333V64
			c-5.896,0-10.667,4.771-10.667,10.667v32.104c0,23.469,19.094,42.563,42.563,42.563c15.74,0,29.885,8.75,36.938,22.844
			l21.924,43.555c-33.449,13.544-58,29.96-72.331,41.049C87.917,251.51,63.99,272.563,64,298.667
			c0,23.531,19.135,42.667,42.667,42.667c18.906,0,35.281-12.385,40.708-30.094c6.947-3.962,15.272-8.044,25.118-11.944
			c-1.178,6.837-1.827,13.76-1.827,20.736V480c0,17.646,14.354,32,32,32c8.225,0,15.659-3.206,21.333-8.323
			c5.674,5.117,13.108,8.323,21.333,8.323c17.646,0,32-14.354,32-32v-42.667c0-5.896-4.771-10.667-10.667-10.667h-32V339.5
			c0-16.365,6.635-32.385,18.208-43.958c10.484-10.484,24.655-16.633,39.388-17.75c5.647-0.176,11.083-0.458,17.07-0.458h12.5
			c16.365,0,32.385,6.635,43.958,18.208C377.365,307.115,384,323.135,384,339.5v87.167h-32c-5.896,0-10.667,4.771-10.667,10.667V480
			c0,17.646,14.354,32,32,32c8.225,0,15.659-3.206,21.333-8.323C400.341,508.794,407.775,512,416,512c17.646,0,32-14.354,32-32
			V314.365C448,295.479,443.531,276.563,435.083,259.646z M384,480c0,5.885-4.781,10.667-10.667,10.667
			c-5.885,0-10.667-4.781-10.667-10.667v-32H384V480z M117.333,21.333h21.333V64h-21.333V21.333z M183.906,162.615
			C173.229,141.26,151.771,128,127.896,128c-11.708,0-21.229-9.521-21.229-21.229V85.333h42.667h4.656
			c11.633,18.771,52.697,81.068,102.639,111.275c-17.914,2.908-34.581,6.88-49.647,11.849L183.906,162.615z M256,448v32
			c0,5.885-4.781,10.667-10.667,10.667c-5.885,0-10.667-4.781-10.667-10.667v-32H256z M213.333,339.5v97.833V480
			c0,5.885-4.781,10.667-10.667,10.667c-5.885,0-10.667-4.781-10.667-10.667V320.031c0-9.746,1.654-19.328,4.422-28.663
			c11.587-3.322,24.678-6.238,39.452-8.565C221.638,298.142,213.333,318.536,213.333,339.5z M426.667,480
			c0,5.885-4.781,10.667-10.667,10.667c-5.885,0-10.667-4.781-10.667-10.667v-42.667V339.5c0-21.979-8.917-43.5-24.458-59.042
			C365.333,264.917,343.813,256,321.833,256h-25c-1.698,0-3.35,0.4-5.04,0.505c-81.837,2.544-131.691,22.005-159.23,38.693
			c-2.615,1.594-4.427,4.229-4.969,7.25C125.771,312.615,116.969,320,106.667,320c-11.76,0-21.333-9.573-21.333-21.333
			c0-11.76,9.573-21.333,21.333-21.333c2.083,0,4.281,0.406,6.74,1.24c3.438,1.177,7.292,0.49,10.156-1.813
			c23.5-19.073,88.625-63.427,185.771-63.427h16.302c38.51,0,73.135,21.406,90.365,55.854c6.979,13.958,10.667,29.583,10.667,45.177
			V480z"/>
	</g>
</g>
<g>
</g>
<g>
</g>
<g>
</g>
<g>
</g>
<g>
</g>
<g>
</g>
<g>
</g>
<g>
</g>
<g>
</g>
<g>
</g>
<g>
</g>
<g>
</g>
<g>
</g>
<g>
</g>
<g>
</g>
</svg>
