<?xml version="1.0" encoding="iso-8859-1"?>
<!-- Generator: Adobe Illustrator 19.0.0, SVG Export Plug-In . SVG Version: 6.00 Build 0)  -->
<svg version="1.1" id="Capa_1" xmlns="http://www.w3.org/2000/svg" xmlns:xlink="http://www.w3.org/1999/xlink" x="0px" y="0px"
	 viewBox="0 0 512 512" style="enable-background:new 0 0 512 512;" xml:space="preserve">
<g>
	<g>
		<g>
			<circle cx="341.333" cy="160" r="10.667"/>
			<circle cx="384" cy="160" r="10.667"/>
			<path d="M405.333,106.667c0-11.76-9.563-21.333-21.333-21.333h-42.667c-11.771,0-21.333,9.573-21.333,21.333v16.603
				c-12.689,7.401-21.333,21.008-21.333,36.73s8.645,29.329,21.333,36.73v16.603c0,11.76,9.563,21.333,21.333,21.333H384
				c11.771,0,21.333-9.573,21.333-21.333V196.73c12.689-7.401,21.333-21.008,21.333-36.73s-8.645-29.329-21.333-36.73V106.667z
				 M341.333,106.667H384v10.667h-42.667V106.667z M384,213.333h-42.667v-10.667H384V213.333z M384,181.333h-42.667
				C329.563,181.333,320,171.76,320,160s9.563-21.333,21.333-21.333H384c11.771,0,21.333,9.573,21.333,21.333
				S395.771,181.333,384,181.333z"/>
			<path d="M213.333,320c0-28.281,19.354-57.802,19.542-58.094c0.104-0.135,0.188-0.281,0.271-0.417
				c10.375-17.313,22.604-51.469,22.854-90.76c0.292-46.927-11.75-114.146-46.667-149.125C194.938,7.188,178.833,0.146,159.958,0
				C62.646,0.427,42.688,176.792,42.667,224c0,26.698,4.958,47.76,10.229,70.052C58.354,317.198,64,341.135,64,373.333
				c0,4.031-0.375,9.135-0.771,14.948c-2,28.708-5.021,72.094,20.896,99.896C98.875,503.979,120.813,512,149.333,512
				c85.333,0,85.333-64.188,85.333-106.667c0-25.146-6.771-40.26-12.75-53.594C217.125,341.031,213.333,332.573,213.333,320z
				 M160.042,21.333c0.083,0,0.146,0,0.208,0c12.396,0,23.813,5.156,33.979,15.344c1.947,1.949,3.746,4.38,5.585,6.685
				L180.896,33.26c-3.125-1.688-6.917-1.688-10.042,0l-34.896,18.646l-18.876-10.073C128.845,29.404,142.911,21.408,160.042,21.333z
				 M64,224c0.014-27.872,8.341-114.552,39.832-165.064l27.105,14.47c1.563,0.844,3.292,1.26,5.021,1.26
				c1.729,0,3.458-0.417,5.021-1.26l34.896-18.646l34.917,18.646c2.079,1.124,4.4,1.217,6.671,0.848
				c10.971,26.794,17.428,61.199,17.204,96.34c-0.229,34.833-10.729,64.667-19.708,79.729c-0.832,1.28-4.301,6.721-8.298,14.794
				l-1.535,0.643l-46.459-19.594c-2.667-1.104-5.625-1.115-8.291,0.01l-46.396,19.583l-38.078-16.048
				C64.807,241.525,64,233.122,64,224z M73.646,289.156c-1.142-4.848-2.256-9.629-3.315-14.419l29.503,12.43
				c1.333,0.552,2.729,0.833,4.146,0.833c1.417,0,2.813-0.281,4.146-0.844l46.396-19.583l43.587,18.383
				C194.652,296.358,192,308.077,192,320c0,1.565,0.247,2.88,0.332,4.361l-30.707-14.059c-2.833-1.292-6.083-1.292-8.875,0
				l-42.125,19.302l-31.279-14.313C77.564,306.298,75.638,297.589,73.646,289.156z M106.188,351.031
				c2.833,1.292,6.083,1.292,8.875,0l42.125-19.302l41.04,18.79c1.354,3.402,2.78,6.707,4.23,9.939
				c4.306,9.633,8.374,18.964,10.039,32.124l-2.039,0.96l-40.729-19.188c-2.875-1.354-6.208-1.354-9.083,0l-40.688,19.188
				l-34.751-16.363c0.044-1.288,0.126-2.704,0.126-3.845c0-12.052-0.88-22.671-2.057-32.786L106.188,351.031z M149.333,490.667
				c-22.375,0-39.063-5.74-49.604-17.042c-0.887-0.952-1.503-2.102-2.301-3.118l17.988,8.473c2.875,1.354,6.208,1.354,9.083,0
				l40.688-19.188l32.551,15.335C188.324,485.082,173.366,490.667,149.333,490.667z M208.254,456.503l-38.525-18.148
				c-2.875-1.354-6.208-1.354-9.083,0l-40.688,19.188l-34.609-16.296c-2.408-13.707-2.237-28.344-1.512-41.142l31.579,14.875
				c1.438,0.677,2.979,1.021,4.542,1.021s3.104-0.344,4.542-1.021l40.688-19.188l40.729,19.188c2.307,1.095,4.887,1.079,7.336,0.401
				C212.988,431.245,211.861,445.108,208.254,456.503z"/>
			<circle cx="170.667" cy="160" r="10.667"/>
			<circle cx="128" cy="160" r="10.667"/>
			<path d="M106.667,213.333c0,11.76,9.563,21.333,21.333,21.333h42.667c11.771,0,21.333-9.573,21.333-21.333V196.73
				c12.689-7.401,21.333-21.008,21.333-36.73s-8.645-29.329-21.333-36.73v-16.603c0-11.76-9.563-21.333-21.333-21.333H128
				c-11.771,0-21.333,9.573-21.333,21.333v16.603c-12.689,7.401-21.333,21.008-21.333,36.73s8.645,29.329,21.333,36.73V213.333z
				 M170.667,213.333H128v-10.667h42.667V213.333z M128,106.667h42.667v10.667H128V106.667z M128,138.667h42.667
				C182.438,138.667,192,148.24,192,160s-9.563,21.333-21.333,21.333H128c-11.771,0-21.333-9.573-21.333-21.333
				S116.229,138.667,128,138.667z"/>
			<path d="M469.333,224C469.313,176.792,449.354,0.427,352.042,0c-18.667,0.5-34.979,7.198-49.375,21.604
				C267.75,56.583,255.708,123.802,256,170.74c0.25,39.281,12.479,73.438,22.854,90.75c0.083,0.146,0.167,0.281,0.271,0.427
				c0.188,0.292,19.542,29.646,19.542,58.083c0,12.573-3.792,21.031-8.583,31.74c-5.979,13.333-12.75,28.448-12.75,53.594
				c0,42.479,0,106.667,85.333,106.667c28.521,0,50.458-8.021,65.208-23.823c25.917-27.802,22.896-71.188,20.896-99.896
				c-0.396-5.813-0.771-10.917-0.771-14.948c0-32.198,5.646-56.135,11.104-79.281C464.375,271.76,469.333,250.698,469.333,224z
				 M317.771,36.677c10.167-10.188,21.583-15.344,33.979-15.344c0.063,0,0.146,0,0.208,0c17.12,0.074,31.181,8.063,42.94,20.479
				l-19.003,10.104L340.792,33.25c-3.125-1.667-6.896-1.667-10.021,0L312.488,43C314.233,40.839,315.93,38.521,317.771,36.677z
				 M412.271,473.625c-10.542,11.302-27.229,17.042-49.604,17.042c-24.13,0-39.112-5.63-48.518-15.661l32.331-15.224l40.896,19.208
				c2.875,1.354,6.208,1.354,9.083,0l18.145-8.526C413.794,471.496,413.171,472.66,412.271,473.625z M426.655,441.221
				l-34.738,16.331l-40.896-19.208c-2.875-1.354-6.208-1.354-9.083,0l-38.246,18c-3.559-11.344-4.676-25.124-4.941-40.876
				c0.803,0.186,1.582,0.533,2.396,0.533c1.542,0,3.104-0.333,4.542-1.01l40.792-19.208l40.896,19.208
				c2.875,1.354,6.208,1.354,9.083,0l31.704-14.892C428.887,412.889,429.059,427.518,426.655,441.221z M426.667,373.333
				c0,1.135,0.081,2.548,0.125,3.829l-34.875,16.389l-40.896-19.208c-2.875-1.354-6.208-1.354-9.083,0l-40.792,19.198l-1.655-0.777
				c1.652-13.249,5.727-22.632,10.051-32.306c2.283-5.089,4.533-10.328,6.402-15.995l27.868-12.734l42.354,19.313
				c1.396,0.635,2.896,0.958,4.417,0.958c1.521,0,3.021-0.323,4.438-0.958l34.344-15.671
				C427.807,346.926,426.667,359.204,426.667,373.333z M438.354,289.156c-1.602,6.777-3.181,13.69-4.678,20.783l-43.092,19.665
				l-42.354-19.313c-2.792-1.271-6.021-1.281-8.854,0.01l-19.434,8.882c-0.117-11.698-2.694-23.181-6.096-33.382l43.301-18.229
				l46.625,19.594c1.313,0.552,2.729,0.833,4.125,0.833c1.396,0,2.813-0.281,4.125-0.833l29.655-12.462
				C440.615,279.507,439.499,284.298,438.354,289.156z M446.099,249.711l-38.203,16.049l-46.625-19.594
				c-2.646-1.115-5.625-1.094-8.271,0l-46.542,19.594l-1.021-0.43c-4.038-8.18-7.557-13.717-8.396-15.008
				c-8.979-15.063-19.479-44.896-19.708-79.719c-0.224-35.105,6.215-69.477,17.163-96.258c2.156,0.268,4.333,0.117,6.296-0.93
				l35-18.667l35.104,18.667c1.563,0.833,3.271,1.25,5,1.25c1.729,0,3.438-0.417,5-1.25l27.258-14.501
				C439.656,109.424,447.986,196.124,448,224C448,233.122,447.193,241.523,446.099,249.711z"/>
		</g>
	</g>
</g>
<g>
</g>
<g>
</g>
<g>
</g>
<g>
</g>
<g>
</g>
<g>
</g>
<g>
</g>
<g>
</g>
<g>
</g>
<g>
</g>
<g>
</g>
<g>
</g>
<g>
</g>
<g>
</g>
<g>
</g>
</svg>
