<?xml version="1.0" encoding="iso-8859-1"?>
<!-- Generator: Adobe Illustrator 19.0.0, SVG Export Plug-In . SVG Version: 6.00 Build 0)  -->
<svg version="1.1" id="Capa_1" xmlns="http://www.w3.org/2000/svg" xmlns:xlink="http://www.w3.org/1999/xlink" x="0px" y="0px"
	 viewBox="0 0 512 512" style="enable-background:new 0 0 512 512;" xml:space="preserve">
<g>
	<g>
		<path d="M426.667,74.667H294.691C290.109,68.363,281.956,64,272,64h-32c-9.956,0-18.108,4.363-22.69,10.667H85.333
			C38.281,74.667,0,112.948,0,160v42.667c0,41.167,33.5,74.667,74.667,74.667c17.646,0,32-14.354,32-32c0-17.646-14.354-32-32-32
			c-5.885,0-10.667-4.781-10.667-10.667V160c0-11.76,9.573-21.333,21.333-21.333h128.619c0.542,3.298,1.404,6.556,2.965,9.698
			L224,162.521v121.385c-32.208,12.958-53.333,43.677-53.333,78.76v74.667c0,5.896,4.771,10.667,10.667,10.667H224
			c5.896,0,10.667-4.771,10.667-10.667v-74.667c0-11.76,9.573-21.333,21.333-21.333s21.333,9.573,21.333,21.333v74.667
			c0,5.896,4.771,10.667,10.667,10.667h42.667c5.896,0,10.667-4.771,10.667-10.667v-74.667c0-35.083-21.125-65.802-53.333-78.76
			V162.521l7.083-14.167c1.56-3.134,2.423-6.391,2.965-9.688h128.619c11.76,0,21.333,9.573,21.333,21.333v42.667
			c0,5.885-4.781,10.667-10.667,10.667c-17.646,0-32,14.354-32,32c0,17.646,14.354,32,32,32c41.167,0,74.667-33.5,74.667-74.667V160
			C512,112.948,473.719,74.667,426.667,74.667z M213.333,117.333h-128c-23.531,0-42.667,19.135-42.667,42.667v42.667
			c0,17.646,14.354,32,32,32c5.885,0,10.667,4.781,10.667,10.667c0,5.885-4.781,10.667-10.667,10.667
			c-29.406,0-53.333-23.927-53.333-53.333V160c0-35.292,28.708-64,64-64h128V117.333z M320,362.667v64h-21.333v-64
			C298.667,339.135,279.531,320,256,320s-42.667,19.135-42.667,42.667v64H192v-64c0-28.281,18.375-52.781,45.729-60.979
			c4.51-1.354,7.604-5.51,7.604-10.219V160c0-1.656-0.385-3.292-1.125-4.771L236,138.833c-0.885-1.781-1.333-3.583-1.333-5.354
			l-0.469-46.49c0.448-0.521,2.531-1.656,5.802-1.656h32c3.24,0,5.323,1.135,5.333,0.031v48.115c0,1.771-0.448,3.573-1.333,5.344
			l-8.208,16.406c-0.74,1.479-1.125,3.115-1.125,4.771v131.469c0,4.708,3.094,8.865,7.604,10.219
			C301.625,309.885,320,334.385,320,362.667z M490.667,202.667c0,29.406-23.927,53.333-53.333,53.333
			c-5.885,0-10.667-4.781-10.667-10.667c0-5.885,4.781-10.667,10.667-10.667c17.646,0,32-14.354,32-32V160
			c0-23.531-19.135-42.667-42.667-42.667h-128V96h128c35.292,0,64,28.708,64,64V202.667z"/>
	</g>
</g>
<g>
</g>
<g>
</g>
<g>
</g>
<g>
</g>
<g>
</g>
<g>
</g>
<g>
</g>
<g>
</g>
<g>
</g>
<g>
</g>
<g>
</g>
<g>
</g>
<g>
</g>
<g>
</g>
<g>
</g>
</svg>
