<?xml version="1.0" encoding="iso-8859-1"?>
<!-- Generator: Adobe Illustrator 19.0.0, SVG Export Plug-In . SVG Version: 6.00 Build 0)  -->
<svg version="1.1" id="Capa_1" xmlns="http://www.w3.org/2000/svg" xmlns:xlink="http://www.w3.org/1999/xlink" x="0px" y="0px"
	 viewBox="0 0 512 512" style="enable-background:new 0 0 512 512;" xml:space="preserve">
<g>
	<g>
		<g>
			<path d="M506.688,274.822c0.063-1.083,0.979-3.229,1.792-5.125C510.042,266,512,261.385,512,256
				c0-5.396-1.958-10.01-3.521-13.708c-0.813-1.896-1.729-4.031-1.792-5.146c-0.104-1.146,0.5-3.438,1.021-5.458
				c1-3.875,2.25-8.688,1.458-13.938c-0.792-5.344-3.417-9.625-5.521-13.052c-1.083-1.75-2.292-3.74-2.521-4.76
				c-0.25-1.125-0.021-3.479,0.208-5.552c0.417-3.979,0.938-8.938-0.646-14.052c-1.583-5.146-4.792-8.969-7.396-12.042
				c-1.333-1.573-2.833-3.354-3.25-4.396c-0.396-1.052-0.521-3.406-0.604-5.49c-0.188-3.99-0.417-8.969-2.729-13.75
				c-2.333-4.865-6.104-8.156-9.125-10.813c-1.542-1.354-3.292-2.885-3.854-3.844c-0.563-0.979-1.021-3.292-1.417-5.323
				c-0.792-3.938-1.75-8.823-4.771-13.24c-3.021-4.438-7.208-7.135-10.583-9.302c-1.75-1.115-3.708-2.375-4.396-3.229
				c-0.708-0.875-1.5-3.083-2.188-5.042c-1.354-3.771-3.042-8.479-6.688-12.385c-3.625-3.948-8.167-5.979-11.833-7.615
				c-1.875-0.844-4.021-1.802-4.833-2.563c-0.813-0.771-1.938-2.833-2.917-4.667c-1.896-3.521-4.25-7.917-8.438-11.26
				c-4.188-3.354-8.979-4.698-12.854-5.771c-1.979-0.552-4.25-1.188-5.167-1.813c-0.917-0.625-2.313-2.5-3.563-4.156
				c-2.396-3.219-5.375-7.219-10.021-9.896c-4.625-2.698-9.563-3.302-13.542-3.792c-2.063-0.25-4.375-0.542-5.396-1.021
				c-0.979-0.49-2.646-2.125-4.104-3.563c-2.854-2.823-6.417-6.344-11.417-8.313c-5-1.958-9.979-1.802-13.958-1.708
				c-2.104,0.063-4.417,0.125-5.5-0.198c-1.042-0.323-2.917-1.698-4.583-2.906c-3.25-2.354-7.292-5.292-12.542-6.49
				c-5.229-1.208-10.104-0.313-14.042,0.406c-2.021,0.375-4.271,0.844-5.5,0.615c-1.063-0.156-3.125-1.229-4.958-2.167
				c-3.563-1.854-8-4.146-13.375-4.542c-5.25-0.396-9.979,1.198-13.771,2.49c-3.917,1.344-6.729,1.365-10.729,0
				c-3.792-1.271-8.375-2.813-13.792-2.49c-5.375,0.396-9.813,2.698-13.396,4.552c-1.813,0.938-3.875,2-4.938,2.156
				c-1.167,0.208-3.458-0.229-5.5-0.615c-3.896-0.719-8.813-1.583-14-0.417c-5.25,1.198-9.292,4.125-12.542,6.49
				c-1.667,1.208-3.563,2.573-4.604,2.896c-1.083,0.344-3.458,0.292-5.5,0.208c-4-0.156-8.979-0.26-13.917,1.698
				c-5.021,1.969-8.563,5.479-11.417,8.292c-1.479,1.448-3.125,3.083-4.146,3.583c-1.021,0.479-3.333,0.771-5.396,1.021
				c-3.958,0.49-8.896,1.094-13.521,3.781c-4.646,2.688-7.625,6.677-10.021,9.885c-1.25,1.656-2.646,3.542-3.563,4.156
				c-0.938,0.646-3.188,1.271-5.188,1.823c-3.833,1.073-8.625,2.406-12.833,5.76c-4.188,3.344-6.542,7.74-8.438,11.26
				c-0.979,1.823-2.083,3.896-2.917,4.667c-0.813,0.76-2.958,1.719-4.833,2.563c-3.667,1.635-8.208,3.667-11.813,7.594
				c-3.646,3.917-5.333,8.615-6.688,12.385c-0.708,1.948-1.5,4.167-2.229,5.052c-0.688,0.875-2.646,2.135-4.396,3.25
				c-3.375,2.156-7.563,4.854-10.583,9.281c-3.021,4.427-3.979,9.313-4.771,13.24c-0.396,2.042-0.854,4.344-1.438,5.333
				c-0.542,0.958-2.313,2.5-3.854,3.865c-3.021,2.635-6.771,5.927-9.104,10.771c-2.333,4.823-2.563,9.813-2.75,13.813
				c-0.083,2.083-0.188,4.427-0.604,5.469c-0.396,1.042-1.917,2.823-3.229,4.396c-2.604,3.073-5.813,6.885-7.396,12.01
				c-1.583,5.115-1.063,10.083-0.646,14.073c0.208,2.073,0.458,4.417,0.208,5.542c-0.25,1.063-1.479,3.052-2.542,4.802
				c-2.104,3.427-4.729,7.698-5.521,13.021C2.042,223,3.292,227.812,4.292,231.677c0.521,2.021,1.125,4.313,1.021,5.49
				c-0.063,1.083-0.979,3.24-1.792,5.125C1.958,246,0,250.604,0,256c0,5.385,1.958,9.99,3.521,13.698
				c0.813,1.885,1.729,4.042,1.792,5.156c0.104,1.146-0.5,3.438-1.021,5.458c-1,3.865-2.25,8.677-1.458,13.938
				c0.792,5.344,3.417,9.615,5.521,13.052c1.063,1.75,2.292,3.729,2.521,4.76c0.25,1.125,0.021,3.479-0.208,5.552
				c-0.417,3.979-0.938,8.938,0.646,14.052c1.583,5.146,4.792,8.969,7.396,12.031c1.333,1.573,2.833,3.365,3.229,4.385
				c0.417,1.063,0.542,3.427,0.625,5.5c0.188,4,0.417,8.969,2.729,13.76c2.333,4.854,6.083,8.156,9.104,10.802
				c1.563,1.354,3.313,2.896,3.875,3.854c0.563,0.979,1.021,3.292,1.417,5.323c0.792,3.938,1.75,8.823,4.771,13.24
				c3.021,4.438,7.208,7.125,10.583,9.292c1.729,1.115,3.708,2.375,4.396,3.24c0.708,0.875,1.5,3.083,2.188,5.042
				c1.354,3.771,3.042,8.469,6.688,12.385c3.625,3.948,8.167,5.979,11.833,7.615c1.875,0.844,4.021,1.802,4.833,2.573
				c0.833,0.76,1.938,2.833,2.917,4.656c1.896,3.521,4.25,7.917,8.438,11.271c4.188,3.333,8.979,4.677,12.833,5.75
				c1.979,0.552,4.25,1.188,5.188,1.823c0.917,0.635,2.313,2.51,3.563,4.167c2.396,3.208,5.375,7.198,10.021,9.885
				c4.625,2.698,9.563,3.302,13.542,3.792c2.042,0.25,4.375,0.531,5.396,1.031c1,0.479,2.646,2.115,4.104,3.552
				c2.854,2.823,6.417,6.344,11.417,8.313c4.958,1.958,9.938,1.813,13.958,1.698c2.083-0.063,4.417-0.135,5.5,0.208
				c1.042,0.323,2.917,1.698,4.583,2.906c3.25,2.354,7.292,5.292,12.542,6.49c5.188,1.188,10.083,0.292,14.042-0.417
				c2.042-0.375,4.333-0.771,5.479-0.615c1.083,0.156,3.146,1.229,4.979,2.177c3.563,1.844,8,4.135,13.375,4.542
				c0.563,0.042,1.104,0.063,1.667,0.063c4.625,0,8.729-1.406,12.104-2.563c3.958-1.354,6.771-1.354,10.729,0
				c3.771,1.292,8.583,2.896,13.792,2.5c5.375-0.406,9.833-2.708,13.396-4.552c1.813-0.948,3.875-2.01,4.917-2.167
				c1.188-0.156,3.458,0.25,5.5,0.625c3.917,0.708,8.833,1.583,14.021,0.417c5.25-1.198,9.292-4.125,12.542-6.49
				c1.667-1.208,3.563-2.573,4.625-2.906c1.042-0.323,3.375-0.271,5.479-0.208c3.958,0.146,8.958,0.271,13.917-1.688
				c5.021-1.969,8.583-5.49,11.438-8.313c1.458-1.438,3.125-3.083,4.125-3.573c1-0.479,3.333-0.76,5.375-1.01
				c3.979-0.49,8.917-1.094,13.542-3.781s7.625-6.688,10.021-9.896c1.25-1.656,2.646-3.521,3.563-4.146
				c0.917-0.635,3.188-1.271,5.167-1.823c3.854-1.073,8.646-2.417,12.854-5.771c4.188-3.344,6.542-7.74,8.438-11.26
				c0.979-1.833,2.104-3.896,2.917-4.656c0.813-0.76,2.938-1.708,4.813-2.552c3.667-1.635,8.229-3.677,11.854-7.615
				c3.625-3.917,5.313-8.604,6.667-12.365c0.708-1.958,1.5-4.167,2.229-5.073c0.688-0.875,2.667-2.135,4.396-3.25
				c3.375-2.156,7.563-4.844,10.583-9.271c3.021-4.427,3.979-9.313,4.771-13.25c0.396-2.031,0.854-4.344,1.438-5.333
				c0.542-0.948,2.313-2.49,3.854-3.854c3.021-2.635,6.771-5.927,9.104-10.771c2.333-4.823,2.563-9.813,2.75-13.813
				c0.083-2.083,0.188-4.427,0.604-5.469c0.396-1.031,1.896-2.823,3.229-4.396c2.604-3.073,5.833-6.896,7.396-12.021
				c1.583-5.115,1.063-10.083,0.646-14.063c-0.208-2.073-0.458-4.417-0.208-5.542c0.25-1.073,1.479-3.052,2.542-4.802
				c2.104-3.438,4.729-7.708,5.521-13.031c0.792-5.271-0.458-10.083-1.458-13.958C507.188,278.291,506.583,276,506.688,274.822z
				 M256,479.354c-123.521,0-224-100.49-224-224s100.479-224,224-224s224,100.49,224,224S379.521,479.354,256,479.354z"/>
			<path d="M256,52.687c-111.75,0-202.667,90.917-202.667,202.667S144.25,458.02,256,458.02s202.667-90.917,202.667-202.667
				S367.75,52.687,256,52.687z M376.266,120.015l-86.919,86.911l46.918-113.928C350.82,100.225,364.241,109.317,376.266,120.015z
				 M266.667,74.561c17.438,1.022,34.19,4.484,49.973,10.111l-49.973,121.345V74.561z M245.333,74.561v130.052L198.27,83.605
				C213.194,78.574,228.971,75.519,245.333,74.561z M178.52,91.654l45.281,116.424l-88.061-88.068
				C148.525,108.638,162.897,99.082,178.52,91.654z M120.656,135.095l88.044,88.051L92.297,177.878
				C99.724,162.253,109.283,147.881,120.656,135.095z M84.246,197.636l120.99,47.051H75.207
				C76.165,228.33,79.217,212.555,84.246,197.636z M75.207,266.02h130.02L84.247,313.074
				C79.219,298.154,76.165,282.378,75.207,266.02z M92.298,332.832l116.418-45.279l-88.064,88.056
				C109.28,362.825,99.724,348.454,92.298,332.832z M135.734,390.692l88.053-88.044l-45.266,116.406
				C162.897,411.627,148.522,402.069,135.734,390.692z M245.333,436.147c-16.361-0.958-32.137-4.012-47.06-9.043l47.06-121.025
				V436.147z M256,266.02c-5.875,0-10.667-4.781-10.667-10.667c0-5.885,4.792-10.667,10.667-10.667s10.667,4.781,10.667,10.667
				C266.667,261.239,261.875,266.02,256,266.02z M266.667,436.147V306.096l47.047,121.013
				C298.794,432.138,283.022,435.188,266.667,436.147z M333.465,419.061l-45.267-116.434l88.063,88.069
				C363.47,402.075,349.094,411.634,333.465,419.061z M391.344,375.613l-88.051-88.057l116.41,45.273
				C412.276,348.454,402.717,362.826,391.344,375.613z M427.754,313.071L306.775,266.02h130.018
				C435.835,282.377,432.783,298.152,427.754,313.071z M436.793,244.687H306.762l120.991-47.053
				C432.781,212.554,435.835,228.329,436.793,244.687z M303.292,223.148l88.056-88.049c11.372,12.784,20.928,27.155,28.354,42.777
				L303.292,223.148z"/>
		</g>
	</g>
</g>
<g>
</g>
<g>
</g>
<g>
</g>
<g>
</g>
<g>
</g>
<g>
</g>
<g>
</g>
<g>
</g>
<g>
</g>
<g>
</g>
<g>
</g>
<g>
</g>
<g>
</g>
<g>
</g>
<g>
</g>
</svg>
