<?xml version="1.0" encoding="iso-8859-1"?>
<!-- Generator: Adobe Illustrator 19.0.0, SVG Export Plug-In . SVG Version: 6.00 Build 0)  -->
<svg version="1.1" id="Capa_1" xmlns="http://www.w3.org/2000/svg" xmlns:xlink="http://www.w3.org/1999/xlink" x="0px" y="0px"
	 viewBox="0 0 512 512" style="enable-background:new 0 0 512 512;" xml:space="preserve">
<g>
	<g>
		<path d="M490.667,234.667V224c0-5.896-4.771-10.667-10.667-10.667h-32c0-23.531-19.146-42.667-42.667-42.667v-32
			c0-17.646-14.354-32-32-32c-17.646,0-32,14.354-32,32v14.74l-30.021,15.01c-2.938,1.469-6.25,2.25-9.542,2.25h-91.542
			c-3.292,0-6.604-0.781-9.542-2.25l-30.021-15.01v-14.74c0-17.646-14.354-32-32-32c-17.646,0-32,14.354-32,32v32
			C83.146,170.667,64,189.802,64,213.333H32c-5.896,0-10.667,4.771-10.667,10.667v10.667C9.563,234.667,0,244.24,0,256
			c0,11.76,9.563,21.333,21.333,21.333V288c0,5.896,4.771,10.667,10.667,10.667h32c0,23.531,19.146,42.667,42.667,42.667v32
			c0,17.646,14.354,32,32,32c17.646,0,32-14.354,32-32v-14.74l30.021-15.01c2.938-1.469,6.25-2.25,9.542-2.25h91.542
			c3.292,0,6.604,0.781,9.542,2.25l30.021,15.01v14.74c0,17.646,14.354,32,32,32c17.646,0,32-14.354,32-32v-32
			c23.521,0,42.667-19.135,42.667-42.667h32c5.896,0,10.667-4.771,10.667-10.667v-10.667C502.438,277.333,512,267.76,512,256
			C512,244.24,502.438,234.667,490.667,234.667z M64,277.333H42.667v-42.667H64V277.333z M106.667,320
			c-11.771,0-21.333-9.573-21.333-21.333v-85.333c0-11.76,9.563-21.333,21.333-21.333V320z M149.333,373.333
			c0,5.885-4.792,10.667-10.667,10.667S128,379.219,128,373.333V138.667c0-5.885,4.792-10.667,10.667-10.667
			s10.667,4.781,10.667,10.667V373.333z M341.333,334.74l-20.479-10.24c-5.896-2.948-12.479-4.5-19.083-4.5h-91.542
			c-6.604,0-13.188,1.552-19.083,4.5l-20.479,10.24V177.26l20.479,10.24c5.896,2.948,12.479,4.5,19.083,4.5h91.542
			c6.604,0,13.188-1.552,19.083-4.5l20.479-10.24V334.74z M384,373.333c0,5.885-4.792,10.667-10.667,10.667
			s-10.667-4.781-10.667-10.667V138.667c0-5.885,4.792-10.667,10.667-10.667S384,132.781,384,138.667V373.333z M426.667,298.667
			c0,11.76-9.563,21.333-21.333,21.333V192c11.771,0,21.333,9.573,21.333,21.333V298.667z M469.333,277.333H448v-42.667h21.333
			V277.333z"/>
	</g>
</g>
<g>
</g>
<g>
</g>
<g>
</g>
<g>
</g>
<g>
</g>
<g>
</g>
<g>
</g>
<g>
</g>
<g>
</g>
<g>
</g>
<g>
</g>
<g>
</g>
<g>
</g>
<g>
</g>
<g>
</g>
</svg>
