<?xml version="1.0" encoding="iso-8859-1"?>
<!-- Generator: Adobe Illustrator 19.0.0, SVG Export Plug-In . SVG Version: 6.00 Build 0)  -->
<svg version="1.1" id="Capa_1" xmlns="http://www.w3.org/2000/svg" xmlns:xlink="http://www.w3.org/1999/xlink" x="0px" y="0px"
	 viewBox="0 0 512 512" style="enable-background:new 0 0 512 512;" xml:space="preserve">
<g>
	<g>
		<g>
			<path d="M504.708,171.219l-64-21.333c-3.292-1.115-6.833-0.542-9.604,1.458c-2.792,2.01-4.438,5.229-4.438,8.656v10.667h-21.333
				c0-23.531-19.146-42.667-42.667-42.667h-1.965c-4.418-12.389-16.147-21.333-30.035-21.333c-13.888,0-25.617,8.944-30.035,21.333
				h-67.93c-4.418-12.389-16.147-21.333-30.035-21.333c-13.888,0-25.617,8.944-30.035,21.333h-1.965
				C147.146,128,128,147.135,128,170.667v10.667H70.587c-7.504-6.556-17.199-10.667-27.921-10.667
				C19.146,170.667,0,189.802,0,213.333c0,0.396,0.021,0.792,0.063,1.177l8.792,79.135c1.438,12.938,6.333,25.271,14.125,35.698
				l9.354,12.469c6.667,8.865,10.333,19.854,10.333,30.927v21.927c0,5.896,4.771,10.667,10.667,10.667h21.333
				c4.583,0,8.667-2.938,10.125-7.292l11.021-33.073c7.563-22.698,3.5-47.656-10.833-66.771
				c-6.646-8.875-10.313-19.865-10.313-30.938v-21.927H128V256c0,23.531,19.146,42.667,42.667,42.667h1.965
				C177.049,311.056,188.779,320,202.667,320c13.888,0,25.617-8.944,30.035-21.333h67.93C305.049,311.056,316.779,320,330.667,320
				c13.888,0,25.617-8.944,30.035-21.333h1.965c23.521,0,42.667-19.135,42.667-42.667h21.333v10.667
				c0,3.427,1.646,6.646,4.438,8.656c1.833,1.323,4.021,2.01,6.229,2.01c1.125,0,2.271-0.177,3.375-0.552l64-21.333
				C509.063,254,512,249.927,512,245.333v-64C512,176.74,509.063,172.667,504.708,171.219z M75.563,358.219L66.979,384H64v-11.26
				c0-15.667-5.188-31.198-14.583-43.74l-9.354-12.458c-5.521-7.375-8.979-16.104-10-25.25l-8.729-78.49
				C21.625,201.281,31.083,192,42.667,192C54.438,192,64,201.573,64,213.333c0,6.021-2.542,11.625-7.146,15.781
				c-2.25,2.021-3.521,4.896-3.521,7.917v30.229c0,15.646,5.167,31.177,14.563,43.74C78.063,324.521,80.917,342.167,75.563,358.219z
				 M128,224H83.775c0.919-3.475,1.559-7.027,1.559-10.667c0-3.704-0.622-7.237-1.514-10.667H128V224z M170.667,277.333
				c-11.771,0-21.333-9.573-21.333-21.333v-85.333c0-11.76,9.563-21.333,21.333-21.333V277.333z M213.333,288
				c0,5.885-4.792,10.667-10.667,10.667S192,293.885,192,288V138.667c0-5.885,4.792-10.667,10.667-10.667
				s10.667,4.781,10.667,10.667V288z M298.667,277.333h-64v-128h64V277.333z M341.333,288c0,5.885-4.792,10.667-10.667,10.667
				S320,293.885,320,288V138.667c0-5.885,4.792-10.667,10.667-10.667s10.667,4.781,10.667,10.667V288z M384,256
				c0,11.76-9.563,21.333-21.333,21.333v-128c11.771,0,21.333,9.573,21.333,21.333V256z M426.667,234.667h-21.333V192h21.333
				V234.667z M490.667,237.646L448,251.865v-77.063l42.667,14.219V237.646z"/>
			<circle cx="42.667" cy="213.333" r="10.667"/>
		</g>
	</g>
</g>
<g>
</g>
<g>
</g>
<g>
</g>
<g>
</g>
<g>
</g>
<g>
</g>
<g>
</g>
<g>
</g>
<g>
</g>
<g>
</g>
<g>
</g>
<g>
</g>
<g>
</g>
<g>
</g>
<g>
</g>
</svg>
