<?xml version="1.0" encoding="iso-8859-1"?>
<!-- Generator: Adobe Illustrator 19.0.0, SVG Export Plug-In . SVG Version: 6.00 Build 0)  -->
<svg version="1.1" id="Capa_1" xmlns="http://www.w3.org/2000/svg" xmlns:xlink="http://www.w3.org/1999/xlink" x="0px" y="0px"
	 viewBox="0 0 512 512" style="enable-background:new 0 0 512 512;" xml:space="preserve">
<g>
	<g>
		<g>
			<path d="M213.333,256c0,23.531,19.135,42.667,42.667,42.667s42.667-19.135,42.667-42.667S279.531,213.333,256,213.333
				S213.333,232.469,213.333,256z M277.333,256c0,11.76-9.573,21.333-21.333,21.333S234.667,267.76,234.667,256
				s9.573-21.333,21.333-21.333S277.333,244.24,277.333,256z"/>
			<path d="M511.646,247.892l-0.24-3.897c-0.167-3.605-2.135-6.876-5.24-8.699c-16.188-9.543-18.146-14.732-18.354-16.086
				c-0.229-1.438,0.031-7.199,12.49-21.181c2.406-2.688,3.281-6.428,2.333-9.918c-2.094-7.616-4.542-15.086-7.302-22.41
				c-1.271-3.376-4.167-5.876-7.688-6.647c-18.365-4.042-21.865-8.418-22.5-9.668c-0.646-1.261-2.156-6.72,5.417-24.181
				c1.427-3.303,1.094-7.116-0.896-10.127c-4.302-6.512-8.917-12.794-13.781-18.878c-2.271-2.813-5.781-4.251-9.365-3.949
				c-18.917,1.834-23.594-1.271-24.583-2.25c-0.99-0.99-4.083-5.688-2.25-24.588c0.354-3.594-1.135-7.105-3.948-9.366
				c-6.094-4.865-12.365-9.481-18.885-13.794c-3.01-2-6.823-2.323-10.115-0.875c-17.458,7.564-22.938,6.043-24.177,5.407
				c-1.24-0.635-5.625-4.147-9.667-22.514c-0.771-3.521-3.281-6.418-6.656-7.689c-7.333-2.761-14.792-5.209-22.406-7.303
				c-3.531-0.938-7.24-0.083-9.917,2.334c-14.031,12.502-19.667,12.815-21.177,12.492c-1.354-0.208-6.542-2.167-16.083-18.357
				c-1.823-3.105-5.094-5.074-8.698-5.24l-3.896-0.24c-5.354-0.354-10.771-0.354-16.125,0l-3.896,0.24
				c-3.604,0.167-6.875,2.136-8.698,5.24c-9.542,16.19-14.729,18.149-16.083,18.357c-1.406,0.292-7.146,0.01-21.177-12.492
				c-2.688-2.417-6.417-3.271-9.917-2.334c-7.625,2.094-15.094,4.532-22.417,7.303c-3.365,1.281-5.865,4.167-6.635,7.689
				c-4.042,18.368-8.417,21.868-9.667,22.504c-1.25,0.646-6.719,2.167-24.177-5.418c-3.302-1.427-7.135-1.104-10.125,0.896
				c-6.51,4.303-12.792,8.918-18.875,13.784c-2.813,2.261-4.302,5.772-3.948,9.366c1.833,18.889-1.26,23.598-2.25,24.588
				c-1,0.99-5.698,4.084-24.583,2.25c-3.583-0.385-7.104,1.136-9.365,3.949c-4.865,6.095-9.479,12.367-13.792,18.889
				c-1.979,3.011-2.313,6.814-0.875,10.116c7.563,17.461,6.052,22.921,5.406,24.192c-0.635,1.24-4.135,5.616-22.51,9.658
				c-3.521,0.771-6.417,3.282-7.688,6.657c-2.76,7.335-5.208,14.794-7.302,22.41c-0.948,3.49-0.073,7.23,2.333,9.929
				c12.479,13.982,12.719,19.743,12.49,21.17c-0.208,1.354-2.167,6.543-18.354,16.086c-3.104,1.823-5.073,5.095-5.24,8.699
				l-0.24,3.897C0.177,250.569,0,253.237,0,255.956c0,2.719,0.177,5.386,0.354,8.064l0.24,3.897c0.167,3.605,2.135,6.876,5.24,8.699
				c16.188,9.543,18.146,14.732,18.354,16.086c0.229,1.427-0.01,7.178-12.49,21.181c-2.406,2.688-3.281,6.428-2.333,9.918
				c2.094,7.616,4.542,15.086,7.302,22.41c1.271,3.376,4.167,5.876,7.688,6.647c18.365,4.042,21.865,8.418,22.5,9.668
				c0.646,1.261,2.156,6.72-5.406,24.171c-1.438,3.303-1.104,7.105,0.875,10.116c4.313,6.522,8.927,12.804,13.792,18.899
				c2.26,2.813,5.781,4.261,9.365,3.949c18.906-1.854,23.594,1.261,24.583,2.25s4.083,5.688,2.25,24.588
				c-0.354,3.594,1.135,7.105,3.948,9.366c6.094,4.865,12.365,9.481,18.885,13.794c2.99,1.969,6.802,2.313,10.115,0.875
				c17.49-7.574,22.906-6.064,24.188-5.407c1.24,0.635,5.615,4.136,9.656,22.514c0.771,3.521,3.281,6.418,6.656,7.689
				c7.333,2.761,14.792,5.209,22.406,7.303c3.5,0.938,7.229,0.073,9.927-2.334c14.01-12.481,19.698-12.815,21.167-12.492
				c1.354,0.208,6.542,2.167,16.083,18.357c1.823,3.105,5.094,5.074,8.698,5.24l3.896,0.24c2.677,0.177,5.344,0.354,8.063,0.354
				s5.385-0.177,8.063-0.354l3.896-0.24c3.604-0.167,6.875-2.136,8.698-5.24c9.542-16.19,14.729-18.149,16.083-18.357
				c1.375-0.271,7.156,0,21.177,12.492c2.677,2.407,6.385,3.271,9.917,2.334c7.615-2.094,15.083-4.542,22.406-7.303
				c3.375-1.271,5.875-4.167,6.646-7.689c4.042-18.368,8.417-21.868,9.667-22.504c1.25-0.646,6.708-2.157,24.177,5.418
				c3.271,1.417,7.115,1.094,10.125-0.896c6.51-4.303,12.792-8.918,18.875-13.784c2.813-2.261,4.302-5.772,3.948-9.366
				c-1.833-18.899,1.26-23.598,2.25-24.588c0.99-0.99,5.667-4.084,24.583-2.25c3.5,0.313,7.104-1.146,9.365-3.949
				c4.865-6.095,9.479-12.367,13.792-18.889c1.979-3.011,2.313-6.814,0.875-10.116c-7.563-17.461-6.052-22.921-5.406-24.192
				c0.635-1.24,4.135-5.616,22.51-9.658c3.521-0.771,6.417-3.282,7.688-6.657c2.76-7.335,5.208-14.794,7.302-22.41
				c0.948-3.49,0.073-7.23-2.333-9.929c-12.479-13.982-12.719-19.743-12.49-21.17c0.208-1.354,2.167-6.543,18.354-16.086
				c3.104-1.823,5.073-5.095,5.24-8.699l0.24-3.897c0.177-2.678,0.354-5.345,0.354-8.064
				C512,253.237,511.823,250.569,511.646,247.892z M490.448,261.26c-10.813,6.896-21.802,16.042-23.719,28.167
				c-1.927,12.302,5.625,24.344,13.771,34.177c-1,3.313-2.063,6.583-3.208,9.823c-12.385,3.198-25.583,8.5-31.156,19.427
				c-5.604,10.979-2.135,24.885,2.573,36.896c-1.948,2.792-3.969,5.531-6.031,8.229c-12.854-0.802-27.146,0.167-35.833,8.875
				c-8.698,8.698-9.656,22.979-8.875,35.833c-2.698,2.063-5.448,4.083-8.24,6.031c-12.01-4.708-25.906-8.198-36.875-2.573
				c-10.938,5.573-16.24,18.771-19.438,31.156c-3.24,1.135-6.51,2.198-9.813,3.198c-9.854-8.146-21.979-15.667-34.177-13.771
				c-12.125,1.917-21.271,12.906-28.167,23.719c-3.479,0.229-7.042,0.229-10.521,0c-6.896-10.813-16.042-21.802-28.167-23.719
				c-12.271-1.875-24.333,5.625-34.177,13.771c-3.313-1-6.583-2.063-9.823-3.208c-3.198-12.385-8.5-25.573-19.427-31.156
				c-11.01-5.625-24.896-2.125-36.896,2.573c-2.792-1.948-5.531-3.969-8.229-6.031c0.781-12.854-0.177-27.135-8.885-35.844
				c-8.688-8.667-22.938-9.656-35.823-8.865c-2.063-2.698-4.083-5.448-6.031-8.24c4.708-12,8.177-25.906,2.573-36.875
				c-5.573-10.938-18.771-16.24-31.156-19.438c-1.135-3.24-2.198-6.51-3.198-9.813c8.146-9.844,15.698-21.885,13.771-34.177
				c-1.917-12.125-12.906-21.271-23.719-28.167c-0.115-1.74-0.219-3.49-0.219-5.26s0.104-3.521,0.219-5.26
				c10.813-6.896,21.802-16.042,23.719-28.167c1.927-12.302-5.625-24.344-13.771-34.177c1-3.313,2.063-6.583,3.208-9.823
				c12.385-3.198,25.583-8.5,31.156-19.427c5.604-10.979,2.135-24.885-2.573-36.896c1.948-2.792,3.969-5.531,6.031-8.229
				c12.792,0.771,27.125-0.177,35.844-8.885c8.688-8.698,9.646-22.979,8.865-35.823c2.698-2.063,5.448-4.083,8.24-6.031
				c12.01,4.708,25.906,8.177,36.875,2.573c10.938-5.583,16.24-18.771,19.438-31.156c3.24-1.135,6.51-2.208,9.813-3.198
				c9.854,8.146,21.979,15.573,34.177,13.771c12.125-1.917,21.271-12.906,28.167-23.719c3.479-0.229,7.042-0.229,10.521,0
				c6.896,10.812,16.042,21.802,28.167,23.719c12.323,1.823,24.333-5.625,34.177-13.771c3.302,1,6.583,2.062,9.823,3.208
				c3.198,12.375,8.5,25.563,19.427,31.156c10.969,5.604,24.875,2.125,36.896-2.573c2.792,1.948,5.531,3.969,8.229,6.031
				c-0.781,12.854,0.177,27.135,8.885,35.844c8.698,8.677,22.969,9.646,35.823,8.865c2.063,2.698,4.083,5.448,6.031,8.24
				c-4.698,12-8.177,25.906-2.573,36.875c5.573,10.938,18.771,16.24,31.156,19.438c1.135,3.24,2.198,6.51,3.198,9.813
				c-8.146,9.844-15.698,21.885-13.771,34.177c1.917,12.125,12.906,21.271,23.719,28.167c0.115,1.74,0.219,3.49,0.219,5.26
				S490.563,259.521,490.448,261.26z"/>
			<path d="M408.844,151.094C357.365,159.813,320,203.927,320,256c0,52.063,37.365,96.188,88.833,104.906
				c0.594,0.094,1.188,0.146,1.781,0.146c3.667,0,7.135-1.896,9.094-5.094C438.219,325.719,448,291.156,448,256
				c0-35.146-9.781-69.708-28.271-99.948C417.448,152.344,413.188,150.375,408.844,151.094z M405.281,338.354
				c-37.458-9.615-63.948-43.167-63.948-82.354s26.49-72.74,63.958-82.354c14.01,25.292,21.375,53.615,21.375,82.354
				C426.667,284.75,419.292,313.063,405.281,338.354z"/>
			<path d="M256,192c47.052,0,85.333-38.281,85.333-85.333c0-6.135-0.76-12.406-2.323-19.177c-0.76-3.281-3.031-6.01-6.115-7.365
				C284,58.729,228,58.729,179.104,80.125c-3.083,1.354-5.354,4.083-6.115,7.365c-1.563,6.771-2.323,13.042-2.323,19.177
				C170.667,153.719,208.948,192,256,192z M192.75,97.531c40.438-16.188,86.063-16.188,126.5,0c0.5,3.188,0.75,6.208,0.75,9.135
				c0,35.292-28.708,64-64,64s-64-28.708-64-64C192,103.74,192.25,100.719,192.75,97.531z"/>
			<path d="M103.156,151.094c-4.323-0.656-8.604,1.229-10.885,4.958C73.781,186.292,64,220.854,64,256
				c0,35.156,9.781,69.719,28.292,99.958c1.958,3.198,5.417,5.094,9.094,5.094c0.583,0,1.188-0.052,1.781-0.146
				C154.635,352.188,192,308.063,192,256C192,203.927,154.635,159.813,103.156,151.094z M106.719,338.354
				C92.708,313.063,85.333,284.75,85.333,256c0-28.74,7.365-57.063,21.375-82.354c37.469,9.615,63.958,43.167,63.958,82.354
				S144.177,328.74,106.719,338.354z"/>
			<path d="M256,320c-47.052,0-85.333,38.281-85.333,85.333c0,6.135,0.76,12.406,2.323,19.177c0.76,3.281,3.031,6.01,6.115,7.365
				C203.552,442.573,229.417,448,256,448s52.448-5.427,76.896-16.125c3.083-1.354,5.354-4.083,6.115-7.365
				c1.563-6.771,2.323-13.042,2.323-19.177C341.333,358.281,303.052,320,256,320z M319.25,414.469
				c-40.438,16.188-86.063,16.188-126.5,0c-0.5-3.188-0.75-6.208-0.75-9.135c0-35.292,28.708-64,64-64s64,28.708,64,64
				C320,408.26,319.75,411.281,319.25,414.469z"/>
		</g>
	</g>
</g>
<g>
</g>
<g>
</g>
<g>
</g>
<g>
</g>
<g>
</g>
<g>
</g>
<g>
</g>
<g>
</g>
<g>
</g>
<g>
</g>
<g>
</g>
<g>
</g>
<g>
</g>
<g>
</g>
<g>
</g>
</svg>
