<?xml version="1.0" encoding="iso-8859-1"?>
<!-- Generator: Adobe Illustrator 19.0.0, SVG Export Plug-In . SVG Version: 6.00 Build 0)  -->
<svg version="1.1" id="Capa_1" xmlns="http://www.w3.org/2000/svg" xmlns:xlink="http://www.w3.org/1999/xlink" x="0px" y="0px"
	 viewBox="0 0 512 512" style="enable-background:new 0 0 512 512;" xml:space="preserve">
<g>
	<g>
		<g>
			<path d="M437.333,64H352c-5.896,0-10.667,4.771-10.667,10.667v11.27c-39.905,1.483-79.689,10.839-115.667,28.053l-17.246,8.247
				L106.667,88.313V53.333C106.667,23.927,82.75,0,53.333,0C23.917,0,0,23.927,0,53.333v23.479c0,42.427,7.979,83.896,23.75,123.24
				C37.333,234.042,69.771,256,106.354,256c8.271,0,16.5-1.146,24.458-3.417l123.521-35.292c24.375-6.979,51.438-4.49,74.188,6.896
				l12.813,6.406v13.01l-12.283,36.853l-5.176-5.176c-3.479-3.49-8.854-4.104-13.042-1.604l-18.042,10.833l-5.104-20.438
				c-1.188-4.74-5.458-8.073-10.354-8.073h-42.667c-4.896,0-9.167,3.333-10.354,8.073l-5.104,20.438l-18.042-10.833
				c-4.188-2.5-9.563-1.865-13.042,1.604l-30.167,30.167c-3.458,3.458-4.125,8.833-1.604,13.031l10.833,18.063l-20.438,5.115
				c-4.75,1.188-8.083,5.448-8.083,10.344v42.667c0,4.896,3.333,9.156,8.083,10.344l13.495,3.376
				c-6.962,12.72-10.911,27.115-10.911,42.092v8.188c0,4.042,2.292,7.729,5.896,9.542l85.333,42.667
				c1.5,0.75,3.146,1.125,4.771,1.125s3.271-0.375,4.771-1.125c20.552-10.276,35.569-27.751,43.092-48.473l17.637,10.587
				c1.708,1.021,3.604,1.521,5.5,1.521c2.75,0,5.479-1.073,7.542-3.125l30.167-30.167c3.458-3.458,4.125-8.833,1.604-13.031
				l-10.833-18.063l20.438-5.115c4.75-1.188,8.083-5.448,8.083-10.344V352c0-0.428-0.159-0.811-0.208-1.228l25.5-10.199
				c2.438-0.969,4.417-2.802,5.583-5.135l39.875-79.74C482.104,252.281,512,220.229,512,181.333v-42.667
				C512,97.5,478.5,64,437.333,64z M43.542,192.125C28.813,155.313,21.333,116.51,21.333,76.813V53.333c0-17.646,14.354-32,32-32
				c17.646,0,32,14.354,32,32V96c0,4.594,2.938,8.667,7.292,10.115l88.098,29.369L47.095,199.388
				C45.815,197.034,44.556,194.663,43.542,192.125z M338.063,205.104c-27.458-13.729-60.104-16.74-89.604-8.333l-123.521,35.292
				c-6.042,1.729-12.292,2.604-18.583,2.604c-17.505,0-33.747-6.633-45.97-17.979l174.491-83.448
				c33.124-15.85,69.723-24.499,106.458-25.97v31.874c-40.034,1.168-79.37,8.57-117,22.669l-25.417,9.531
				c-5.521,2.073-8.313,8.219-6.229,13.74c1.604,4.281,5.667,6.917,9.979,6.917c1.25,0,2.521-0.219,3.75-0.677l25.417-9.531
				c35.215-13.203,72.029-20.154,109.5-21.315v46.263L338.063,205.104z M160,386.344v-26.021l18.313-4.583
				c3.479-0.865,6.292-3.417,7.479-6.792c0.958-2.74,2-5.417,3.271-8.01c1.563-3.25,1.396-7.063-0.458-10.156l-9.667-16.135
				l18.375-18.385l16.125,9.677c3.104,1.854,6.917,2.021,10.167,0.448c2.583-1.26,5.25-2.302,7.979-3.25
				c3.396-1.188,5.958-4,6.833-7.479L243,277.333h26l4.583,18.323c0.875,3.479,3.438,6.292,6.833,7.479
				c2.729,0.948,5.396,1.99,7.979,3.25c3.25,1.563,7.063,1.406,10.167-0.448l16.125-9.677l6.28,6.29l-126.842,71.355
				c-7.641,4.298-14.383,9.734-20.281,15.902L160,386.344z M352,386.344l-18.313,4.583c-3.479,0.865-6.292,3.417-7.479,6.792
				c-0.958,2.74-2,5.417-3.271,8.01c-1.563,3.25-1.396,7.063,0.458,10.156l9.667,16.135l-18.375,18.385l-16.125-9.677
				c-0.146-0.086-0.322-0.061-0.47-0.141c0.256-2.749,0.574-5.484,0.574-8.286v-51.75l51.628-20.648l1.706,0.43V386.344z
				 M490.667,181.333c0,29.406-23.917,53.333-53.333,53.333c-4.042,0-7.729,2.281-9.542,5.896l-40.854,81.708l-102.896,41.156
				c-4.063,1.625-6.708,5.542-6.708,9.906v58.969c0,23.615-12.229,45.01-32.229,57l-74.438-37.229v-1.594
				c0-24,13-46.219,33.917-57.99l131.313-73.865c2.313-1.292,4.063-3.406,4.896-5.917l21.333-64
				c0.354-1.094,0.542-2.229,0.542-3.375v-160h74.667c29.417,0,53.333,23.927,53.333,53.333V181.333z"/>
			<path d="M245.333,421.635c-5.896,0-10.667,4.771-10.667,10.667c0,1.323-0.104,2.625-0.313,3.917l-10.729-5.365
				c0.604-0.417,1.229-0.813,1.875-1.167c5.125-2.896,6.958-9.396,4.063-14.531c-2.896-5.125-9.417-6.948-14.521-4.073
				c-7.563,4.25-13.708,10.563-17.771,18.24c-1.333,2.542-1.604,5.51-0.729,8.25c0.875,2.729,2.833,4.99,5.396,6.281l33.208,16.615
				c1.521,0.76,3.146,1.125,4.771,1.125c3.521,0,6.958-1.76,8.979-4.917c4.646-7.26,7.104-15.688,7.104-24.375
				C256,426.406,251.229,421.635,245.333,421.635z"/>
			<path d="M405.333,106.667C393.563,106.667,384,116.24,384,128s9.563,21.333,21.333,21.333c11.771,0,21.333-9.573,21.333-21.333
				S417.104,106.667,405.333,106.667z"/>
			<circle cx="53.333" cy="53.333" r="10.667"/>
		</g>
	</g>
</g>
<g>
</g>
<g>
</g>
<g>
</g>
<g>
</g>
<g>
</g>
<g>
</g>
<g>
</g>
<g>
</g>
<g>
</g>
<g>
</g>
<g>
</g>
<g>
</g>
<g>
</g>
<g>
</g>
<g>
</g>
</svg>
