<?xml version="1.0" encoding="iso-8859-1"?>
<!-- Generator: Adobe Illustrator 19.0.0, SVG Export Plug-In . SVG Version: 6.00 Build 0)  -->
<svg version="1.1" id="Capa_1" xmlns="http://www.w3.org/2000/svg" xmlns:xlink="http://www.w3.org/1999/xlink" x="0px" y="0px"
	 viewBox="0 0 512 512" style="enable-background:new 0 0 512 512;" xml:space="preserve">
<g>
	<g>
		<path d="M426.667,256c-14.708,0-28.348,4.081-40.44,10.66c-6.583-10.296-13.06-21.079-19.021-31.993H480
			c5.896,0,10.667-4.771,10.667-10.667v-85.333c0-5.896-4.771-10.667-10.667-10.667h-85.333c-5.896,0-10.667,4.771-10.667,10.667
			v74.667h-27.581c-8.158-17.672-13.958-34.734-14.94-49.063l18.063-18.063c2-2,3.125-4.708,3.125-7.542V96
			c0-5.896-4.771-10.667-10.667-10.667h-42.667c-5.896,0-10.667,4.771-10.667,10.667s4.771,10.667,10.667,10.667h32v27.583
			l-18.208,18.208c-2,2-3.125,4.708-3.125,7.542c0,10.109,2.333,21.404,5.992,33.195l-67.951,57.669
			c-3.854,3.313-8.781,5.135-13.875,5.135H222.69l-25.6-64H224c5.896,0,10.667-4.771,10.667-10.667
			c0-5.896-4.771-10.667-10.667-10.667h-64c-5.896,0-10.667,4.771-10.667,10.667c0,5.896,4.771,10.667,10.667,10.667h14.111
			l9.952,24.875l-21.214,23.333c-22.281-17.103-49.245-26.875-77.516-26.875c-29.667,0-58.594,10.417-81.458,29.333
			c-4.542,3.76-5.167,10.479-1.417,15.021c3.74,4.531,10.479,5.156,15.021,1.417c19.042-15.76,43.135-24.438,67.854-24.438
			c22.958,0,44.863,7.758,63.161,21.331l-14.219,15.641C120.395,261.858,103.566,256,85.333,256C38.281,256,0,294.281,0,341.333
			c0,47.052,38.281,85.333,85.333,85.333c43.4,0,78.938-32.688,84.255-74.667h72.197l17.889,13.417
			c-2.214,1.953-3.674,4.729-3.674,7.917c0,5.896,4.771,10.667,10.667,10.667h42.667c5.896,0,10.667-4.771,10.667-10.667
			c0-5.896-4.771-10.667-10.667-10.667h-17.785l-29.979-22.486l89.966-89.966c5.531,9.893,11.369,19.577,17.253,28.799
			c-16.78,15.592-27.454,37.661-27.454,62.319c0,47.052,38.281,85.333,85.333,85.333S512,388.385,512,341.333
			C512,294.281,473.719,256,426.667,256z M405.333,149.333h64v64h-64V149.333z M85.333,405.333c-35.292,0-64-28.708-64-64
			c0-35.292,28.708-64,64-64c12.706,0,24.49,3.827,34.457,10.237l-42.353,46.586c-2.833,3.125-3.563,7.635-1.854,11.49
			c1.698,3.865,5.531,6.354,9.75,6.354h62.922C143.141,382.206,116.973,405.333,85.333,405.333z M109.448,330.667l26.025-28.625
			c6.449,8.211,10.969,17.908,12.783,28.625H109.448z M169.589,330.667c-2.141-16.902-9.133-32.151-19.69-44.491l42.977-47.27
			l36.708,91.76H169.589z M249.23,322.353l-18.008-45.02h12.944c10.188,0,20.042-3.646,27.729-10.24l61.936-52.559
			c2.249,5.283,4.677,10.591,7.298,15.918L249.23,322.353z M426.667,405.333c-35.292,0-64-28.708-64-64
			c0-17.221,6.91-32.806,18.012-44.322c19.257,28.285,36.086,49.064,37.728,51.072c2.115,2.583,5.177,3.917,8.271,3.917
			c2.375,0,4.76-0.792,6.74-2.406c4.563-3.729,5.24-10.458,1.51-15.01c-0.401-0.492-17.51-21.539-36.992-50.125
			c8.68-4.406,18.349-7.125,28.732-7.125c35.292,0,64,28.708,64,64C490.667,376.625,461.958,405.333,426.667,405.333z"/>
	</g>
</g>
<g>
</g>
<g>
</g>
<g>
</g>
<g>
</g>
<g>
</g>
<g>
</g>
<g>
</g>
<g>
</g>
<g>
</g>
<g>
</g>
<g>
</g>
<g>
</g>
<g>
</g>
<g>
</g>
<g>
</g>
</svg>
