<?xml version="1.0" encoding="iso-8859-1"?>
<!-- Generator: Adobe Illustrator 19.0.0, SVG Export Plug-In . SVG Version: 6.00 Build 0)  -->
<svg version="1.1" id="Capa_1" xmlns="http://www.w3.org/2000/svg" xmlns:xlink="http://www.w3.org/1999/xlink" x="0px" y="0px"
	 viewBox="0 0 512 512" style="enable-background:new 0 0 512 512;" xml:space="preserve">
<g>
	<g>
		<path d="M489.677,123.542c-33.583-11.198-68.563-16.875-103.958-16.875H239.76c-9.594,0-19.177-1.177-28.469-3.5L59.177,65.135
			C56.188,64.385,53.094,64,49.979,64H37.906C17,64,0,81,0,101.906c0,13.24,7.052,25.698,18.406,32.51l55.448,33.271
			c17.682,10.613,37.158,17.552,57.301,21.217l21.303,21.303c2,2,4.708,3.125,7.542,3.125h32V416c0,17.948,18.74,32,42.667,32
			c23.927,0,42.667-14.052,42.667-32V213.333h12.625c14.792,0,29.115-4.333,41.417-12.542l44.262-29.508
			c16.039,0.656,32.078,2.208,47.822,5.352l49.479,9.896c9.635,1.917,19.51-0.531,27.115-6.771
			c7.594-6.229,11.948-15.427,11.948-25.25C512,140.427,503.031,127.979,489.677,123.542z M256,416
			c0,4.354-8.313,10.667-21.333,10.667c-13.021,0-21.333-6.313-21.333-10.667V213.333H256V416z M319.542,183.042
			c-8.792,5.865-19.021,8.958-29.583,8.958H164.417l-0.16-0.16c13.072-0.203,26.099-1.771,38.764-4.944l50.948-12.729
			c9.281-2.323,18.865-3.5,28.458-3.5h55.677L319.542,183.042z M486.521,163.26c-2.625,2.167-6.052,3.01-9.396,2.354l-49.479-9.896
			c-21.208-4.24-42.896-6.385-64.469-6.385h-80.75c-11.344,0-22.656,1.396-33.635,4.146l-50.948,12.729
			c-38.052,9.51-79.365,3.375-113.01-16.813l-55.448-33.271c-4.969-2.979-8.052-8.427-8.052-14.219
			c0-9.135,7.438-16.573,16.573-16.573h12.073c1.365,0,2.708,0.167,4.021,0.49l152.115,38.031c10.99,2.75,22.302,4.146,33.646,4.146
			h145.958c33.104,0,65.802,5.313,97.219,15.781c4.625,1.531,7.729,5.854,7.729,10.729
			C490.667,157.917,489.156,161.104,486.521,163.26z"/>
	</g>
</g>
<g>
</g>
<g>
</g>
<g>
</g>
<g>
</g>
<g>
</g>
<g>
</g>
<g>
</g>
<g>
</g>
<g>
</g>
<g>
</g>
<g>
</g>
<g>
</g>
<g>
</g>
<g>
</g>
<g>
</g>
</svg>
