<?xml version="1.0" encoding="iso-8859-1"?>
<!-- Generator: Adobe Illustrator 19.0.0, SVG Export Plug-In . SVG Version: 6.00 Build 0)  -->
<svg version="1.1" id="Capa_1" xmlns="http://www.w3.org/2000/svg" xmlns:xlink="http://www.w3.org/1999/xlink" x="0px" y="0px"
	 viewBox="0 0 512.001 512.001" style="enable-background:new 0 0 512.001 512.001;" xml:space="preserve">
<g>
	<g>
		<g>
			<path d="M494.876,121.542c-35.563-23.688-76.938-36.208-119.667-36.208h-43.75c-42.521,0-85.313-3.542-127.208-10.521
				c-43.042-7.177-87.021-10.813-132.625-10.813c-28.292,0-54.583,16.396-67.021,41.771c-2.958,6.031-4.542,12.76-4.604,19.469
				c-0.083,12.115,4.563,23.51,13.083,32.104c8.521,8.594,19.896,13.323,32,13.323h54.292c9.667,0,19.167,2.635,27.479,7.604
				l65.146,39.072v59.991H74.668c-5.896,0-10.667,4.771-10.667,10.667s4.771,10.667,10.667,10.667h117.333v117.333
				c0,17.948,18.75,32,42.667,32c23.917,0,42.667-14.052,42.667-32V285.645c6.214-4.185,12.052-8.974,16.875-14.999l62.925-78.646
				h116.388c21.208,0,38.479-17.25,38.479-38.458C512.001,140.657,505.605,128.699,494.876,121.542z M256.001,416.001
				c0,4.25-8.5,10.667-21.333,10.667c-12.833,0-21.333-6.417-21.333-10.667V298.667h22.583c6.924,0,13.596-1.237,20.083-3.049
				V416.001z M256.001,273.154c-6.309,2.574-13.042,4.18-20.083,4.18h-22.583v-48.199c8.734,3.603,18.109,5.533,27.646,5.533
				c5.074,0,10.096-0.626,15.021-1.684V273.154z M277.543,257.313c-0.063,0.078-0.146,0.13-0.208,0.208v-33.014
				c5.333-3.103,10.419-6.63,14.813-11.027l5.854-5.854c8.533-8.523,19.503-13.57,31.294-14.995L277.543,257.313z M473.522,170.667
				H335.751c-19.958,0-38.708,7.771-52.833,21.875l-5.854,5.854c-16.167,16.146-42.75,19.438-62.396,7.677l-76.854-46.094
				c-11.604-6.969-24.896-10.646-38.438-10.646H45.084c-6.375,0-12.375-2.49-16.854-7.021c-4.5-4.521-6.938-10.531-6.896-16.906
				c0.021-3.521,0.875-7.063,2.438-10.25c8.875-18.115,27.646-29.823,49.771-29.823c42.521,0,85.313,3.542,127.208,10.521
				c43.042,7.177,87.021,10.813,130.708,10.813h43.75c38.5,0,75.792,11.281,107.833,32.625c4.771,3.188,7.625,8.51,7.625,14.25
				C490.668,162.98,482.98,170.667,473.522,170.667z"/>
			<path d="M74.668,234.667h85.333c5.896,0,10.667-4.771,10.667-10.667s-4.771-10.667-10.667-10.667H74.668
				c-5.896,0-10.667,4.771-10.667,10.667S68.772,234.667,74.668,234.667z"/>
			<path d="M74.668,202.667h42.667c5.896,0,10.667-4.771,10.667-10.667s-4.771-10.667-10.667-10.667H74.668
				c-5.896,0-10.667,4.771-10.667,10.667S68.772,202.667,74.668,202.667z"/>
			<path d="M74.668,266.667h85.333c5.896,0,10.667-4.771,10.667-10.667c0-5.896-4.771-10.667-10.667-10.667H74.668
				c-5.896,0-10.667,4.771-10.667,10.667C64.001,261.896,68.772,266.667,74.668,266.667z"/>
		</g>
	</g>
</g>
<g>
</g>
<g>
</g>
<g>
</g>
<g>
</g>
<g>
</g>
<g>
</g>
<g>
</g>
<g>
</g>
<g>
</g>
<g>
</g>
<g>
</g>
<g>
</g>
<g>
</g>
<g>
</g>
<g>
</g>
</svg>
