<?xml version="1.0" encoding="iso-8859-1"?>
<!-- Generator: Adobe Illustrator 19.0.0, SVG Export Plug-In . SVG Version: 6.00 Build 0)  -->
<svg version="1.1" id="Capa_1" xmlns="http://www.w3.org/2000/svg" xmlns:xlink="http://www.w3.org/1999/xlink" x="0px" y="0px"
	 viewBox="0 0 512 512" style="enable-background:new 0 0 512 512;" xml:space="preserve">
<g>
	<g>
		<g>
			<circle cx="245.333" cy="352" r="10.667"/>
			<circle cx="373.333" cy="352" r="10.667"/>
			<circle cx="458.667" cy="266.667" r="10.667"/>
			<circle cx="458.667" cy="138.667" r="10.667"/>
			<circle cx="373.333" cy="53.333" r="10.667"/>
			<circle cx="245.333" cy="53.333" r="10.667"/>
			<circle cx="160" cy="138.667" r="10.667"/>
			<circle cx="160" cy="266.667" r="10.667"/>
			<circle cx="53.333" cy="266.667" r="10.667"/>
			<circle cx="53.333" cy="373.333" r="10.667"/>
			<circle cx="138.667" cy="458.667" r="10.667"/>
			<circle cx="245.333" cy="458.667" r="10.667"/>
			<path d="M502.396,220.719c-4.125-11.635-4.125-24.469,0-36.104c4.063-11.514,7.051-23.815,8.478-34.251
				c0.221-1.09,0.262-2.191,0.413-3.292c0.087-0.824,0.254-1.749,0.318-2.54l-0.076-0.007c1.309-14.831-3.46-30.1-14.779-41.431
				c-7.896-7.875-22.896-17.688-38.208-24.99c-10.771-5.146-19.521-13.906-24.646-24.646c-3.258-6.807-7.125-13.582-11.113-19.861
				C414.913,13.952,395.764,0,373.333,0c-11.438,0-29.479,3.771-45.917,9.604c-11.667,4.125-24.521,4.115-36.146,0.01
				c-11.434-4.056-23.698-7.035-34.158-8.48c-1.22-0.251-2.454-0.305-3.686-0.467c-0.717-0.076-1.526-0.224-2.219-0.281
				l-0.005,0.068c-14.835-1.318-30.112,3.449-41.432,14.786c-7.979,7.969-17.563,22.615-25,38.219
				c-5.125,10.74-13.875,19.5-24.625,24.646c-6.82,3.245-13.613,7.12-19.918,11.125c-19.63,7.879-33.561,27.026-33.561,49.438
				c0,11.427,3.771,29.469,9.604,45.948c4.125,11.635,4.125,24.469,0,36.104c-0.529,1.492-0.947,2.983-1.418,4.478
				c-7.914,1.556-16.126,0.865-23.728-2.113c-5.214-2.065-10.408-3.663-15.462-5.095c-6.815-2.913-14.331-4.655-22.329-4.655
				C23.917,213.333,0,235.344,0,262.396c0,10.688,3.729,26.802,9.729,42.052c4,10.177,4,20.927,0,31.104
				c-5.083,12.958-8.604,26.99-9.417,37.552l0.099,0.008c-0.082,0.962-0.271,1.917-0.302,2.878H0.104c0,0.208,0,0.427,0,0.635
				c-0.063,0.323-0.083,0.656-0.104,0.979c0,0.563,0.167,2.229,0.271,2.792l0.076-0.008c0.599,11.891,4.978,23.337,13.716,32.07
				c7.854,7.865,22.521,17.021,38.25,23.875c10.5,4.573,18.792,12.865,23.375,23.344c6.854,15.76,16,30.427,23.854,38.26
				c6.594,6.602,14.909,10.869,24.273,12.738c2.069,0.497,4.229,0.66,6.387,0.863c0.506,0.039,0.974,0.176,1.486,0.201l0.001-0.038
				c0.914,0.056,1.78,0.298,2.707,0.298c0.371,0,0.857-0.085,1.241-0.094c0.121,0,0.263,0,0.405-0.01h0.021
				c0.021,0,0.146-0.01,0.292-0.021c0.75-0.052,2.542-0.198,2.688-0.208l-0.003-0.018c10.431-0.823,24.13-4.159,37.398-9.388
				c10.042-3.938,21.104-3.927,31.104-0.01c5.214,2.065,10.408,3.663,15.462,5.095c6.815,2.913,14.331,4.655,22.329,4.655
				c29.417,0,53.333-22.01,53.333-49.063c0-10.688-3.729-26.802-9.729-42.042c-3.004-7.621-3.525-15.775-1.836-23.853
				c1.382-0.454,2.785-0.829,4.148-1.314c11.667-4.125,24.521-4.115,36.146-0.01c11.448,4.061,23.731,7.042,34.198,8.486
				c1.12,0.229,2.254,0.276,3.384,0.43c0.805,0.087,1.706,0.25,2.48,0.314l0.006-0.077c1.543,0.137,3.07,0.441,4.619,0.441
				c13.333,0,26.667-5.073,36.813-15.219c7.979-7.969,17.563-22.615,25-38.219c5.125-10.74,13.875-19.5,24.625-24.646
				c6.82-3.245,13.613-7.12,19.918-11.125c19.63-7.879,33.561-27.026,33.561-49.438C512,255.229,508.229,237.188,502.396,220.719z
				 M422.098,74.758c7.111,9.546,16.41,17.411,27.257,22.596c15.146,7.229,27.146,15.677,32.313,20.833
				c11.979,11.979,11.979,31.49,0,43.479c-12,11.979-31.479,11.99-43.479-0.01c-5.146-5.135-13.583-17.115-20.833-32.302
				c-5.16-10.827-13.025-20.129-22.598-27.255C406.941,96.723,416.723,86.943,422.098,74.758z M294.837,32.491
				c13.164,2.557,26.91,1.725,39.684-2.772c16.333-5.792,31.271-8.385,38.813-8.385c17.646,0,32,14.354,32,32
				c0,17.646-14.354,32-32,32c-7.542,0-22.479-2.594-38.833-8.396c-13.21-4.684-27.514-5.329-41.188-2.367
				C299.663,61.333,300.307,46.027,294.837,32.491z M204.021,62.646c7.25-15.188,15.688-27.167,20.833-32.313
				c12-11.958,31.479-12,43.479,0c11.979,11.99,11.979,31.5,0,43.469c-5.167,5.167-17.167,13.615-32.334,20.844
				c-10.831,5.185-20.125,13.048-27.234,22.598c-5.375-12.184-15.154-21.965-27.339-27.341
				C190.993,82.776,198.861,73.474,204.021,62.646z M160,106.667c17.646,0,32,14.354,32,32c0,7.542-2.583,22.469-8.396,38.823
				c-4.438,12.579-5.341,26.124-2.905,39.145c-5.16-2.009-10.638-3.301-16.428-3.301c-6.747,0-15.723,1.619-25.21,4.227
				c2.665-13.307,1.879-27.189-2.665-40.07c-5.813-16.354-8.396-31.281-8.396-38.823C128,121.021,142.354,106.667,160,106.667z
				 M103.746,247.091c8.884,0.41,17.824-0.841,26.296-4.164c14.396-5.677,27.833-8.26,34.229-8.26c15.292,0,27.729,14.354,27.729,32
				c0,17.646-12.438,32-27.729,32c-6.396,0-19.833-2.583-34.25-8.26c-8.768-3.434-18.026-4.63-27.237-4.063
				c2.397-9.013,3.883-17.503,3.883-23.948C106.667,257.02,105.491,251.936,103.746,247.091z M53.333,234.667
				c17.646,0,32,12.438,32,27.729c0,6.396-2.583,19.833-8.271,34.24c-3.27,8.329-4.549,17.112-4.204,25.853
				c-5.695-1.776-11.711-2.729-17.921-2.415c-7.456,0.395-14.697,2.405-21.436,5.667c0.891-9.807-0.229-19.738-3.918-29.104
				c-5.667-14.406-8.25-27.844-8.25-34.24C21.333,247.104,35.688,234.667,53.333,234.667z M88.707,439.63
				c-6.964-9.962-16.517-17.908-27.874-22.859c-15.063-6.563-26.771-14.469-31.688-19.396c-5.145-5.148-7.57-12.038-7.661-19.249
				l0.016-0.001l-0.036-0.797c0.01-0.87-0.001-1.728,0.081-2.604l0.06,0.005c0.042-0.557,0.178-1.243,0.241-1.831
				c1.099-7.315,4.527-14.641,10.467-20.586c6.583-6.594,15.021-10.479,23.75-10.938c8.208-0.552,15.875,2.323,21.313,7.781
				c4.917,4.896,12.813,16.604,19.396,31.698c4.849,11.115,12.619,20.466,22.323,27.398
				C105.132,413.28,93.962,424.779,88.707,439.63z M194.921,478.242c-8.884-0.41-17.824,0.841-26.296,4.164
				c-13.137,5.181-25.206,7.673-32.124,8.089l-0.001-0.016l-0.001,0.016c-0.096,0.005-0.212,0.02-0.307,0.025l-0.004-0.02
				l-0.001,0.021c-0.307,0.016-0.714,0.073-0.997,0.081l-0.001-0.018c-0.04,0.001-0.074,0.025-0.115,0.027
				c-0.191,0.004-0.497,0.056-0.677,0.056c-0.572,0-1.107-0.155-1.669-0.194l0.003-0.046c-1.237-0.061-2.609-0.206-4.052-0.461
				c-12.553-3.052-22.01-15.918-22.01-31.299c0-17.646,12.438-32,27.729-32c6.396,0,19.833,2.583,34.25,8.26
				c8.768,3.434,18.026,4.63,27.237,4.063c-2.397,9.013-3.883,17.503-3.883,23.948C192,468.314,193.176,473.397,194.921,478.242z
				 M245.333,490.667c-17.646,0-32-12.438-32-27.729c0-6.396,2.583-19.833,8.271-34.24c3.441-8.767,4.638-18.033,4.076-27.224
				c6.096,2.431,12.699,3.859,19.654,3.859c5.365,0,12.247-0.892,19.669-2.375c-0.389,8.736,0.822,17.435,4.081,25.74
				c5.667,14.406,8.25,27.844,8.25,34.24C277.333,478.229,262.979,490.667,245.333,490.667z M323.826,372.828
				c-13.163-2.564-26.908-1.719-39.68,2.786c-16.333,5.792-31.271,8.385-38.813,8.385c-17.646,0-32-14.354-32-32
				c0-17.646,14.354-32,32-32c7.542,0,22.479,2.594,38.833,8.396c13.211,4.659,27.517,5.314,41.191,2.359
				C319.007,343.99,318.361,359.292,323.826,372.828z M291.271,308.281c-16.458-5.844-34.5-9.615-45.938-9.615
				C215.917,298.667,192,322.594,192,352c0,7.415,1.535,14.473,4.281,20.896c1.497,5.506,3.219,11.186,5.448,16.885
				c3.415,8.69,3.733,17.777,1.329,26.589c-8.788,2.376-18.064,2.064-26.6-1.297c-2.344-0.922-4.706-1.681-7.066-2.491
				c-8.223-6.053-18.794-12.163-29.704-16.915c-10.5-4.573-18.792-12.865-23.375-23.344c-4.932-11.341-11.051-22.018-17.021-30.089
				c-0.745-2.221-1.492-4.444-2.354-6.682c-3.415-8.69-3.733-17.777-1.329-26.589c8.788-2.376,18.064-2.064,26.6,1.297
				c15.271,6.01,31.375,9.74,42.063,9.74c27.063,0,49.063-23.927,49.063-53.333c0-11.438-3.771-29.479-9.604-45.948
				c-4.125-11.635-4.125-24.469,0-36.104c3.538-9.992,6.173-20.4,7.813-29.717c3.126-5.146,6.26-10.548,9.021-16.355
				c5.125-10.74,13.875-19.5,24.625-24.646c5.792-2.758,11.4-5.914,16.732-9.148c9.641-1.701,19.71-4.277,29.331-7.685
				c11.667-4.125,24.521-4.115,36.146-0.01c9.98,3.544,20.385,6.182,29.704,7.823c5.148,3.132,10.547,6.245,16.358,9.021
				c10.771,5.146,19.521,13.906,24.646,24.646c2.811,5.898,5.965,11.514,9.186,16.829c1.677,9.49,4.294,19.733,7.647,29.243
				c4.125,11.635,4.125,24.469,0,36.104c-3.536,9.984-6.172,20.388-7.811,29.706c-3.127,5.148-6.262,10.56-9.022,16.367
				c-5.125,10.74-13.875,19.5-24.625,24.646c-5.792,2.758-11.4,5.914-16.732,9.148c-9.641,1.701-19.71,4.277-29.331,7.685
				C315.75,312.396,302.896,312.385,291.271,308.281z M414.646,342.688c-7.25,15.188-15.688,27.167-20.833,32.313
				c-12,11.969-31.479,11.99-43.479,0c-11.979-11.99-11.979-31.5,0-43.469c5.167-5.167,17.167-13.615,32.333-20.844
				c10.831-5.185,20.125-13.048,27.235-22.598c5.375,12.184,15.155,21.965,27.339,27.341
				C427.673,322.556,419.806,331.859,414.646,342.688z M458.667,298.667c-17.646,0-32-14.354-32-32
				c0-7.542,2.583-22.479,8.396-38.823c4.673-13.247,5.327-27.54,2.375-41.184c7.105,3.409,14.753,5.319,22.479,5.319
				c6.664,0,13.322-1.268,19.582-3.796c-2.564,13.181-1.725,26.913,2.772,39.66c5.813,16.344,8.396,31.281,8.396,38.823
				C490.667,284.313,476.313,298.667,458.667,298.667z"/>
		</g>
	</g>
</g>
<g>
</g>
<g>
</g>
<g>
</g>
<g>
</g>
<g>
</g>
<g>
</g>
<g>
</g>
<g>
</g>
<g>
</g>
<g>
</g>
<g>
</g>
<g>
</g>
<g>
</g>
<g>
</g>
<g>
</g>
</svg>
