<?xml version="1.0" encoding="iso-8859-1"?>
<!-- Generator: Adobe Illustrator 19.0.0, SVG Export Plug-In . SVG Version: 6.00 Build 0)  -->
<svg version="1.1" id="Capa_1" xmlns="http://www.w3.org/2000/svg" xmlns:xlink="http://www.w3.org/1999/xlink" x="0px" y="0px"
	 viewBox="0 0 512 512" style="enable-background:new 0 0 512 512;" xml:space="preserve">
<g>
	<g>
		<path d="M394.661,149.329h33.966c4.418,12.389,16.148,21.333,30.037,21.333h42.669c5.896,0,10.667-4.771,10.667-10.667v-42.667
			c0-5.896-4.771-10.667-10.667-10.667h-16.917l-39.543-39.542c-4.167-4.167-10.917-4.167-15.084,0
			c-4.167,4.167-4.167,10.917,0,15.083l24.864,24.863c-12.103,1.536-22.044,9.764-26.025,20.928h-33.966
			c-41.169,0-74.67,33.5-74.67,74.667c0,41.167,33.502,74.667,74.67,74.667h21.334c41.169,0,74.67,33.5,74.67,74.667
			c0,39.484-30.91,71.585-69.756,74.169l2.628-2.628c4.167-4.167,4.167-10.917,0-15.083L210.195,195.121
			c-4.167-4.167-10.917-4.167-15.084,0l-13.792,13.792L130.8,158.397l15.391-15.391c4.167-4.167,4.167-10.917,0-15.083
			L73.553,55.288c-16.824-16.823-44.148-16.823-60.951,0c-16.803,16.802-16.803,44.146,0,60.948l72.639,72.635
			c2.083,2.083,4.813,3.125,7.542,3.125s5.459-1.042,7.542-3.125l15.391-15.391l50.518,50.516l-13.792,13.792
			c-4.167,4.167-4.167,10.917,0,15.083l213.343,213.333c2.083,2.083,4.813,3.125,7.542,3.125c2.729,0,5.459-1.042,7.542-3.125
			l20.504-20.503c4.74,1.357,9.588,2.294,14.623,2.294c52.94,0,96.004-43.063,96.004-96s-43.064-96-96.004-96h-21.334
			c-29.408,0-53.336-23.927-53.336-53.333S365.254,149.329,394.661,149.329z M458.667,127.996h32v21.333h-32
			c-5.885,0-10.667-4.781-10.667-10.667C448,132.777,452.781,127.996,458.667,127.996z M92.802,166.246l-65.094-65.094
			c-8.49-8.49-8.49-22.292,0-30.781c4.24-4.24,9.813-6.365,15.385-6.365c5.583,0,11.156,2.125,15.396,6.365l65.094,65.094
			L92.802,166.246z M373.333,443.579l-198.25-198.25l27.583-27.583l198.25,198.25L373.333,443.579z"/>
	</g>
</g>
<g>
</g>
<g>
</g>
<g>
</g>
<g>
</g>
<g>
</g>
<g>
</g>
<g>
</g>
<g>
</g>
<g>
</g>
<g>
</g>
<g>
</g>
<g>
</g>
<g>
</g>
<g>
</g>
<g>
</g>
</svg>
