<?xml version="1.0" encoding="iso-8859-1"?>
<!-- Generator: Adobe Illustrator 19.0.0, SVG Export Plug-In . SVG Version: 6.00 Build 0)  -->
<svg version="1.1" id="Capa_1" xmlns="http://www.w3.org/2000/svg" xmlns:xlink="http://www.w3.org/1999/xlink" x="0px" y="0px"
	 viewBox="0 0 512 512" style="enable-background:new 0 0 512 512;" xml:space="preserve">
<g>
	<g>
		<g>
			<path d="M245.333,469.333c17.646,0,32-14.354,32-32c0-5.896-4.771-10.667-10.667-10.667c-5.896,0-10.667,4.771-10.667,10.667
				c0,5.885-4.781,10.667-10.667,10.667c-5.896,0-10.667,4.771-10.667,10.667S239.438,469.333,245.333,469.333z"/>
			<path d="M480,128h-42.667c-5.896,0-10.667,4.771-10.667,10.667v14.74l-36.771,18.385c-5.271,2.635-7.406,9.042-4.771,14.313
				c1.875,3.74,5.635,5.896,9.552,5.896c1.604,0,3.229-0.365,4.76-1.125l27.229-13.615v4.073c0,5.896,4.771,10.667,10.667,10.667
				H448v10.667C448,232.073,424.073,256,394.667,256H320v-64c0-23.531-19.135-42.667-42.667-42.667h-10.667V64h64
				c17.646,0,32-14.354,32-32s-14.354-32-32-32h-192c-17.646,0-32,14.354-32,32s14.354,32,32,32h64v85.333H192
				c-23.531,0-42.667,19.135-42.667,42.667v64h-42.667c-47.052,0-85.333,38.281-85.333,85.333c0,47.052,38.281,85.333,85.333,85.333
				v10.667c0,5.896,4.771,10.667,10.667,10.667h33.078c2.405,16.592,10.036,31.47,21.499,42.667H160
				c-5.896,0-10.667,4.771-10.667,10.667c0,5.896,4.771,10.667,10.667,10.667h149.333c5.896,0,10.667-4.771,10.667-10.667
				c0-5.896-4.771-10.667-10.667-10.667h-11.91C311.313,477.099,320,458.234,320,437.333v-160h74.667
				c41.167,0,74.667-33.5,74.667-74.667V192H480c5.896,0,10.667-4.771,10.667-10.667v-42.667C490.667,132.771,485.896,128,480,128z
				 M149.333,426.667H128v-21.333h21.333V426.667z M149.333,384h-32c-5.896,0-10.667,4.771-10.667,10.667v10.667
				c-35.292,0-64-28.708-64-64c0-35.292,28.708-64,64-64h42.667V384z M138.667,42.667C132.781,42.667,128,37.885,128,32
				s4.781-10.667,10.667-10.667h192c5.885,0,10.667,4.781,10.667,10.667s-4.781,10.667-10.667,10.667H138.667z M245.333,64v85.333
				H224V64H245.333z M298.667,437.333c0,29.406-23.927,53.333-53.333,53.333H224c-29.406,0-53.333-23.927-53.333-53.333v-160h128
				V437.333z M298.667,256h-128v-64c0-11.76,9.573-21.333,21.333-21.333h85.333c11.76,0,21.333,9.573,21.333,21.333V256z
				 M469.333,170.667H448v-21.333h21.333V170.667z"/>
		</g>
	</g>
</g>
<g>
</g>
<g>
</g>
<g>
</g>
<g>
</g>
<g>
</g>
<g>
</g>
<g>
</g>
<g>
</g>
<g>
</g>
<g>
</g>
<g>
</g>
<g>
</g>
<g>
</g>
<g>
</g>
<g>
</g>
</svg>
