<?xml version="1.0" encoding="UTF-8"?>
<svg xmlns="http://www.w3.org/2000/svg" viewBox="0 0 64 64" width="512" height="512"><g id="outline"><path d="M38.553,61.6l.584.292a1,1,0,0,0,1.342-.448l.416-.833A18.771,18.771,0,0,0,43,52.459V28.708a13.781,13.781,0,0,0-7.658-12.392h0A3,3,0,0,0,35,16.172V3a1,1,0,0,0-1-1H30a1,1,0,0,0-1,1V16.172a3.016,3.016,0,0,0-.342.144A13.781,13.781,0,0,0,21,28.708V50.8A12.077,12.077,0,0,1,18.6,58a1,1,0,0,0,.2,1.4l.6.45a1,1,0,0,0,1.065.085L21,59.655v.895a1,1,0,0,0,.4.8l.6.449a1,1,0,0,0,1.4-.2A18.111,18.111,0,0,0,27,50.8V28.708A7.748,7.748,0,0,1,30.768,22h2.464A7.748,7.748,0,0,1,37,28.708V52.459a12.74,12.74,0,0,1-1.472,5.472l-.417.833a1,1,0,0,0,.448,1.341l.994.5a1,1,0,0,0,1.1-.135l.351-.3v.539A1,1,0,0,0,38.553,61.6ZM31,4h2v9H31Zm6.847,53.67A13.818,13.818,0,0,0,39,52.459V28.708a9.857,9.857,0,0,0-5.006-8.579A1,1,0,0,0,33.5,20H30.5a1,1,0,0,0-.491.129A9.857,9.857,0,0,0,25,28.708V50.8a16.106,16.106,0,0,1-2,7.741V58a1,1,0,0,0-1.465-.885l-.059.031A14.093,14.093,0,0,0,23,50.8V28.708a11.791,11.791,0,0,1,6.552-10.6A1.023,1.023,0,0,1,30,18a1,1,0,0,0,1-1V15h2v2a1,1,0,0,0,1,1,1.023,1.023,0,0,1,.448.105A11.792,11.792,0,0,1,41,28.708V52.459a15.5,15.5,0,0,1-1.034,5.281,1,1,0,0,0-1.615-.5Z"/></g></svg>