<svg xmlns="http://www.w3.org/2000/svg" xmlns:xlink="http://www.w3.org/1999/xlink" xml:space="preserve" version="1.1" style="shape-rendering:geometricPrecision;text-rendering:geometricPrecision;image-rendering:optimizeQuality;" viewBox="0 0 50000 62500" x="0px" y="0px" fill-rule="evenodd" clip-rule="evenodd"><defs><style type="text/css">
   
    .str0 {stroke:black;stroke-width:564.44}
    .fil0 {fill:none}
   
  </style></defs><g><ellipse class="fil0 str0" cx="23569" cy="8618" rx="5431" ry="2762"/><ellipse class="fil0 str0" cx="23631" cy="10406" rx="12689" ry="6351"/><ellipse class="fil0 str0" cx="23650" cy="13058" rx="18005" ry="9088"/><path class="fil0 str0" d="M41654 13076c0,349 -39,4915 -114,5253 -1015,4534 -8637,8057 -17890,8057 -5090,0 -9687,-1066 -12962,-2780 -2711,-1420 -4516,-3283 -4945,-5353 -65,-314 -94,-4678 -94,-5001"/><path class="fil0 str0" d="M10560 23590l-4 3321 -2 1503c-1,1041 13,1472 20,2217 29,3032 5223,6765 13310,6837 7368,64 12834,-2677 12854,-6138"/><line class="fil0 str0" x1="36738" y1="31457" x2="36749" y2="23327"/><path class="fil0 str0" d="M36841 28510c2191,1516 3492,3411 3492,5467 0,4976 -7623,9010 -17028,9010 -9404,0 -17028,-4034 -17028,-9010 0,-2286 1609,-4373 4260,-5961"/><path class="fil0 str0" d="M36841 28510c2159,990 4784,3610 4717,7562 -126,7409 -8504,10822 -17908,10822 -9405,0 -17787,-3413 -18076,-11316 -126,-3455 1926,-6078 4963,-7562"/></g><text x="0" y="50015" fill="#000000" font-size="5px" font-weight="bold" font-family="'Helvetica Neue', Helvetica, Arial-Unicode, Arial, Sans-serif">Created by Oleksandr Panasovskyi</text><text x="0" y="50020" fill="#000000" font-size="5px" font-weight="bold" font-family="'Helvetica Neue', Helvetica, Arial-Unicode, Arial, Sans-serif">from the Noun Project</text></svg>