<?xml version="1.0" encoding="iso-8859-1"?>
<!-- Generator: Adobe Illustrator 19.0.0, SVG Export Plug-In . SVG Version: 6.00 Build 0)  -->
<svg version="1.1" id="Capa_1" xmlns="http://www.w3.org/2000/svg" xmlns:xlink="http://www.w3.org/1999/xlink" x="0px" y="0px"
	 viewBox="0 0 512 512" style="enable-background:new 0 0 512 512;" xml:space="preserve">
<g>
	<g>
		<g>
			<path d="M511.646,247.892l-0.24-3.897c-0.167-3.605-2.135-6.876-5.24-8.699c-16.188-9.543-18.146-14.732-18.354-16.086
				c-0.229-1.438,0.031-7.199,12.49-21.181c2.406-2.688,3.281-6.428,2.333-9.918c-2.094-7.616-4.542-15.086-7.302-22.41
				c-1.271-3.376-4.167-5.876-7.688-6.647c-18.365-4.042-21.865-8.418-22.5-9.668c-0.646-1.261-2.156-6.72,5.417-24.181
				c1.427-3.303,1.094-7.116-0.896-10.127c-4.302-6.512-8.917-12.794-13.781-18.878c-2.26-2.813-5.833-4.251-9.365-3.949
				c-18.917,1.834-23.594-1.271-24.583-2.25c-0.99-0.99-4.083-5.688-2.25-24.588c0.354-3.594-1.135-7.105-3.948-9.366
				c-6.094-4.865-12.365-9.481-18.885-13.794c-3.01-2-6.823-2.323-10.115-0.875c-17.448,7.564-22.927,6.043-24.177,5.407
				c-1.24-0.635-5.625-4.147-9.667-22.514c-0.771-3.521-3.281-6.418-6.656-7.689c-7.333-2.761-14.792-5.209-22.406-7.303
				c-3.521-0.938-7.24-0.083-9.917,2.334c-14.031,12.502-19.604,12.815-21.177,12.492c-1.354-0.208-6.542-2.167-16.083-18.357
				c-1.823-3.105-5.094-5.074-8.698-5.24l-3.896-0.24c-5.354-0.354-10.771-0.354-16.125,0l-3.896,0.24
				c-3.604,0.167-6.875,2.136-8.698,5.24c-9.542,16.19-14.729,18.149-16.083,18.357c-1.344,0.292-7.156,0.01-21.177-12.492
				c-2.677-2.417-6.396-3.271-9.917-2.334c-7.625,2.094-15.094,4.532-22.417,7.303c-3.365,1.281-5.865,4.167-6.635,7.689
				c-4.042,18.368-8.417,21.868-9.667,22.504c-1.25,0.646-6.719,2.167-24.177-5.418c-3.323-1.427-7.135-1.104-10.125,0.896
				c-6.51,4.303-12.792,8.918-18.875,13.784c-2.813,2.261-4.302,5.772-3.948,9.366c1.833,18.889-1.26,23.598-2.25,24.588
				c-1,0.99-5.708,4.084-24.583,2.25c-3.521-0.385-7.104,1.136-9.365,3.949c-4.865,6.095-9.479,12.367-13.792,18.889
				c-1.979,3.011-2.313,6.814-0.875,10.116c7.563,17.461,6.052,22.921,5.406,24.192c-0.635,1.24-4.135,5.616-22.51,9.658
				c-3.521,0.771-6.417,3.282-7.688,6.657c-2.76,7.335-5.208,14.794-7.302,22.41c-0.948,3.49-0.073,7.23,2.333,9.929
				c12.479,13.982,12.719,19.743,12.49,21.17c-0.208,1.354-2.167,6.543-18.354,16.086c-3.104,1.823-5.073,5.095-5.24,8.699
				l-0.24,3.897C0.177,250.569,0,253.237,0,255.956c0,2.719,0.177,5.386,0.354,8.064l0.24,3.897c0.167,3.605,2.135,6.876,5.24,8.699
				c16.188,9.543,18.146,14.732,18.354,16.086c0.229,1.427-0.01,7.178-12.49,21.181c-2.406,2.688-3.281,6.428-2.333,9.918
				c2.094,7.616,4.542,15.086,7.302,22.41c1.271,3.376,4.167,5.876,7.688,6.647c18.365,4.042,21.865,8.418,22.5,9.668
				c0.646,1.261,2.156,6.72-5.406,24.171c-1.438,3.303-1.104,7.105,0.875,10.116c4.313,6.522,8.927,12.804,13.792,18.899
				c2.26,2.813,5.729,4.261,9.365,3.949c18.906-1.854,23.594,1.261,24.583,2.25s4.083,5.688,2.25,24.588
				c-0.354,3.594,1.135,7.105,3.948,9.366c6.094,4.865,12.365,9.481,18.885,13.794c2.99,1.969,6.802,2.313,10.115,0.875
				c17.49-7.574,22.896-6.064,24.188-5.407c1.24,0.635,5.615,4.136,9.656,22.514c0.771,3.521,3.281,6.418,6.656,7.689
				c7.333,2.761,14.792,5.209,22.406,7.303c3.521,0.938,7.229,0.073,9.927-2.334c14.01-12.481,19.719-12.815,21.167-12.492
				c1.354,0.208,6.542,2.167,16.083,18.357c1.823,3.105,5.094,5.074,8.698,5.24l3.896,0.24c2.677,0.177,5.344,0.354,8.063,0.354
				s5.385-0.177,8.063-0.354l3.896-0.24c3.604-0.167,6.875-2.136,8.698-5.24c9.542-16.19,14.729-18.149,16.083-18.357
				c1.438-0.271,7.156,0,21.177,12.492c2.677,2.407,6.396,3.271,9.917,2.334c7.615-2.094,15.083-4.542,22.406-7.303
				c3.375-1.271,5.875-4.167,6.646-7.689c4.042-18.368,8.417-21.868,9.667-22.504c1.26-0.646,6.708-2.157,24.177,5.418
				c3.281,1.417,7.115,1.094,10.125-0.896c6.51-4.303,12.792-8.918,18.875-13.784c2.813-2.261,4.302-5.772,3.948-9.366
				c-1.833-18.899,1.26-23.598,2.25-24.588c0.99-0.99,5.667-4.084,24.583-2.25c3.552,0.313,7.104-1.146,9.365-3.949
				c4.865-6.095,9.479-12.367,13.792-18.889c1.979-3.011,2.313-6.814,0.875-10.116c-7.563-17.461-6.052-22.921-5.406-24.192
				c0.635-1.24,4.135-5.616,22.51-9.658c3.521-0.771,6.417-3.282,7.688-6.657c2.76-7.335,5.208-14.794,7.302-22.41
				c0.948-3.49,0.073-7.23-2.333-9.929c-12.479-13.982-12.719-19.743-12.49-21.17c0.208-1.354,2.167-6.543,18.354-16.086
				c3.104-1.823,5.073-5.095,5.24-8.699l0.24-3.897c0.177-2.678,0.354-5.345,0.354-8.064
				C512,253.237,511.823,250.569,511.646,247.892z M490.448,261.26c-10.813,6.896-21.802,16.042-23.719,28.167
				c-1.927,12.302,5.625,24.344,13.771,34.177c-1,3.313-2.063,6.583-3.208,9.823c-12.385,3.198-25.583,8.5-31.156,19.427
				c-5.604,10.979-2.135,24.885,2.573,36.896c-1.948,2.792-3.969,5.531-6.031,8.229c-12.833-0.802-27.146,0.167-35.833,8.875
				c-8.698,8.698-9.656,22.979-8.875,35.833c-2.698,2.063-5.448,4.083-8.24,6.031c-12.01-4.708-25.906-8.198-36.875-2.573
				c-10.938,5.573-16.24,18.771-19.438,31.156c-3.24,1.135-6.51,2.198-9.813,3.198c-9.854-8.146-22.021-15.667-34.177-13.771
				c-12.125,1.917-21.271,12.906-28.167,23.719c-3.479,0.229-7.042,0.229-10.521,0c-6.896-10.813-16.042-21.802-28.167-23.719
				c-12.323-1.875-24.344,5.625-34.177,13.771c-3.313-1-6.583-2.063-9.823-3.208c-3.198-12.385-8.5-25.573-19.427-31.156
				c-11.01-5.625-24.896-2.125-36.896,2.573c-2.792-1.948-5.531-3.969-8.229-6.031c0.781-12.854-0.177-27.135-8.885-35.844
				c-8.688-8.667-22.948-9.656-35.823-8.865c-2.063-2.698-4.083-5.448-6.031-8.24c4.708-12,8.177-25.906,2.573-36.875
				c-5.573-10.938-18.771-16.24-31.156-19.438c-1.135-3.24-2.198-6.51-3.198-9.813c8.146-9.844,15.698-21.885,13.771-34.177
				c-1.917-12.125-12.906-21.271-23.719-28.167c-0.115-1.74-0.219-3.49-0.219-5.26s0.104-3.521,0.219-5.26
				c10.813-6.896,21.802-16.042,23.719-28.167c1.927-12.302-5.625-24.344-13.771-34.177c1-3.313,2.063-6.583,3.208-9.823
				c12.385-3.198,25.583-8.5,31.156-19.427c5.604-10.979,2.135-24.885-2.573-36.896c1.948-2.792,3.969-5.531,6.031-8.229
				c12.823,0.771,27.125-0.177,35.844-8.885c8.688-8.698,9.646-22.979,8.865-35.823c2.698-2.063,5.448-4.083,8.24-6.031
				c12,4.708,25.906,8.177,36.875,2.573c10.938-5.583,16.24-18.771,19.438-31.156c3.24-1.135,6.51-2.208,9.813-3.198
				c9.844,8.146,21.927,15.573,34.177,13.771c12.125-1.917,21.271-12.906,28.167-23.719c3.479-0.229,7.042-0.229,10.521,0
				c6.896,10.812,16.042,21.802,28.167,23.719c12.271,1.823,24.323-5.625,34.177-13.771c3.302,1,6.583,2.062,9.823,3.208
				c3.198,12.375,8.5,25.563,19.427,31.156c10.969,5.604,24.875,2.125,36.896-2.573c2.792,1.948,5.531,3.969,8.229,6.031
				c-0.781,12.854,0.177,27.135,8.885,35.844c8.688,8.677,22.958,9.646,35.823,8.865c2.063,2.698,4.083,5.448,6.031,8.24
				c-4.698,12-8.177,25.906-2.573,36.875c5.573,10.938,18.771,16.24,31.156,19.438c1.135,3.24,2.198,6.51,3.198,9.813
				c-8.146,9.844-15.698,21.885-13.771,34.177c1.917,12.125,12.906,21.271,23.719,28.167c0.115,1.74,0.219,3.49,0.219,5.26
				S490.563,259.521,490.448,261.26z"/>
			<path d="M447.583,247.573c-0.208-4.302-2.969-8.052-7.01-9.521c-13.021-4.74-14.792-8.813-14.854-8.969
				c-0.115-0.875,1.469-5.552,11.365-13.229c3.427-2.646,4.906-7.104,3.75-11.271c-1.479-5.344-3.208-10.573-5.135-15.719
				c-1.51-4.052-5.313-6.792-9.635-6.927c-14.25-0.479-16.927-3.927-16.927-3.927c-0.021-0.042-1.292-4.271,6.792-16.24
				c2.417-3.583,2.427-8.281,0.042-11.875c-3.042-4.573-6.323-8.969-9.729-13.26c-2.708-3.375-7.177-4.823-11.313-3.615
				c-13.75,3.969-17.396,1.521-17.417,1.5c-0.031-0.031-2.49-3.646,1.49-17.438c1.198-4.156-0.229-8.635-3.625-11.323
				c-4.292-3.396-8.677-6.677-13.25-9.719c-3.615-2.406-8.302-2.385-11.875,0.042c-11.948,8.063-16.177,6.875-16.229,6.792
				c-0.031-0.021-3.479-2.719-3.948-16.938c-0.135-4.323-2.875-8.125-6.927-9.635c-5.146-1.927-10.375-3.656-15.719-5.135
				c-4.198-1.156-8.635,0.323-11.271,3.75c-7.74,9.979-12.5,11.344-13.229,11.365c-0.042-0.01-4.167-1.635-8.979-14.854
				c-1.469-4.042-5.219-6.802-9.521-7.01l-2.594-0.156c-3.875-0.271-7.792-0.271-11.667,0l-2.594,0.156
				c-4.302,0.208-8.052,2.969-9.521,7.01c-4.813,13.219-8.938,14.844-8.958,14.844c-1.021,0.177-5.604-1.5-13.24-11.354
				c-2.646-3.417-7.115-4.875-11.271-3.75c-5.344,1.479-10.573,3.208-15.719,5.135c-4.052,1.51-6.792,5.313-6.927,9.635
				c-0.479,14.25-3.927,16.927-3.927,16.927c-0.021,0.031-4.26,1.292-16.24-6.792c-3.594-2.417-8.281-2.438-11.875-0.042
				c-4.573,3.042-8.969,6.323-13.26,9.729c-3.385,2.688-4.813,7.156-3.615,11.313c3.969,13.75,1.521,17.406,1.5,17.417
				c-0.01,0.031-3.677,2.5-17.438-1.49c-4.135-1.198-8.615,0.24-11.323,3.625c-3.396,4.292-6.677,8.677-9.719,13.25
				c-2.385,3.594-2.375,8.292,0.042,11.875c8.073,11.969,6.813,16.198,6.802,16.219c-0.031,0.042-2.74,3.49-16.948,3.958
				c-4.323,0.135-8.125,2.875-9.635,6.927c-1.927,5.146-3.656,10.375-5.135,15.719c-1.156,4.167,0.323,8.625,3.75,11.271
				c9.948,7.719,11.49,12.417,11.365,13.229c-0.01,0.042-1.635,4.167-14.854,8.979c-4.042,1.469-6.802,5.219-7.01,9.521
				l-0.156,2.594C64.125,252.104,64,254.031,64,256s0.125,3.896,0.26,5.833l0.156,2.594c0.208,4.302,2.969,8.052,7.01,9.521
				c13.219,4.813,14.844,8.938,14.844,8.958c0.135,0.833-1.406,5.531-11.354,13.24c-3.427,2.646-4.906,7.104-3.75,11.271
				c1.479,5.344,3.208,10.573,5.135,15.719c1.51,4.052,5.313,6.792,9.635,6.927c14.25,0.479,16.927,3.927,16.927,3.927
				c0.021,0.042,1.292,4.271-6.792,16.24c-2.417,3.583-2.427,8.281-0.042,11.875c3.052,4.583,6.323,8.979,9.74,13.271
				c2.708,3.375,7.177,4.781,11.302,3.604c13.75-3.958,17.406-1.531,17.417-1.5c0.031,0.031,2.49,3.646-1.49,17.427
				c-1.198,4.146,0.229,8.615,3.615,11.313c4.292,3.417,8.688,6.698,13.26,9.74c3.583,2.375,8.271,2.375,11.875-0.042
				c11.958-8.063,16.208-6.802,16.229-6.792c0.031,0.021,3.479,2.719,3.948,16.938c0.135,4.323,2.875,8.125,6.927,9.635
				c5.146,1.927,10.375,3.656,15.719,5.135c4.135,1.125,8.615-0.333,11.271-3.75c7.729-9.979,12.313-11.49,13.229-11.365
				c0.042,0.01,4.167,1.635,8.979,14.854c1.469,4.042,5.219,6.802,9.521,7.01l2.594,0.156c1.938,0.135,3.865,0.26,5.833,0.26
				s3.896-0.125,5.833-0.26l2.594-0.156c4.302-0.208,8.052-2.969,9.521-7.01c4.823-13.24,8.948-14.854,8.948-14.854
				c1.01-0.24,5.531,1.406,13.25,11.365c2.646,3.427,7.115,4.917,11.271,3.75c5.344-1.479,10.573-3.208,15.719-5.135
				c4.052-1.51,6.792-5.313,6.927-9.635c0.479-14.25,3.927-16.927,3.927-16.927c0-0.063,4.25-1.302,16.24,6.792
				c3.583,2.427,8.271,2.427,11.875,0.042c4.583-3.052,8.979-6.323,13.271-9.74c3.375-2.698,4.802-7.156,3.604-11.302
				c-3.969-13.74-1.521-17.406-1.5-17.417c0.01-0.031,3.677-2.51,17.438,1.49c4.156,1.188,8.625-0.229,11.323-3.625
				c3.396-4.292,6.677-8.677,9.719-13.25c2.385-3.594,2.375-8.292-0.042-11.875c-8.073-11.969-6.813-16.198-6.792-16.229
				c0.021-0.031,2.719-3.479,16.938-3.948c4.323-0.135,8.125-2.875,9.635-6.927c1.927-5.146,3.656-10.375,5.135-15.719
				c1.156-4.167-0.323-8.625-3.75-11.271c-9.948-7.719-11.49-12.417-11.365-13.24c0.01-0.031,1.625-4.146,14.854-8.969
				c4.042-1.469,6.802-5.219,7.01-9.521l0.156-2.594c0.135-1.938,0.26-3.865,0.26-5.833s-0.125-3.896-0.26-5.833L447.583,247.573z
				 M426.656,256.594c-13.156,6-20.552,13.719-22.01,23c-1.469,9.354,3.125,18.958,13.677,28.635
				c-0.115,0.354-0.229,0.708-0.354,1.063c-14.229,1.635-23.583,6.677-27.844,15.021c-4.292,8.385-2.875,18.979,4.188,31.542
				c-0.219,0.292-0.427,0.583-0.646,0.875c-14.146-2.875-24.615-0.969-31.271,5.688s-8.552,17.146-5.688,31.271
				c-0.292,0.208-0.583,0.427-0.865,0.635c-12.563-7.063-23.146-8.469-31.542-4.198c-8.344,4.271-13.385,13.625-15.021,27.844
				c-0.354,0.125-0.708,0.24-1.063,0.354c-9.656-10.542-19.302-15.115-28.635-13.677c-9.281,1.469-17,8.865-22.99,22.01
				c-0.396,0.021-0.792,0.021-1.188,0c-6-13.156-13.719-20.552-23-22.01c-9.354-1.458-18.969,3.115-28.635,13.677
				c-0.354-0.115-0.708-0.229-1.063-0.354c-1.635-14.229-6.677-23.583-15.021-27.844c-8.375-4.281-18.979-2.875-31.542,4.188
				c-0.292-0.219-0.583-0.438-0.875-0.646c2.865-14.125,0.969-24.615-5.688-31.271c-6.646-6.656-17.125-8.563-31.271-5.688
				c-0.208-0.292-0.427-0.583-0.635-0.865c7.063-12.563,8.469-23.146,4.198-31.542c-4.271-8.344-13.625-13.385-27.844-15.021
				c-0.125-0.354-0.24-0.708-0.354-1.063c10.552-9.677,15.146-19.281,13.677-28.625c-1.458-9.281-8.854-17-22.01-23
				c-0.01-0.198-0.01-0.396-0.01-0.594s0-0.396,0.01-0.594c13.156-6,20.552-13.719,22.01-23c1.469-9.354-3.125-18.958-13.677-28.635
				c0.115-0.354,0.229-0.708,0.354-1.063c14.229-1.635,23.573-6.677,27.844-15.021c4.292-8.385,2.875-18.979-4.188-31.542
				c0.219-0.292,0.427-0.583,0.646-0.875c14.125,2.896,24.625,0.979,31.271-5.688c6.646-6.646,8.552-17.146,5.688-31.26
				c0.292-0.219,0.583-0.427,0.875-0.646c12.563,7.063,23.146,8.448,31.531,4.198c8.344-4.271,13.385-13.625,15.021-27.844
				c0.354-0.125,0.708-0.24,1.063-0.354c9.688,10.552,19.292,15.146,28.625,13.677c9.281-1.458,17-8.854,23-22.01
				c0.396-0.021,0.792-0.021,1.188,0c6,13.156,13.719,20.552,23,22.01c9.292,1.438,18.958-3.115,28.635-13.677
				c0.354,0.115,0.708,0.229,1.063,0.354c1.635,14.229,6.677,23.583,15.021,27.844c8.385,4.313,18.99,2.885,31.542-4.188
				c0.292,0.219,0.583,0.427,0.875,0.646c-2.865,14.125-0.958,24.625,5.688,31.271c6.635,6.667,17.146,8.573,31.26,5.688
				c0.219,0.292,0.427,0.583,0.646,0.875c-7.063,12.552-8.469,23.135-4.198,31.531c4.271,8.344,13.625,13.385,27.844,15.021
				c0.125,0.354,0.24,0.708,0.354,1.063c-10.552,9.677-15.146,19.281-13.677,28.625c1.469,9.292,8.854,17,22.01,23
				c0.01,0.198,0.01,0.396,0.01,0.594S426.667,256.396,426.656,256.594z"/>
			<path d="M375.667,240.844c-4.823-1.198-6.875-2.365-7.552-2.427c0.542-0.74,2.125-2.479,6.365-5.094
				c4.042-2.5,5.938-7.375,4.656-11.958c-0.938-3.323-2.021-6.583-3.208-9.792c-1.656-4.438-5.781-7.177-10.771-6.917
				c-1.438,0.104-2.656,0.135-3.667,0.135c-2.479-0.01-3.74-0.24-4.25-0.104c0.292-0.875,1.26-3.052,4.51-6.927
				c3.052-3.625,3.354-8.823,0.729-12.771c-1.906-2.865-3.99-5.604-6.115-8.292c-2.969-3.74-8.01-5.01-12.385-3.26
				c-4.594,1.875-6.958,2.146-7.552,2.5c0.01-0.927,0.281-3.292,2.156-7.885c1.792-4.396,0.469-9.448-3.25-12.396
				c-2.688-2.125-5.427-4.208-8.292-6.115c-3.927-2.625-9.146-2.344-12.771,0.719c-3.875,3.26-6.063,4.229-6.5,4.74
				c-0.281-0.875-0.75-3.188-0.396-8.146c0.344-4.729-2.469-9.115-6.917-10.771c-3.208-1.188-6.469-2.271-9.792-3.208
				c-4.583-1.302-9.448,0.625-11.948,4.646c-2.646,4.271-4.396,5.844-4.635,6.458c-0.542-0.74-1.719-2.792-2.927-7.656
				c-1.125-4.49-6.896-7.854-11.51-8.167c-2.406-0.167-3.26-0.26-8.865,0.094c-4.74,0.188-8.792,3.479-9.938,8.083
				c-1.198,4.823-2.365,6.875-2.438,7.552c-0.729-0.542-2.469-2.125-5.083-6.365c-2.5-4.052-7.385-5.958-11.958-4.656
				c-3.323,0.938-6.583,2.021-9.792,3.208c-4.448,1.656-7.26,6.042-6.917,10.771c0.354,4.938-0.115,7.25,0.031,7.917
				c-0.875-0.292-3.063-1.26-6.927-4.51c-3.625-3.052-8.833-3.323-12.771-0.729c-2.865,1.906-5.604,3.99-8.292,6.115
				c-3.719,2.948-5.042,7.99-3.26,12.385c1.875,4.594,2.146,6.958,2.5,7.552c-0.927-0.01-3.292-0.281-7.885-2.156
				c-4.385-1.781-9.438-0.469-12.396,3.25c-2.125,2.688-4.208,5.427-6.115,8.292c-2.615,3.938-2.333,9.135,0.719,12.76
				c3.26,3.885,4.229,6.073,4.74,6.51c-0.854,0.281-3.135,0.781-8.146,0.396c-4.74-0.26-9.115,2.479-10.771,6.917
				c-1.188,3.208-2.271,6.469-3.208,9.792c-1.281,4.573,0.615,9.448,4.656,11.948c4.271,2.646,5.844,4.396,6.448,4.635
				c-0.74,0.531-2.781,1.719-7.656,2.927c-4.49,1.125-7.854,6.896-8.167,11.51C128.073,253.563,128,254.771,128,256
				c0,1.219,0.073,2.427,0.25,5.219c0.188,4.74,3.479,8.792,8.083,9.938c4.823,1.198,6.875,2.365,7.552,2.427
				c-0.542,0.74-2.125,2.479-6.365,5.094c-4.042,2.5-5.938,7.375-4.656,11.958c0.938,3.323,2.021,6.583,3.208,9.792
				c1.656,4.438,5.875,7.448,10.771,6.917c1.438-0.104,2.646-0.135,3.667-0.135c2.458,0,3.729,0.208,4.25,0.104
				c-0.292,0.875-1.26,3.063-4.51,6.927c-3.052,3.625-3.354,8.823-0.729,12.771c1.906,2.865,3.99,5.604,6.115,8.292
				c2.948,3.729,7.979,5.021,12.396,3.25c4.594-1.875,6.948-2.146,7.542-2.5c-0.01,0.938-0.281,3.292-2.156,7.896
				c-1.792,4.396-0.469,9.448,3.25,12.396c2.688,2.125,5.427,4.208,8.292,6.115c3.906,2.583,9.125,2.302,12.771-0.719
				c3.875-3.26,6.063-4.229,6.5-4.74c0.281,0.875,0.75,3.188,0.396,8.146c-0.344,4.729,2.469,9.115,6.917,10.771
				c3.208,1.188,6.469,2.271,9.792,3.208c4.573,1.292,9.448-0.604,11.948-4.656c2.646-4.271,4.396-5.844,4.635-6.448
				c0.531,0.74,1.719,2.781,2.927,7.656c1.125,4.49,6.896,7.854,11.51,8.167c1.208,0.083,2.417,0.156,3.646,0.156
				c1.219,0,2.427-0.073,5.219-0.25c4.74-0.188,8.792-3.479,9.938-8.083c1.198-4.823,2.365-6.875,2.438-7.552
				c0.729,0.542,2.469,2.125,5.083,6.365c2.51,4.042,7.344,5.927,11.958,4.656c3.323-0.938,6.583-2.021,9.792-3.208
				c4.448-1.656,7.26-6.042,6.917-10.771c-0.354-4.938,0.115-7.25-0.031-7.917c0.875,0.292,3.052,1.26,6.927,4.51
				c3.625,3.052,8.833,3.323,12.771,0.729c2.865-1.906,5.604-3.99,8.292-6.115c3.719-2.948,5.042-7.99,3.26-12.385
				c-1.875-4.594-2.146-6.958-2.5-7.552c0.927,0.01,3.292,0.281,7.885,2.156c4.427,1.792,9.448,0.49,12.396-3.25
				c2.125-2.688,4.208-5.427,6.115-8.292c2.615-3.938,2.333-9.135-0.719-12.76c-3.26-3.885-4.229-6.073-4.74-6.521
				c0.896-0.26,3.208-0.729,8.146-0.385c4.979,0.469,9.115-2.479,10.771-6.917c1.188-3.208,2.271-6.469,3.208-9.792
				c1.281-4.573-0.615-9.448-4.646-11.948c-4.271-2.646-5.844-4.396-6.458-4.635c0.74-0.542,2.792-1.719,7.656-2.927
				c4.49-1.125,7.854-6.896,8.167-11.51c0.083-1.208,0.156-2.417,0.156-3.646c0-1.219-0.073-2.427-0.25-5.219
				C383.563,246.042,380.271,241.99,375.667,240.844z M346.885,270.458c-1.083,6.844,1.354,12.396,4.74,16.667
				c-5.25,1.458-10.479,4.49-13.625,10.635c-3.156,6.188-2.542,12.24-0.625,17.375c-5.469-0.281-11.417,1.021-16.323,5.927
				c-4.917,4.896-6.188,10.854-5.938,16.323c-5.125-1.896-11.167-2.521-17.375,0.625c-6.146,3.135-9.188,8.365-10.635,13.604
				c-4.271-3.375-9.74-5.813-16.667-4.74c-6.896,1.083-11.438,5.198-14.438,9.802c-3.021-4.604-7.563-8.719-14.458-9.792
				c-1.115-0.177-2.198-0.26-3.25-0.26c-5.385,0-9.854,2.156-13.417,4.99c-1.458-5.24-4.5-10.469-10.635-13.615
				c-6.208-3.167-12.25-2.552-17.375-0.635c0.25-5.458-1.021-11.406-5.927-16.313c-4.896-4.917-10.833-6.219-16.323-5.948
				c1.906-5.125,2.521-11.167-0.625-17.365c-3.135-6.146-8.365-9.188-13.604-10.635c3.385-4.271,5.813-9.813,4.74-16.667
				c-1.083-6.896-5.198-11.438-9.802-14.438c4.604-3.021,8.719-7.563,9.792-14.458c1.083-6.854-1.344-12.406-4.729-16.667
				c5.25-1.458,10.479-4.5,13.615-10.646c3.156-6.188,2.542-12.24,0.625-17.365c5.563,0.25,11.417-1.01,16.323-5.927
				c4.917-4.896,6.188-10.854,5.938-16.323c5.125,1.896,11.167,2.521,17.375-0.625c6.146-3.135,9.188-8.365,10.635-13.604
				c4.26,3.375,9.698,5.781,16.667,4.74c6.896-1.083,11.438-5.198,14.438-9.802c3.021,4.604,7.563,8.719,14.458,9.792
				c6.76,1.063,12.385-1.365,16.667-4.74c1.458,5.25,4.49,10.479,10.635,13.625c6.208,3.167,12.25,2.552,17.375,0.635
				c-0.25,5.458,1.021,11.406,5.927,16.313c4.906,4.917,10.885,6.177,16.323,5.938c-1.906,5.125-2.521,11.177,0.625,17.375
				c3.135,6.146,8.365,9.188,13.604,10.635c-3.385,4.271-5.813,9.813-4.74,16.667c1.083,6.896,5.198,11.438,9.802,14.438
				C352.073,259.021,347.958,263.563,346.885,270.458z"/>
			<path d="M256,192c-35.292,0-64,28.708-64,64s28.708,64,64,64s64-28.708,64-64S291.292,192,256,192z M256,298.667
				c-23.531,0-42.667-19.135-42.667-42.667s19.135-42.667,42.667-42.667s42.667,19.135,42.667,42.667S279.531,298.667,256,298.667z"
				/>
		</g>
	</g>
</g>
<g>
</g>
<g>
</g>
<g>
</g>
<g>
</g>
<g>
</g>
<g>
</g>
<g>
</g>
<g>
</g>
<g>
</g>
<g>
</g>
<g>
</g>
<g>
</g>
<g>
</g>
<g>
</g>
<g>
</g>
</svg>
