<?xml version="1.0" encoding="iso-8859-1"?>
<!-- Generator: Adobe Illustrator 19.0.0, SVG Export Plug-In . SVG Version: 6.00 Build 0)  -->
<svg version="1.1" id="Capa_1" xmlns="http://www.w3.org/2000/svg" xmlns:xlink="http://www.w3.org/1999/xlink" x="0px" y="0px"
	 viewBox="0 0 512 512" style="enable-background:new 0 0 512 512;" xml:space="preserve">
<g>
	<g>
		<g>
			<path d="M192,298.667c-84.458,0-128-37.385-128-53.333c0-5.896-4.771-10.667-10.667-10.667c-5.896,0-10.667,4.771-10.667,10.667
				C42.667,280.646,104,320,192,320c5.896,0,10.667-4.771,10.667-10.667C202.667,303.438,197.896,298.667,192,298.667z"/>
			<path d="M192,192c-30.833,0-64,10.01-64,32s33.167,32,64,32s64-10.01,64-32S222.833,192,192,192z M192,234.667
				c-26.5,0-41.334-8.042-42.771-10.094c1.437-3.198,16.271-11.24,42.771-11.24c25.042,0,39.646,7.177,42.396,10.667
				C231.646,227.49,217.042,234.667,192,234.667z"/>
			<path d="M458.667,234.667c-16.667,0-32.417,8.042-42.438,21.333H384v-10.667C384,179.542,299.667,128,192,128
				S0,179.542,0,245.333V320c0,26.069,16.038,49.667,43.027,68.007c3.721,37.794,59.167,81.327,127.639,81.327h42.667
				c68.473,0,123.918-43.533,127.639-81.327C367.962,369.667,384,346.069,384,320h32.229c10.021,13.292,25.771,21.333,42.438,21.333
				C488.083,341.333,512,317.406,512,288S488.083,234.667,458.667,234.667z M213.333,448h-42.667
				c-44.832,0-83.078-22.445-98.849-44.316c32.694,14.409,74.276,22.983,120.182,22.983c45.908,0,87.491-8.576,120.185-22.984
				C296.414,425.553,258.165,448,213.333,448z M362.667,309.333V320c0,46.26-78.146,85.333-170.667,85.333S21.333,366.26,21.333,320
				v-20.245c31.609,37.66,95.372,62.911,170.667,62.911s139.057-25.251,170.667-62.911V309.333z M192,341.333
				c-92.521,0-170.667-43.958-170.667-96c0-52.042,78.146-96,170.667-96s170.667,43.958,170.667,96
				C362.667,297.375,284.521,341.333,192,341.333z M458.667,320c-11.396,0-21.688-5.99-27.542-16.031
				c-1.896-3.281-5.417-5.302-9.208-5.302H384v-21.333h37.917c3.792,0,7.313-2.021,9.208-5.302
				C436.979,261.99,447.271,256,458.667,256c17.646,0,32,14.354,32,32S476.313,320,458.667,320z"/>
			<path d="M67.125,124.875c2.083,2.083,4.813,3.125,7.542,3.125c2.729,0,5.458-1.042,7.542-3.125
				c4.167-4.167,4.167-10.917,0-15.083L39.542,67.125c-4.167-4.167-10.917-4.167-15.083,0c-4.167,4.167-4.167,10.917,0,15.083
				L67.125,124.875z"/>
			<path d="M309.333,128c2.729,0,5.458-1.042,7.542-3.125l42.667-42.667c4.167-4.167,4.167-10.917,0-15.083s-10.917-4.167-15.083,0
				l-42.667,42.667c-4.167,4.167-4.167,10.917,0,15.083C303.875,126.958,306.604,128,309.333,128z"/>
			<path d="M192,106.667c5.896,0,10.667-4.771,10.667-10.667V53.333c0-5.896-4.771-10.667-10.667-10.667
				s-10.667,4.771-10.667,10.667V96C181.333,101.896,186.104,106.667,192,106.667z"/>
		</g>
	</g>
</g>
<g>
</g>
<g>
</g>
<g>
</g>
<g>
</g>
<g>
</g>
<g>
</g>
<g>
</g>
<g>
</g>
<g>
</g>
<g>
</g>
<g>
</g>
<g>
</g>
<g>
</g>
<g>
</g>
<g>
</g>
</svg>
