<?xml version="1.0" encoding="iso-8859-1"?>
<!-- Generator: Adobe Illustrator 19.0.0, SVG Export Plug-In . SVG Version: 6.00 Build 0)  -->
<svg version="1.1" id="Capa_1" xmlns="http://www.w3.org/2000/svg" xmlns:xlink="http://www.w3.org/1999/xlink" x="0px" y="0px"
	 viewBox="0 0 512 512" style="enable-background:new 0 0 512 512;" xml:space="preserve">
<g>
	<g>
		<g>
			<path d="M456.833,313.75l-23.917-23.917c-7.938-7.948-18.938-12.5-30.167-12.5H258.583c-11.229,0-22.229,4.552-30.167,12.5
				L204.5,313.75c-7.938,7.938-12.5,18.938-12.5,30.167V352h-32c0-5.896-4.771-10.667-10.667-10.667V96c0-17.646-14.354-32-32-32
				c-3.758,0-7.314,0.77-10.667,1.965V53.333C106.667,23.927,82.75,0,53.333,0c-5.896,0-10.667,4.771-10.667,10.667v128
				c0,5.896,4.771,10.667,10.667,10.667c12.055,0,23.06-4.168,32-10.935v202.935c-5.896,0-10.667,4.771-10.667,10.667v53.333
				c0,11.76,9.563,21.333,21.333,21.333h42.667c7.798,0,14.333-4.409,18.055-10.667H192v29.417c0,11.229,4.563,22.229,12.5,30.167
				l23.917,23.917c7.938,7.948,18.938,12.5,30.167,12.5H402.75c11.229,0,22.229-4.552,30.167-12.5l23.917-23.917
				c7.938-7.938,12.5-18.938,12.5-30.167v-101.5C469.333,332.688,464.771,321.688,456.833,313.75z M85.333,96
				c0,13.906-8.917,25.771-21.333,30.177V23.156c12.417,4.406,21.333,16.271,21.333,30.177V96z M138.667,405.333H96v-42.667
				c5.896,0,10.667-4.771,10.667-10.667V96c0-5.885,4.792-10.667,10.667-10.667S128,90.115,128,96v256
				c0,5.896,4.771,10.667,10.667,10.667V405.333z M192,394.667h-32v-21.333h32V394.667z M448,445.417
				c0,5.615-2.271,11.115-6.25,15.083l-23.917,23.917c-3.979,3.969-9.479,6.25-15.083,6.25H258.583
				c-5.604,0-11.104-2.281-15.083-6.25L219.583,460.5c-3.979-3.969-6.25-9.469-6.25-15.083v-101.5c0-5.615,2.271-11.115,6.25-15.083
				l23.917-23.917c3.979-3.969,9.479-6.25,15.083-6.25H402.75c5.604,0,11.104,2.281,15.083,6.25l23.917,23.917
				c3.979,3.969,6.25,9.469,6.25,15.083V445.417z"/>
			<path d="M416,405.333H245.333c-5.896,0-10.667,4.771-10.667,10.667v21.333c0,2.479,0.875,4.885,2.458,6.802l14.479,17.5
				c4.083,4.896,10.063,7.698,16.417,7.698h125.292c6.354,0,12.333-2.802,16.438-7.729l14.458-17.469
				c1.583-1.917,2.458-4.323,2.458-6.802V416C426.667,410.104,421.896,405.333,416,405.333z M405.333,433.49L393.313,448H268
				l-12-14.51v-6.823h149.333V433.49z"/>
			<path d="M409.729,327.698c-4.083-4.896-10.063-7.698-16.417-7.698H268.021c-6.354,0-12.333,2.802-16.438,7.729l-14.458,17.469
				c-1.583,1.917-2.458,4.323-2.458,6.802v21.333c0,5.896,4.771,10.667,10.667,10.667H416c5.896,0,10.667-4.771,10.667-10.667V352
				c0-2.479-0.875-4.885-2.458-6.802L409.729,327.698z M405.333,362.667H256v-6.823l12.021-14.51h125.312l12,14.51V362.667z"/>
		</g>
	</g>
</g>
<g>
</g>
<g>
</g>
<g>
</g>
<g>
</g>
<g>
</g>
<g>
</g>
<g>
</g>
<g>
</g>
<g>
</g>
<g>
</g>
<g>
</g>
<g>
</g>
<g>
</g>
<g>
</g>
<g>
</g>
</svg>
