<?xml version="1.0" encoding="iso-8859-1"?>
<!-- Generator: Adobe Illustrator 19.0.0, SVG Export Plug-In . SVG Version: 6.00 Build 0)  -->
<svg version="1.1" id="Capa_1" xmlns="http://www.w3.org/2000/svg" xmlns:xlink="http://www.w3.org/1999/xlink" x="0px" y="0px"
	 viewBox="0 0 426.667 426.667" style="enable-background:new 0 0 426.667 426.667;" xml:space="preserve">
<g>
	<g>
		<g>
			<path d="M416,0H271.271c-46.313,0-92.708,5.094-137.896,15.135l-15.333,3.406C48.542,33.99,0,94.5,0,165.698
				c0,50.301,24.992,95.866,64.784,123.523l15.299,96.102c3.979,23.958,24.5,41.344,48.792,41.344
				c23.375,0,43.229-15.927,48.292-38.792l12.404-57.092c31.984,5.862,64.388,9.374,97.025,10.271
				c0.477,0.065,0.918,0.28,1.405,0.28h19.292c12.854,0,24.917-5.677,33.063-15.573c6.346-7.728,9.557-17.297,9.49-27.094H352
				c29.417,0,53.333-23.927,53.333-53.333V79.397c12.689-7.401,21.333-21.008,21.333-36.73v-32C426.667,4.771,421.896,0,416,0z
				 M156.333,383.302c-2.875,12.969-14.167,22.031-27.458,22.031c-13.813,0-25.479-9.885-27.729-23.438L88.52,302.538
				c4.786,2.173,9.492,4.48,14.564,6.171c21.555,7.19,43.518,12.784,65.639,17.612L156.333,383.302z M270.738,318.693
				c-54.76-2.967-108.823-12.85-160.905-30.214c-52.937-17.646-88.5-66.979-88.5-122.781c0-61.125,41.667-113.073,101.333-126.323
				L138,35.969c43.688-9.708,88.521-14.635,133.271-14.635h1.493C266.102,43.12,256,89.517,256,170.667
				C256,255.027,263.818,297.54,270.738,318.693z M384,245.333c0,17.646-14.354,32-32,32h-4.893
				c-4.15-27.695-6.185-63.112-5.773-106.563c0.375-39.188,12.25-72.365,17.625-85.438H384V245.333z M405.333,42.667
				C405.333,54.427,395.771,64,384,64h-32c-4.063,0-7.771,2.313-9.563,5.948c-0.896,1.823-21.896,45.073-22.438,100.615
				c-0.479,52.021,2.292,93.854,8.271,124.344c1.188,6.146-0.396,12.448-4.396,17.292c-4.083,4.958-10.125,7.802-16.583,7.802
				h-13.313c-4.875-10.354-16.646-46.052-16.646-149.333c0-89.083,12.583-134.26,17.896-149.333h14.104h96V42.667z"/>
			<circle cx="128" cy="373.333" r="21.333"/>
		</g>
	</g>
</g>
<g>
</g>
<g>
</g>
<g>
</g>
<g>
</g>
<g>
</g>
<g>
</g>
<g>
</g>
<g>
</g>
<g>
</g>
<g>
</g>
<g>
</g>
<g>
</g>
<g>
</g>
<g>
</g>
<g>
</g>
</svg>
