<?xml version="1.0" encoding="iso-8859-1"?>
<!-- Generator: Adobe Illustrator 19.0.0, SVG Export Plug-In . SVG Version: 6.00 Build 0)  -->
<svg version="1.1" id="Capa_1" xmlns="http://www.w3.org/2000/svg" xmlns:xlink="http://www.w3.org/1999/xlink" x="0px" y="0px"
	 viewBox="0 0 512 512" style="enable-background:new 0 0 512 512;" xml:space="preserve">
<g>
	<g>
		<g>
			<path d="M414.333,38.333C383.438,13.615,344.625,0,305.042,0h-87.646c-46.75,0-90.688,18.198-123.729,51.25L83.25,61.667
				C50.208,94.719,32,138.656,32,185.385v35.76c0,43.479,32.542,80.333,75.667,85.729c3.542,0.448,7.104,0.667,10.667,0.667
				c10.688,0,21.375-1.99,31.396-5.875l4.848-1.885l69.344,49.94c-6.456,5.858-10.587,14.228-10.587,23.612
				c0,13.888,8.944,25.617,21.333,30.035v97.965c0,5.896,4.771,10.667,10.667,10.667H288c5.896,0,10.667-4.771,10.667-10.667
				v-97.965C311.056,398.951,320,387.221,320,373.333c0-9-3.763-17.112-9.763-22.931l33.576-114.777
				c6.887-0.629,13.82-0.958,20.792-0.958h72.729C460.854,234.667,480,215.531,480,192v-17.031
				C480,121.531,456.063,71.729,414.333,38.333z M277.333,490.667H256v-85.333h21.333V490.667z M288,384h-42.667
				c-5.875,0-10.667-4.781-10.667-10.667c0-5.885,4.792-10.667,10.667-10.667H288c5.875,0,10.667,4.781,10.667,10.667
				C298.667,379.219,293.875,384,288,384z M290.607,341.596c-0.874-0.072-1.715-0.263-2.607-0.263h-39.229l-70.495-50.768
				l22.992-8.943l57.669,43.242c1.875,1.406,4.125,2.135,6.396,2.135c1.146,0,2.292-0.188,3.396-0.552
				c3.333-1.125,5.896-3.813,6.854-7.188l21.15-74.014c7.866-2.471,15.811-4.609,23.871-6.202L290.607,341.596z M224.677,272.518
				l47.349-18.414L259.333,298.5L224.677,272.518z M458.667,192c0,11.76-9.563,21.333-21.333,21.333h-72.729
				c-30.938,0-61.229,5.688-90.042,16.896L142,281.781c-10.083,3.896-21.104,5.25-31.667,3.927c-32.5-4.063-57-31.823-57-64.563
				v-35.76c0-41.031,15.979-79.615,45-108.635l10.417-10.417c29.021-29.021,67.604-45,108.646-45h87.646
				c34.75,0,68.833,11.958,95.958,33.667c36.646,29.313,57.667,73.042,57.667,119.969V192z"/>
			<path d="M387.688,71.646c-23.375-18.688-52.729-28.979-82.646-28.979c-5.896,0-10.667,4.771-10.667,10.667
				c0,5.896,4.771,10.667,10.667,10.667c25.104,0,49.708,8.635,69.313,24.302C400.813,109.5,416,141.083,416,174.969
				c0,5.896,4.771,10.667,10.667,10.667s10.667-4.771,10.667-10.667C437.333,134.573,419.229,96.917,387.688,71.646z"/>
		</g>
	</g>
</g>
<g>
</g>
<g>
</g>
<g>
</g>
<g>
</g>
<g>
</g>
<g>
</g>
<g>
</g>
<g>
</g>
<g>
</g>
<g>
</g>
<g>
</g>
<g>
</g>
<g>
</g>
<g>
</g>
<g>
</g>
</svg>
