<?xml version="1.0" encoding="iso-8859-1"?>
<!-- Generator: Adobe Illustrator 19.0.0, SVG Export Plug-In . SVG Version: 6.00 Build 0)  -->
<svg version="1.1" id="Capa_1" xmlns="http://www.w3.org/2000/svg" xmlns:xlink="http://www.w3.org/1999/xlink" x="0px" y="0px"
	 viewBox="0 0 469.333 469.333" style="enable-background:new 0 0 469.333 469.333;" xml:space="preserve">
<g>
	<g>
		<g>
			<path d="M74.667,362.188c-17.646,0-32,14.354-32,32c0,17.646,14.354,32,32,32s32-14.354,32-32
				C106.667,376.542,92.312,362.188,74.667,362.188z M74.667,404.854c-5.875,0-10.667-4.781-10.667-10.667
				c0-5.885,4.792-10.667,10.667-10.667s10.667,4.781,10.667,10.667C85.333,400.073,80.542,404.854,74.667,404.854z"/>
			<path d="M202.667,234.187c-17.646,0-32,14.354-32,32c0,17.646,14.354,32,32,32s32-14.354,32-32
				C234.667,248.542,220.312,234.187,202.667,234.187z M202.667,276.854c-5.875,0-10.667-4.781-10.667-10.667
				c0-5.885,4.792-10.667,10.667-10.667s10.667,4.781,10.667,10.667C213.333,272.073,208.542,276.854,202.667,276.854z"/>
			<path d="M458.063,133.375c7.063-22.052,11.271-44,11.271-58.708C469.333,33.5,435.833,0,394.667,0C353.5,0,320,33.5,320,74.667
				c0,14.708,4.208,36.656,11.271,58.698c7.383,23.125,7.529,47.458,0.921,70.704c-23.27,6.643-47.681,6.504-70.816-0.892
				c-22.104-7.063-44.042-11.271-58.708-11.271c-20.867,0-39.712,8.654-53.275,22.505c-9.958,10.124-21.499,27.345-30.954,46.359
				c-10.667,21.365-28.292,39-49.646,49.646c-19.354,9.646-36.896,21.406-46.917,31.458C7.771,355.969,0,374.719,0,394.667
				c0,19.948,7.771,38.698,21.875,52.792c14.083,14.104,32.833,21.875,52.792,21.875s38.708-7.771,52.792-21.875
				c10.063-10.063,21.833-27.594,31.458-46.906c10.646-21.365,28.271-38.99,49.646-49.646c7.701-3.84,15.452-8.305,23.081-13.198
				c9.435-1.91,19.529-4.479,29.732-7.74c24.375-7.792,50.208-7.792,74.583,0c21.004,6.711,41.661,10.723,56.268,11.117
				c0.829,0.027,1.604,0.247,2.44,0.247c41.167,0,74.667-33.5,74.667-74.667c0-14.708-4.208-36.656-11.271-58.698
				C450.271,183.562,450.271,157.771,458.063,133.375z M139.833,391.031c-8.542,17.104-19.042,32.948-27.458,41.344
				c-20.125,20.146-55.292,20.146-75.417,0c-10.083-10.073-15.625-23.469-15.625-37.708c0-14.24,5.542-27.635,15.625-37.719
				c8.375-8.385,24.208-18.896,41.333-27.438c21.085-10.508,38.82-26.923,51.618-46.655c6.305,28.143,28.475,50.288,56.642,56.526
				C166.785,352.178,150.348,369.917,139.833,391.031z M254.875,309.656c-19.813,6.323-39.813,10.25-52.208,10.25
				c-29.417,0-53.333-23.927-53.333-53.333c0-14.064,5.576-26.783,14.503-36.322c0.363-0.38,0.767-0.928,1.122-1.283l-0.035-0.035
				c9.66-9.688,23.009-15.694,37.743-15.694c12.396,0,32.396,3.927,52.208,10.25c23.1,7.381,47.204,8.512,70.966,3.927
				c-3.673,14.977-5.841,28.934-5.841,39.25c0,14.961,4.523,28.846,12.133,40.542C306.577,301.047,280.139,301.578,254.875,309.656z
				 M437.729,214.458c6.25,19.469,10.271,39.958,10.271,52.208C448,296.073,424.083,320,394.667,320v-0.094
				c-0.807,0-1.892-0.152-2.762-0.185c-28.112-1.47-50.572-24.594-50.572-53.055c0-12.25,4.021-32.74,10.271-52.219
				c9.125-28.646,9.125-58.917,0-87.573c-6.25-19.469-10.271-39.958-10.271-52.208c0-29.406,23.917-53.333,53.333-53.333
				C424.083,21.333,448,45.26,448,74.667c0,12.25-4.021,32.74-10.271,52.219C428.604,155.531,428.604,185.802,437.729,214.458z"/>
			<path d="M394.667,234.573c-17.646,0-32,14.354-32,32s14.354,32,32,32c17.646,0,32-14.354,32-32S412.313,234.573,394.667,234.573z
				 M394.667,277.24c-5.875,0-10.667-4.781-10.667-10.667s4.792-10.667,10.667-10.667s10.667,4.781,10.667,10.667
				S400.542,277.24,394.667,277.24z"/>
			<path d="M394.667,42.573c-17.646,0-32,14.354-32,32s14.354,32,32,32c17.646,0,32-14.354,32-32S412.313,42.573,394.667,42.573z
				 M394.667,85.24c-5.875,0-10.667-4.781-10.667-10.667s4.792-10.667,10.667-10.667s10.667,4.781,10.667,10.667
				S400.542,85.24,394.667,85.24z"/>
		</g>
	</g>
</g>
<g>
</g>
<g>
</g>
<g>
</g>
<g>
</g>
<g>
</g>
<g>
</g>
<g>
</g>
<g>
</g>
<g>
</g>
<g>
</g>
<g>
</g>
<g>
</g>
<g>
</g>
<g>
</g>
<g>
</g>
</svg>
