<?xml version="1.0" encoding="iso-8859-1"?>
<!-- Generator: Adobe Illustrator 19.0.0, SVG Export Plug-In . SVG Version: 6.00 Build 0)  -->
<svg version="1.1" id="Capa_1" xmlns="http://www.w3.org/2000/svg" xmlns:xlink="http://www.w3.org/1999/xlink" x="0px" y="0px"
	 viewBox="0 0 512.005 512.005" style="enable-background:new 0 0 512.005 512.005;" xml:space="preserve">
<g>
	<g>
		<g>
			<path d="M202.669,298.692c-5.896,0-10.667,4.771-10.667,10.667v127.979c0,5.896,4.771,10.667,10.667,10.667
				c5.896,0,10.667-4.771,10.667-10.667V309.359C213.336,303.463,208.565,298.692,202.669,298.692z"/>
			<path d="M362.669,128.005v-21.333c0-11.76-9.563-21.333-21.333-21.333V64.005c0-11.76-9.563-21.333-21.333-21.333h-42.667v-32
				c0-4.313-2.604-8.208-6.583-9.854c-3.958-1.656-8.563-0.75-11.625,2.313l-21.333,21.333c-2,2-3.125,4.708-3.125,7.542v10.667
				h-42.667c-11.771,0-21.333,9.573-21.333,21.333v21.333c-11.771,0-21.333,9.573-21.333,21.333v21.333
				c0,7.033,3.646,12.982,8.911,16.871c-5.508,7.186-8.911,16.061-8.911,25.796v14.875c0,14.292,7.104,27.563,19,35.5l7.125,4.75
				c3.021,2.01,4.75,5.25,4.75,8.875s-1.729,6.865-4.75,8.875l-7.125,4.75c-11.896,7.938-19,21.208-19,35.5v185.542
				c0,23.531,19.146,42.667,42.667,42.667h128c23.521,0,42.667-19.135,42.667-42.667V283.796c0-14.292-7.104-27.563-19-35.5
				l-7.125-4.75c-3.021-2.01-4.75-5.25-4.75-8.875s1.729-6.865,4.75-8.875l7.125-4.75c11.896-7.938,19-21.208,19-35.5v-14.875
				c0-9.734-3.404-18.609-8.911-25.796C359.023,140.986,362.669,135.037,362.669,128.005z M192.002,64.005h128v21.333h-128V64.005z
				 M341.336,185.546c0,7.146-3.563,13.781-9.5,17.75l-7.125,4.75c-8.917,5.948-14.25,15.906-14.25,26.625
				s5.333,20.677,14.25,26.625l7.125,4.75c5.938,3.969,9.5,10.604,9.5,17.75v185.542c0,11.76-9.563,21.333-21.333,21.333h-128
				c-11.771,0-21.333-9.573-21.333-21.333V283.796c0-7.146,3.563-13.781,9.5-17.75l7.125-4.75
				c8.917-5.948,14.25-15.906,14.25-26.625s-5.333-20.677-14.25-26.625l-7.125-4.75c-5.938-3.969-9.5-10.604-9.5-17.75v-14.875
				c0-11.76,9.563-21.333,21.333-21.333h128c11.771,0,21.333,9.573,21.333,21.333V185.546z M341.345,133.945l-0.009-0.004v-5.936
				H170.669v-21.333h170.667v21.333h0.021L341.345,133.945z"/>
		</g>
	</g>
</g>
<g>
</g>
<g>
</g>
<g>
</g>
<g>
</g>
<g>
</g>
<g>
</g>
<g>
</g>
<g>
</g>
<g>
</g>
<g>
</g>
<g>
</g>
<g>
</g>
<g>
</g>
<g>
</g>
<g>
</g>
</svg>
