<?xml version="1.0" encoding="iso-8859-1"?>
<!-- Generator: Adobe Illustrator 19.0.0, SVG Export Plug-In . SVG Version: 6.00 Build 0)  -->
<svg version="1.1" id="Capa_1" xmlns="http://www.w3.org/2000/svg" xmlns:xlink="http://www.w3.org/1999/xlink" x="0px" y="0px"
	 viewBox="0 0 512 512" style="enable-background:new 0 0 512 512;" xml:space="preserve">
<g>
	<g>
		<g>
			<path d="M405.333,384H384V128C384,57.417,326.583,0,256,0S128,57.417,128,128v256h-21.333C83.135,384,64,403.135,64,426.667
				v42.667C64,492.865,83.135,512,106.667,512h298.667C428.865,512,448,492.865,448,469.333v-42.667
				C448,403.135,428.865,384,405.333,384z M106.667,490.667c-11.76,0-21.333-9.573-21.333-21.333v-42.667
				c0-11.76,9.573-21.333,21.333-21.333V490.667z M149.333,128c0-58.813,47.854-106.667,106.667-106.667S362.667,69.188,362.667,128
				v256h-21.333V128c0-47.052-38.281-85.333-85.333-85.333S170.667,80.948,170.667,128v170.667h-21.333V128z M149.333,320h21.333v64
				h-21.333V320z M192,490.667h-64v-85.333h64V490.667z M192,128c0-35.292,28.708-64,64-64s64,28.708,64,64v256H192V128z
				 M426.667,469.333c0,11.76-9.573,21.333-21.333,21.333h-192v-85.333h192c11.76,0,21.333,9.573,21.333,21.333V469.333z"/>
			<path d="M149.333,455.387v13.947c0,5.896,4.771,10.667,10.667,10.667s10.667-4.771,10.667-10.667v-13.947
				c6.258-3.724,10.667-10.262,10.667-18.053c0-11.76-9.573-21.333-21.333-21.333s-21.333,9.573-21.333,21.333
				C138.667,445.125,143.076,451.663,149.333,455.387z"/>
		</g>
	</g>
</g>
<g>
</g>
<g>
</g>
<g>
</g>
<g>
</g>
<g>
</g>
<g>
</g>
<g>
</g>
<g>
</g>
<g>
</g>
<g>
</g>
<g>
</g>
<g>
</g>
<g>
</g>
<g>
</g>
<g>
</g>
</svg>
