<?xml version="1.0" encoding="iso-8859-1"?>
<!-- Generator: Adobe Illustrator 19.0.0, SVG Export Plug-In . SVG Version: 6.00 Build 0)  -->
<svg version="1.1" id="Capa_1" xmlns="http://www.w3.org/2000/svg" xmlns:xlink="http://www.w3.org/1999/xlink" x="0px" y="0px"
	 viewBox="0 0 469.333 469.333" style="enable-background:new 0 0 469.333 469.333;" xml:space="preserve">
<g>
	<g>
		<g>
			<path d="M458.667,362.667h-32v-21.333c11.76,0,21.333-9.573,21.333-21.333v-42.667c0-11.76-9.573-21.333-21.333-21.333v-42.667
				c0-57.01-22.208-110.615-62.542-150.906C323.833,22.167,270.292,0,213.344,0c-0.063,0-0.125,0-0.188,0
				C95.719,0.094,0.094,95.719,0,213.156c-0.052,57.021,22.125,110.635,62.427,150.969c40.292,40.333,93.896,62.542,150.906,62.542
				h86.413c4.956,24.314,26.5,42.667,52.254,42.667h106.667c5.896,0,10.667-4.771,10.667-10.667v-85.333
				C469.333,367.438,464.563,362.667,458.667,362.667z M426.688,320l-0.021,10.667V320h-21.333v-42.667h21.333V320
				C426.667,320,426.677,320,426.688,320z M299.746,405.333h-86.413c-51.313,0-99.552-19.99-135.823-56.292
				C41.24,312.74,21.292,264.49,21.333,213.177c0.094-105.698,86.146-191.75,191.844-191.844c0.052,0,0.104,0,0.167,0
				c51.25,0,99.438,19.948,135.698,56.177c36.302,36.271,56.292,84.51,56.292,135.823V256c-11.76,0-21.333,9.573-21.333,21.333V320
				c0,11.76,9.573,21.333,21.333,21.333v21.333H352C326.246,362.667,304.702,381.02,299.746,405.333z M448,448h-96
				c-17.646,0-32-14.354-32-32c0-17.646,14.354-32,32-32h96V448z"/>
			<path d="M292.417,234.667l3.125-3.125c2.667-2.667,3.729-6.531,2.792-10.188c-0.927-3.646-3.719-6.531-7.333-7.594l-15.604-4.573
				c1.302-5.823,1.938-11.51,1.938-17.188c0-47.052-38.281-85.333-85.333-85.333S106.667,144.948,106.667,192
				c0,52.729,48.385,95.5,102.521,83.396L213.761,291c1.063,3.615,3.948,6.406,7.594,7.333c3.625,0.927,7.51-0.125,10.188-2.792
				l3.125-3.125l24.458,24.458c2,2,4.708,3.125,7.542,3.125c0,2.833,1.125,5.542,3.125,7.542l10.667,10.667
				c2,2,4.708,3.125,7.542,3.125h42.667c5.896,0,10.667-4.771,10.667-10.667V288c0-2.833-1.125-5.542-3.125-7.542L292.417,234.667z
				 M320,320h-27.583L288,315.583v-6.25c0-5.896-4.771-10.667-10.667-10.667h-6.25l-28.875-28.875
				c-3.49-3.5-8.813-4.063-12.917-1.677l-2.604-8.885c-0.823-2.802-2.76-5.146-5.365-6.49c-2.583-1.333-5.615-1.521-8.396-0.583
				C205.531,254.74,198.677,256,192,256c-35.292,0-64-28.708-64-64c0-35.292,28.708-64,64-64s64,28.708,64,64
				c0,6.677-1.26,13.531-3.844,20.927c-0.958,2.76-0.75,5.802,0.583,8.396c1.344,2.604,3.688,4.542,6.49,5.365l8.885,2.604
				c-2.385,4.083-1.823,9.417,1.677,12.917L320,292.417V320z"/>
			<circle cx="170.667" cy="170.667" r="21.333"/>
		</g>
	</g>
</g>
<g>
</g>
<g>
</g>
<g>
</g>
<g>
</g>
<g>
</g>
<g>
</g>
<g>
</g>
<g>
</g>
<g>
</g>
<g>
</g>
<g>
</g>
<g>
</g>
<g>
</g>
<g>
</g>
<g>
</g>
</svg>
