<?xml version="1.0" encoding="iso-8859-1"?>
<!-- Generator: Adobe Illustrator 19.0.0, SVG Export Plug-In . SVG Version: 6.00 Build 0)  -->
<svg version="1.1" id="Capa_1" xmlns="http://www.w3.org/2000/svg" xmlns:xlink="http://www.w3.org/1999/xlink" x="0px" y="0px"
	 viewBox="0 0 512 512" style="enable-background:new 0 0 512 512;" xml:space="preserve">
<g>
	<g>
		<g>
			<path d="M455.558,308.533c19.499-16.699,33.965-35.606,43.021-56.19c30.015-68.367,8.317-146.725-51.442-189.414
				c0.646-3.229,0.959-6.406,0.959-9.594C448.096,23.928,424.157,0,394.737,0c-17.363,0-32.665,8.46-42.416,21.334h-192.64
				C149.93,8.46,134.628,0,117.265,0c-29.421,0-53.36,23.928-53.36,53.336c0,3.188,0.313,6.365,0.959,9.594
				C5.095,105.619-16.593,183.976,13.422,252.344c9.057,20.584,23.522,39.491,43.011,56.179l7.472,6.407v85.628
				c-18.488,16.449-25.679,41.106-18.801,65.628c5.899,20.99,23.334,38.116,44.428,43.616c5.669,1.479,11.381,2.198,17.019,2.198
				c14.142,0,27.837-4.563,39.165-13.313c15.831-12.219,24.908-30.689,24.908-50.669c0-17.855-7.358-34.501-20.406-46.606
				l3.158-17.397h17.248v32.001c0,5.896,4.773,10.667,10.672,10.667h53.36c5.899,0,10.672-4.771,10.672-10.667v-21.334
				c0-5.896-4.773-10.667-10.672-10.667v-10.667c5.899,0,10.672-4.771,10.672-10.667v-21.334c0-5.896-4.773-10.667-10.672-10.667
				v-10.667c5.899,0,10.672-4.771,10.672-10.667v-21.334c0-5.896-4.773-10.667-10.672-10.667h-53.36
				c-5.899,0-10.672,4.771-10.672,10.667v32.001h-8.133c-1.129-9.159-4.597-17.941-10.668-25.209
				c-8.379-10.021-20.291-16.188-33.183-17.282l-22.928-19.647c-8.796-7.532-15.591-15.678-20.198-24.199
				c-12.704-23.543-15.424-51.065-7.462-75.513c7.087-21.74,21.667-38.835,41.072-48.117c2.199-1.052,8.139-3.177,8.139-3.375
				c29.421,0,53.36-23.928,53.36-53.336c0-3.653-0.376-7.219-1.08-10.667h172.911c-0.703,3.448-1.08,7.015-1.08,10.667
				c0,29.387,23.887,53.294,52.453,53.294c0.031,0,0.052,0,0.083,0c1.178,0.167,4.93,1.219,5.982,1.677
				c20.958,9.188,37.696,29.939,44.783,55.502c9.64,34.772-1.24,70.815-28.389,94.066l-22.928,19.647
				c-12.892,1.094-24.804,7.261-33.183,17.282c-6.071,7.269-9.539,16.05-10.668,25.209h-8.133v-32.001
				c0-5.896-4.773-10.667-10.672-10.667h-53.36c-5.899,0-10.672,4.771-10.672,10.667v21.334c0,5.896,4.773,10.667,10.672,10.667
				v10.667c-5.899,0-10.672,4.771-10.672,10.667v21.334c0,5.896,4.773,10.667,10.672,10.667v10.667
				c-5.899,0-10.672,4.771-10.672,10.667v21.334c0,5.896,4.773,10.667,10.672,10.667h53.36c5.899,0,10.672-4.771,10.672-10.667
				v-32.001h17.25l3.156,17.386c-17.79,16.438-24.627,40.679-17.863,64.784c5.899,20.99,23.334,38.116,44.428,43.616
				c5.669,1.479,11.381,2.198,17.019,2.198c14.142,0,27.837-4.563,39.165-13.313c15.831-12.219,24.908-30.689,24.908-50.669
				c0-18.272-7.712-35.283-21.344-47.46V314.93L455.558,308.533z M192.001,298.667h32c-5.896,0-10.667,4.771-10.667,10.667v32
				c0,5.896,4.771,10.667,10.667,10.667c-5.896,0-10.667,4.771-10.667,10.667v32c0,5.896,4.771,10.667,10.667,10.667h-32V298.667z
				 M161.168,341.333h9.5v21.333h-13.37L161.168,341.333z M117.334,85.333c-5.125,0-17.25,5.417-17.354,5.469
				c-24.708,11.823-43.208,33.396-52.115,60.75c-9.76,29.969-6.49,63.594,8.969,92.24c5.844,10.844,14.281,21.031,25.083,30.281
				l25.708,22.031c1.927,1.656,4.396,2.563,6.938,2.563c8.104,0,15.74,3.573,20.938,9.792c4.865,5.841,6.939,13.371,5.991,20.855
				c-0.061,0.464-0.272,0.872-0.272,1.353c0,0.177,0.091,0.324,0.1,0.499l-13.152,72.501c-0.719,3.958,0.854,7.99,4.073,10.417
				c10.865,8.208,17.094,20.573,17.094,33.917c0,13.323-6.052,25.635-16.604,33.792c-10.563,8.167-24.271,10.854-37.729,7.344
				c-13.885-3.625-25.365-14.906-29.25-28.74c-4.958-17.667,0.927-35.417,15.344-46.313c2.677-2.021,4.24-5.167,4.24-8.51V310.01
				c0-3.115-1.365-6.073-3.719-8.094l-11.198-9.604c-17.031-14.583-29.594-30.927-37.333-48.563
				C6.251,182.625,27.251,112.26,83.011,76.458c4.167-2.677,5.938-7.854,4.302-12.51c-1.333-3.802-1.979-7.271-1.979-10.615
				c0-17.646,14.354-32,32-32c17.646,0,32,14.354,32,32C149.334,70.979,134.98,85.333,117.334,85.333z M320.001,405.333h-32
				c5.896,0,10.667-4.771,10.667-10.667v-32c0-5.896-4.771-10.667-10.667-10.667c5.896,0,10.667-4.771,10.667-10.667v-32
				c0-5.896-4.771-10.667-10.667-10.667h32V405.333z M341.334,362.667v-21.333h9.5l3.871,21.333H341.334z M430.907,414.083
				c10.865,8.208,17.094,20.573,17.094,33.917c0,13.323-6.052,25.635-16.604,33.792c-10.573,8.167-24.281,10.854-37.729,7.344
				c-13.885-3.625-25.365-14.906-29.25-28.74c-4.958-17.667,0.927-35.417,15.344-46.313c3.219-2.427,4.792-6.458,4.073-10.417
				l-13.219-72.865c-1.458-7.969,0.698-16.115,5.885-22.344c5.198-6.219,12.833-9.792,20.938-9.792c2.542,0,5.01-0.906,6.938-2.563
				l25.708-22.031c33.5-28.698,46.927-73.135,35.063-115.958c-8.781-31.688-29.99-57.615-56.771-69.354
				c-2.344-1.031-9.833-3.427-13.708-3.427c-17.646,0-32-14.354-32-32c0-17.646,14.354-32,32-32s32,14.354,32,32
				c0,3.344-0.646,6.813-1.979,10.615c-1.635,4.656,0.135,9.833,4.302,12.51c55.76,35.802,76.76,106.167,49.927,167.292
				c-7.74,17.635-20.302,33.979-37.333,48.563l-0.01,0.01l-11.188,9.594c-2.354,2.021-3.719,4.979-3.719,8.094v95.563
				C426.668,408.917,428.23,412.063,430.907,414.083z"/>
			<circle cx="117.333" cy="53.333" r="10.667"/>
			<circle cx="394.667" cy="53.333" r="10.667"/>
		</g>
	</g>
</g>
<g>
</g>
<g>
</g>
<g>
</g>
<g>
</g>
<g>
</g>
<g>
</g>
<g>
</g>
<g>
</g>
<g>
</g>
<g>
</g>
<g>
</g>
<g>
</g>
<g>
</g>
<g>
</g>
<g>
</g>
</svg>
