<?xml version="1.0" encoding="iso-8859-1"?>
<!-- Generator: Adobe Illustrator 19.0.0, SVG Export Plug-In . SVG Version: 6.00 Build 0)  -->
<svg version="1.1" id="Capa_1" xmlns="http://www.w3.org/2000/svg" xmlns:xlink="http://www.w3.org/1999/xlink" x="0px" y="0px"
	 viewBox="0 0 512 512" style="enable-background:new 0 0 512 512;" xml:space="preserve">
<g>
	<g>
		<path d="M501.333,42.667H384c-23.531,0-42.667,19.135-42.667,42.667v21.333H170.667V85.333c0-23.531-19.135-42.667-42.667-42.667
			H10.667C4.771,42.667,0,47.437,0,53.333V96c0,5.896,4.771,10.667,10.667,10.667h96v42.667
			c0,61.285,47.251,111.668,107.224,116.822c0.513,3.474,1.385,6.906,3.026,10.21L224,290.521v36.052
			c-32.208,12.958-53.333,43.677-53.333,78.76v53.333c0,5.896,4.771,10.667,10.667,10.667H224c5.896,0,10.667-4.771,10.667-10.667
			v-53.333c0-11.76,9.573-21.333,21.333-21.333s21.333,9.573,21.333,21.333v53.333c0,5.896,4.771,10.667,10.667,10.667h42.667
			c5.896,0,10.667-4.771,10.667-10.667v-53.333c0-35.083-21.125-65.802-53.333-78.76v-36.052l7.083-14.167
			c1.641-3.296,2.513-6.727,3.026-10.199c59.973-5.154,107.224-55.537,107.224-116.822v-42.667h96
			c5.896,0,10.667-4.771,10.667-10.667V53.333C512,47.437,507.229,42.667,501.333,42.667z M213.333,244.255
			C165.465,238.87,128,198.618,128,149.333V96c0-5.896-4.771-10.667-10.667-10.667h-96V64H128c11.76,0,21.333,9.573,21.333,21.333
			v64c0,37.514,27.911,68.357,64,73.589V244.255z M320,405.333V448h-21.333v-42.667c0-23.531-19.135-42.667-42.667-42.667
			s-42.667,19.135-42.667,42.667V448H192v-42.667c0-28.281,18.375-52.781,45.729-60.979c4.51-1.354,7.604-5.51,7.604-10.219V288
			c0-1.656-0.385-3.292-1.125-4.771L236,266.833c-0.885-1.781-1.333-3.583-1.333-5.354l-0.469-46.49
			c0.448-0.521,2.531-1.656,5.802-1.656h32c3.26,0.01,5.323,1.135,5.333,0.031v48.115c0,1.771-0.448,3.573-1.333,5.344
			l-8.208,16.406c-0.74,1.479-1.125,3.115-1.125,4.771v46.135c0,4.708,3.094,8.865,7.604,10.219
			C301.625,352.552,320,377.052,320,405.333z M294.169,202.043C289.486,196.104,281.611,192,272,192h-32
			c-9.611,0-17.486,4.104-22.169,10.043c-26.474-3.103-47.164-25.415-47.164-52.71V128h170.667v21.333
			C341.333,176.626,320.642,198.94,294.169,202.043z M490.667,85.333h-96C388.771,85.333,384,90.104,384,96v53.333
			c0,49.285-37.465,89.536-85.333,94.922v-21.333c36.089-5.232,64-36.074,64-73.589v-64C362.667,73.573,372.24,64,384,64h106.667
			V85.333z"/>
	</g>
</g>
<g>
</g>
<g>
</g>
<g>
</g>
<g>
</g>
<g>
</g>
<g>
</g>
<g>
</g>
<g>
</g>
<g>
</g>
<g>
</g>
<g>
</g>
<g>
</g>
<g>
</g>
<g>
</g>
<g>
</g>
</svg>
