<?xml version="1.0" encoding="iso-8859-1"?>
<!-- Generator: Adobe Illustrator 19.0.0, SVG Export Plug-In . SVG Version: 6.00 Build 0)  -->
<svg version="1.1" id="Capa_1" xmlns="http://www.w3.org/2000/svg" xmlns:xlink="http://www.w3.org/1999/xlink" x="0px" y="0px"
	 viewBox="0 0 512 512" style="enable-background:new 0 0 512 512;" xml:space="preserve">
<g>
	<g>
		<path d="M501.333,74.667h-96c0-5.896-4.771-10.667-10.667-10.667S384,68.771,384,74.667h-89.309C290.109,68.363,281.956,64,272,64
			h-32c-9.956,0-18.108,4.363-22.69,10.667H128C128,68.771,123.229,64,117.333,64c-5.896,0-10.667,4.771-10.667,10.667h-96
			C4.771,74.667,0,79.438,0,85.333V128c0,5.896,4.771,10.667,10.667,10.667h96c0,5.896,4.771,10.667,10.667,10.667
			c5.896,0,10.667-4.771,10.667-10.667h85.952c0.542,3.298,1.404,6.556,2.965,9.698L224,162.521V305.24
			c-32.208,12.958-53.333,43.677-53.333,78.76v53.333c0,5.896,4.771,10.667,10.667,10.667H224c5.896,0,10.667-4.771,10.667-10.667
			V384c0-11.76,9.573-21.333,21.333-21.333s21.333,9.573,21.333,21.333v53.333c0,5.896,4.771,10.667,10.667,10.667h42.667
			c5.896,0,10.667-4.771,10.667-10.667V384c0-35.083-21.125-65.802-53.333-78.76V162.521l7.083-14.167
			c1.56-3.134,2.423-6.391,2.965-9.688H384c0,5.896,4.771,10.667,10.667,10.667s10.667-4.771,10.667-10.667h96
			c5.896,0,10.667-4.771,10.667-10.667V85.333C512,79.438,507.229,74.667,501.333,74.667z M106.667,117.333H21.333V96h85.333
			V117.333z M213.333,117.333H128V96h85.333V117.333z M320,384v42.667h-21.333V384c0-23.531-19.135-42.667-42.667-42.667
			S213.333,360.469,213.333,384v42.667H192V384c0-28.281,18.375-52.781,45.729-60.979c4.51-1.354,7.604-5.51,7.604-10.219V160
			c0-1.656-0.385-3.292-1.125-4.771L236,138.833c-0.885-1.781-1.333-3.583-1.333-5.354l-0.469-46.49
			c0.448-0.521,2.531-1.656,5.802-1.656h32c3.24,0,5.313,1.135,5.333,0.031v48.115c0,1.771-0.448,3.573-1.333,5.344l-8.208,16.406
			c-0.74,1.479-1.125,3.115-1.125,4.771v152.802c0,4.708,3.094,8.865,7.604,10.219C301.625,331.219,320,355.719,320,384z
			 M384,117.333h-85.333V96H384V117.333z M490.667,117.333h-85.333V96h85.333V117.333z"/>
	</g>
</g>
<g>
</g>
<g>
</g>
<g>
</g>
<g>
</g>
<g>
</g>
<g>
</g>
<g>
</g>
<g>
</g>
<g>
</g>
<g>
</g>
<g>
</g>
<g>
</g>
<g>
</g>
<g>
</g>
<g>
</g>
</svg>
