<?xml version="1.0" encoding="iso-8859-1"?>
<!-- Generator: Adobe Illustrator 19.0.0, SVG Export Plug-In . SVG Version: 6.00 Build 0)  -->
<svg version="1.1" id="Capa_1" xmlns="http://www.w3.org/2000/svg" xmlns:xlink="http://www.w3.org/1999/xlink" x="0px" y="0px"
	 viewBox="0 0 512 512" style="enable-background:new 0 0 512 512;" xml:space="preserve">
<g>
	<g>
		<path d="M256,0C114.833,0,0,114.844,0,256s114.833,256,256,256s256-114.844,256-256S397.167,0,256,0z M448.964,122.786
			c18.251,26.355,31.203,56.589,37.423,89.219l-100.091-8.639L448.964,122.786z M435.583,105.243l-74.615,95.938l-46.042-3.974
			l-3.32-38.193l106.129-72.617C424.001,92.375,430.007,98.612,435.583,105.243z M331.16,239.505l-14.234-19.316l-0.133-1.531
			l28.645,2.491L331.16,239.505z M342.753,291.186l-26.108,2.288l0.053-0.618l14.009-18.013L342.753,291.186z M401.104,71.934
			l-91.617,62.688L300.01,25.616C337.68,32.799,372.113,49.029,401.104,71.934z M233.671,22.465
			c7.357-0.698,14.793-1.132,22.329-1.132c7.538,0,14.973,0.434,22.331,1.132l11.031,125.926l-32.061,21.938l-34.327-24.796
			L233.671,22.465z M288,256c0,17.646-14.354,32-32,32s-32-14.354-32-32s14.354-32,32-32S288,238.354,288,256z M220.822,170.298
			l17.767,12.833l-17.32,11.852l-2.612,0.227L220.822,170.298z M98.871,82.21l101.893,73.6l-3.56,41.266l-41.486,3.608
			L82.198,98.884C87.479,93.047,93.035,87.492,98.871,82.21z M195.139,221.025l-12.031,17.582l-12.91-17.876l25.156-2.204
			L195.139,221.025z M195.207,293.341l-22.362-1.945l10.74-15.698l11.469,15.88L195.207,293.341z M68.178,115.915l62.781,86.922
			l-105.345,9.161C32.391,176.456,47.286,143.852,68.178,115.915z M21.333,256c0-7.535,0.432-14.967,1.13-22.323L145.449,222.9
			l24.858,34.417l-21.867,31.957L22.464,278.318C21.766,270.965,21.333,263.533,21.333,256z M71.928,401.096
			C49.023,372.1,32.794,337.665,25.613,299.992l109.053,9.413L71.928,401.096z M86.404,417.742l72.677-106.229l37.991,3.28
			l4.02,46.244l-95.849,74.546C98.613,430.008,92.379,424.005,86.404,417.742z M122.775,448.954l80.516-62.613l8.695,100.043
			C179.358,480.161,149.128,467.207,122.775,448.954z M202.901,131.034L115.9,68.19c27.939-20.896,60.547-35.797,96.095-42.576
			L202.901,131.034z M218.522,316.645l1.389,0.12l19.566,14.418l-18.427,14.331L218.522,316.645z M278.324,489.536
			c-7.355,0.698-14.789,1.13-22.324,1.13c-7.539,0-14.975-0.432-22.335-1.132l-10.4-118.728l34.051-26.48l31.608,23.292
			L278.324,489.536z M291.089,342.717l-16.279-11.995l17.839-13.872l0.694-0.06L291.089,342.717z M291.74,195.206L275.674,183.6
			l15.824-10.827l1.978,22.582L291.74,195.206z M300,486.385l8.973-103.993l85.254,62.82
			C366.703,465.375,334.755,479.759,300,486.385z M411.397,431.365l-100.275-73.885l3.672-42.555l42.715-3.715l73.845,100.199
			C425.1,418.457,418.447,425.111,411.397,431.365z M445.195,394.249l-62.79-85.204l103.98-9.043
			C479.758,334.766,465.367,366.72,445.195,394.249z M367.638,289.005l-23.327-31.655l26.443-34l118.783,10.329
			c0.698,7.354,1.13,14.786,1.13,22.32c0,7.535-0.432,14.967-1.13,22.323L367.638,289.005z"/>
	</g>
</g>
<g>
</g>
<g>
</g>
<g>
</g>
<g>
</g>
<g>
</g>
<g>
</g>
<g>
</g>
<g>
</g>
<g>
</g>
<g>
</g>
<g>
</g>
<g>
</g>
<g>
</g>
<g>
</g>
<g>
</g>
</svg>
