<?xml version="1.0" encoding="iso-8859-1"?>
<!-- Generator: Adobe Illustrator 19.0.0, SVG Export Plug-In . SVG Version: 6.00 Build 0)  -->
<svg version="1.1" id="Capa_1" xmlns="http://www.w3.org/2000/svg" xmlns:xlink="http://www.w3.org/1999/xlink" x="0px" y="0px"
	 viewBox="0 0 512 512" style="enable-background:new 0 0 512 512;" xml:space="preserve">
<g>
	<g>
		<g>
			<path d="M256,0C114.833,0,0,114.844,0,256s114.833,256,256,256s256-114.844,256-256S397.167,0,256,0z M256,490.667
				C126.604,490.667,21.333,385.396,21.333,256S126.604,21.333,256,21.333S490.667,126.604,490.667,256S385.396,490.667,256,490.667
				z"/>
			<path d="M407.224,105.712c-0.151-0.172-0.206-0.392-0.37-0.556c-0.163-0.163-0.38-0.216-0.551-0.366
				C367.71,66.426,314.583,42.667,256,42.667c-58.542,0-111.632,23.73-150.219,62.047c-0.198,0.171-0.448,0.234-0.635,0.422
				c-0.188,0.188-0.25,0.436-0.421,0.633C66.402,144.354,42.667,197.448,42.667,256c0,58.579,23.755,111.697,62.109,150.288
				c0.151,0.172,0.206,0.392,0.37,0.556c0.163,0.163,0.38,0.216,0.551,0.366c38.594,38.365,91.72,62.124,150.303,62.124
				c58.789,0,112.102-23.909,150.728-62.51c0.018-0.018,0.046-0.023,0.064-0.042c0.021-0.021,0.026-0.048,0.046-0.069
				c38.592-38.624,62.496-91.927,62.496-150.712C469.333,197.421,445.578,144.303,407.224,105.712z M113.121,128.194L227.21,242.283
				c-0.475,0.991-0.872,2.008-1.245,3.051H64.54C67.025,200.44,84.918,159.689,113.121,128.194z M64.54,266.667h161.424
				c0.371,1.04,0.768,2.055,1.241,3.043L113.112,383.796C84.915,352.301,67.025,311.555,64.54,266.667z M245.333,447.46
				c-44.896-2.484-85.646-20.379-117.139-48.581l114.095-114.086c0.988,0.473,2.003,0.871,3.044,1.242V447.46z M245.333,225.965
				c-1.039,0.371-2.051,0.767-3.036,1.238L128.204,113.111c31.492-28.197,72.238-46.086,117.129-48.57V225.965z M447.46,245.333
				H286.035c-0.371-1.04-0.768-2.055-1.241-3.043l114.094-114.086C427.085,159.699,444.975,200.445,447.46,245.333z M266.667,64.54
				c44.896,2.484,85.646,20.379,117.139,48.581L269.711,227.207c-0.988-0.473-2.003-0.871-3.044-1.242V64.54z M266.667,447.46
				V286.035c1.043-0.372,2.06-0.77,3.051-1.245l114.089,114.089C352.313,427.081,311.563,444.975,266.667,447.46z M398.888,383.794
				L284.797,269.703c0.471-0.986,0.867-1.997,1.238-3.036H447.46C444.975,311.555,427.085,352.301,398.888,383.794z"/>
		</g>
	</g>
</g>
<g>
</g>
<g>
</g>
<g>
</g>
<g>
</g>
<g>
</g>
<g>
</g>
<g>
</g>
<g>
</g>
<g>
</g>
<g>
</g>
<g>
</g>
<g>
</g>
<g>
</g>
<g>
</g>
<g>
</g>
</svg>
