<?xml version="1.0" encoding="UTF-8" standalone="no"?>
<svg
   xmlns:dc="http://purl.org/dc/elements/1.1/"
   xmlns:cc="http://creativecommons.org/ns#"
   xmlns:rdf="http://www.w3.org/1999/02/22-rdf-syntax-ns#"
   xmlns:svg="http://www.w3.org/2000/svg"
   xmlns="http://www.w3.org/2000/svg"
   xmlns:sodipodi="http://sodipodi.sourceforge.net/DTD/sodipodi-0.dtd"
   xmlns:inkscape="http://www.inkscape.org/namespaces/inkscape"
   inkscape:version="1.0 (4035a4fb49, 2020-05-01)"
   sodipodi:docname="034-seat-1.svg"
   xml:space="preserve"
   style="enable-background:new 0 0 512 512;"
   viewBox="0 0 512 512"
   y="0px"
   x="0px"
   id="Capa_1"
   version="1.1"><metadata
   id="metadata43"><rdf:RDF><cc:Work
       rdf:about=""><dc:format>image/svg+xml</dc:format><dc:type
         rdf:resource="http://purl.org/dc/dcmitype/StillImage" /><dc:title></dc:title></cc:Work></rdf:RDF></metadata><defs
   id="defs41" /><sodipodi:namedview
   inkscape:current-layer="g6"
   inkscape:window-maximized="1"
   inkscape:window-y="-6"
   inkscape:window-x="-6"
   inkscape:cy="235.59315"
   inkscape:cx="261.78068"
   inkscape:zoom="0.92064953"
   showgrid="false"
   id="namedview39"
   inkscape:window-height="898"
   inkscape:window-width="1440"
   inkscape:pageshadow="2"
   inkscape:pageopacity="0"
   guidetolerance="10"
   gridtolerance="10"
   objecttolerance="10"
   borderopacity="1"
   bordercolor="#666666"
   pagecolor="#ffffff" />
<g
   id="g6">
	<g
   id="g4">
		<path
   id="path2"
   d="M489.677,123.542c-33.583-11.198-68.563-16.875-103.958-16.875H239.76c-9.594,0-19.177-1.177-28.469-3.5L59.177,65.135    C56.188,64.385,53.094,64,49.979,64H37.906C17,64,0,81,0,101.906c0,13.24,7.052,25.698,18.406,32.51l55.448,33.271    c17.682,10.613,37.158,17.552,57.301,21.217l21.303,21.303c2,2,4.708,3.125,7.542,3.125h32V416c0,17.948,18.74,32,42.667,32    c23.927,0,42.667-14.052,42.667-32V213.333h12.625c14.792,0,29.115-4.333,41.417-12.542l44.262-29.508    c16.039,0.656,32.078,2.208,47.822,5.352l49.479,9.896c9.635,1.917,19.51-0.531,27.115-6.771    c7.594-6.229,11.948-15.427,11.948-25.25C512,140.427,503.031,127.979,489.677,123.542z M256,416    c0,4.354-8.313,10.667-21.333,10.667c-13.021,0-21.333-6.313-21.333-10.667V213.333H256V416z M319.542,183.042    c-8.792,5.865-19.021,8.958-29.583,8.958H164.417l-0.16-0.16c13.072-0.203,26.099-1.771,38.764-4.944l50.948-12.729    c9.281-2.323,18.865-3.5,28.458-3.5h55.677L319.542,183.042z M486.521,163.26c-2.625,2.167-6.052,3.01-9.396,2.354l-49.479-9.896    c-21.208-4.24-42.896-6.385-64.469-6.385h-80.75c-11.344,0-22.656,1.396-33.635,4.146l-50.948,12.729    c-38.052,9.51-79.365,3.375-113.01-16.813l-55.448-33.271c-4.969-2.979-8.052-8.427-8.052-14.219    c0-9.135,7.438-16.573,16.573-16.573h12.073c1.365,0,2.708,0.167,4.021,0.49l152.115,38.031c10.99,2.75,22.302,4.146,33.646,4.146    h145.958c33.104,0,65.802,5.313,97.219,15.781c4.625,1.531,7.729,5.854,7.729,10.729    C490.667,157.917,489.156,161.104,486.521,163.26z" />
	</g>
</g>
<g
   id="g8">
</g>
<g
   id="g10">
</g>
<g
   id="g12">
</g>
<g
   id="g14">
</g>
<g
   id="g16">
</g>
<g
   id="g18">
</g>
<g
   id="g20">
</g>
<g
   id="g22">
</g>
<g
   id="g24">
</g>
<g
   id="g26">
</g>
<g
   id="g28">
</g>
<g
   id="g30">
</g>
<g
   id="g32">
</g>
<g
   id="g34">
</g>
<g
   id="g36">
</g>
</svg>
