<?xml version="1.0" encoding="iso-8859-1"?>
<!-- Generator: Adobe Illustrator 19.0.0, SVG Export Plug-In . SVG Version: 6.00 Build 0)  -->
<svg version="1.1" id="Capa_1" xmlns="http://www.w3.org/2000/svg" xmlns:xlink="http://www.w3.org/1999/xlink" x="0px" y="0px"
	 viewBox="0 0 512 512" style="enable-background:new 0 0 512 512;" xml:space="preserve">
<g>
	<g>
		<g>
			<path d="M256,64C150.135,64,64,150.135,64,256s86.135,192,192,192s192-86.135,192-192S361.865,64,256,64z M266.667,426.126
				v-20.793c5.896,0,10.667-4.771,10.667-10.667S272.563,384,266.667,384h-21.333c-5.896,0-10.667,4.771-10.667,10.667
				s4.771,10.667,10.667,10.667v20.793c-89.131-5.551-160-79.622-160-170.126c0-94.104,76.563-170.667,170.667-170.667
				S426.667,161.896,426.667,256C426.667,346.504,355.798,420.576,266.667,426.126z"/>
			<path d="M256,0C114.844,0,0,114.844,0,256s114.844,256,256,256s256-114.844,256-256S397.156,0,256,0z M256,490.667
				C126.604,490.667,21.333,385.396,21.333,256S126.604,21.333,256,21.333S490.667,126.604,490.667,256S385.396,490.667,256,490.667
				z"/>
			<path d="M456,155.167c-2.677-5.271-9.094-7.406-14.333-4.708c-5.26,2.667-7.365,9.083-4.708,14.333
				c14.406,28.458,21.708,59.146,21.708,91.208c0,5.896,4.771,10.667,10.667,10.667c5.896,0,10.667-4.771,10.667-10.667
				C480,220.563,471.927,186.635,456,155.167z"/>
			<path d="M377.594,93.958c11.802,8.885,22.667,19.083,32.281,30.292c2.104,2.469,5.094,3.729,8.094,3.729
				c2.458,0,4.927-0.844,6.938-2.573c4.479-3.833,5-10.563,1.156-15.031c-10.615-12.385-22.604-23.646-35.635-33.458
				c-4.729-3.563-11.396-2.583-14.938,2.104C371.948,83.729,372.885,90.417,377.594,93.958z"/>
		</g>
	</g>
</g>
<g>
</g>
<g>
</g>
<g>
</g>
<g>
</g>
<g>
</g>
<g>
</g>
<g>
</g>
<g>
</g>
<g>
</g>
<g>
</g>
<g>
</g>
<g>
</g>
<g>
</g>
<g>
</g>
<g>
</g>
</svg>
