<svg xmlns="http://www.w3.org/2000/svg" viewBox="0 0 48 60" x="0px" y="0px"><path d="M9.5,3 C10.0522847,3 10.5,3.44771525 10.5,4 C10.5,4.36968103 10.2994004,4.69250951 10.0011143,4.86557226 L10,7 C10.5522847,7 11,7.44771525 11,8 L11.0004472,14.6699284 C13.904716,10.6305664 18.6451571,8 24,8 C32.836556,8 40,15.163444 40,24 C40,24.2690618 39.9933586,24.5365724 39.9802308,24.8023769 C39.9932673,24.8661196 40,24.9322736 40,25 L40,41 C40,41.5522847 39.5522847,42 39,42 L39,44.5 C39,44.7761424 38.7761424,45 38.5,45 C38.2238576,45 38,44.7761424 38,44.5 L38,42 C37.4477153,42 37,41.5522847 37,41 L37.000275,33.3290671 C34.0960699,37.3689975 29.3552867,40 24,40 C15.163444,40 8,32.836556 8,24 L8,8 C8,7.44771525 8.44771525,7 9,7 L8.9998705,4.86614288 C8.70104123,4.69321974 8.5,4.37008772 8.5,4 C8.5,3.44771525 8.94771525,3 9.5,3 Z M24,11 C16.8202983,11 11,16.8202983 11,24 C11,31.1797017 16.8202983,37 24,37 C31.1797017,37 37,31.1797017 37,24 C37,16.8202983 31.1797017,11 24,11 Z"/><text x="0" y="63" fill="#000000" font-size="5px" font-weight="bold" font-family="'Helvetica Neue', Helvetica, Arial-Unicode, Arial, Sans-serif">Created by Timo Nagel</text><text x="0" y="68" fill="#000000" font-size="5px" font-weight="bold" font-family="'Helvetica Neue', Helvetica, Arial-Unicode, Arial, Sans-serif">from the Noun Project</text></svg>