<?xml version="1.0" encoding="UTF-8" standalone="no"?>
<svg
   xmlns:dc="http://purl.org/dc/elements/1.1/"
   xmlns:cc="http://creativecommons.org/ns#"
   xmlns:rdf="http://www.w3.org/1999/02/22-rdf-syntax-ns#"
   xmlns:svg="http://www.w3.org/2000/svg"
   xmlns="http://www.w3.org/2000/svg"
   xmlns:sodipodi="http://sodipodi.sourceforge.net/DTD/sodipodi-0.dtd"
   xmlns:inkscape="http://www.inkscape.org/namespaces/inkscape"
   viewBox="0 0 48 60"
   x="0px"
   y="0px"
   version="1.1"
   id="svg8"
   sodipodi:docname="cable-housing-shifter.svg"
   inkscape:version="0.92.5 (2060ec1f9f, 2020-04-08)">
  <metadata
     id="metadata14">
    <rdf:RDF>
      <cc:Work
         rdf:about="">
        <dc:format>image/svg+xml</dc:format>
        <dc:type
           rdf:resource="http://purl.org/dc/dcmitype/StillImage" />
        <dc:title></dc:title>
      </cc:Work>
    </rdf:RDF>
  </metadata>
  <defs
     id="defs12" />
  <sodipodi:namedview
     pagecolor="#ffffff"
     bordercolor="#666666"
     borderopacity="1"
     objecttolerance="10"
     gridtolerance="10"
     guidetolerance="10"
     inkscape:pageopacity="0"
     inkscape:pageshadow="2"
     inkscape:window-width="1920"
     inkscape:window-height="1029"
     id="namedview10"
     showgrid="false"
     inkscape:zoom="3.9333333"
     inkscape:cx="128.53636"
     inkscape:cy="2.7097196"
     inkscape:window-x="0"
     inkscape:window-y="27"
     inkscape:window-maximized="1"
     inkscape:current-layer="svg8" />
  <path
     d="m 7.4740466,4.5254237 c 0.6488178,0 1.1747878,0.5259706 1.1747878,1.1747881 0,0.4342969 -0.235662,0.813552 -0.586085,1.0168641 l -0.0013,2.5075003 c 0.648818,0 1.174788,0.5259706 1.174788,1.1747878 l 5.26e-4,7.835753 c 3.4118996,-4.745394 8.9809136,-7.835753 15.2717196,-7.835753 10.381081,0 18.79661,8.41553 18.79661,18.796611 0,0.31609 -0.0078,0.630359 -0.02322,0.942623 0.01531,0.07488 0.02322,0.152601 0.02322,0.232165 v 18.79661 c 0,0.648818 -0.52597,1.174788 -1.174788,1.174788 v 2.936971 c 0,0.324408 -0.262985,0.587394 -0.587394,0.587394 -0.324409,0 -0.587394,-0.262986 -0.587394,-0.587394 v -2.936971 c -0.648817,0 -1.174788,-0.52597 -1.174788,-1.174788 l 3.23e-4,-9.011721 c -3.411835,4.746062 -8.981251,7.836933 -15.272578,7.836933 -10.381081,0 -18.7966096,-8.415529 -18.7966096,-18.79661 V 10.399364 c 0,-0.6488172 0.5259706,-1.1747878 1.1747881,-1.1747878 l -1.521e-4,-2.50683 C 6.5354393,6.5145982 6.2992585,6.1349865 6.2992585,5.7002118 c 0,-0.6488175 0.5259705,-1.1747881 1.1747881,-1.1747881 z M 24.508474,13.923729 c -8.434628,0 -15.2722456,6.837617 -15.2722456,15.272246 0,8.434628 6.8376176,15.272246 15.2722456,15.272246 8.434629,0 15.272246,-6.837618 15.272246,-15.272246 0,-8.434629 -6.837617,-15.272246 -15.272246,-15.272246 z"
     id="path2"
     inkscape:connector-curvature="0"
     style="stroke-width:1.17478812" />
  <g
     id="g14"
     transform="matrix(0.04055379,0,0,0.04055379,14.119012,19.201062)">
    <g
       id="g12">
      <g
         id="g10">
        <path
           inkscape:connector-curvature="0"
           d="M 437.333,64 H 352 c -5.896,0 -10.667,4.771 -10.667,10.667 v 11.27 C 301.428,87.42 261.644,96.776 225.666,113.99 L 208.42,122.237 106.667,88.313 V 53.333 C 106.667,23.927 82.75,0 53.333,0 23.917,0 0,23.927 0,53.333 v 23.479 c 0,42.427 7.979,83.896 23.75,123.24 13.583,33.99 46.021,55.948 82.604,55.948 8.271,0 16.5,-1.146 24.458,-3.417 l 123.521,-35.292 c 24.375,-6.979 51.438,-4.49 74.188,6.896 l 12.813,6.406 v 13.01 l -12.283,36.853 -5.176,-5.176 c -3.479,-3.49 -8.854,-4.104 -13.042,-1.604 l -18.042,10.833 -5.104,-20.438 c -1.188,-4.74 -5.458,-8.073 -10.354,-8.073 h -42.667 c -4.896,0 -9.167,3.333 -10.354,8.073 l -5.104,20.438 -18.042,-10.833 c -4.188,-2.5 -9.563,-1.865 -13.042,1.604 l -30.167,30.167 c -3.458,3.458 -4.125,8.833 -1.604,13.031 l 10.833,18.063 -20.438,5.115 c -4.75,1.188 -8.083,5.448 -8.083,10.344 v 42.667 c 0,4.896 3.333,9.156 8.083,10.344 l 13.495,3.376 c -6.962,12.72 -10.911,27.115 -10.911,42.092 v 8.188 c 0,4.042 2.292,7.729 5.896,9.542 l 85.333,42.667 c 1.5,0.75 3.146,1.125 4.771,1.125 1.625,0 3.271,-0.375 4.771,-1.125 20.552,-10.276 35.569,-27.751 43.092,-48.473 l 17.637,10.587 c 1.708,1.021 3.604,1.521 5.5,1.521 2.75,0 5.479,-1.073 7.542,-3.125 l 30.167,-30.167 c 3.458,-3.458 4.125,-8.833 1.604,-13.031 l -10.833,-18.063 20.438,-5.115 c 4.75,-1.188 8.083,-5.448 8.083,-10.344 V 352 c 0,-0.428 -0.159,-0.811 -0.208,-1.228 l 25.5,-10.199 c 2.438,-0.969 4.417,-2.802 5.583,-5.135 l 39.875,-79.74 C 482.104,252.281 512,220.229 512,181.333 V 138.666 C 512,97.5 478.5,64 437.333,64 Z M 43.542,192.125 C 28.813,155.313 21.333,116.51 21.333,76.813 v -23.48 c 0,-17.646 14.354,-32 32,-32 17.646,0 32,14.354 32,32 V 96 c 0,4.594 2.938,8.667 7.292,10.115 l 88.098,29.369 -133.628,63.904 c -1.28,-2.354 -2.539,-4.725 -3.553,-7.263 z m 294.521,12.979 c -27.458,-13.729 -60.104,-16.74 -89.604,-8.333 l -123.521,35.292 c -6.042,1.729 -12.292,2.604 -18.583,2.604 -17.505,0 -33.747,-6.633 -45.97,-17.979 L 234.876,133.24 C 268,117.39 304.599,108.741 341.334,107.27 v 31.874 c -40.034,1.168 -79.37,8.57 -117,22.669 l -25.417,9.531 c -5.521,2.073 -8.313,8.219 -6.229,13.74 1.604,4.281 5.667,6.917 9.979,6.917 1.25,0 2.521,-0.219 3.75,-0.677 l 25.417,-9.531 c 35.215,-13.203 72.029,-20.154 109.5,-21.315 v 46.263 z M 160,386.344 v -26.021 l 18.313,-4.583 c 3.479,-0.865 6.292,-3.417 7.479,-6.792 0.958,-2.74 2,-5.417 3.271,-8.01 1.563,-3.25 1.396,-7.063 -0.458,-10.156 l -9.667,-16.135 18.375,-18.385 16.125,9.677 c 3.104,1.854 6.917,2.021 10.167,0.448 2.583,-1.26 5.25,-2.302 7.979,-3.25 3.396,-1.188 5.958,-4 6.833,-7.479 L 243,277.333 h 26 l 4.583,18.323 c 0.875,3.479 3.438,6.292 6.833,7.479 2.729,0.948 5.396,1.99 7.979,3.25 3.25,1.563 7.063,1.406 10.167,-0.448 l 16.125,-9.677 6.28,6.29 -126.842,71.355 c -7.641,4.298 -14.383,9.734 -20.281,15.902 z m 192,0 -18.313,4.583 c -3.479,0.865 -6.292,3.417 -7.479,6.792 -0.958,2.74 -2,5.417 -3.271,8.01 -1.563,3.25 -1.396,7.063 0.458,10.156 l 9.667,16.135 -18.375,18.385 -16.125,-9.677 c -0.146,-0.086 -0.322,-0.061 -0.47,-0.141 0.256,-2.749 0.574,-5.484 0.574,-8.286 v -51.75 l 51.628,-20.648 1.706,0.43 z M 490.667,181.333 c 0,29.406 -23.917,53.333 -53.333,53.333 -4.042,0 -7.729,2.281 -9.542,5.896 l -40.854,81.708 -102.896,41.156 c -4.063,1.625 -6.708,5.542 -6.708,9.906 v 58.969 c 0,23.615 -12.229,45.01 -32.229,57 l -74.438,-37.229 v -1.594 c 0,-24 13,-46.219 33.917,-57.99 l 131.313,-73.865 c 2.313,-1.292 4.063,-3.406 4.896,-5.917 l 21.333,-64 c 0.354,-1.094 0.542,-2.229 0.542,-3.375 v -160 h 74.667 c 29.417,0 53.333,23.927 53.333,53.333 v 42.669 z"
           id="path2-3" />
        <path
           inkscape:connector-curvature="0"
           d="m 245.333,421.635 c -5.896,0 -10.667,4.771 -10.667,10.667 0,1.323 -0.104,2.625 -0.313,3.917 l -10.729,-5.365 c 0.604,-0.417 1.229,-0.813 1.875,-1.167 5.125,-2.896 6.958,-9.396 4.063,-14.531 -2.896,-5.125 -9.417,-6.948 -14.521,-4.073 -7.563,4.25 -13.708,10.563 -17.771,18.24 -1.333,2.542 -1.604,5.51 -0.729,8.25 0.875,2.729 2.833,4.99 5.396,6.281 l 33.208,16.615 c 1.521,0.76 3.146,1.125 4.771,1.125 3.521,0 6.958,-1.76 8.979,-4.917 4.646,-7.26 7.104,-15.688 7.104,-24.375 0.001,-5.896 -4.77,-10.667 -10.666,-10.667 z"
           id="path4" />
        <path
           inkscape:connector-curvature="0"
           d="M 405.333,106.667 C 393.563,106.667 384,116.24 384,128 c 0,11.76 9.563,21.333 21.333,21.333 11.771,0 21.333,-9.573 21.333,-21.333 0,-11.76 -9.562,-21.333 -21.333,-21.333 z"
           id="path6" />
        <circle
           cx="53.333"
           cy="53.333"
           r="10.667"
           id="circle8" />
      </g>
    </g>
  </g>
</svg>
