<svg xmlns="http://www.w3.org/2000/svg" xmlns:xlink="http://www.w3.org/1999/xlink" version="1.1" x="0px" y="0px" viewBox="0 0 64 80" enable-background="new 0 0 64 64" xml:space="preserve"><g><g><circle fill="#000000" cx="37.8" cy="38" r="5.2"/><path fill="#000000" d="M31.4,38c0-3.5,2.9-6.4,6.4-6.4c1.1,0,2.2,0.3,3.1,0.8V20.8h-2.3v-2.1h-1V7h-2v11.7h-1v2.1h-1.9l-3.5,14.4    V42l6.2,7.7h5.7v-6.1c-0.9,0.5-2,0.8-3.1,0.8C34.3,44.5,31.4,41.6,31.4,38z"/><polygon fill="#000000" points="30.9,24.2 29.2,24.2 26.5,34.9 26.5,42.9 29.9,47.1 32.1,47.1 28.2,42.3 28.2,35.1   "/><path fill="#000000" d="M27.7,26l0.7-2.9H31l0.8-3.1c-2.8-3.5-6.5-6.1-10.8-7.6v7.4C23.7,21.2,26.1,23.4,27.7,26z M27.1,20.2    c0.4,0,0.8,0.4,0.8,0.8s-0.4,0.8-0.8,0.8s-0.8-0.4-0.8-0.8S26.7,20.2,27.1,20.2z M24,16.6c-0.4,0-0.8-0.4-0.8-0.8S23.6,15,24,15    s0.8,0.4,0.8,0.8S24.5,16.6,24,16.6z M24.7,18.4c0-0.4,0.4-0.8,0.8-0.8s0.8,0.4,0.8,0.8s-0.4,0.8-0.8,0.8S24.7,18.9,24.7,18.4z"/><path fill="#000000" d="M29.4,48.1l-2.7-3.3c-1.5,2-3.5,3.7-5.8,4.8V57c4.8-1.6,8.9-4.8,11.8-8.9l0-0.1H29.4z M23.3,51.5    c-0.2,0.4-0.7,0.6-1.1,0.4s-0.6-0.7-0.4-1.1c0.2-0.4,0.7-0.6,1.1-0.4C23.3,50.7,23.5,51.1,23.3,51.5z M26.3,51.2    c-0.2,0.4-0.7,0.6-1.1,0.4s-0.6-0.7-0.4-1.1c0.2-0.4,0.7-0.6,1.1-0.4C26.3,50.3,26.5,50.8,26.3,51.2z M29.3,50.9    c-0.2,0.4-0.7,0.6-1.1,0.4c-0.4-0.2-0.6-0.7-0.4-1.1c0.2-0.4,0.7-0.6,1.1-0.4C29.3,50,29.5,50.5,29.3,50.9z"/></g></g><text x="0" y="79" fill="#000000" font-size="5px" font-weight="bold" font-family="'Helvetica Neue', Helvetica, Arial-Unicode, Arial, Sans-serif">Created by Berkah Icon</text><text x="0" y="84" fill="#000000" font-size="5px" font-weight="bold" font-family="'Helvetica Neue', Helvetica, Arial-Unicode, Arial, Sans-serif">from the Noun Project</text></svg>