<?xml version="1.0" encoding="UTF-8" standalone="no"?>
<svg
   xmlns:dc="http://purl.org/dc/elements/1.1/"
   xmlns:cc="http://creativecommons.org/ns#"
   xmlns:rdf="http://www.w3.org/1999/02/22-rdf-syntax-ns#"
   xmlns:svg="http://www.w3.org/2000/svg"
   xmlns="http://www.w3.org/2000/svg"
   xmlns:sodipodi="http://sodipodi.sourceforge.net/DTD/sodipodi-0.dtd"
   xmlns:inkscape="http://www.inkscape.org/namespaces/inkscape"
   inkscape:version="1.0 (4035a4fb49, 2020-05-01)"
   height="100"
   width="100"
   sodipodi:docname="handlebar.svg"
   id="svg907"
   xml:space="preserve"
   viewBox="0 0 100 100"
   y="0px"
   x="0px"
   version="1.1"><metadata
     id="metadata913"><rdf:RDF><cc:Work
         rdf:about=""><dc:format>image/svg+xml</dc:format><dc:type
           rdf:resource="http://purl.org/dc/dcmitype/StillImage" /><dc:title></dc:title></cc:Work></rdf:RDF></metadata><defs
     id="defs911" /><sodipodi:namedview
     inkscape:current-layer="svg907"
     inkscape:window-maximized="0"
     inkscape:window-y="0"
     inkscape:window-x="0"
     inkscape:cy="62.5"
     inkscape:cx="50"
     inkscape:zoom="2.083435"
     showgrid="false"
     id="namedview909"
     inkscape:window-height="480"
     inkscape:window-width="848"
     inkscape:pageshadow="2"
     inkscape:pageopacity="0"
     guidetolerance="10"
     gridtolerance="10"
     objecttolerance="10"
     borderopacity="1"
     bordercolor="#666666"
     pagecolor="#ffffff" /><path
     style="stroke-width:1.15353"
     id="path901"
     d="M 18.901859,45.058622 2.8677763,43.559031 c -0.2307062,0 -0.4614124,0.115353 -0.4614124,0.34606 l -0.3460593,3.460593 c 0,0.115354 0,0.230707 0.1153532,0.34606 0.115353,0.115353 0.2307061,0.115353 0.3460592,0.115353 l 16.034082,1.49959 -0.115352,1.153531 1.730296,0.115353 0.576765,-6.69048 h -1.730296 z m 79.016872,-1.038178 c 0,-0.230706 -0.230703,-0.461413 -0.461407,-0.34606 l -16.034082,1.499591 -0.115352,-1.153531 -1.730298,0.115354 0.576767,6.690478 1.730296,-0.115352 -0.115353,-1.15353 16.034077,-1.499591 c 0.115352,0 0.230714,-0.115354 0.346065,-0.115354 0.11535,-0.115352 0.11535,-0.230705 0.11535,-0.346058 z m -20.30214,1.845651 c -3.575947,0.346058 -6.575128,1.038177 -9.805015,5.767655 l -0.807471,1.15353 c -4.614125,6.921187 -4.729478,7.151893 -16.841554,7.151893 -12.112077,0 -12.22743,-0.115353 -16.841553,-7.151893 l -0.807472,-1.15353 c -3.229888,-4.844831 -6.229069,-5.421597 -9.805015,-5.767655 l -1.153531,-0.115355 -0.346059,3.460594 1.15353,0.115353 c 2.999182,0.230707 4.844831,0.576765 7.267246,4.268064 l 0.807473,1.153532 c 5.190889,7.844012 6.229067,8.651483 19.725381,8.651483 13.496313,0 14.649844,-0.807471 19.725381,-8.651483 l 0.807472,-1.153532 c 2.422414,-3.691299 4.268064,-4.037357 7.267245,-4.268064 l 1.153532,-0.115353 -0.34606,-3.460594 z" /></svg>
