<svg xmlns="http://www.w3.org/2000/svg" xmlns:xlink="http://www.w3.org/1999/xlink" xmlns:xodm="http://www.corel.com/coreldraw/odm/2003" xml:space="preserve" version="1.1" style="shape-rendering:geometricPrecision;text-rendering:geometricPrecision;image-rendering:optimizeQuality;" viewBox="0 0 39370.08 49212.600000000006" x="0px" y="0px" fill-rule="evenodd" clip-rule="evenodd"><defs><style type="text/css">
   
    .fil0 {fill:black;fill-rule:nonzero}
   
  </style></defs><g><path class="fil0" d="M21445.99 2779.71c1160.89,-688.93 2798.54,-695.4 4612.14,-115.59 905.5,289.49 1856.87,725.74 2815.19,1296.11 237.71,-207.58 506.17,-296.18 784.93,-311.3 213.05,-11.55 428.91,20.99 639.12,75.48l-199.72 -540.31c-330.7,153.18 -961.26,55.67 -1367.73,-107.04 -393.24,-157.4 -708.89,-415.5 -251.39,-767.14l0.77 0c556.05,-427.35 1147.54,-609.23 1707.2,-559.81 561.48,49.58 1086.01,330.37 1506.85,828.2l582.13 -547.72c291.33,-288.83 536.56,-354.45 935.2,-246.83l1318.38 330.11 1733.6 -1726.95c391.86,-390.36 1019.56,-275.2 1599.2,90.06 415.34,261.72 806.41,648.26 1063.19,1067.24 349.86,570.88 442.83,1192.72 2.16,1631.69l-1422.15 1416.41c262.87,279.26 324.78,417.17 261.61,796.78l-219.59 1574.53 -0.1 -0.02c-44.56,326.9 -176.83,509.72 -404.61,736.63l-644.49 642.01c-335.36,334.07 -507.41,388.2 -799.57,376.64 149.36,328.72 275.87,686.74 328.23,1042.54 63.96,434.57 18.11,863.69 -225.15,1233.93 511.57,894.45 905.77,1780 1172.37,2625.05 684.83,2170.77 532.51,4087.13 -619.31,5234.54l-739.79 736.96 -0.3 0.3 -0.47 0.46 -20.23 20.16c-2.56,2.54 -5.17,4.99 -7.82,7.36 -742.55,721.29 -1793.8,1035.3 -3021.88,984.69 -1236.13,-50.94 -2654.14,-472.07 -4113.81,-1218.57l-6911.39 6929.57c-186.07,185.35 -415.99,471.98 -597.52,884.68 -5.04,12.11 -10.23,24.14 -15.63,36.06 -30.08,70.7 -58.71,145.02 -85.46,223.04 -192.72,562.19 -286.17,1315.34 -117.39,2303.46 3.71,11.63 7.53,23.29 11.2,34.91 684.84,2170.77 532.51,4087.13 -619.3,5234.53l-739.8 736.96 -0.3 0.31 -0.43 0.42 -20.27 20.19c-2.73,2.71 -5.52,5.31 -8.36,7.83 -840.29,815.87 -2075.39,1110.6 -3514.07,945.87 -1435.49,-164.37 -3079.94,-788.51 -4734.51,-1808.79l-670.47 720.86c-407.23,437.83 -724.46,564.17 -1431.25,408.63 -66.41,101.8 -158.27,204.54 -280.26,324.03l-1309.56 1304.54c-113.19,112.76 -242.68,237.7 -464.83,315.43 -493.3,172.62 -1240.07,-57.27 -1735.6,-205.48 -230.73,-69 -456.04,-145.52 -670,-229.08l-1364.22 1358.99c-440.37,438.68 -1061.85,343.11 -1631.56,-9.04 -418.03,-258.39 -803.23,-650.65 -1063.4,-1067.03 -139.61,-223.44 -242.14,-453.87 -293.16,-675.09 -76.07,-329.87 -43.71,-671.97 209.83,-924.54l1410 -1404.6c-206.97,-523.06 -347.52,-1120.24 -417.85,-1677.52 -63.48,-503.13 -84.69,-815.44 312.86,-1211.46l-0.39 -0.39 0.07 -0.07 0.77 0 1309.19 -1304.18c167.92,-170.08 352.41,-338.95 591.49,-394.61 -0.1,-2.17 -0.17,-4.34 -0.2,-6.53 -9.33,-734.05 654.13,-1181.05 1133.78,-1658.87 -1050.09,-1680.97 -1695.37,-3355.41 -1870.46,-4816.3 -177.88,-1484.18 126.94,-2755.21 980.63,-3605.62l740.09 -737.27c1061.66,-1057.6 2774.21,-1262.83 4734.54,-744.83 1215.34,321.06 2781.11,185.96 3708.35,-737.74l0 -0.77 6950.61 -6874.04c40.15,-42.68 97.75,-100.72 162.78,-165.02 -685.07,-1417.59 -1060.03,-2786.51 -1084.14,-3977.76 -33.43,-1651.45 947.04,-3303.13 2391.43,-4160.29zm-8246.93 31619.43c68.76,85.38 114.67,178.46 134.74,266.31 62.96,275.55 -130.19,463.86 -404.48,402.47 -242.39,-54.25 -478.26,-285.54 -533.74,-528.37 -26.26,-114.92 -10,-223.34 53.89,-303.08 -292.97,-77.83 -571.07,-168.26 -824.35,-263.73 -13.83,267.83 -96.75,495.5 -255.36,669.52 1581.94,965.35 3145.34,1555.45 4506.24,1711.28 1336.65,153.05 2471.37,-114.91 3221.3,-861.65l0.7 -0.7c1038.12,-1034.46 1161.06,-2807.31 520.59,-4837.46 -653.96,-2072.91 -2100.18,-4400.76 -4183.62,-6492.22 -2084.04,-2092.05 -4405.92,-3547.26 -6475.16,-4208.8 -2027.94,-648.34 -3801.73,-531.87 -4840.67,503.09 -761.41,758.49 -1030.42,1916.15 -866.83,3281.12 165.96,1384.67 774.87,2975.14 1766.28,4580.54 111.33,-95.74 244.9,-161.86 396.89,-200.13 -140.56,-430.25 -284.96,-828.9 -385.48,-1267.99 -329.54,-46.12 -621.46,-430.72 -561.22,-751 40.68,-216.26 239.76,-286.7 435.15,-242.78 13.32,-377.72 129.83,-634.38 353.17,-936.35 -1.97,-491.81 81.16,-941.91 163.17,-1169.56 611.4,-1697.05 2543.78,-1476.72 3933.89,-954.18 1392.74,523.54 2980.48,1564.28 4425.48,3014.73l0.39 -0.39 0.02 0.8c1455.91,1461.52 2495.31,3066.3 3009.61,4468.49 531.95,1450.32 505.46,2701.64 -191.1,3395.98l0.39 0.39 -0.78 0c-552.11,550 -1312.82,778.41 -2118.11,812.48 -422.64,17.88 -858,-18.08 -1281,-88.83zm-441.29 -70.6c-63.1,-14.12 -117.52,-7.55 -148.28,23.05l-0.41 0.41c-29.7,30.15 -35.96,82.77 -22.04,143.72 38.56,168.73 216.26,343.07 384.57,380.74 133.04,29.78 201.46,-32.68 170.73,-167.18 -17.49,-76.53 -65.44,-160.98 -139.73,-235.59l-3.73 -3.72c-76.39,-75.4 -162.93,-123.93 -241.11,-141.43zm-7851.42 -8268.15c-87.87,-30.73 -222.1,-45.4 -244.57,74.08 -35.09,186.67 143.45,439.95 322.7,502.21 -44.27,-223.62 -69.31,-412.59 -78.13,-576.3zm13164.77 7880.06c199.09,44.56 391.36,233.09 436.94,432.54 53.08,232.28 -112.52,394.19 -343.85,342.42 -199.08,-44.56 -391.38,-233.1 -436.94,-432.55 -53.07,-232.28 112.53,-394.19 343.85,-342.41zm-42.29 191.46c-90.15,-20.19 -130.93,15.9 -110.09,107.12 28.63,125.34 162.76,256.93 287.77,284.91 90.16,20.17 130.94,-15.9 110.09,-107.13 -28.64,-125.33 -162.76,-256.93 -287.77,-284.91zm-12572.03 -13237.53c217.7,48.72 428.72,255.62 478.55,473.72 57.32,250.87 -120.11,424.14 -369.91,368.23 -217.69,-48.72 -428.71,-255.64 -478.54,-473.73 -57.31,-250.87 120.11,-424.13 369.91,-368.22zm-42.29 191.46c-108.57,-24.3 -161.24,23.1 -136.15,132.93 32.89,143.97 185.76,293.95 329.37,326.09 108.58,24.3 161.25,-23.1 136.16,-132.94 -32.89,-143.99 -185.75,-293.95 -329.37,-326.09zm9299.38 13576.72c223.86,50.1 441.09,263.1 492.33,487.37 58.73,257.03 -122.63,434.05 -378.54,376.78 -223.86,-50.1 -441.08,-263.09 -492.32,-487.37 -58.73,-257.03 122.63,-434.06 378.54,-376.78zm-42.29 191.46c-114.66,-25.67 -171.29,25.48 -144.78,141.49 34.31,150.16 193.37,306.21 343.15,339.73 114.69,25.67 171.28,-25.49 144.78,-141.48 -34.31,-150.15 -193.37,-306.21 -343.15,-339.73zm1852.39 -8.67c196.1,43.89 385.36,229.47 430.25,425.93 52.39,229.29 -111.29,389.39 -339.65,338.28 -196.11,-43.89 -385.37,-229.45 -430.26,-425.92 -52.39,-229.3 111.29,-389.4 339.66,-338.28zm-42.29 191.46c-87.21,-19.52 -126.06,14.75 -105.91,102.99 27.96,122.35 159.05,250.97 281.09,278.28 87.2,19.52 126.06,-14.76 105.9,-102.99 -27.95,-122.34 -159.06,-250.98 -281.08,-278.29zm2150.39 -3076.31c223.85,50.1 441.07,263.11 492.31,487.38 58.72,257.03 -122.64,434.04 -378.55,376.76 -223.86,-50.09 -441.07,-263.11 -492.31,-487.37 -58.73,-257.04 122.63,-434.04 378.55,-376.76zm-42.29 191.46c-114.69,-25.67 -171.29,25.47 -144.79,141.47 34.31,150.15 193.35,306.22 343.14,339.74 114.69,25.67 171.28,-25.48 144.79,-141.47 -34.3,-150.14 -193.37,-306.23 -343.14,-339.74zm-474.41 -2466.11c223.81,50.08 440.96,263.03 492.2,487.25 58.72,256.98 -122.59,433.97 -378.46,376.71 -223.81,-50.09 -440.97,-263.04 -492.21,-487.26 -58.72,-256.97 122.61,-433.97 378.47,-376.7zm-42.29 191.46c-114.61,-25.65 -171.2,25.46 -144.71,141.41 34.3,150.1 193.3,306.11 343.04,339.62 114.64,25.66 171.19,-25.48 144.7,-141.42 -34.3,-150.11 -193.29,-306.11 -343.03,-339.61zm-1115.45 -2396.74c217.69,48.72 428.7,255.64 478.54,473.73 57.3,250.87 -120.11,424.13 -369.91,368.22 -217.7,-48.72 -428.7,-255.63 -478.54,-473.72 -57.32,-250.87 120.11,-424.13 369.91,-368.22zm-42.29 191.46c-108.58,-24.3 -161.24,23.1 -136.15,132.93 32.89,143.98 185.76,293.95 329.37,326.09 108.58,24.31 161.24,-23.09 136.15,-132.93 -32.89,-143.97 -185.76,-293.96 -329.37,-326.09zm-1478.69 -2183.84c217.71,48.73 428.7,255.62 478.54,473.73 57.32,250.87 -120.11,424.13 -369.9,368.22 -217.7,-48.72 -428.72,-255.62 -478.55,-473.72 -57.32,-250.87 120.11,-424.13 369.91,-368.23zm-42.29 191.46c-108.57,-24.3 -161.24,23.11 -136.15,132.94 32.89,143.99 185.75,293.94 329.37,326.09 108.58,24.3 161.23,-23.11 136.15,-132.93 -32.91,-143.99 -185.74,-293.94 -329.37,-326.09zm-1741.46 -1957.13c217.7,48.72 428.7,255.62 478.54,473.72 57.32,250.87 -120.11,424.13 -369.91,368.22 -217.7,-48.72 -428.71,-255.63 -478.54,-473.73 -57.31,-250.87 120.11,-424.12 369.91,-368.21zm-42.29 191.46c-108.57,-24.3 -161.24,23.09 -136.15,132.92 32.89,143.98 185.75,293.95 329.37,326.09 108.57,24.3 161.24,-23.1 136.15,-132.93 -32.9,-143.98 -185.74,-293.94 -329.37,-326.08zm-1968.62 -1697.15c101.24,22.66 209.87,82.11 301.87,172.97l4.48 4.46c90.35,90.69 149.53,197.13 172.19,296.29 57.33,250.87 -120.1,424.15 -369.9,368.24 -101.25,-22.66 -209.87,-82.11 -301.86,-172.96l-4.52 -4.49c-90.34,-90.69 -149.51,-197.12 -172.17,-296.27 -57.33,-250.87 120.11,-424.13 369.91,-368.23zm-42.29 191.46c-108.57,-24.3 -161.25,23.11 -136.15,132.94 14.92,65.29 56.02,137.54 119.76,201.57l3.22 3.2c65.62,64.77 139.68,106.39 206.39,121.32 108.59,24.3 161.24,-23.11 136.14,-132.95 -14.93,-65.3 -56.04,-137.56 -119.8,-201.6l-3.19 -3.18c-65.62,-64.76 -139.68,-106.38 -206.37,-121.3zm-2192.78 -1341.2c217.7,48.72 428.7,255.63 478.54,473.73 57.32,250.87 -120.12,424.13 -369.91,368.22 -217.68,-48.72 -428.72,-255.64 -478.54,-473.73 -57.3,-250.86 120.11,-424.14 369.91,-368.22zm-42.29 191.46c-108.57,-24.3 -161.24,23.11 -136.15,132.93 32.89,143.96 185.77,293.96 329.37,326.09 108.57,24.3 161.24,-23.1 136.15,-132.93 -32.9,-143.98 -185.75,-293.95 -329.37,-326.09zm-2082.29 -700.74c217.7,48.73 428.7,255.63 478.54,473.73 57.33,250.87 -120.12,424.13 -369.91,368.22 -217.7,-48.72 -428.7,-255.63 -478.54,-473.73 -57.33,-250.88 120.12,-424.12 369.91,-368.22zm-42.29 191.46c-108.57,-24.3 -161.26,23.09 -136.16,132.93 32.9,143.98 185.74,293.96 329.37,326.09 108.57,24.3 161.25,-23.1 136.15,-132.93 -32.89,-143.98 -185.75,-293.95 -329.36,-326.09zm-2821.91 1417.81c217.7,48.73 428.7,255.63 478.54,473.74 57.32,250.87 -120.12,424.12 -369.91,368.22 -217.68,-48.72 -428.73,-255.63 -478.54,-473.73 -57.31,-250.87 120.11,-424.13 369.91,-368.22zm-42.29 191.46c-108.57,-24.3 -161.25,23.11 -136.16,132.93 32.89,143.98 185.76,293.95 329.37,326.09 108.57,24.3 161.24,-23.1 136.15,-132.93 -32.9,-143.98 -185.75,-293.96 -329.37,-326.1zm-62.48 1574.81c217.7,48.72 428.71,255.63 478.54,473.72 57.33,250.87 -120.11,424.13 -369.91,368.22 -217.7,-48.72 -428.71,-255.63 -478.54,-473.72 -57.33,-250.87 120.11,-424.13 369.91,-368.22zm-42.29 191.46c-108.57,-24.3 -161.25,23.11 -136.15,132.93 32.89,143.98 185.75,293.94 329.37,326.09 108.57,24.3 161.25,-23.1 136.15,-132.93 -32.89,-143.98 -185.75,-293.95 -329.37,-326.09zm25593.37 -5807.85c19.14,47.05 31.54,94.03 36.77,139.06 29.16,251.21 -162.6,400.94 -405.91,345 -79.01,-18.17 -162.29,-57.46 -240.07,-115.63 -167.04,118.79 -335.05,254.14 -506.58,411 1368.02,683.81 2686.1,1069.13 3830.65,1116.3 1134.78,46.77 2095.98,-239.5 2757.75,-898.41l0.75 -0.74c1038.12,-1034.45 1161.06,-2807.32 520.59,-4837.46 -653.92,-2072.78 -2100,-4400.48 -4183.24,-6491.83l-0.39 0.39 -0.03 -0.8c-2084.04,-2092.04 -4405.91,-3547.24 -6475.14,-4208.78 -1318.83,-421.64 -2530.17,-519.81 -3501.81,-252.25 -1586.65,436.91 -2217.63,2009.47 -2251.07,3409.46 22.18,1095.74 359.82,2357.33 977.57,3673.39 159.24,-190.5 303.58,-388.57 437.55,-592.31 -49.25,-75.57 -83.1,-154.21 -100.07,-229.35 -61.89,-274.06 107.38,-484.91 389.54,-447.48 32.89,4.36 66.7,12.14 100.85,23.19 161.98,-295.04 313.06,-597.11 465.12,-901.14 256.44,-512.73 498.89,-1071.59 908.69,-1479.84 1175.22,-1170.72 2943.19,-676.82 4236.39,1.54 1004.5,526.92 2023.57,1311.48 2924.49,2215.86 1739.1,1745.79 2858.63,3568.97 3258.6,5073.23 157.26,591.44 204.5,1136.77 135.93,1612.96 -70.91,492.37 -264.67,911.34 -587.49,1232.93 -229.4,228.53 -522.03,405.32 -879.85,521.5 -627.32,203.63 -1258.17,379.17 -1849.59,680.24zm-433.69 249.35c36.61,20.64 73.33,35.2 108.37,43.25 110.89,25.5 180.26,-15.11 166.77,-131.24 -2.53,-21.79 -7.95,-44.66 -16.13,-68.11 -86.55,48.49 -172.77,100.32 -259.02,156.09zm-8277.2 -9030.44c-9.33,-2.01 -18.55,-3.62 -27.62,-4.83 -146.1,-19.39 -204.39,69.5 -172.7,209.87 6.2,27.46 15.74,55.78 28.48,84.37 59.05,-95.45 116.19,-191.98 171.84,-289.41zm13156.97 8150.07c233.98,53.8 458.1,278.84 511,513.06 60.49,267.85 -125.95,453.69 -393.6,392.17 -233.68,-53.72 -458.17,-279.19 -511,-513.07 -60.45,-267.67 125.99,-453.68 393.59,-392.17zm-202.13 349.1c36.22,160.38 203.12,327.83 363.36,364.67 126.09,28.98 186.81,-31.41 158.31,-157.64 -36.14,-160.02 -203.46,-327.9 -363.37,-364.66 -126.16,-29 -186.86,31.17 -158.3,157.64zm-12294.98 -13442.07c221.09,50.83 432.4,263.02 482.38,484.33 57.59,254.95 -120.79,432.72 -375.54,374.16 -221.17,-50.85 -432.38,-262.94 -482.38,-484.33 -57.53,-254.77 120.83,-432.71 375.54,-374.16zm-184.07 331.1c33.22,147.11 187.73,302.14 334.74,335.93 113.14,26 165.82,-26.37 140.24,-139.63 -33.22,-147.11 -187.73,-302.13 -334.74,-335.93 -113.26,-26.03 -165.89,26.07 -140.24,139.63zm9403.33 13483.57c233.98,53.79 458.1,278.85 511,513.06 60.49,267.85 -125.95,453.7 -393.6,392.17 -233.68,-53.73 -458.18,-279.19 -511,-513.07 -60.5,-267.85 125.96,-453.69 393.6,-392.16zm-43.83 191.46c-126.1,-28.99 -186.81,31.4 -158.31,157.63 36.22,160.39 203.12,327.82 363.36,364.67 126.1,28.99 186.82,-31.41 158.31,-157.64 -36.14,-160.01 -203.46,-327.9 -363.37,-364.66zm1777.83 -88.14c229.38,52.73 448.92,273.19 500.78,502.8 59.46,263.24 -124.11,446.21 -387.15,385.74 -229.38,-52.74 -448.91,-273.19 -500.78,-502.8 -59.43,-263.07 124.15,-446.2 387.15,-385.74zm-195.68 342.68c35.1,155.41 197.84,318.69 353.14,354.39 121.49,27.93 179.32,-29.59 151.85,-151.21 -35.1,-155.41 -197.83,-318.69 -353.14,-354.4 -121.56,-27.94 -179.38,29.35 -151.85,151.21zm2332.67 -3036.48c194.26,44.66 378.77,229.94 422.69,424.41 51.47,227.85 -110.05,389 -337.86,336.63 -194.27,-44.66 -378.76,-229.94 -422.69,-424.41 -51.45,-227.86 110.03,-389 337.85,-336.63zm-43.83 191.46c-86.38,-19.85 -122.13,15.44 -102.56,102.1 27.14,120.2 154.92,248.4 275.05,276.01 86.37,19.85 122.14,-15.43 102.57,-102.1 -27.14,-120.19 -154.93,-248.4 -275.06,-276.01zm-477.8 -2549.61c234.06,53.81 458.08,278.76 511,513.07 60.46,267.66 -126,453.67 -393.58,392.16 -233.98,-53.8 -458.11,-278.86 -511.02,-513.07 -60.46,-267.67 126.02,-453.67 393.6,-392.15zm-43.83 191.46c-126.15,-29 -186.87,31.17 -158.31,157.63 36.12,159.93 203.53,327.93 363.38,364.67 126.15,28.99 186.85,-31.18 158.29,-157.63 -36.12,-159.97 -203.43,-327.9 -363.36,-364.67zm-1092.82 -2377.55c209.85,48.25 409.8,249.04 457.26,459.11 54.97,243.44 -116.28,414.32 -359.67,358.37 -209.85,-48.25 -409.81,-249.05 -457.26,-459.11 -55.03,-243.62 116.24,-414.33 359.68,-358.37zm-43.83 191.46c-101.88,-23.42 -147.42,21.84 -124.39,123.84 30.67,135.78 173.93,279.52 309.63,310.71 101.94,23.44 147.46,-21.61 124.38,-123.84 -30.67,-135.79 -173.91,-279.51 -309.62,-310.71zm-1465.73 -2210.74c216.75,49.83 423.76,257.7 472.77,474.68 56.61,250.61 -119.04,425.68 -369.46,368.11 -216.83,-49.85 -423.74,-257.58 -472.76,-474.69 -56.54,-250.42 119.09,-425.65 369.45,-368.1zm-177.99 325.04c32.22,142.7 182.5,293.49 325.12,326.28 108.81,25.01 158.77,-24.65 134.17,-133.58 -32.24,-142.76 -182.45,-293.48 -325.13,-326.28 -108.91,-25.03 -158.83,24.36 -134.16,133.57zm-1599.13 -2139.62c235.8,54.2 461.76,281.11 515.07,517.14 60.86,269.48 -126.74,456.65 -396.15,394.7 -235.91,-54.23 -461.73,-281.01 -515.06,-517.14 -60.86,-269.48 126.74,-456.63 396.15,-394.7zm-204.68 351.64c36.53,161.8 205.75,331.58 367.42,368.74 127.97,29.42 189.83,-31.89 160.86,-160.18 -36.53,-161.75 -205.76,-331.58 -367.43,-368.74 -127.97,-29.41 -189.82,31.91 -160.85,160.18zm-1785.9 -1844.88c221.09,50.84 432.39,263.02 482.38,484.34 57.58,254.94 -120.78,432.72 -375.53,374.16 -220.79,-50.76 -432.46,-263.35 -482.38,-484.33 -57.54,-254.76 120.83,-432.72 375.53,-374.17zm-184.07 331.11c33.31,147.48 187.39,302.05 334.74,335.93 113.14,26 165.82,-26.36 140.24,-139.63 -33.22,-147.11 -187.72,-302.13 -334.74,-335.94 -113.27,-26.04 -165.89,26.08 -140.24,139.64zm-2037.25 -1494.55c220.79,50.77 432.46,263.35 482.37,484.33 57.52,254.76 -120.81,432.72 -375.52,374.16 -221.09,-50.82 -432.4,-263.01 -482.39,-484.33 -57.58,-254.96 120.77,-432.74 375.54,-374.17zm-43.83 191.46c-113.15,-26.02 -165.83,26.37 -140.24,139.64 33.22,147.11 187.73,302.13 334.75,335.93 113.26,26.04 165.88,-26.07 140.23,-139.63 -33.31,-147.48 -187.39,-302.05 -334.74,-335.93zm-2070.07 -711.4c221.17,50.85 432.37,262.93 482.38,484.33 57.58,254.96 -120.77,432.73 -375.54,374.17 -221.17,-50.85 -432.37,-262.94 -482.37,-484.33 -57.53,-254.77 120.82,-432.72 375.53,-374.16zm-184.07 331.1c33.22,147.1 187.73,302.13 334.74,335.93 113.15,26.01 165.83,-26.37 140.24,-139.64 -33.22,-147.11 -187.73,-302.12 -334.74,-335.93 -113.26,-26.04 -165.89,26.07 -140.24,139.63zm-2675.06 1273.13c220.78,50.76 432.47,263.35 482.38,484.33 57.58,254.94 -120.78,432.74 -375.53,374.16 -221.1,-50.83 -432.39,-263.01 -482.38,-484.33 -57.59,-254.94 120.78,-432.73 375.53,-374.16zm-43.83 191.46c-113.14,-26.02 -165.82,26.37 -140.24,139.63 33.23,147.11 187.72,302.13 334.74,335.93 113.15,26.02 165.82,-26.37 140.24,-139.63 -33.31,-147.48 -187.39,-302.04 -334.74,-335.93zm-67.7 1581.54c220.78,50.76 432.47,263.37 482.38,484.33 57.59,254.95 -120.79,432.73 -375.54,374.17 -220.78,-50.76 -432.47,-263.36 -482.38,-484.33 -57.59,-254.95 120.78,-432.73 375.54,-374.17zm-43.83 191.46c-113.15,-26.01 -165.83,26.37 -140.25,139.64 33.31,147.48 187.4,302.06 334.74,335.93 113.15,26.01 165.83,-26.37 140.25,-139.64 -33.31,-147.47 -187.4,-302.06 -334.74,-335.93zm-16544.53 26479.69c397.89,275.5 783.98,652.71 1052.67,1055.92 364.39,546.85 491.62,1123.55 101.42,1516.94 -1.27,1.33 -2.56,2.66 -3.88,3.97l-383.48 382.02c152.92,55.44 312.57,107.8 476.54,156.84 258.57,77.33 526.83,145.81 795.39,204.57 337.35,73.82 633.86,48.65 549.86,-381.05l-207.24 -1059.95c-86.64,-443.18 -190.48,-671.67 -508.11,-990.54l-1761.5 -1768.28c-318.5,-319.73 -544.32,-422.94 -988.37,-511.52l-1122.37 -223.91c-379.94,-75.79 -334.91,163.11 -301.18,430.32 59.53,471.76 175.07,973.31 334.02,1422.65l466.63 -464.84c413.31,-411.72 1113.11,-40.76 1499.61,226.85zm873.39 2298.47c230.8,-229.91 116.84,-627.81 -148.3,-1025.71 -240.88,-361.48 -591.42,-702.85 -948.09,-949.8 -419.26,-290.3 -823.87,-446.69 -982.31,-288.87l-2009.53 2001.83 6.25 1.14c212.18,39.28 428.99,104.43 658.38,225.67 621.83,328.65 1246.88,1062.01 1487.17,1713.17 24.31,65.88 43.87,130.88 57.66,194.13l1878.76 -1871.56zm25542.4 -24363.12c-30.57,-44.8 -19.04,-105.91 25.76,-136.49 44.8,-30.57 105.91,-19.04 136.49,25.76 296.5,435.34 552.99,881.64 753.99,1318.63 194.11,422.02 336.2,834.81 412.38,1220.19 10.4,53.3 -24.37,104.94 -77.67,115.34 -53.3,10.4 -104.94,-24.37 -115.34,-77.67 -73.34,-371.02 -210.4,-769 -397.76,-1176.36 -195.77,-425.61 -446.79,-862.07 -737.84,-1289.41zm-7235.41 10588.63c-38.22,38.43 -100.36,38.61 -138.8,0.39 -38.43,-38.22 -38.61,-100.36 -0.39,-138.8l3405.95 -3438.22c38.22,-38.43 100.36,-38.61 138.8,-0.39 38.43,38.22 38.61,100.36 0.39,138.8l-3405.95 3438.22zm-22697.98 14225.94c37.02,184.09 127.5,387.66 253.16,588.77 228.08,365.04 569.19,714.33 935.75,940.92 283.57,175.28 1160.03,545.63 896.56,-168.38 -207.62,-562.63 -762.8,-1216.45 -1301.08,-1500.94 -190.37,-100.61 -370.19,-154.65 -546.11,-187.22 -285.76,-52.9 -255.7,104.84 -238.28,326.86zm2717.16 50.27c40.61,65.77 -59.51,127.59 -100.12,61.83 -222.75,-361.02 -606.28,-736.25 -983.44,-932.89 -68.88,-35.8 -14.44,-140.54 54.44,-104.73 395.87,206.39 795.3,596.84 1029.12,975.8zm475.88 -474.06c40.61,65.77 -59.51,127.59 -100.12,61.83 -222.77,-361.03 -606.27,-736.24 -983.45,-932.89 -68.88,-35.8 -14.44,-140.54 54.44,-104.73 395.87,206.4 795.3,596.83 1029.13,975.79zm475.88 -474.07c40.61,65.77 -59.51,127.59 -100.12,61.83 -222.76,-361.02 -606.27,-736.24 -983.44,-932.88 -68.88,-35.8 -14.44,-140.54 54.44,-104.73 395.86,206.38 795.3,596.83 1029.12,975.78zm3015.13 -9459.18c20.69,-8.84 44.12,-11.87 67.89,-7.43 892.69,167.94 1895.65,795.11 2808.64,1586.72 1097.03,951.19 2069.27,2143.66 2561.75,3058.51 239.7,445.27 506.17,1179.48 75.84,1598.87 -338.06,329.47 -896.63,245.17 -1297.53,96.64 59.5,165.37 103.89,324.36 132.4,475.36 464.93,210.17 920.83,329.92 1308.2,349.87 363.89,18.74 657.65,-49.9 822.87,-214.49 369.08,-367.67 306.35,-1123.87 -93.43,-2049.26 -423.35,-979.94 -1222.24,-2125.17 -2296.31,-3203.46l-0.39 0.39 -0.01 -0.78c-734.11,-736.94 -1546.31,-1384.83 -2319.85,-1866.04 -745.77,-463.93 -1449.38,-769.96 -2003.07,-846.54 -114.25,200.54 -22.07,542.52 232.98,1021.63zm4091.57 6025.13c334.52,157.8 946.66,346.43 1258.31,42.69 334,-325.5 59.63,-986.13 -119.21,-1318.35 -480.7,-892.97 -1432.48,-2059.34 -2508.23,-2992.08 -845.07,-732.73 -1763.44,-1318.87 -2583.04,-1509.02 424.76,723.87 1146.44,1707.93 2051.22,2941.5 629.85,858.75 1469.72,1875.78 1900.94,2835.25zm-3063.48 837.29l-1729.16 1722.54c-0.93,0.92 -1.87,1.81 -2.81,2.68 164.68,250.33 247.61,531.25 304.72,823.37l207.24 1059.95c6.32,32.35 11.21,65.02 14.52,97.75 24.19,238.91 2.76,198.66 166.65,41.85l1210.01 -1205.37c229.35,-224.64 343.76,-342.47 279.3,-672.26l-245.72 -1256.84c-41.04,-209.91 -98.12,-426.58 -204.74,-613.68zm-1850.14 1566l1738.11 -1731.46c-55.8,-70.93 -119.21,-139 -191.33,-211.41l-1761.5 -1768.27c-55.76,-55.97 -108.93,-106.71 -162.75,-152.73l-1739.07 1732.41c54.02,47.52 107.22,98.6 162.18,153.77l1761.5 1768.28c70.69,70.96 134.62,138.96 192.86,209.41zm-2270.85 -2254.8l1734.85 -1728.2c-200.44,-129.32 -435.33,-193.42 -667.09,-239.66l-1255.89 -250.54c-330.03,-65.84 -446.74,47.04 -672.76,276.03l-1167.68 1163.21c-233.26,232.37 -221.34,160.95 32.84,211.66l1122.37 223.91c315.54,62.94 610.13,155.01 873.35,343.59zm4981.78 2813.81c268.09,53.02 638.12,74.62 848.6,-134.59l-0.38 -0.38 0.78 -0c850.78,-847.53 -1263.41,-3401.62 -1840.15,-3980.64l-0.39 0.39 -0.06 -0.06 0 -0.77c-823.41,-826.58 -1697.89,-1441.91 -2446.08,-1768.56 -724.52,-316.31 -1657.96,-553.6 -1701.2,457.84 431.19,74.97 871.23,173.22 1301.75,259.11 519.43,103.62 816.92,246.39 1189.84,620.71l1761.5 1768.27c373.77,375.24 513.89,670.94 615.75,1192.01l245.72 1256.84c24.17,123.61 33.22,230.3 24.32,329.85zm-3474.25 -11128.22c279.31,-160.19 596.3,-201.72 870.24,-156.73 443.08,72.76 877.24,421.6 704.83,915.97 578.44,115.96 1269.61,425.83 1988,872.74 796.99,495.8 1633.81,1163.31 2390.21,1922.56l0.39 -0.39 0.01 0.78c1110.24,1114.51 1938.36,2303.68 2379.74,3325.33 464.99,1076.33 504.68,1989.02 8.85,2482.95 -59.39,59.16 -127.38,110.18 -202.9,153.26 224.85,19.16 449.68,25.67 670.33,16.33 714.09,-30.21 1382.67,-226.76 1856.28,-698.3l-0.38 -0.38 0.78 -0c578.61,-576.39 577.85,-1677.69 99.2,-2982.67 -496.35,-1353.24 -1504.04,-2906.63 -2918.5,-4326.63l-0.39 0.39 -0.02 -0.8c-1404.32,-1409.72 -2941.59,-2419.04 -4285.91,-2924.38 -1156.52,-434.74 -2899.49,-743.65 -3426.38,718.88 -69.38,192.58 -113.72,415.41 -134.37,681.09zm3567.09 5931.86c-823.41,-826.57 -1697.89,-1441.9 -2446.08,-1768.54 -693.8,-302.9 -1257.93,-355.77 -1527.91,-86.83l-520.93 518.94c329.02,9.52 710.44,108.95 1121.27,288.31 790.46,345.09 1708.63,989.43 2567.19,1851.22l0.39 -0.39 0.06 0.06 0 0.77c839.99,843.23 2067.55,2397.79 2124.33,3658.5l517.06 -555.91 5.38 -5.39c267.14,-266.12 218.76,-805.73 -75.83,-1474.71 -386.25,-877.12 -1096.73,-1755.25 -1764.92,-2426.02zm-648.12 -1107.16c-1514.26,-2078.77 -2371.1,-3386.49 -1827.61,-4013.23 275.32,-317.51 46.25,-526.39 -284.17,-580.65 -297.83,-48.91 -667.89,47.37 -899.57,372.78 -383.99,539.3 -297.01,1012.85 -143.92,1630.43 112.56,454.06 278.43,916.94 397.46,1281.31 327.97,10.25 707.77,109.58 1116.72,288.12 510.57,222.9 1074.43,570.7 1641.09,1021.25zm27584.63 -27046.05c-66.06,-40.61 -4.24,-141.19 61.83,-100.57 379.91,233.61 769.02,635.65 971.48,1034.37 34.89,69.18 -70.3,122.24 -105.19,53.06 -192.74,-379.57 -566.52,-764.5 -928.11,-986.85zm487.33 -485.46c-66.06,-40.61 -4.24,-141.19 61.83,-100.57 379.9,233.61 769.03,635.66 971.48,1034.37 34.89,69.18 -70.3,122.24 -105.19,53.06 -192.73,-379.58 -566.52,-764.49 -928.11,-986.85zm487.32 -485.46c-66.06,-40.61 -4.24,-141.19 61.83,-100.57 379.9,233.61 769.03,635.66 971.48,1034.37 34.89,69.18 -70.3,122.24 -105.19,53.06 -192.73,-379.58 -566.52,-764.5 -928.11,-986.85zm-4713.93 2114.37l1304.84 414.8 1258.49 -1253.68c-95.62,-37.41 -196.43,-62.66 -315.5,-92.48 -519.35,-129.84 -1038.65,-259.95 -1557.93,-390.1 -264.76,-71.49 -368.54,-42.32 -560.77,149.17l-3.84 3.84 -598.82 563.43c129.46,161.12 290.56,365.91 473.53,605.02zm1460.58 536.72l2188.2 2297.72 1305.96 -1266.95c-20.36,-42.32 -56.31,-89.87 -114.7,-148.49l-3.84 -3.84 -1798.05 -1910.22c-107.42,-114.13 -200.48,-192.71 -290.52,-250.33l-1287.04 1282.12zm2300.91 2461.87l-68.84 1681.44c252.63,-213.96 515.22,-505.78 753.58,-743.22 164.17,-163.54 260.35,-274.93 292.44,-511.31l0 -0.77 221.02 -1584.65 0.77 -4.65 -1198.98 1163.16zm-468.1 1839.47l70.95 -1732.9 -2218.54 -2329.57 -739.28 -235.02c412.71,558.28 885.12,1226.39 1342.39,1933.22 496.3,767.17 975.36,1581.11 1342.55,2352.42 77.49,6.5 142.96,11.84 201.94,11.84zm-740.99 -6096.1c266.22,76.11 472.3,175.65 771.8,493.84l1492.52 1585.63 1414.37 -1408.95c284.16,-283.07 198.32,-726.3 -60.6,-1148.79 -225.18,-367.44 -572.89,-710.11 -937.08,-939.6 -431.46,-271.88 -875.13,-381.08 -1113.23,-143.89l-1567.77 1561.76zm-4523.69 771.05l327.31 885.48c818.87,329 1709.3,960.35 2515.51,1706.44 156.95,145.24 310.8,294.94 460.45,447.67 -872.23,-1333.39 -1781.87,-2508.46 -2204.36,-3026.63 -155.84,-191.14 -337.65,-243.78 -545.48,-212.27 -165.11,25.04 -350.57,98.46 -553.44,199.3zm2576.77 2879.5c-623.65,-577.14 -2253.07,-1895.8 -3346.55,-1836.52 -155.93,8.45 -306.98,49.44 -445.74,139.03 1174.22,738.81 2351.57,1676.24 3460.75,2789.68 1159.04,1163.49 2125.61,2400.37 2874.14,3629.24 98.13,-238.96 110.35,-506.88 70.06,-780.69 -209.92,-1426.41 -1730.07,-3124 -2612.65,-3940.75zm-3083.48 -3054.69c357.07,-199.96 681.67,-360.13 983.27,-410.26 -240.63,-155.58 -501.66,-246.53 -771.92,-270.39 -418.89,-36.98 -863.98,44.04 -1294.46,347.66 -179.45,126.56 -208.48,132.05 17.82,222.64 340.73,136.39 852.11,229.72 1065.29,110.34zm-19056.58 16418.8c1835.47,786.74 3789.77,2119.9 5568.71,3905.67 1712.43,1719.03 3004.75,3598.19 3794.35,5375.1 22.61,-461.25 105.48,-855.87 220.18,-1190.48 38.01,-110.88 79.56,-215.19 123.6,-313.24 138.31,-372.13 45.05,-897.64 -213.98,-1504.59 -458.02,-1073.2 -1425.35,-2364.6 -2567.25,-3527.73 -1143.6,-1164.86 -2457,-2195.83 -3604.85,-2745.82 -453.06,-217.09 -876.5,-358.23 -1247.33,-400.63 -603.97,-69.06 -1357.55,342.7 -2073.43,401.72zm2160.59 -784.43c407.91,53.39 857.49,203.54 1329.34,429.62 1190.44,570.39 2543.49,1630.37 3715.58,2824.25 1173.79,1195.61 2171.43,2530.78 2648.75,3649.22 143.06,335.21 240.15,653.61 282.72,946.74 82.86,-104.61 164.24,-193.86 239.44,-268.83l6768.47 -6786.27c3.35,-3.94 6.87,-7.79 10.59,-11.52l742.69 -748.95c499.04,-503.25 532.53,-1387.75 191.12,-2409.8 -359.39,-1075.89 -1131.1,-2289.74 -2217.52,-3380.44l-0.39 0.39 -0.03 -0.8c-1080.29,-1084.44 -2299.61,-1846.07 -3384.8,-2198.89 -1618.22,-526.1 -2063.7,-190.08 -3001.19,743.82l0 0.77 -7067.97 6990.11 -0.39 -0.39c-73.69,73.38 -159.55,147.68 -256.43,220.98zm8282.08 -8444.52c592.34,-199.35 1346.99,-150.55 2165.39,115.52 1139.89,370.59 2415.95,1165.85 3541.28,2295.39l0.39 -0.39 0.03 0.8c1129.49,1133.83 1934.19,2402.92 2311.71,3533.08 267.25,800.06 322.18,1536.68 131.03,2119.87 673.46,-381 1396.47,-577.88 2122.69,-816.17 294.25,-96.54 532.67,-240.19 717.18,-423.99 259.7,-258.71 416.49,-602.06 475.22,-1009.93 61.07,-424.06 17.07,-916.95 -126.7,-1457.64 -383.33,-1441.68 -1467.61,-3200.38 -3157.11,-4896.37 -874.59,-877.96 -1860.1,-1637.6 -2827.6,-2145.11 -1122.54,-588.84 -2744.5,-1100.39 -3778.1,-70.74 -361.44,360.07 -608.97,925.13 -834.87,1376.8 -234.62,469.09 -466.99,933.63 -740.54,1378.87zm-1087.48 24233.63c655.83,-1058.57 664.26,-2600.89 118.78,-4329.96 -653.96,-2072.91 -2100.17,-4400.76 -4183.61,-6492.22 -1859.33,-1866.48 -4366.56,-3660.95 -6945.59,-4346.69 -1535.84,-408.37 -2897.03,-351.71 -3861.17,240.89 1045.21,-282.81 2326.33,-181.78 3709.91,260.56 2126.74,679.93 4506.48,2168.89 6635.11,4305.69 2129.21,2137.4 3609.1,4522.43 4280.5,6650.62 437.01,1385.22 533.04,2666.79 246.07,3711.11zm16239.81 -16177.61c655.81,-1058.57 664.26,-2600.88 118.77,-4329.94 -653.96,-2072.91 -2100.17,-4400.77 -4183.62,-6492.22 -2084.04,-2092.05 -4405.93,-3547.26 -6475.17,-4208.8 -1727.29,-552.22 -3270.07,-549.43 -4331.57,103 1045.21,-282.8 2326.32,-181.78 3709.88,260.55 2126.6,679.89 4506.18,2168.7 6634.7,4305.28l0.39 -0.39 0.03 0.8c2129.21,2137.39 3609.1,4522.42 4280.5,6650.62 437.01,1385.22 533.04,2666.78 246.08,3711.1z"/></g><text x="0" y="39385.08" fill="#000000" font-size="5px" font-weight="bold" font-family="'Helvetica Neue', Helvetica, Arial-Unicode, Arial, Sans-serif">Created by Oleksandr Panasovskyi</text><text x="0" y="39390.08" fill="#000000" font-size="5px" font-weight="bold" font-family="'Helvetica Neue', Helvetica, Arial-Unicode, Arial, Sans-serif">from the Noun Project</text></svg>