<?xml version="1.0" encoding="UTF-8" standalone="no"?>
<svg
   xmlns:dc="http://purl.org/dc/elements/1.1/"
   xmlns:cc="http://creativecommons.org/ns#"
   xmlns:rdf="http://www.w3.org/1999/02/22-rdf-syntax-ns#"
   xmlns:svg="http://www.w3.org/2000/svg"
   xmlns="http://www.w3.org/2000/svg"
   xmlns:sodipodi="http://sodipodi.sourceforge.net/DTD/sodipodi-0.dtd"
   xmlns:inkscape="http://www.inkscape.org/namespaces/inkscape"
   xml:space="preserve"
   version="1.1"
   style="clip-rule:evenodd;fill-rule:evenodd;image-rendering:optimizeQuality;shape-rendering:geometricPrecision;text-rendering:geometricPrecision"
   viewBox="0 0 39370.08 39370.077"
   x="0px"
   y="0px"
   id="svg14"
   sodipodi:docname="road-brakeonly-lever.svg"
   inkscape:version="0.92.5 (2060ec1f9f, 2020-04-08)"
   width="39370.078"
   height="39370.078"><metadata
   id="metadata18"><rdf:RDF><cc:Work
       rdf:about=""><dc:format>image/svg+xml</dc:format><dc:type
         rdf:resource="http://purl.org/dc/dcmitype/StillImage" /><dc:title></dc:title></cc:Work></rdf:RDF></metadata><sodipodi:namedview
   pagecolor="#ffffff"
   bordercolor="#666666"
   borderopacity="1"
   objecttolerance="10"
   gridtolerance="10"
   guidetolerance="10"
   inkscape:pageopacity="0"
   inkscape:pageshadow="2"
   inkscape:window-width="1920"
   inkscape:window-height="1029"
   id="namedview16"
   showgrid="false"
   inkscape:zoom="0.01"
   inkscape:cx="56442.725"
   inkscape:cy="14206.301"
   inkscape:window-x="0"
   inkscape:window-y="27"
   inkscape:window-maximized="1"
   inkscape:current-layer="g8" /><defs
   id="defs4"><style
     type="text/css"
     id="style2">
   
    .fil0 {fill:black;fill-rule:nonzero}
   
  </style></defs><g
   id="g8"
   transform="translate(0,-9842.5234)"><path
     class="fil0"
     d="m 18160.956,13593.245 c -962.469,-1183.694 -2180.311,-1654.906 -3686.307,-1654.906 -1270.671,0 -2662.151,410.17 -2913.749,1826.374 484.633,-352.974 1183.695,-518.9 1934.952,-481.652 835.447,41.413 1741.479,332.99 2488.275,896.765 1202.349,907.681 2641.966,3310.462 3383.255,4606.154 917.274,1603.292 1664.692,3199.706 1810.836,4051.751 87.02,507.364 46.919,963.442 -156.937,1332.375 -5.295,9.59 -10.719,19.098 -16.226,28.56 297.043,-82.578 605.5,-149.365 934.041,-196.029 1710.784,-242.996 3247.136,425.242 4786.179,-210.626 2188.723,-904.3 3086.517,-3823.926 3451.056,-5983.274 76.007,-450.241 123.458,-889.504 131.978,-1296.386 23.703,-1132.007 -191.614,-2072.321 -1507.471,-2340.069 -1250.972,-254.56 -2606.061,168.372 -3771.552,613.653 -1449.577,553.8 -2861.69,1093.252 -4952.196,1007.622 374.625,387.657 808.438,653.131 1350.49,735.865 234.457,35.11 180.913,390.488 -53.543,355.386 -707.188,-107.934 -1247.518,-480.144 -1699.022,-999.511 -623.86,-717.679 -944.969,-1592.157 -1514.059,-2292.052 z m -2229.19,6330.295 c -120.939,1356.011 -30.115,2801.937 181.197,4232.573 242.994,1645.114 644.813,3268.335 1067.209,4711.603 350.823,1198.728 920.682,2778.618 1539.896,4495.38 1359.222,3768.393 2955.711,8194.603 3007.66,10728.436 13.825,674.411 -110.549,1162.174 -310.711,1499.796 -122.451,206.541 -287.844,380.942 -499.871,496.85 124.824,-24.597 248.088,-62.256 366.82,-112.364 581.486,-245.398 1050.598,-791.616 1050.598,-1563.595 0,-2189.772 -1115.209,-5483.555 -2384.166,-9231.444 -535.419,-1581.38 -1098.131,-3243.354 -1619.23,-4948.132 -305.763,-1000.324 -687.819,-2262.24 -928.964,-3522.092 -143.541,-749.92 -237.24,-1500.143 -236.105,-2197.079 0.705,-437.034 37.518,-879.21 141.343,-1303.968 -415.397,-469.13 -645.574,-1160.749 -899.234,-1922.965 -152.244,-457.475 -317.463,-908.082 -476.442,-1363.008 z m 3895.495,26011.602 c 546.065,266.963 1127.257,83.583 1434.771,-435.115 184.559,-311.317 299.121,-767.359 286.046,-1404.989 -51.343,-2504.56 -1642.454,-6915.852 -2997.095,-10671.541 -620.433,-1720.122 -1191.4,-3303.108 -1543.423,-4505.911 -424.797,-1451.451 -828.796,-3083.212 -1072.844,-4735.48 -233.055,-1577.799 -320.642,-3175.838 -142.24,-4656.654 -314.513,-895.578 -682.864,-2199.655 -1513.74,-2710.252 -635.485,-390.524 -2312.72,-505.31 -2798.508,151 -344.932,466.006 -198.303,1317.477 -36.465,1833.381 491.259,1565.924 810.646,2639.684 1059.055,3674.598 248.208,1034.063 422.13,2016.038 622.137,3397.141 567.175,3916.443 2057.349,6892.197 3408.388,9590.119 1482.231,2959.897 2799.04,5589.453 2582.267,8782.854 -60.193,886.838 256.793,1431.933 711.632,1690.867 z M 12778.649,14437.198 c -117.236,16.167 -141.873,-161.531 -24.654,-177.689 726.859,-100.408 1570.525,69.161 2201.86,442.113 101.809,59.972 10.225,214.489 -91.583,154.516 -597.702,-353.094 -1397.463,-514.004 -2085.613,-418.94 z m 16319.918,3899.683 c 19.46,-116.392 196.992,-86.908 177.531,29.502 -157.027,930.168 -491.742,2061.26 -991.274,2867.235 -62.018,100.106 -214.885,5.992 -152.878,-94.115 485.652,-783.578 813.954,-1898.313 966.621,-2802.622 z m -9784.315,2629.683 c 267.595,331.493 238.67,848.027 -38.05,1164.641 -290.041,331.857 -768.692,347.303 -1051.057,-2.457 -267.466,-331.319 -238.422,-848.301 38.05,-1164.641 290.042,-331.859 768.693,-347.303 1051.057,2.457 z m -779.109,233.532 c -162.031,185.389 -188.372,507.219 -29.594,703.906 141.095,174.774 356.219,154.261 498.716,-8.787 161.855,-185.197 188.38,-507.2 29.593,-703.905 -141.095,-174.774 -356.219,-154.261 -498.715,8.786 z M 11106.711,16883.73 c 25.773,-45.887 53.983,-89.575 84.685,-131.051 611.078,-825.558 2477.196,-733.289 3276.169,-242.301 941.142,578.352 1318.168,1910.214 1669.777,2912.072 204.662,583.175 416.818,1165.646 611.867,1751.725 255.593,768.025 485.963,1460.256 897.539,1870.565 794.337,858.476 2562.422,775.75 3158.42,-239.991 -175.626,-832.956 -884.95,-2328.779 -1750.567,-3841.783 -710.716,-1242.251 -2138.185,-3628.966 -3287.44,-4496.585 -687.206,-518.782 -1520.317,-787.059 -2288.194,-825.129 -659.729,-32.699 -1498.218,106.364 -1949.438,637.091 -273.257,597.551 -404.76,1294.451 -428.105,2004.877 -6.569,199.848 -4.534,400.636 5.305,600.51 z m 9754.62,6446.724 c -846.13,799.746 -2322.24,893.897 -3248.125,165.203 -41.441,218.379 -67.139,448.541 -79.334,687.729 697.925,597.295 1827.198,603.789 2659.154,285.44 238.149,-118.209 405.932,-278.361 512.652,-471.486 104.887,-189.81 154.059,-415.067 155.653,-666.877 z m -3335.347,1289.335 c 8.108,641.449 97.3,1332.018 229.892,2024.743 238.313,1245.092 616.467,2494.065 919.106,3484.168 516.307,1689.122 1080.026,3354.084 1616.417,4938.305 1279.457,3778.888 2403.892,7099.918 2403.892,9345.223 0,935.127 -567.879,1596.624 -1271.816,1893.692 -547.887,231.212 -1202.881,246.247 -1734.607,-37.732 -588.292,-314.204 -1005.265,-976.338 -932.536,-2047.779 210.14,-3095.771 -1086.312,-5684.691 -2545.638,-8598.837 -1363.051,-2721.898 -2866.464,-5724.085 -3442.205,-9699.687 -199.273,-1376.007 -371.401,-2349.54 -615.101,-3364.835 -243.498,-1014.463 -561.906,-2083.976 -1053.411,-3650.713 -247,-787.333 -387.928,-1719.757 -357.869,-2634.351 23.62,-718.729 153.043,-1427.813 419.621,-2049.697 1.557,-1926.179 1607.795,-2643.539 3312.938,-2643.539 1613.055,0 2935.866,522.307 3965.292,1788.352 500.007,614.95 826.137,1401.032 1316.076,2048.453 2204.958,157.815 3654.727,-395.967 5145.047,-965.332 1228.617,-469.394 2651.083,-897.816 3971.632,-629.099 1505.574,306.356 1822.315,1389.059 1794.91,2698.269 -8.959,428.174 -57.912,884.626 -136.201,1348.349 -387.727,2296.766 -1342.455,5294.933 -3668.048,6255.79 -1661.733,686.569 -3106.619,-16.468 -4873.549,234.501 -597.455,84.863 -1126.744,239.918 -1644.344,436.44 -805.111,393.703 -2133.292,288.099 -2819.498,-174.675 z"
     id="path6"
     inkscape:connector-curvature="0"
     style="fill:#000000;fill-rule:nonzero;stroke-width:0.9147892"
     sodipodi:nodetypes="sscccscccccccccccccsccccccccscccccccccccccccsccccsccccccccccccccccccccccccccsccccscccccccccccccccccsccsscccccsccccccccccc" /></g><text
   x="-9503.0732"
   y="35742.227"
   font-size="5px"
   font-weight="bold"
   id="text10"
   style="font-weight:bold;font-size:5.27053213px;font-family:'Helvetica Neue', Helvetica, Arial-Unicode, Arial, Sans-serif;fill:#000000;stroke-width:1.05410635">Created by Oleksandr Panasovskyi</text>

<text
   x="-9503.0732"
   y="35747.496"
   font-size="5px"
   font-weight="bold"
   id="text12"
   style="font-weight:bold;font-size:5.27053213px;font-family:'Helvetica Neue', Helvetica, Arial-Unicode, Arial, Sans-serif;fill:#000000;stroke-width:1.05410635">from the Noun Project</text>

</svg>