<svg xmlns="http://www.w3.org/2000/svg" xmlns:xlink="http://www.w3.org/1999/xlink" xml:space="preserve" version="1.1" style="shape-rendering:geometricPrecision;text-rendering:geometricPrecision;image-rendering:optimizeQuality;" viewBox="0 0 50000 62500" x="0px" y="0px" fill-rule="evenodd" clip-rule="evenodd"><defs><style type="text/css">
   
    .str2 {stroke:black;stroke-width:323.37}
    .str4 {stroke:black;stroke-width:264.58}
    .str6 {stroke:black;stroke-width:205.78}
    .str0 {stroke:black;stroke-width:564.44}
    .str1 {stroke:black;stroke-width:352.77}
    .str3 {stroke:black;stroke-width:293.97}
    .str5 {stroke:black;stroke-width:235.18}
    .str7 {stroke:black;stroke-width:176.38}
    .fil0 {fill:none}
   
  </style></defs><g><path class="fil0 str0" d="M24979 14698c-2325,0 -5567,270 -5567,2645 0,1939 2502,3511 5588,3511 3086,0 5588,-1572 5588,-3511 0,-2909 -3753,-5267 -8382,-5267 -4629,0 -8382,2358 -8382,5267 0,3878 5004,7023 11176,7023 6172,0 11176,-3145 11176,-7023 0,-4848 -6255,-8779 -13970,-8779 -7715,0 -13970,3931 -13970,8779 0,5818 7506,10534 16764,10534 9259,0 16764,-4716 16764,-10534 0,-6788 -8756,-12290 -19558,-12290 -10802,0 -19558,5502 -19558,12290 0,229 9,456 26,682 134,1758 782,3430 1851,4960 3458,4948 11324,8403 20475,8403 12345,0 22352,-6288 22352,-14045"/><path class="fil0 str0" d="M2667 17929l466 14541c18,641 -10,1285 702,2448 8210,13398 31576,12662 41294,2002 1261,-1383 2233,-2712 2175,-4703l47 -14664"/><line class="fil0 str0" x1="25000" y1="20854" x2="24997" y2="14410"/><line class="fil0 str0" x1="41804" y1="26605" x2="41764" y2="17343"/><g><ellipse class="fil0 str1" cx="24907" cy="41465" rx="735" ry="566"/><g><path class="fil0 str2" d="M21110 40766c359,8 649,248 649,537 0,288 -290,515 -649,507 -358,-8 -648,-248 -648,-536 0,-289 290,-516 648,-508z"/><path class="fil0 str3" d="M17375 40146c310,16 562,243 562,507 0,264 -252,465 -562,449 -310,-16 -562,-243 -562,-507 0,-264 252,-465 562,-449z"/><path class="fil0 str4" d="M13778 39032c262,24 475,237 475,477 0,240 -213,414 -475,390 -262,-24 -475,-237 -475,-477 0,-239 213,-414 475,-390z"/><path class="fil0 str5" d="M10414 37404c214,32 388,232 388,447 0,215 -174,364 -388,332 -214,-32 -388,-232 -388,-447 0,-216 174,-364 388,-332z"/><path class="fil0 str6" d="M7413 35242c166,40 301,227 301,418 0,191 -135,314 -301,274 -166,-40 -301,-227 -301,-418 0,-191 135,-314 301,-274z"/></g><ellipse class="fil0 str7" transform="matrix(0.297696 0.12055 -0 0.407047 4870.69 32917.1)" rx="720" ry="741"/><g><path class="fil0 str2" d="M28969 40682c-358,8 -648,248 -648,536 0,288 290,516 648,508 359,-8 649,-248 649,-537 0,-288 -290,-515 -649,-507z"/><path class="fil0 str3" d="M32705 40062c-310,16 -562,243 -562,507 0,263 252,464 562,448 310,-15 561,-242 561,-506 0,-264 -251,-465 -561,-449z"/><path class="fil0 str4" d="M36302 38947c-262,24 -475,238 -475,478 0,239 213,414 475,390 262,-24 475,-238 475,-477 0,-240 -213,-415 -475,-391z"/><path class="fil0 str5" d="M39666 37319c-214,32 -388,233 -388,448 0,215 174,364 388,332 214,-32 388,-233 388,-448 0,-215 -174,-364 -388,-332z"/><path class="fil0 str6" d="M42667 35158c-167,40 -301,227 -301,418 0,191 134,313 301,273 166,-40 301,-227 301,-418 0,-191 -135,-313 -301,-273z"/></g><ellipse class="fil0 str7" transform="matrix(-0.297696 0.12055 -0 0.407047 45209.1 32832.7)" rx="720" ry="741"/></g><g><ellipse class="fil0 str1" cx="24907" cy="38238" rx="735" ry="566"/><g><path class="fil0 str2" d="M21110 37539c359,8 649,249 649,537 0,288 -290,515 -649,507 -358,-8 -648,-248 -648,-536 0,-288 290,-516 648,-508z"/><path class="fil0 str3" d="M17375 36919c310,16 562,243 562,507 0,264 -252,465 -562,449 -310,-16 -562,-243 -562,-507 0,-264 252,-465 562,-449z"/><path class="fil0 str4" d="M13778 35805c262,24 475,238 475,477 0,240 -213,415 -475,391 -262,-24 -475,-238 -475,-478 0,-239 213,-414 475,-390z"/><path class="fil0 str5" d="M10414 34177c214,32 388,232 388,447 0,216 -174,364 -388,332 -214,-32 -388,-232 -388,-447 0,-215 174,-364 388,-332z"/><path class="fil0 str6" d="M7413 32016c166,40 301,227 301,418 0,190 -135,313 -301,273 -166,-40 -301,-227 -301,-418 0,-191 135,-313 301,-273z"/></g><ellipse class="fil0 str7" transform="matrix(0.297696 0.12055 -0 0.407047 4870.69 29690.3)" rx="720" ry="741"/><g><path class="fil0 str2" d="M28969 37455c-358,8 -648,248 -648,536 0,289 290,516 648,508 359,-8 649,-248 649,-537 0,-288 -290,-515 -649,-507z"/><path class="fil0 str3" d="M32705 36835c-310,16 -562,243 -562,507 0,264 252,465 562,449 310,-16 561,-243 561,-507 0,-264 -251,-465 -561,-449z"/><path class="fil0 str4" d="M36302 35721c-262,24 -475,237 -475,477 0,239 213,414 475,390 262,-24 475,-237 475,-477 0,-240 -213,-414 -475,-390z"/><path class="fil0 str5" d="M39666 34092c-214,32 -388,233 -388,448 0,215 174,364 388,332 214,-32 388,-232 388,-448 0,-215 -174,-363 -388,-332z"/><path class="fil0 str6" d="M42667 31931c-167,40 -301,227 -301,418 0,191 134,313 301,273 166,-39 301,-227 301,-417 0,-191 -135,-314 -301,-274z"/></g><ellipse class="fil0 str7" transform="matrix(-0.297696 0.12055 -0 0.407047 45209.1 29605.9)" rx="720" ry="741"/></g><g><ellipse class="fil0 str1" cx="24907" cy="35129" rx="735" ry="566"/><g><path class="fil0 str2" d="M21110 34430c359,8 649,249 649,537 0,288 -290,515 -649,507 -358,-8 -648,-248 -648,-536 0,-288 290,-515 648,-508z"/><path class="fil0 str3" d="M17375 33810c310,16 562,243 562,507 0,264 -252,465 -562,449 -310,-16 -562,-243 -562,-507 0,-264 252,-464 562,-449z"/><path class="fil0 str4" d="M13778 32696c262,24 475,238 475,477 0,240 -213,415 -475,391 -262,-24 -475,-238 -475,-477 0,-240 213,-415 475,-391z"/><path class="fil0 str5" d="M10414 31068c214,32 388,232 388,447 0,216 -174,364 -388,332 -214,-32 -388,-232 -388,-447 0,-215 174,-364 388,-332z"/><path class="fil0 str6" d="M7413 28907c166,40 301,227 301,418 0,190 -135,313 -301,273 -166,-40 -301,-227 -301,-418 0,-191 135,-313 301,-273z"/></g><ellipse class="fil0 str7" transform="matrix(0.297696 0.12055 -0 0.407047 4870.69 26581.3)" rx="720" ry="741"/><g><path class="fil0 str2" d="M28969 34346c-358,8 -648,248 -648,536 0,289 290,516 648,508 359,-8 649,-248 649,-536 0,-289 -290,-516 -649,-508z"/><path class="fil0 str3" d="M32705 33726c-310,16 -562,243 -562,507 0,264 252,465 562,449 310,-16 561,-243 561,-507 0,-264 -251,-465 -561,-449z"/><path class="fil0 str4" d="M36302 32612c-262,24 -475,237 -475,477 0,239 213,414 475,390 262,-24 475,-237 475,-477 0,-239 -213,-414 -475,-390z"/><path class="fil0 str5" d="M39666 30984c-214,31 -388,232 -388,447 0,215 174,364 388,332 214,-32 388,-232 388,-448 0,-215 -174,-363 -388,-331z"/><path class="fil0 str6" d="M42667 28822c-167,40 -301,227 -301,418 0,191 134,313 301,274 166,-40 301,-228 301,-418 0,-191 -135,-314 -301,-274z"/></g><ellipse class="fil0 str7" transform="matrix(-0.297696 0.12055 -0 0.407047 45209.1 26496.9)" rx="720" ry="741"/></g><line class="fil0 str0" x1="35956" y1="25316" x2="36180" y2="17340"/><line class="fil0 str0" x1="30517" y1="23556" x2="30570" y2="17534"/><line class="fil0 str0" x1="19365" y1="23269" x2="19418" y2="17247"/><line class="fil0 str0" x1="13810" y1="25229" x2="13824" y2="17570"/><line class="fil0 str0" x1="8226" y1="26714" x2="8240" y2="17437"/><path class="fil0 str0" d="M4525 22985c975,-1485 2475,-1985 3710,-2415"/><path class="fil0 str0" d="M10622 22771c830,-1265 2108,-1691 3159,-2057"/><path class="fil0 str0" d="M16654 22158c702,-1069 1782,-1429 2671,-1739"/><path class="fil0 str0" d="M39361 22638c-830,-1265 -2107,-1691 -3159,-2057"/><path class="fil0 str0" d="M33329 22025c-702,-1069 -1782,-1429 -2670,-1738"/></g><text x="0" y="50015" fill="#000000" font-size="5px" font-weight="bold" font-family="'Helvetica Neue', Helvetica, Arial-Unicode, Arial, Sans-serif">Created by Oleksandr Panasovskyi</text><text x="0" y="50020" fill="#000000" font-size="5px" font-weight="bold" font-family="'Helvetica Neue', Helvetica, Arial-Unicode, Arial, Sans-serif">from the Noun Project</text></svg>