<svg xmlns="http://www.w3.org/2000/svg" xmlns:xlink="http://www.w3.org/1999/xlink" version="1.1" x="0px" y="0px" viewBox="0 0 64 80" enable-background="new 0 0 64 64" xml:space="preserve"><g><g><path fill="#000000" d="M40,17V7h-5v2.6h-6V7h-5v10c-8.3,3.3-14,11.4-14,20.5c0,12.1,9.9,22,22,22s22-9.9,22-22    C54,28.5,48.3,20.3,40,17z M32,54.5c-9.4,0-17-7.6-17-17c0-7.5,5-14.2,12.2-16.3l1.8-0.5v-6.1h6v6.1l1.8,0.5    C44,23.3,49,30,49,37.5C49,46.9,41.4,54.5,32,54.5z"/><rect x="41.2" y="8.5" fill="#000000" width="5" height="7.1"/></g></g><text x="0" y="79" fill="#000000" font-size="5px" font-weight="bold" font-family="'Helvetica Neue', Helvetica, Arial-Unicode, Arial, Sans-serif">Created by Berkah Icon</text><text x="0" y="84" fill="#000000" font-size="5px" font-weight="bold" font-family="'Helvetica Neue', Helvetica, Arial-Unicode, Arial, Sans-serif">from the Noun Project</text></svg>