<?xml version="1.0" encoding="UTF-8" standalone="no"?>
<svg
   xmlns:dc="http://purl.org/dc/elements/1.1/"
   xmlns:cc="http://creativecommons.org/ns#"
   xmlns:rdf="http://www.w3.org/1999/02/22-rdf-syntax-ns#"
   xmlns:svg="http://www.w3.org/2000/svg"
   xmlns="http://www.w3.org/2000/svg"
   xmlns:sodipodi="http://sodipodi.sourceforge.net/DTD/sodipodi-0.dtd"
   xmlns:inkscape="http://www.inkscape.org/namespaces/inkscape"
   version="1.1"
   x="0px"
   y="0px"
   viewBox="0 0 64 80"
   enable-background="new 0 0 64 64"
   xml:space="preserve"
   id="svg14"
   sodipodi:docname="seat-clamp.svg"
   inkscape:version="0.92.5 (2060ec1f9f, 2020-04-08)"><metadata
     id="metadata20"><rdf:RDF><cc:Work
         rdf:about=""><dc:format>image/svg+xml</dc:format><dc:type
           rdf:resource="http://purl.org/dc/dcmitype/StillImage" /></cc:Work></rdf:RDF></metadata><defs
     id="defs18" /><sodipodi:namedview
     pagecolor="#ffffff"
     bordercolor="#666666"
     borderopacity="1"
     objecttolerance="10"
     gridtolerance="10"
     guidetolerance="10"
     inkscape:pageopacity="0"
     inkscape:pageshadow="2"
     inkscape:window-width="640"
     inkscape:window-height="480"
     id="namedview16"
     showgrid="false"
     inkscape:zoom="2.95"
     inkscape:cx="26.067797"
     inkscape:cy="40"
     inkscape:window-x="0"
     inkscape:window-y="27"
     inkscape:window-maximized="0"
     inkscape:current-layer="svg14" /><g
     id="g8"
     transform="matrix(1.2311248,0,0,1.2311248,-7.0570108,-0.9399076)"><g
       id="g6"><path
         d="M 40,17 V 7 H 35 V 9.6 H 29 V 7 h -5 v 10 c -8.3,3.3 -14,11.4 -14,20.5 0,12.1 9.9,22 22,22 12.1,0 22,-9.9 22,-22 C 54,28.5 48.3,20.3 40,17 Z M 32,54.5 C 22.6,54.5 15,46.9 15,37.5 15,30 20,23.3 27.2,21.2 L 29,20.7 v -6.1 h 6 v 6.1 l 1.8,0.5 C 44,23.3 49,30 49,37.5 c 0,9.4 -7.6,17 -17,17 z"
         id="path2"
         inkscape:connector-curvature="0"
         style="fill:#000000" /><rect
         x="41.200001"
         y="8.5"
         width="5"
         height="7.0999999"
         id="rect4"
         style="fill:#000000" /></g></g></svg>