<?xml version="1.0" encoding="UTF-8" standalone="no"?>
<svg
   xmlns:sketch="http://www.bohemiancoding.com/sketch/ns"
   xmlns:dc="http://purl.org/dc/elements/1.1/"
   xmlns:cc="http://creativecommons.org/ns#"
   xmlns:rdf="http://www.w3.org/1999/02/22-rdf-syntax-ns#"
   xmlns:svg="http://www.w3.org/2000/svg"
   xmlns="http://www.w3.org/2000/svg"
   xmlns:sodipodi="http://sodipodi.sourceforge.net/DTD/sodipodi-0.dtd"
   xmlns:inkscape="http://www.inkscape.org/namespaces/inkscape"
   inkscape:version="1.0 (4035a4fb49, 2020-05-01)"
   sodipodi:docname="stem.svg"
   id="svg16"
   y="0px"
   x="0px"
   version="1.1"
   viewBox="0 0 100 125">
  <metadata
     id="metadata22">
    <rdf:RDF>
      <cc:Work
         rdf:about="">
        <dc:format>image/svg+xml</dc:format>
        <dc:type
           rdf:resource="http://purl.org/dc/dcmitype/StillImage" />
      </cc:Work>
    </rdf:RDF>
  </metadata>
  <defs
     id="defs20" />
  <sodipodi:namedview
     inkscape:current-layer="svg16"
     inkscape:window-maximized="0"
     inkscape:window-y="0"
     inkscape:window-x="0"
     inkscape:cy="62.5"
     inkscape:cx="50"
     inkscape:zoom="1.9901469"
     showgrid="false"
     id="namedview18"
     inkscape:window-height="480"
     inkscape:window-width="828"
     inkscape:pageshadow="2"
     inkscape:pageopacity="0"
     guidetolerance="10"
     gridtolerance="10"
     objecttolerance="10"
     borderopacity="1"
     bordercolor="#666666"
     pagecolor="#ffffff" />
  <title
     id="title2">stem</title>
  <desc
     id="desc4">Created with Sketch.</desc>
  <g
     transform="translate(0,15.57674)"
     id="g10"
     sketch:type="MSPage"
     fill-rule="evenodd"
     fill="none"
     stroke-width="1"
     stroke="none">
    <g
       id="g8"
       fill="#000000"
       sketch:type="MSArtboardGroup">
      <path
         id="path6"
         transform="matrix(-1,0,0,1,98,0)"
         sketch:type="MSShapeGroup"
         d="m 74.200105,30.994 v 0 c -2.492,-0.002 -4.73,-1.004 -6.364,-2.636 -1.632,-1.636 -2.636,-3.872 -2.636,-6.364 0,-2.492 1.004,-4.73 2.636,-6.364 1.634,-1.632 3.872,-2.636 6.364,-2.636 2.492,0 4.728,1.004 6.364,2.636 1.632,1.634 2.634,3.872 2.636,6.364 -0.002,2.118 -0.726,4.048 -1.944,5.586 -1.656,2.084 -4.192,3.412 -7.056,3.414 m -15.616,-15.036 3.378,-3.27 1.836,1.506 c -1.632,2.172 -2.598,4.872 -2.598,7.8 0,7.18 5.82,12.998 13,13 3.444,0 6.586,-1.346 8.912,-3.536 l 1.954,1.604 -3.492,4.438 c -0.118,0.088 -0.328,0.228 -0.6,0.362 -0.432,0.216 -0.996,0.402 -1.598,0.402 h -0.01 l -0.22,-0.008 c -0.36,-0.026 -0.714,-0.042 -1.068,-0.042 h -0.054 c -1.076,0 -2.208,0.18 -3.298,0.674 -1.112,0.496 -2.148,1.248 -3.31,2.292 -0.406,0.37 -1.056,1.024 -1.996,1.988 -6.31,6.492 -24.538,26.048 -25.582,27.168 -0.172,0.164 -0.63,0.612 -1.148,1.25 -0.622,0.786 -1.366,1.81 -1.716,3.202 -0.094,0.43 -0.424,0.992 -0.762,1.4 -0.168,0.206 -0.328,0.374 -0.44,0.484 l -0.122,0.116 c -0.228,0.174 -1.144,0.872 -2.47,1.87 -2.304,1.736 -5.838,4.374 -9.076,6.692 -1.62,1.158 -3.164,2.236 -4.432,3.074 -0.634,0.42 -1.198,0.778 -1.656,1.05 -0.452,0.272 -0.818,0.462 -0.956,0.516 -1.228,0.522 -2.206,1.128 -2.994,1.53 -0.786,0.408 -1.324,0.58 -1.732,0.58 h -0.018 c -0.41,-0.01 -0.912,-0.106 -1.874,-0.856 -0.346,-0.278 -0.5,-0.494 -0.574,-0.634 l -0.088,-0.344 c -0.002,-0.134 0.038,-0.328 0.146,-0.566 0.154,-0.354 0.462,-0.766 0.73,-1.054 l 0.338,-0.334 0.088,-0.078 0.008,-0.006 0.102,-0.082 4.856,-5.072 -0.708,-1.288 c -0.006,-0.01 -0.242,-0.44 -0.524,-0.912 -0.142,-0.238 -0.292,-0.484 -0.448,-0.718 l -0.26,-0.358 c -0.084,-0.09 -0.136,-0.178 -0.286,-0.314 -0.104,-0.136 -0.324,-0.444 -0.562,-0.792 -0.422,-0.61 -0.946,-1.396 -1.36,-2.022 -0.282,-0.428 -0.516,-0.782 -0.634,-0.964 -0.074,-0.138 -0.172,-0.29 -0.306,-0.448 -0.194,-0.222 -0.472,-0.438 -0.788,-0.574 -0.312,-0.136 -0.646,-0.194 -0.94,-0.194 h -0.01 c -0.564,0.006 -0.99,0.162 -1.398,0.358 -0.406,0.2 -0.806,0.464 -1.272,0.824 -0.5899996,0.46 -1.4079996,1.106 -2.2839996,1.62 -0.846,0.508 -1.728,0.82 -2.254,0.82 h -0.042 c -0.422,-0.026 -0.594,-0.062 -0.99,-0.458 -0.864,-0.968 -0.974,-1.526 -0.982,-1.908 0,-0.268 0.07,-0.536 0.24,-0.868 0.168,-0.326 0.438,-0.69 0.758,-1.048 0.538,-0.606 1.156,-1.18 1.724,-1.774 0.284,-0.302 0.56,-0.604 0.822,-0.996 0.192,-0.3 0.42,-0.674 0.52,-1.208 0.142,-0.142 0.334,-0.324 0.55,-0.516 1.6939996,-1.53 5.2199996,-4.338 8.3959996,-6.842 1.594,-1.254 3.106,-2.442 4.29,-3.38 0.59,-0.468 1.098,-0.876 1.5,-1.204 0.298,-0.246 0.516,-0.426 0.712,-0.602 0.25,0.032 0.536,0.05 0.858,0.05 h 0.004 c 0.472,0 1.028,-0.036 1.714,-0.124 0.91,-0.116 1.622,-0.22 2.312,-0.408 1.044,-0.266 1.992,-0.862 2.708,-1.554 0.742,-0.694 1.46,-1.508 2.726,-2.774 0.914,-0.912 2.734,-2.844 4.998,-5.272 6.778,-7.272 17.396,-18.872 17.398,-18.876 l 0.11,-0.12 0.088,-0.136 c 0.038,-0.06 0.588,-0.9 1.152,-2.164 0.556,-1.268 1.16,-2.946 1.17,-4.838 0,-0.722 -0.096,-1.482 -0.354,-2.238 -0.192,-0.566 -0.252,-1.018 -0.252,-1.39 0.002,-0.582 0.148,-0.98 0.276,-1.238 l 0.158,-0.26 0.006,-0.008 m 6.27,-6.072 2.898,-2.808 2.546,-2.076 c 0.354,0.012 2.308,0.118 4.974,0.982 2.874,0.934 6.566,2.732 10.084,6.248 l 0.018,0.02 0.018,0.016 0.01,0.01 c 0.154,0.146 1.898,1.856 3.55,4.264 1.552,2.236 2.95,5.074 3.118,7.62 l -4.53,5.756 -1.97,-1.618 c 1.038,-1.868 1.63,-4.024 1.63,-6.306 -0.002,-7.182 -5.82,-13 -13,-13 -2.802,0 -5.396,0.886 -7.518,2.392 l -1.828,-1.5 M 70.260105,1 h -1.384 l -3.786,3.088 -9.374,9.08 -0.018,0.018 c -0.106,0.112 -0.482,0.516 -0.846,1.232 -0.364,0.714 -0.71,1.756 -0.708,3.046 0,0.816 0.138,1.724 0.468,2.684 0.088,0.26 0.138,0.576 0.138,0.944 0.012,0.964 -0.382,2.238 -0.824,3.21 -0.218,0.49 -0.438,0.906 -0.6,1.192 l -0.174,0.294 c -0.348,0.38 -1.4,1.528 -2.874,3.138 -2.736,2.98 -6.918,7.532 -10.738,11.66 -3.814,4.12 -7.298,7.85 -8.534,9.084 -1.762,1.778 -2.598,2.73 -3.016,3.002 -0.21,0.144 -0.314,0.198 -0.654,0.298 -0.334,0.094 -0.896,0.19 -1.75,0.296 -0.548,0.07 -0.94,0.092 -1.206,0.092 h -0.004 c -0.358,-0.002 -0.462,-0.032 -0.508,-0.042 l -0.144,-0.042 c -0.098,-0.026 -0.316,-0.11 -0.734,-0.116 -0.01,-0.002 -0.02,-0.002 -0.03,-0.002 -0.31,0 -0.678,0.092 -0.928,0.216 -0.396,0.194 -0.564,0.366 -0.714,0.496 l -0.426,0.416 -0.01,0.01 c -0.104,0.098 -0.506,0.436 -1.038,0.864 -1.892,1.526 -5.656,4.444 -8.944,7.078 -1.6459996,1.32 -3.1739996,2.566 -4.3199996,3.56 -0.576,0.5 -1.05,0.93 -1.428,1.308 -0.19,0.192 -0.354,0.366 -0.522,0.582 -0.084,0.11 -0.172,0.228 -0.274,0.416 -0.082,0.178 -0.224,0.394 -0.264,0.898 -0.122,0.144 -0.32,0.362 -0.564,0.602 -0.418,0.422 -0.964,0.946 -1.518,1.57 -0.448,0.504 -0.928,1.11 -1.32200004,1.866 -0.38999999,0.75 -0.69,1.674 -0.6879999952,2.708 -0.0100000048,1.546 0.6919999952,3.156 2.0260000352,4.602 1.046,1.184 2.538,1.764 3.86,1.764 h 0.086 c 1.71,-0.018 3.13,-0.686 4.3199996,-1.37 0.986,-0.578 1.824,-1.22 2.402,-1.668 0.162,0.244 0.336,0.506 0.514,0.768 0.352,0.528 0.714,1.062 1.014,1.49 0.152,0.214 0.286,0.402 0.408,0.564 l 0.194,0.242 0.138,0.154 c 0.016,0.014 0.032,0.028 0.048,0.046 l 0.084,0.124 -2.628,2.746 c -0.224,0.192 -0.712,0.634 -1.23,1.292 -0.332,0.422 -0.678,0.936 -0.958,1.56 -0.2799996,0.62 -0.4979996,1.364 -0.4979996,2.206 -0.002,0.71 0.168,1.482 0.5419996,2.192 0.37,0.714 0.926,1.356 1.628,1.914 1.392,1.124 2.884,1.728 4.33,1.728 h 0.036 c 1.44,-0.006 2.604,-0.524 3.578,-1.022 0.984,-0.51 1.844,-1.036 2.72,-1.4 0.604,-0.26 1.224,-0.624 2.01,-1.11 2.7,-1.684 7.032,-4.82 10.746,-7.566 3.708,-2.742 6.76,-5.076 6.766,-5.08 l 0.038,-0.028 0.034,-0.03 c 0.066,-0.056 0.546,-0.462 1.11,-1.156 0.556,-0.696 1.226,-1.674 1.548,-2.994 0.068,-0.36 0.49,-1.084 0.932,-1.612 0.218,-0.268 0.43,-0.5 0.584,-0.656 l 0.176,-0.176 0.042,-0.04 0.006,-0.006 0.058,-0.052 0.054,-0.058 c 0.004,-0.004 1.56,-1.676 3.942,-4.226 3.574,-3.824 8.992,-9.616 13.75,-14.658 2.376,-2.52 4.59,-4.854 6.322,-6.658 0.864,-0.902 1.61,-1.672 2.19,-2.264 0.576,-0.586 1.012,-1.014 1.17,-1.154 0.99,-0.892 1.704,-1.366 2.26,-1.612 0.56,-0.242 0.996,-0.322 1.726,-0.328 0.232,0 0.492,0.01 0.782,0.032 l 0.506,0.018 c 1.496,-0.002 2.71,-0.462 3.552,-0.902 0.842,-0.444 1.334,-0.88 1.424,-0.958 l 0.128,-0.114 11.612,-14.758 0.006,-0.684 v -0.114 c -0.028,-4.194 -2.092,-7.938 -4.022,-10.72 -1.818,-2.588 -3.6,-4.338 -3.882,-4.61 -4.162,-4.162 -8.602,-6.272 -12,-7.326 -3.404,-1.056 -5.776,-1.076 -5.924,-1.078" />
    </g>
  </g>
</svg>
