<?xml version="1.0" encoding="UTF-8" standalone="no"?>
<svg
   xmlns:dc="http://purl.org/dc/elements/1.1/"
   xmlns:cc="http://creativecommons.org/ns#"
   xmlns:rdf="http://www.w3.org/1999/02/22-rdf-syntax-ns#"
   xmlns:svg="http://www.w3.org/2000/svg"
   xmlns="http://www.w3.org/2000/svg"
   xmlns:sodipodi="http://sodipodi.sourceforge.net/DTD/sodipodi-0.dtd"
   xmlns:inkscape="http://www.inkscape.org/namespaces/inkscape"
   xml:space="preserve"
   version="1.1"
   style="clip-rule:evenodd;fill-rule:evenodd;image-rendering:optimizeQuality;shape-rendering:geometricPrecision;text-rendering:geometricPrecision"
   viewBox="0 0 49999.997 50000"
   x="0px"
   y="0px"
   id="svg14"
   sodipodi:docname="threaded-bottom-bracket.svg"
   width="50000"
   height="50000"
   inkscape:version="0.92.5 (2060ec1f9f, 2020-04-08)"><metadata
     id="metadata18"><rdf:RDF><cc:Work
         rdf:about=""><dc:format>image/svg+xml</dc:format><dc:type
           rdf:resource="http://purl.org/dc/dcmitype/StillImage" /><dc:title></dc:title></cc:Work></rdf:RDF></metadata><sodipodi:namedview
     pagecolor="#ffffff"
     bordercolor="#666666"
     borderopacity="1"
     objecttolerance="10"
     gridtolerance="10"
     guidetolerance="10"
     inkscape:pageopacity="0"
     inkscape:pageshadow="2"
     inkscape:window-width="1920"
     inkscape:window-height="1029"
     id="namedview16"
     showgrid="false"
     inkscape:zoom="0.01"
     inkscape:cx="69156.504"
     inkscape:cy="29398.552"
     inkscape:window-x="0"
     inkscape:window-y="27"
     inkscape:window-maximized="1"
     inkscape:current-layer="svg14" /><defs
     id="defs4"><style
       type="text/css"
       id="style2">
   
    .fil0 {fill:black;fill-rule:nonzero}
   
  </style></defs><g
     id="g8"
     transform="matrix(1.1215359,0,0,1.1287783,3599.9981,5065.4991)"><path
       class="fil0"
       d="m 16952.26,31918.55 c 16.75,-110.42 119.85,-186.37 230.27,-169.61 110.42,16.75 186.36,119.85 169.62,230.27 -127.28,836.7 -400.37,1599.33 -819.63,2251.95 -96.16,149.67 -199.92,293.53 -311.27,431.16 200.52,-136.31 397.37,-280.89 589.33,-433.16 927.59,-735.75 1800.81,-1706.02 2347.09,-2765.1 411.94,-798.67 601.69,-1881.69 508.9,-3130.62 -1.19,-8.54 -1.81,-17.12 -1.91,-25.7 -29.6,-383.21 -85.7,-781.87 -170.15,-1192.67 -336.53,-1637.09 -1122.6,-3461.15 -2467.76,-5260.28 -45.91,-61.39 -53.98,-72.55 -59.81,-80.21 -1367.68,-1794.52 -3530.42,-3484.18 -5790.69,-4397.07 -2203.62,-890.01 -4494.16,-1036.81 -6205.27,196.11 -380.85,274.37 -755.74,573.17 -1130.48,858.77 1465.83,-377.94 3166.24,-181.68 4867.76,496.06 2212.81,881.39 4432.37,2579.33 6134.15,4884.91 615.85,834.35 1162.88,1748.61 1594.35,2713.21 400.13,894.54 700.57,1831.37 864.11,2786.84 19.2,110.43 -54.76,215.51 -165.19,234.71 -110.43,19.2 -215.51,-54.76 -234.71,-165.19 -157.93,-922.66 -447.93,-1827.07 -834.13,-2690.46 -418.86,-936.4 -951.26,-1825.78 -1551.48,-2638.96 -1656.33,-2244 -3811.41,-3894.52 -5956.7,-4749.02 -1722.51,-686.1 -3435.37,-857.39 -4869.58,-406.72 -621.72,195.36 -1048.85,449.39 -1559.43,838.52 -1091.7,904.99 -1664.03,2290.44 -1719.27,3903.67 -85.63,2501.05 1041.61,5066.78 2510.21,7056.44 1656.34,2244 3811.41,3894.52 5956.7,4749.02 1714.49,682.91 3419.43,855.78 4849.54,412.97 1019.95,-315.81 1883.76,-942.49 2464.55,-1846.52 388.81,-605.23 642.33,-1314.19 760.85,-2093.35 z M 36456.85,14274.59 c -101.51,86.33 -232.75,-68.01 -131.26,-154.32 l 618.27,-527.92 c 101.51,-86.33 232.76,68 131.27,154.32 l -618.27,527.93 z m 610.91,-2081.89 c -42.61,36.24 -106.55,31.09 -142.79,-11.53 -36.24,-42.61 -31.09,-106.55 11.53,-142.8 l 616.04,-526.02 c 42.61,-36.24 106.55,-31.09 142.79,11.53 36.24,42.61 31.09,106.55 -11.53,142.8 z m -81.28,-1869.95 c -42.61,36.24 -106.55,31.09 -142.8,-11.53 -36.24,-42.61 -31.09,-106.55 11.53,-142.8 l 616.04,-526.02 c 42.61,-36.24 106.55,-31.09 142.79,11.53 36.24,42.61 31.09,106.55 -11.52,142.79 l -616.04,526.02 z m -503.89,-1863.08 c -42.61,36.24 -106.55,31.09 -142.79,-11.53 -36.24,-42.61 -31.09,-106.55 11.53,-142.79 l 616.04,-526.02 c 42.61,-36.24 106.55,-31.09 142.79,11.53 36.24,42.61 31.09,106.55 -11.53,142.79 z m -880.95,-1696.52 c -42.61,36.24 -106.55,31.09 -142.79,-11.53 -36.24,-42.61 -31.09,-106.55 11.53,-142.79 l 616.04,-526.02 c 42.61,-36.24 106.55,-31.09 142.8,11.53 36.24,42.61 31.09,106.55 -11.53,142.79 l -616.04,526.02 z M 34463.43,5226.93 c -42.61,36.24 -106.55,31.09 -142.8,-11.53 -36.24,-42.61 -31.09,-106.55 11.53,-142.8 l 616.04,-526.01 c 42.61,-36.24 106.55,-31.09 142.8,11.53 36.24,42.61 31.09,106.55 -11.53,142.79 z M 33097.79,3888.86 c -42.61,36.24 -106.55,31.09 -142.79,-11.53 -36.24,-42.61 -31.09,-106.55 11.53,-142.79 l 616.04,-526.02 c 42.61,-36.24 106.55,-31.09 142.79,11.53 36.24,42.61 31.09,106.55 -11.53,142.8 l -616.04,526.02 z M 31453.53,2844.85 c -42.62,36.24 -106.55,31.09 -142.79,-11.53 -36.24,-42.61 -31.09,-106.55 11.53,-142.8 l 616.04,-526.02 c 42.61,-36.24 106.55,-31.09 142.79,11.53 36.24,42.61 31.09,106.55 -11.53,142.79 l -616.04,526.02 z m -1787.84,-698.9 c -42.61,36.24 -106.55,31.09 -142.8,-11.52 -36.24,-42.61 -31.09,-106.55 11.53,-142.8 l 616.04,-526.02 c 42.61,-36.24 106.55,-31.09 142.8,11.53 36.24,42.61 31.09,106.55 -11.53,142.8 l -616.04,526.02 z m -1853.75,-306.5 c -42.61,36.24 -106.55,31.09 -142.79,-11.53 -36.24,-42.61 -31.09,-106.55 11.53,-142.79 l 616.04,-526.02 c 42.61,-36.24 106.55,-31.09 142.8,11.53 36.24,42.61 31.09,106.55 -11.53,142.79 l -616.04,526.02 z m -1873.25,228.8 c -42.61,36.24 -106.55,31.09 -142.79,-11.53 -36.24,-42.61 -31.09,-106.55 11.53,-142.79 l 616.04,-526.02 c 42.61,-36.24 106.55,-31.09 142.79,11.53 36.24,42.61 31.09,106.55 -11.53,142.79 z m -1633.96,553.17 c -42.61,36.24 -106.55,31.09 -142.8,-11.53 -36.24,-42.61 -31.09,-106.55 11.53,-142.79 l 618.27,-527.93 c 42.61,-36.24 106.55,-31.09 142.8,11.53 36.24,42.61 31.09,106.55 -11.53,142.8 z m -6239.69,29292.17 c -40.52,38.57 -104.63,37.01 -143.2,-3.5 -38.57,-40.51 -37.01,-104.63 3.5,-143.2 l 566.16,-538.44 c 40.51,-38.57 104.63,-37.01 143.2,3.5 38.57,40.51 37.01,104.63 -3.5,143.2 l -566.15,538.44 z m 188.3,-1822.08 c -40.92,38.3 -105.15,36.19 -143.45,-4.73 -38.31,-40.92 -36.19,-105.15 4.73,-143.45 l 571.37,-537.4 c 40.92,-38.3 105.14,-36.19 143.45,4.73 38.31,40.92 36.19,105.15 -4.73,143.45 z m -158.71,-1973.11 c -41.03,38.12 -105.19,35.76 -143.3,-5.27 -38.11,-41.02 -35.75,-105.19 5.27,-143.3 l 576.58,-536.34 c 41.02,-38.12 105.19,-35.76 143.3,5.27 38.11,41.02 35.75,105.19 -5.28,143.3 z m -627,-1855.71 c -41.24,37.74 -105.28,34.89 -143.01,-6.35 -37.74,-41.25 -34.89,-105.28 6.35,-143.02 l 581.78,-535.29 c 41.25,-37.74 105.28,-34.89 143.02,6.35 37.73,41.24 34.89,105.28 -6.36,143.01 l -581.79,535.29 z m -861.59,-1777.34 c -41.54,37.65 -105.76,34.5 -143.41,-7.04 -37.65,-41.55 -34.5,-105.76 7.04,-143.41 l 587,-534.24 c 41.54,-37.65 105.76,-34.5 143.41,7.05 37.65,41.54 34.5,105.76 -7.04,143.41 l -587,534.24 z m -1221.61,-1664.41 c -41.65,37.47 -105.8,34.08 -143.26,-7.58 -37.46,-41.65 -34.07,-105.8 7.58,-143.27 l 592.21,-533.19 c 41.65,-37.46 105.8,-34.07 143.27,7.59 37.46,41.65 34.07,105.8 -7.59,143.26 l -592.21,533.18 z m -1504.66,-1542.92 c -41.87,37.08 -105.89,33.2 -142.98,-8.67 -37.08,-41.87 -33.2,-105.89 8.67,-142.98 l 597.43,-532.13 c 41.87,-37.08 105.89,-33.2 142.97,8.67 37.09,41.87 33.2,105.89 -8.67,142.98 l -597.43,532.13 z m -1486.98,-1266.84 c -41.98,36.89 -105.94,32.77 -142.83,-9.21 -36.89,-41.98 -32.77,-105.94 9.21,-142.83 l 602.63,-531.08 c 41.98,-36.89 105.94,-32.77 142.83,9.21 36.89,41.98 32.78,105.94 -9.21,142.83 l -602.64,531.08 z M 10634.3,18942.99 c -42.28,36.81 -106.41,32.38 -143.23,-9.9 -36.81,-42.28 -32.38,-106.41 9.9,-143.23 l 607.85,-530.03 c 42.28,-36.81 106.41,-32.39 143.23,9.9 36.81,42.29 32.38,106.42 -9.9,143.23 z m -1900.18,-789.26 c -42.5,36.43 -106.5,31.52 -142.94,-10.98 -36.44,-42.5 -31.52,-106.5 10.98,-142.94 l 613.06,-528.98 c 42.5,-36.44 106.5,-31.52 142.94,10.98 36.43,42.5 31.52,106.51 -10.98,142.94 z M 6716.9,17761.02 c -42.61,36.24 -106.55,31.09 -142.79,-11.53 -36.24,-42.61 -31.09,-106.55 11.53,-142.79 l 618.27,-527.92 c 42.61,-36.24 106.55,-31.09 142.79,11.52 36.24,42.61 31.09,106.55 -11.53,142.8 z m 2341.72,13797.72 c 115.43,66.44 14.3,242.17 -101.14,175.74 -1150,-662.26 -2158.71,-1640.94 -2930.05,-2715.8 -77.61,-108.35 87.11,-226.35 164.72,-118.02 754.48,1051.36 1741.54,2010.26 2866.47,2658.07 z M 28514.43,7177.02 c -49.57,-25.8 -68.85,-86.91 -43.05,-136.49 25.8,-49.58 86.91,-68.85 136.49,-43.05 1507.93,785.71 3221.05,3239.87 3526.15,4928.44 23.77,130.98 -175.39,167.13 -199.16,36.15 -294.05,-1627.45 -1968.17,-4028.35 -3420.44,-4785.05 z M 26077.32,6903.5 c -52,-20.35 -77.66,-79.01 -57.3,-131.01 20.35,-52 79.01,-77.66 131.01,-57.3 2846.29,1111.77 5289.84,4337.19 5579.09,7381.14 12.63,132.58 -188.96,151.8 -201.59,19.21 C 31246.66,11149.23 28851,7986.92 26077.32,6903.51 Z M 13889.9,30705.12 C 9991.07,30594.45 5918.69,25489.9 5797.88,21746.88 c -457.81,38.65 -905.06,180.24 -1280.12,449.39 -726.67,521.47 -1076.19,1438 -1061.06,2548.94 22.81,1674.01 833.78,3426.9 1802.35,4776.6 961.07,1339.25 2289.52,2591 3782.71,3307.02 1177.21,564.5 2692.37,908.25 3792.41,118.85 658.72,-472.71 1007.52,-1270.05 1055.72,-2242.55 z M 6203.7,21737.48 c 115.41,3529.13 4011.73,8450.17 7689.16,8561.22 -53.93,-1643.93 -847.48,-3349.27 -1799.98,-4676.57 C 10827.62,23859 8505.81,21818.01 6203.7,21737.48 Z m 6218.61,3648.61 c 1019.8,1421.07 1854,3242.3 1878.02,5006.1 16.96,1244.33 -388.3,2280.79 -1230.12,2884.9 -1218.26,874.15 -2839.52,557.63 -4141.75,-53.05 -1581.69,-741.75 -2985.01,-2053.47 -3998.83,-3466.21 -1019.8,-1421.1 -1853.99,-3242.27 -1878.02,-5006.1 -16.96,-1244.33 388.3,-2280.79 1230.12,-2884.91 580.04,-416.17 1255.07,-561.03 1939.72,-534.62 2446.32,94.38 4851.7,2173.83 6200.87,4053.88 z m 771.72,-525.3 c 1200.52,1656.78 2157.82,3781.69 2150.72,5847.67 -5,1454.57 -505.44,2676.8 -1513.06,3406.94 -1465.46,1061.88 -3431.48,741.22 -4981.89,51.43 C 7158.02,33414.13 5438.77,32020.02 4093.07,30162.9 2892.55,28506.14 1935.26,26381.2 1942.36,24315.23 c 5,-1454.57 505.44,-2676.8 1513.06,-3406.94 810.1,-587 1773.16,-751.52 2734.43,-664.76 2782.65,251.18 5431.78,2447.27 7004.19,4617.25 z M 6179.42,20650 c -876.44,-83.59 -1755.3,57.05 -2486.6,586.93 -895.56,648.93 -1340.39,1754.15 -1344.94,3078.86 -6.78,1974.23 926.12,4025.81 2073.83,5609.7 1302.46,1797.44 2962.56,3145.02 4593.66,3870.72 1407.59,626.26 3240.43,960.4 4578.92,-9.45 895.55,-648.93 1340.39,-1754.14 1344.94,-3078.86 6.78,-1974.24 -926.11,-4025.81 -2073.83,-5609.7 C 11369.95,23034.42 8828.01,20902.58 6179.43,20650 Z m 5361.46,-4404.24 c -130.9,-24.39 -93.78,-223.67 37.13,-199.28 1925.44,354.48 3867.42,1570.31 5455.76,3264.16 1578.57,1683.44 2809.84,3841.21 3329.19,6095.7 12.7,54.44 -21.15,108.86 -75.58,121.56 -54.44,12.7 -108.86,-21.14 -121.56,-75.58 -511.08,-2218.59 -1724.28,-4343.65 -3280.22,-6002.96 -1560.14,-1663.78 -3462.89,-2857.15 -5344.7,-3203.59 z m 3268.33,180.36 c -118.39,-61.11 -25.35,-241.35 93.04,-180.24 1061.09,545.98 2078.31,1344 2978.63,2300.02 916.83,973.55 1713.08,2111.78 2311.37,3315.05 25.1,50.06 4.87,110.99 -45.19,136.09 -50.06,25.1 -110.99,4.87 -136.09,-45.19 -589.5,-1185.57 -1374.34,-2307.39 -2278.27,-3267.24 -884.9,-939.64 -1883.35,-1723.3 -2923.49,-2258.5 z m 5476.31,-8378 c 3072,-1964.05 6997.63,71.84 8908.05,2709.25 1675.7,2313.35 2412.22,5937.66 171.5,8129.22 551.21,-328.25 1081.8,-708.52 1552.02,-1096.02 1445.82,-1191.47 2272,-2367.96 2309.04,-4341.12 26.68,-1420.83 -425.29,-2922.76 -1221.69,-4246.56 -787.5,-1309 -1924.8,-2460.79 -3284.93,-3170.68 -236.39,-123.65 -48.14,-483.54 188.26,-359.88 1428.94,745.81 2616.77,1947.3 3444.15,3322.61 834.65,1387.37 1308.25,2965.39 1280.15,4462.15 -38.95,2074.5 -899.45,3353.86 -2421.98,4616.87 2434.62,-759.52 4241,-3177.39 4424.6,-5698.83 19.13,-265.17 422.81,-236.04 403.69,29.13 -163.28,2242.41 -1495.17,4341.6 -3425.76,5482.5 2378.74,-769.02 4464.36,-2686.14 5366.9,-5020.75 1132.96,-2930.62 10.87,-6452.49 -1858.09,-8783.27 C 32711.3,-170.03 26884.68,-966.63 23029.5,2888.55 c -663.99,663.7 -1197.47,1425.3 -1545.67,2247.38 399.44,-571.39 904.7,-1048.09 1486.28,-1426.8 1620.24,-1055.07 3687.43,-1272.17 5555.23,-895.07 3452.28,697.02 6156,3386.48 7168.92,6690.35 78.47,254.95 -309.19,374.27 -387.66,119.3 -969.63,-3162.63 -3556.9,-5745.52 -6862.02,-6412.83 -1760.21,-355.39 -3726.19,-156.4 -5254.14,838.58 -918,597.78 -1630.5,1459.73 -2001.41,2571.18 1269,-1039.72 2822.93,-1705.06 4474.04,-1735.93 266.8,-5.72 275.52,399.95 8.7,405.68 -1839.76,34.39 -3450.62,882.47 -4747.22,2100.52 -222.41,208.93 -435.57,428.75 -639.06,657.22 z m 342.95,-933.49 c 34.54,-1704.47 930.3,-3329.97 2114.18,-4513.34 4016.22,-4016.22 10139.22,-3208 13696.53,1228.32 1962.41,2447.31 3105.16,6113.13 1918.36,9183.01 -1218.94,3153 -4481.68,5582.94 -7889.8,5647.24 -18.25,0.39 -1184.69,743.07 -1340.72,826.35 -857.22,460.8 -1831.59,743.98 -2961.48,819.74 l -4114.66,3913.28 c 27.94,763.96 -141.19,1539.13 -471.67,2251.22 -341.38,735.57 -855.55,1405.67 -1502.82,1928.03 80.06,1263.02 -117.09,2368.78 -533.97,3204.63 -557.19,1117.17 -1512.09,2176.77 -2480.07,2944.57 -987.85,783.56 -2103.48,1373.1 -3194.21,1692.09 -1525.45,478.46 -3332.3,301.92 -5140.4,-418.27 C 6514.93,34940.11 4295.37,33242.17 2593.58,30936.59 1068.99,28871.07 -84.08,26223.25 4.83,23626.63 c 59.58,-1739.81 687.87,-3238.66 1887.78,-4220.9 857.72,-702.06 1801.94,-1371.21 2687.18,-2045.89 1187.13,-904.76 2532.09,-1190.56 4003.98,-1055.37 385.89,-425.37 1269.85,-931.13 1786.73,-1163.13 1106.22,-496.53 2255.96,-639.52 3401.59,-470.39 l 4525.69,-3798.77 c 120.93,-997.66 994.88,-2267.46 1429.5,-2794.94 280.7,-340.67 586.61,-665.25 901.2,-962.61 z m 2932.57,13998.76 c -57.9,55.13 -141.7,-32.89 -83.82,-88.02 l 2081.49,-1979.61 c 57.89,-55.14 141.7,32.9 83.82,88.02 z m 3126.85,-1304.22 c 844.94,-178.61 1536.98,-504.3 2082.74,-938.64 2453.35,-1952.46 1731.69,-5615.28 94.3,-7875.75 -1835.64,-2534.17 -5835.35,-4574.06 -8639.14,-2410.93 -572.19,441.44 -1043.13,1043.3 -1353.36,1817.19 2799.39,-2036.8 5901.69,-1383.15 8041.96,1131.48 1696.53,1993.27 2790.57,5407.24 616.39,7475.02 z m -4681.74,3893.47 5235.31,-4979.08 c 2011.26,-1912.78 921.72,-5098.66 -635.72,-6928.52 -2040.87,-2397.83 -4957.33,-2977.08 -7595.26,-990.78 l -4722.49,3963.95 c 1906,436.72 3575.07,1668.34 4880.59,3085.37 709.31,769.9 1432.08,1836.06 1976.77,3007.98 423.32,910.79 739.93,1887.19 860.8,2841.07 z m -1974.53,4201.05 c 499.85,-452.62 901.36,-1004.59 1179.51,-1603.93 328.1,-706.98 483.89,-1477.91 426.06,-2227.08 -77.84,-1008.41 -403.99,-2061.61 -858.58,-3039.71 -526.61,-1133.03 -1224.13,-2162.44 -1907.97,-2904.69 -1281.38,-1390.83 -2940.03,-2614.05 -4825.46,-2997.61 -1180.64,-240.18 -2369.73,-130.85 -3507.42,379.8 -679.63,305.05 -1063.76,578.34 -1409.96,862.93 729.41,117.23 1470.01,333.73 2200.21,628.65 2326.24,939.54 4552.8,2679.42 5961.44,4527.69 47.05,61.74 57.37,74.94 62.77,82.17 1381.82,1848.15 2190.72,3728.8 2538.59,5421.06 60.91,296.28 107.61,586.9 140.8,870.73 z"
       id="path6"
       inkscape:connector-curvature="0"
       style="fill:#000000;fill-rule:nonzero" /></g><text
     x="1404.5142"
     y="44445.23"
     font-size="5px"
     font-weight="bold"
     id="text10"
     transform="scale(0.99678676,1.0032236)"
     style="font-weight:bold;font-size:4.65648031px;font-family:'Helvetica Neue', Helvetica, Arial-Unicode, Arial, Sans-serif;fill:#000000;stroke-width:0.93129611">Created by Oleksandr Panasovskyi</text>
<text
     x="1404.5142"
     y="44449.883"
     font-size="5px"
     font-weight="bold"
     id="text12"
     transform="scale(0.99678676,1.0032236)"
     style="font-weight:bold;font-size:4.65648031px;font-family:'Helvetica Neue', Helvetica, Arial-Unicode, Arial, Sans-serif;fill:#000000;stroke-width:0.93129611">from the Noun Project</text>
</svg>