<?xml version="1.0" encoding="UTF-8" standalone="no"?>
<svg
   xmlns:dc="http://purl.org/dc/elements/1.1/"
   xmlns:cc="http://creativecommons.org/ns#"
   xmlns:rdf="http://www.w3.org/1999/02/22-rdf-syntax-ns#"
   xmlns:svg="http://www.w3.org/2000/svg"
   xmlns="http://www.w3.org/2000/svg"
   xmlns:sodipodi="http://sodipodi.sourceforge.net/DTD/sodipodi-0.dtd"
   xmlns:inkscape="http://www.inkscape.org/namespaces/inkscape"
   viewBox="0 0 64 80"
   x="0px"
   y="0px"
   version="1.1"
   id="svg16"
   sodipodi:docname="étrier-frein-disque.svg"
   inkscape:version="0.92.5 (2060ec1f9f, 2020-04-08)">
  <metadata
     id="metadata22">
    <rdf:RDF>
      <cc:Work
         rdf:about="">
        <dc:format>image/svg+xml</dc:format>
        <dc:type
           rdf:resource="http://purl.org/dc/dcmitype/StillImage" />
      </cc:Work>
    </rdf:RDF>
  </metadata>
  <defs
     id="defs20" />
  <sodipodi:namedview
     pagecolor="#ffffff"
     bordercolor="#666666"
     borderopacity="1"
     objecttolerance="10"
     gridtolerance="10"
     guidetolerance="10"
     inkscape:pageopacity="0"
     inkscape:pageshadow="2"
     inkscape:window-width="640"
     inkscape:window-height="480"
     id="namedview18"
     showgrid="false"
     inkscape:zoom="2.95"
     inkscape:cx="26.067797"
     inkscape:cy="37.069492"
     inkscape:window-x="0"
     inkscape:window-y="27"
     inkscape:window-maximized="0"
     inkscape:current-layer="svg16" />
  <title
     id="title2">a</title>
  <g
     data-name="04 Brake Disk"
     id="g10"
     transform="matrix(1.0526008,0,0,1.0526008,-1.5137342,8.3167741)">
    <path
       d="m 60.679,29.062 a 1.035,1.035 0 0 0 -0.757,-0.263 1.214,1.214 0 0 1 -0.378,-2.383 1,1 0 0 0 0.718,-1.282 L 58.9,20.943 a 1,1 0 0 0 -1.334,-0.615 1.2,1.2 0 0 1 -1.526,-0.621 1.178,1.178 0 0 1 0.431,-1.53 1,1 0 0 0 0.287,-1.44 L 54.167,13.171 A 1,1 0 0 0 52.708,13 1.2,1.2 0 0 1 51.063,12.881 1.178,1.178 0 0 1 51,11.292 1,1 0 0 0 50.828,9.833 L 47.262,7.243 A 1.013,1.013 0 0 0 46.478,7.071 1,1 0 0 0 45.821,7.53 1.2,1.2 0 0 1 44.221,7.924 1.175,1.175 0 0 1 43.671,6.434 1,1 0 0 0 43.057,5.1 L 38.865,3.738 a 1,1 0 0 0 -1.281,0.718 1.191,1.191 0 0 1 -1.4,0.87 A 1.175,1.175 0 0 1 35.2,4.079 1,1 0 0 0 34.2,3 h -4.4 a 1,1 0 0 0 -1,1.079 1.175,1.175 0 0 1 -0.983,1.247 L 27.974,6.314 27.738,5.338 A 1.181,1.181 0 0 1 26.417,4.456 1,1 0 0 0 25.136,3.738 L 20.943,5.1 A 1,1 0 0 0 20.328,6.434 1.2,1.2 0 0 1 19.706,7.961 1.177,1.177 0 0 1 18.178,7.53 1,1 0 0 0 17.521,7.071 1.021,1.021 0 0 0 16.737,7.243 l -3.566,2.59 A 1,1 0 0 0 13,11.292 1.2,1.2 0 0 1 12.881,12.937 1.176,1.176 0 0 1 11.292,13 1,1 0 0 0 9.834,13.172 l -2.591,3.565 a 1,1 0 0 0 0.287,1.44 1.2,1.2 0 0 1 0.394,1.6 1.179,1.179 0 0 1 -1.489,0.55 1,1 0 0 0 -1.334,0.615 l -1.363,4.192 a 1,1 0 0 0 0.718,1.282 1.2,1.2 0 0 1 0.87,1.4 A 1.17,1.17 0 0 1 4.078,28.799 1.029,1.029 0 0 0 3.321,29.062 1,1 0 0 0 3,29.8 v 4.4 a 1,1 0 0 0 0.321,0.734 1.021,1.021 0 0 0 0.757,0.263 1.2,1.2 0 0 1 1.261,1.063 1.175,1.175 0 0 1 -0.883,1.32 1,1 0 0 0 -0.718,1.282 L 5.1,43.057 a 1,1 0 0 0 1.334,0.615 1.2,1.2 0 0 1 1.526,0.621 1.178,1.178 0 0 1 -0.431,1.53 1,1 0 0 0 -0.287,1.44 l 2.591,3.566 a 1,1 0 0 0 0.69,0.405 0.987,0.987 0 0 0 0.769,-0.234 1.2,1.2 0 0 1 1.645,0.119 1.178,1.178 0 0 1 0.063,1.589 1,1 0 0 0 0.172,1.459 l 3.566,2.59 a 1,1 0 0 0 1.441,-0.287 1.2,1.2 0 0 1 1.6,-0.394 1.175,1.175 0 0 1 0.55,1.49 1,1 0 0 0 0.615,1.334 l 4.192,1.362 a 1,1 0 0 0 1.281,-0.718 1.19,1.19 0 0 1 1.4,-0.87 1.175,1.175 0 0 1 0.983,1.247 1,1 0 0 0 1,1.079 h 4.4 a 1,1 0 0 0 1,-1.079 1.2,1.2 0 0 1 1.062,-1.259 1.179,1.179 0 0 1 1.321,0.882 1,1 0 0 0 1.281,0.718 L 43.057,58.9 a 1,1 0 0 0 0.615,-1.334 1.2,1.2 0 0 1 0.622,-1.527 1.175,1.175 0 0 1 1.528,0.431 1,1 0 0 0 1.441,0.287 l 3.566,-2.59 A 1,1 0 0 0 51,52.708 1.2,1.2 0 0 1 51.119,51.063 1.178,1.178 0 0 1 52.708,51 1,1 0 0 0 54.166,50.828 l 2.591,-3.566 a 1,1 0 0 0 -0.287,-1.44 1.2,1.2 0 0 1 -0.394,-1.6 1.176,1.176 0 0 1 1.489,-0.55 1,1 0 0 0 1.334,-0.615 l 1.363,-4.191 a 1,1 0 0 0 -0.718,-1.282 1.2,1.2 0 0 1 -0.87,-1.4 1.165,1.165 0 0 1 1.248,-0.983 1.027,1.027 0 0 0 0.757,-0.263 A 1,1 0 0 0 61,34.2 V 29.8 A 1,1 0 0 0 60.679,29.062 Z M 59,33.311 a 3.237,3.237 0 0 0 -2.313,2.639 3.183,3.183 0 0 0 1.4,3.148 l -0.81,2.492 a 3.228,3.228 0 0 0 -3.015,1.795 3.189,3.189 0 0 0 0.355,3.426 l -1.54,2.12 a 3.238,3.238 0 0 0 -3.424,0.775 3.19,3.19 0 0 0 -0.719,3.368 l -2.12,1.54 a 3.24,3.24 0 0 0 -3.5,-0.321 3.193,3.193 0 0 0 -1.724,2.981 l -2.492,0.809 A 3.244,3.244 0 0 0 35.871,56.7 3.189,3.189 0 0 0 33.31,59 h -2.621 a 3.242,3.242 0 0 0 -2.639,-2.314 3.194,3.194 0 0 0 -3.148,1.4 l -2.492,-0.81 a 3.239,3.239 0 0 0 -1.8,-3.016 3.189,3.189 0 0 0 -3.425,0.356 l -2.12,-1.54 A 3.241,3.241 0 0 0 14.29,49.652 3.189,3.189 0 0 0 10.923,48.933 l -1.54,-2.12 a 3.241,3.241 0 0 0 0.32,-3.5 3.147,3.147 0 0 0 -2.98,-1.725 L 5.917,39.1 A 3.236,3.236 0 0 0 7.3,35.872 3.186,3.186 0 0 0 5,33.31 v -2.621 a 3.237,3.237 0 0 0 2.313,-2.639 3.183,3.183 0 0 0 -1.4,-3.148 l 0.81,-2.492 a 3.246,3.246 0 0 0 3.015,-1.8 3.189,3.189 0 0 0 -0.355,-3.426 l 1.54,-2.12 a 3.238,3.238 0 0 0 3.424,-0.775 3.19,3.19 0 0 0 0.719,-3.368 l 2.12,-1.54 a 3.242,3.242 0 0 0 3.5,0.321 3.193,3.193 0 0 0 1.724,-2.981 L 24.9,5.917 a 3.188,3.188 0 0 0 3.144,1.4 l 0.079,-0.012 v 0 A 3.189,3.189 0 0 0 30.69,5 h 2.621 a 3.242,3.242 0 0 0 2.639,2.314 3.194,3.194 0 0 0 3.148,-1.4 l 2.492,0.81 a 3.239,3.239 0 0 0 1.8,3.016 3.191,3.191 0 0 0 3.425,-0.356 l 2.12,1.54 a 3.241,3.241 0 0 0 0.775,3.424 3.189,3.189 0 0 0 3.367,0.719 l 1.54,2.12 a 3.241,3.241 0 0 0 -0.32,3.5 3.152,3.152 0 0 0 2.98,1.725 l 0.81,2.492 A 3.236,3.236 0 0 0 56.7,28.128 3.186,3.186 0 0 0 59,30.69 Z"
       id="path4"
       inkscape:connector-curvature="0" />
    <path
       d="m 38.292,28.367 a 2.606,2.606 0 0 0 -2.97,-1.225 0.634,0.634 0 0 1 -0.776,-0.449 2.634,2.634 0 0 0 -5.092,0 0.624,0.624 0 0 1 -0.3,0.387 0.611,0.611 0 0 1 -0.482,0.063 2.634,2.634 0 0 0 -2.544,4.409 0.635,0.635 0 0 1 0,0.9 2.633,2.633 0 0 0 2.546,4.409 0.612,0.612 0 0 1 0.48,0.063 0.625,0.625 0 0 1 0.3,0.386 2.634,2.634 0 0 0 5.092,0 0.634,0.634 0 0 1 0.778,-0.45 2.633,2.633 0 0 0 2.544,-4.409 0.635,0.635 0 0 1 0,-0.9 2.6,2.6 0 0 0 0.424,-3.184 z m -1.834,5.5 a 0.633,0.633 0 0 1 -0.612,1.061 2.637,2.637 0 0 0 -3.234,1.867 0.633,0.633 0 0 1 -1.224,0 2.631,2.631 0 0 0 -3.233,-1.867 0.633,0.633 0 0 1 -0.613,-1.06 2.633,2.633 0 0 0 0,-3.733 0.633,0.633 0 0 1 0.612,-1.061 2.637,2.637 0 0 0 3.234,-1.867 0.633,0.633 0 0 1 1.224,0 v 0 a 2.634,2.634 0 0 0 3.233,1.867 0.633,0.633 0 0 1 0.613,1.06 2.633,2.633 0 0 0 0,3.733 z"
       id="path6"
       inkscape:connector-curvature="0" />
    <path
       d="m 48.28,17.188 v 0 0 A 22.39,22.39 0 0 0 43.6,13.31 v 0 A 21.986,21.986 0 0 0 27.326,10.51 H 27.32 a 22.158,22.158 0 0 0 -5.7,2.093 v 0 A 21.945,21.945 0 0 0 11.04,25.3 v 0.005 a 21.589,21.589 0 0 0 -1.017,6.008 v 0.009 C 10,31.549 10,31.775 10,32 a 21.973,21.973 0 0 0 5.72,14.812 v 0 0 a 22.39,22.39 0 0 0 4.68,3.878 v 0 A 21.827,21.827 0 0 0 32,54 21.607,21.607 0 0 0 36.68,53.5 h 0.007 a 22.158,22.158 0 0 0 5.7,-2.093 v 0 A 21.945,21.945 0 0 0 52.96,38.7 v 0 a 21.589,21.589 0 0 0 1.017,-6.008 V 32.683 C 54,32.451 54,32.225 54,32 A 21.973,21.973 0 0 0 48.28,17.188 Z m 3.025,20.058 -2.143,-0.39 a 16.03,16.03 0 0 0 -8.469,0.792 18.135,18.135 0 0 0 -3.639,1.806 1.017,1.017 0 0 0 -0.112,0.064 c -0.025,0.016 -0.05,0.032 -0.071,0.047 l -0.062,0.044 a 3.118,3.118 0 0 0 -1.3,1.98 3.328,3.328 0 0 0 0.5,2.511 l 0.022,0.034 c 0.012,0.019 0.025,0.037 0.037,0.055 l 4.343,5.962 a 20.12,20.12 0 0 1 -3.3,1.187 l -0.6,-1.673 A 16.673,16.673 0 0 0 28.125,40.126 C 28.061,40.099 28.006,40.07 27.908,40.018 A 3.232,3.232 0 0 0 27.239,39.774 C 27.165,39.755 27.088,39.75 27.012,39.737 a 3.143,3.143 0 0 0 -0.474,-0.055 c -0.03,0 -0.06,-0.011 -0.09,-0.011 -0.1,0 -0.2,0.017 -0.3,0.026 -0.066,0.006 -0.132,0.007 -0.2,0.017 a 3.241,3.241 0 0 0 -0.594,0.146 3.154,3.154 0 0 0 -1.843,1.713 L 20.5,48.356 A 20.565,20.565 0 0 1 17.808,46.1 l 1.438,-1.693 A 1.59,1.59 0 0 0 19.363,44.258 16,16 0 0 0 23.1,34.411 13.4,13.4 0 0 0 23.039,32.95 c 0,-0.057 0,-0.114 -0.01,-0.18 0,-0.04 -0.008,-0.159 -0.012,-0.2 l -0.009,-0.119 a 3.2,3.2 0 0 0 -3.543,-3.008 l -7.384,0.777 a 19.771,19.771 0 0 1 0.613,-3.468 l 2.143,0.39 a 16.852,16.852 0 0 0 12.108,-2.6 1.017,1.017 0 0 0 0.112,-0.064 c 0.025,-0.016 0.05,-0.032 0.071,-0.047 l 0.062,-0.044 a 3.118,3.118 0 0 0 1.3,-1.98 3.328,3.328 0 0 0 -0.5,-2.511 l -0.022,-0.034 c -0.012,-0.019 -0.025,-0.037 -0.037,-0.055 l -4.343,-5.962 a 20.12,20.12 0 0 1 3.305,-1.187 l 0.6,1.673 a 16.673,16.673 0 0 0 8.386,9.539 c 0.064,0.027 0.119,0.056 0.217,0.108 a 3.176,3.176 0 0 0 0.669,0.244 c 0.074,0.019 0.15,0.024 0.225,0.037 a 3.184,3.184 0 0 0 0.476,0.055 c 0.03,0 0.06,0.011 0.09,0.011 0.1,0 0.2,-0.017 0.3,-0.026 0.066,-0.006 0.132,-0.007 0.2,-0.017 a 3.241,3.241 0 0 0 0.594,-0.146 3.154,3.154 0 0 0 1.843,-1.713 L 43.5,15.65 43.576,15.7 c 0.433,0.307 0.857,0.632 1.268,0.975 0.078,0.065 0.152,0.137 0.23,0.2 0.328,0.283 0.65,0.576 0.962,0.88 0.05,0.049 0.1,0.1 0.148,0.151 l -1.431,1.684 a 1.59,1.59 0 0 0 -0.117,0.149 16,16 0 0 0 -3.736,9.85 13.4,13.4 0 0 0 0.061,1.461 c 0,0.057 0,0.114 0.01,0.18 0,0.04 0.008,0.159 0.012,0.2 l 0.009,0.119 a 3.151,3.151 0 0 0 1.622,2.61 c 0.054,0.03 0.112,0.051 0.167,0.079 a 3.416,3.416 0 0 0 0.4,0.168 c 0.066,0.022 0.133,0.036 0.2,0.054 a 3.059,3.059 0 0 0 0.4,0.08 c 0.073,0.01 0.145,0.015 0.219,0.02 0.074,0.005 0.123,0.016 0.186,0.016 a 3.381,3.381 0 0 0 0.348,-0.019 l 7.384,-0.777 a 19.771,19.771 0 0 1 -0.613,3.466 z m -6.987,-4.68 A 1.221,1.221 0 0 1 43.4,32.284 1.153,1.153 0 0 1 42.989,31.453 c 0,-0.02 -0.008,-0.118 -0.01,-0.138 0,-0.05 -0.006,-0.1 -0.01,-0.151 -0.004,-0.051 0,-0.07 -0.007,-0.105 0,-0.005 -0.006,-0.1 -0.007,-0.1 a 13.775,13.775 0 0 1 3.255,-9.976 1.179,1.179 0 0 0 0.1,-0.131 L 47.544,19.4 A 19.986,19.986 0 0 1 52,31.758 Z M 32,12 a 19.858,19.858 0 0 1 9.8,2.564 l -3.141,7.053 a 1.183,1.183 0 0 1 -0.69,0.64 1.211,1.211 0 0 1 -0.941,-0.042 c -0.116,-0.065 -0.22,-0.116 -0.316,-0.159 a 14.651,14.651 0 0 1 -7.337,-8.392 l -0.507,-1.42 A 20.017,20.017 0 0 1 32,12 Z m -10.2,2.79 4.5,6.186 0.011,0.018 0.018,0.026 a 1.324,1.324 0 0 1 0.2,1 1.137,1.137 0 0 1 -0.489,0.737 0.421,0.421 0 0 0 -0.041,0.028 0.985,0.985 0 0 0 -0.089,0.052 14.732,14.732 0 0 1 -10.71,2.339 L 13.324,24.835 A 20.283,20.283 0 0 1 21.8,14.79 Z m -2.118,16.644 a 1.21,1.21 0 0 1 0.918,0.282 1.153,1.153 0 0 1 0.411,0.831 c 0,0.02 0.008,0.118 0.01,0.138 0,0.05 0.006,0.1 0.01,0.151 0.004,0.051 0,0.07 0.007,0.105 0,0 0.006,0.1 0.007,0.1 a 13.775,13.775 0 0 1 -3.255,9.976 1.179,1.179 0 0 0 -0.1,0.131 L 16.456,44.6 A 19.986,19.986 0 0 1 12,32.242 Z M 32,52 a 19.858,19.858 0 0 1 -9.8,-2.564 l 3.141,-7.053 a 1.183,1.183 0 0 1 0.69,-0.64 1.207,1.207 0 0 1 0.941,0.042 c 0.116,0.065 0.22,0.116 0.316,0.159 a 14.651,14.651 0 0 1 7.337,8.392 l 0.507,1.42 A 20.017,20.017 0 0 1 32,52 Z M 42.2,49.21 37.7,43.024 37.689,43.006 37.671,42.98 a 1.324,1.324 0 0 1 -0.2,-1 A 1.137,1.137 0 0 1 37.96,41.243 0.421,0.421 0 0 0 38,41.219 0.985,0.985 0 0 0 38.089,41.167 14.7,14.7 0 0 1 48.8,38.824 l 1.876,0.341 A 20.283,20.283 0 0 1 42.2,49.21 Z"
       id="path8"
       inkscape:connector-curvature="0" />
  </g>
</svg>
