<svg xmlns="http://www.w3.org/2000/svg" viewBox="0 0 64 80" x="0px" y="0px"><title>a</title><g data-name="04 Brake Disk"><path d="M60.679,29.062a1.035,1.035,0,0,0-.757-.263,1.214,1.214,0,0,1-.378-2.383,1,1,0,0,0,.718-1.282L58.9,20.943a1,1,0,0,0-1.334-.615,1.2,1.2,0,0,1-1.526-.621,1.178,1.178,0,0,1,.431-1.53,1,1,0,0,0,.287-1.44l-2.591-3.566A1,1,0,0,0,52.708,13a1.2,1.2,0,0,1-1.645-.119A1.178,1.178,0,0,1,51,11.292a1,1,0,0,0-.172-1.459l-3.566-2.59a1.013,1.013,0,0,0-.784-.172,1,1,0,0,0-.657.459,1.2,1.2,0,0,1-1.6.394,1.175,1.175,0,0,1-.55-1.49A1,1,0,0,0,43.057,5.1L38.865,3.738a1,1,0,0,0-1.281.718,1.191,1.191,0,0,1-1.4.87A1.175,1.175,0,0,1,35.2,4.079,1,1,0,0,0,34.2,3H29.8a1,1,0,0,0-1,1.079,1.175,1.175,0,0,1-.983,1.247l.157.988-.236-.976a1.181,1.181,0,0,1-1.321-.882,1,1,0,0,0-1.281-.718L20.943,5.1a1,1,0,0,0-.615,1.334,1.2,1.2,0,0,1-.622,1.527,1.177,1.177,0,0,1-1.528-.431,1,1,0,0,0-.657-.459,1.021,1.021,0,0,0-.784.172l-3.566,2.59A1,1,0,0,0,13,11.292a1.2,1.2,0,0,1-.119,1.645A1.176,1.176,0,0,1,11.292,13a1,1,0,0,0-1.458.172L7.243,16.737a1,1,0,0,0,.287,1.44,1.2,1.2,0,0,1,.394,1.6,1.179,1.179,0,0,1-1.489.55,1,1,0,0,0-1.334.615L3.738,25.134a1,1,0,0,0,.718,1.282,1.2,1.2,0,0,1,.87,1.4,1.17,1.17,0,0,1-1.248.983,1.029,1.029,0,0,0-.757.263A1,1,0,0,0,3,29.8V34.2a1,1,0,0,0,.321.734,1.021,1.021,0,0,0,.757.263,1.2,1.2,0,0,1,1.261,1.063,1.175,1.175,0,0,1-.883,1.32,1,1,0,0,0-.718,1.282L5.1,43.057a1,1,0,0,0,1.334.615,1.2,1.2,0,0,1,1.526.621,1.178,1.178,0,0,1-.431,1.53,1,1,0,0,0-.287,1.44l2.591,3.566a1,1,0,0,0,.69.405A.987.987,0,0,0,11.292,51a1.2,1.2,0,0,1,1.645.119A1.178,1.178,0,0,1,13,52.708a1,1,0,0,0,.172,1.459l3.566,2.59a1,1,0,0,0,1.441-.287,1.2,1.2,0,0,1,1.6-.394,1.175,1.175,0,0,1,.55,1.49,1,1,0,0,0,.615,1.334l4.192,1.362a1,1,0,0,0,1.281-.718,1.19,1.19,0,0,1,1.4-.87,1.175,1.175,0,0,1,.983,1.247A1,1,0,0,0,29.8,61H34.2a1,1,0,0,0,1-1.079,1.2,1.2,0,0,1,1.062-1.259,1.179,1.179,0,0,1,1.321.882,1,1,0,0,0,1.281.718L43.057,58.9a1,1,0,0,0,.615-1.334,1.2,1.2,0,0,1,.622-1.527,1.175,1.175,0,0,1,1.528.431,1,1,0,0,0,1.441.287l3.566-2.59A1,1,0,0,0,51,52.708a1.2,1.2,0,0,1,.119-1.645A1.178,1.178,0,0,1,52.708,51a1,1,0,0,0,1.458-.172l2.591-3.566a1,1,0,0,0-.287-1.44,1.2,1.2,0,0,1-.394-1.6,1.176,1.176,0,0,1,1.489-.55,1,1,0,0,0,1.334-.615l1.363-4.191a1,1,0,0,0-.718-1.282,1.2,1.2,0,0,1-.87-1.4,1.165,1.165,0,0,1,1.248-.983,1.027,1.027,0,0,0,.757-.263A1,1,0,0,0,61,34.2V29.8A1,1,0,0,0,60.679,29.062ZM59,33.311a3.237,3.237,0,0,0-2.313,2.639,3.183,3.183,0,0,0,1.4,3.148l-.81,2.492a3.228,3.228,0,0,0-3.015,1.795,3.189,3.189,0,0,0,.355,3.426l-1.54,2.12a3.238,3.238,0,0,0-3.424.775,3.19,3.19,0,0,0-.719,3.368l-2.12,1.54a3.24,3.24,0,0,0-3.5-.321,3.193,3.193,0,0,0-1.724,2.981l-2.492.809A3.244,3.244,0,0,0,35.871,56.7,3.189,3.189,0,0,0,33.31,59H30.689a3.242,3.242,0,0,0-2.639-2.314,3.194,3.194,0,0,0-3.148,1.4l-2.492-.81a3.239,3.239,0,0,0-1.8-3.016,3.189,3.189,0,0,0-3.425.356l-2.12-1.54a3.241,3.241,0,0,0-.775-3.424,3.189,3.189,0,0,0-3.367-.719l-1.54-2.12a3.241,3.241,0,0,0,.32-3.5,3.147,3.147,0,0,0-2.98-1.725L5.917,39.1A3.236,3.236,0,0,0,7.3,35.872,3.186,3.186,0,0,0,5,33.31V30.689A3.237,3.237,0,0,0,7.313,28.05a3.183,3.183,0,0,0-1.4-3.148l.81-2.492a3.246,3.246,0,0,0,3.015-1.8,3.189,3.189,0,0,0-.355-3.426l1.54-2.12a3.238,3.238,0,0,0,3.424-.775,3.19,3.19,0,0,0,.719-3.368l2.12-1.54a3.242,3.242,0,0,0,3.5.321,3.193,3.193,0,0,0,1.724-2.981L24.9,5.917a3.188,3.188,0,0,0,3.144,1.4l.079-.012h0A3.189,3.189,0,0,0,30.69,5h2.621A3.242,3.242,0,0,0,35.95,7.314a3.194,3.194,0,0,0,3.148-1.4l2.492.81a3.239,3.239,0,0,0,1.8,3.016,3.191,3.191,0,0,0,3.425-.356l2.12,1.54a3.241,3.241,0,0,0,.775,3.424,3.189,3.189,0,0,0,3.367.719l1.54,2.12a3.241,3.241,0,0,0-.32,3.5,3.152,3.152,0,0,0,2.98,1.725l.81,2.492A3.236,3.236,0,0,0,56.7,28.128,3.186,3.186,0,0,0,59,30.69Z"/><path d="M38.292,28.367a2.606,2.606,0,0,0-2.97-1.225.634.634,0,0,1-.776-.449,2.634,2.634,0,0,0-5.092,0,.624.624,0,0,1-.3.387.611.611,0,0,1-.482.063,2.634,2.634,0,0,0-2.544,4.409.635.635,0,0,1,0,.9,2.633,2.633,0,0,0,2.546,4.409.612.612,0,0,1,.48.063.625.625,0,0,1,.3.386,2.634,2.634,0,0,0,5.092,0,.634.634,0,0,1,.778-.45,2.633,2.633,0,0,0,2.544-4.409.635.635,0,0,1,0-.9A2.6,2.6,0,0,0,38.292,28.367Zm-1.834,5.5a.633.633,0,0,1-.612,1.061,2.637,2.637,0,0,0-3.234,1.867.633.633,0,0,1-1.224,0,2.631,2.631,0,0,0-3.233-1.867.633.633,0,0,1-.613-1.06,2.633,2.633,0,0,0,0-3.733.633.633,0,0,1,.612-1.061,2.637,2.637,0,0,0,3.234-1.867.633.633,0,0,1,1.224,0h0a2.634,2.634,0,0,0,3.233,1.867.633.633,0,0,1,.613,1.06,2.633,2.633,0,0,0,0,3.733Z"/><path d="M48.28,17.188l0,0,0,0A22.39,22.39,0,0,0,43.6,13.31l0,0a21.986,21.986,0,0,0-16.274-2.8h-.006a22.158,22.158,0,0,0-5.7,2.093h0A21.945,21.945,0,0,0,11.04,25.3l0,.005a21.589,21.589,0,0,0-1.017,6.008v.009C10,31.549,10,31.775,10,32a21.973,21.973,0,0,0,5.72,14.812l0,0,0,0A22.39,22.39,0,0,0,20.4,50.69l0,0A21.827,21.827,0,0,0,32,54a21.607,21.607,0,0,0,4.68-.5h.007a22.158,22.158,0,0,0,5.7-2.093h0A21.945,21.945,0,0,0,52.96,38.7l0,0a21.589,21.589,0,0,0,1.017-6.008v-.009C54,32.451,54,32.225,54,32A21.973,21.973,0,0,0,48.28,17.188Zm3.025,20.058-2.143-.39a16.03,16.03,0,0,0-8.469.792,18.135,18.135,0,0,0-3.639,1.806,1.017,1.017,0,0,0-.112.064c-.025.016-.05.032-.071.047l-.062.044a3.118,3.118,0,0,0-1.3,1.98,3.328,3.328,0,0,0,.5,2.511l.022.034c.012.019.025.037.037.055l4.343,5.962a20.12,20.12,0,0,1-3.3,1.187l-.6-1.673a16.673,16.673,0,0,0-8.386-9.539c-.064-.027-.119-.056-.217-.108a3.232,3.232,0,0,0-.669-.244c-.074-.019-.151-.024-.227-.037a3.143,3.143,0,0,0-.474-.055c-.03,0-.06-.011-.09-.011-.1,0-.2.017-.3.026-.066.006-.132.007-.2.017a3.241,3.241,0,0,0-.594.146,3.154,3.154,0,0,0-1.843,1.713L20.5,48.356A20.565,20.565,0,0,1,17.808,46.1l1.438-1.693a1.59,1.59,0,0,0,.117-.149A16,16,0,0,0,23.1,34.411a13.4,13.4,0,0,0-.061-1.461c0-.057,0-.114-.01-.18,0-.04-.008-.159-.012-.2l-.009-.119a3.2,3.2,0,0,0-3.543-3.008l-7.384.777a19.771,19.771,0,0,1,.613-3.468l2.143.39a16.852,16.852,0,0,0,12.108-2.6,1.017,1.017,0,0,0,.112-.064c.025-.016.05-.032.071-.047l.062-.044a3.118,3.118,0,0,0,1.3-1.98,3.328,3.328,0,0,0-.5-2.511l-.022-.034c-.012-.019-.025-.037-.037-.055l-4.343-5.962a20.12,20.12,0,0,1,3.305-1.187l.6,1.673a16.673,16.673,0,0,0,8.386,9.539c.064.027.119.056.217.108a3.176,3.176,0,0,0,.669.244c.074.019.15.024.225.037a3.184,3.184,0,0,0,.476.055c.03,0,.06.011.09.011.1,0,.2-.017.3-.026.066-.006.132-.007.2-.017a3.241,3.241,0,0,0,.594-.146,3.154,3.154,0,0,0,1.843-1.713L43.5,15.65l.076.05c.433.307.857.632,1.268.975.078.065.152.137.23.2.328.283.65.576.962.88.05.049.1.1.148.151l-1.431,1.684a1.59,1.59,0,0,0-.117.149A16,16,0,0,0,40.9,29.589a13.4,13.4,0,0,0,.061,1.461c0,.057,0,.114.01.18,0,.04.008.159.012.2l.009.119a3.151,3.151,0,0,0,1.622,2.61c.054.03.112.051.167.079a3.416,3.416,0,0,0,.4.168c.066.022.133.036.2.054a3.059,3.059,0,0,0,.4.08c.073.01.145.015.219.02s.123.016.186.016a3.381,3.381,0,0,0,.348-.019l7.384-.777A19.771,19.771,0,0,1,51.305,37.246Zm-6.987-4.68a1.221,1.221,0,0,1-.918-.282,1.153,1.153,0,0,1-.411-.831c0-.02-.008-.118-.01-.138,0-.05-.006-.1-.01-.151s0-.07-.007-.105c0-.005-.006-.1-.007-.1a13.775,13.775,0,0,1,3.255-9.976,1.179,1.179,0,0,0,.1-.131L47.544,19.4A19.986,19.986,0,0,1,52,31.758ZM32,12a19.858,19.858,0,0,1,9.8,2.564l-3.141,7.053a1.183,1.183,0,0,1-.69.64,1.211,1.211,0,0,1-.941-.042c-.116-.065-.22-.116-.316-.159a14.651,14.651,0,0,1-7.337-8.392l-.507-1.42A20.017,20.017,0,0,1,32,12ZM21.8,14.79,26.3,20.976l.011.018.018.026a1.324,1.324,0,0,1,.2,1,1.137,1.137,0,0,1-.489.737.421.421,0,0,0-.041.028.985.985,0,0,0-.089.052A14.732,14.732,0,0,1,15.2,25.176l-1.876-.341A20.283,20.283,0,0,1,21.8,14.79ZM19.682,31.434a1.21,1.21,0,0,1,.918.282,1.153,1.153,0,0,1,.411.831c0,.02.008.118.01.138,0,.05.006.1.01.151s0,.07.007.105c0,0,.006.1.007.1a13.775,13.775,0,0,1-3.255,9.976,1.179,1.179,0,0,0-.1.131L16.456,44.6A19.986,19.986,0,0,1,12,32.242ZM32,52a19.858,19.858,0,0,1-9.8-2.564l3.141-7.053a1.183,1.183,0,0,1,.69-.64,1.207,1.207,0,0,1,.941.042c.116.065.22.116.316.159a14.651,14.651,0,0,1,7.337,8.392l.507,1.42A20.017,20.017,0,0,1,32,52Zm10.2-2.79L37.7,43.024l-.011-.018-.018-.026a1.324,1.324,0,0,1-.2-1,1.137,1.137,0,0,1,.489-.737A.421.421,0,0,0,38,41.219a.985.985,0,0,0,.089-.052A14.7,14.7,0,0,1,48.8,38.824l1.876.341A20.283,20.283,0,0,1,42.2,49.21Z"/></g><text x="0" y="79" fill="#000000" font-size="5px" font-weight="bold" font-family="'Helvetica Neue', Helvetica, Arial-Unicode, Arial, Sans-serif">Created by Berkah Icon</text><text x="0" y="84" fill="#000000" font-size="5px" font-weight="bold" font-family="'Helvetica Neue', Helvetica, Arial-Unicode, Arial, Sans-serif">from the Noun Project</text></svg>