<?xml version="1.0" encoding="UTF-8" standalone="no"?>
<svg
   xmlns:dc="http://purl.org/dc/elements/1.1/"
   xmlns:cc="http://creativecommons.org/ns#"
   xmlns:rdf="http://www.w3.org/1999/02/22-rdf-syntax-ns#"
   xmlns:svg="http://www.w3.org/2000/svg"
   xmlns="http://www.w3.org/2000/svg"
   xmlns:sodipodi="http://sodipodi.sourceforge.net/DTD/sodipodi-0.dtd"
   xmlns:inkscape="http://www.inkscape.org/namespaces/inkscape"
   xml:space="preserve"
   style="clip-rule:evenodd;fill-rule:evenodd;image-rendering:optimizeQuality;shape-rendering:geometricPrecision;text-rendering:geometricPrecision"
   viewBox="0 0 100 100"
   x="0px"
   y="0px"
   version="1.1"
   id="svg161"
   sodipodi:docname="fixie.svg"
   inkscape:version="0.92.5 (2060ec1f9f, 2020-04-08)"
   width="100"
   height="100"><metadata
     id="metadata165"><rdf:RDF><cc:Work
         rdf:about=""><dc:format>image/svg+xml</dc:format><dc:type
           rdf:resource="http://purl.org/dc/dcmitype/StillImage" /><dc:title></dc:title></cc:Work></rdf:RDF></metadata><sodipodi:namedview
     pagecolor="#ffffff"
     bordercolor="#666666"
     borderopacity="1"
     objecttolerance="10"
     gridtolerance="10"
     guidetolerance="10"
     inkscape:pageopacity="0"
     inkscape:pageshadow="2"
     inkscape:window-width="1920"
     inkscape:window-height="1029"
     id="namedview163"
     showgrid="false"
     inkscape:zoom="1.888"
     inkscape:cx="-14.477151"
     inkscape:cy="40.367415"
     inkscape:window-x="0"
     inkscape:window-y="27"
     inkscape:window-maximized="1"
     inkscape:current-layer="svg161" /><defs
     id="defs151"><style
       type="text/css"
       id="style149">
   
    .fil0 {fill:black}
   
  </style></defs><g
     id="g155"
     transform="translate(0.52966101,-1.6949157)"><path
       class="fil0"
       d="m 44.7004,58.8725 c 3.13585,0 5.67997,2.50986 5.67997,5.60556 0,3.09569 -2.54411,5.60556 -5.67997,5.60556 -1.71261,0 -3.79727,-0.8504 -5.44965,-1.31103 -0.282286,-0.07913 -0.565752,-0.15945 -0.8504,-0.240947 -2.92443,6.0969 -9.1548,10.3087 -16.3678,10.3087 -10.0206,0 -18.1466,-8.12605 -18.1466,-18.1466 0,-10.0194 8.12605,-18.1454 18.1466,-18.1454 2.31025,0 4.51893,0.432287 6.55045,1.21891 l -1.07835,2.21577 c -1.70434,-0.634257 -3.54688,-0.981504 -5.47209,-0.981504 -8.66582,0 -15.6922,7.02761 -15.6922,15.6922 0,8.66582 7.02643,15.6922 15.6922,15.6922 6.09808,0 11.3847,-3.48074 13.982,-8.56306 -4.90279,-1.5071 -9.89772,-3.33782 -14.2229,-5.12721 l 0.0012,-0.01063 c -2.56419,-0.200789 -2.55356,-4.11617 0.207876,-4.12562 l 12.3981,-25.46 -0.35079,-1.15867 0.200789,0.0024 -1.91694,-6.36501 c -1.1445,0.131103 -2.3138,0.157088 -3.56341,-0.134647 -1.16694,-0.909456 -2.1697,-1.91222 -2.81105,-3.1205 -0.251577,-0.597643 -0.32953,-1.40198 0.814967,-1.09607 4.31578,1.15513 7.57801,1.54135 13.4068,1.93939 1.99726,0.137009 2.16143,1.94883 1.06891,1.96773 -2.39884,0.04016 -4.74216,-0.178348 -7.1788,0.18071 l 2.01143,6.64493 30.9995,0.282286 -0.114568,-0.405121 2.29254,0.01535 2.83585,9.86228 h -2.21695 l -20.2348,19.0029 c -0.408665,-0.523232 -0.898826,-0.97796 -1.45277,-1.34765 l 21.058,-19.4565 -1.60513,-5.68233 -31.0869,-0.406302 7.35006,24.4892 c -0.673234,-0.0012 -1.34647,-0.0047 -2.02088,-0.0083 l -6.83864,-23.0258 -11.132,23.3163 c 4.565,0.07323 9.13354,0.17008 13.7009,0.227955 -0.590556,-4.97012 -3.50554,-9.22684 -7.62644,-11.6564 l 1.06182,-2.22285 c 4.95004,2.84057 8.43432,7.94888 9.0355,13.9052 1.53899,0.01417 3.0768,0.02244 4.6146,0.02244 z M 69.1116,29.5018 v 1.28269 H 67.16277 V 29.5018 h -0.80788 v -1.57797 h 5.5087 c 0.235041,-0.784258 1.95828,-1.00631 2.34923,0.662604 2.41301,0.462996 5.37524,-0.304727 6.73352,-1.77994 1.19174,-1.2945 2.9953,0.09095 1.91576,1.36655 -2.29372,2.71538 -6.01895,3.27877 -10.408,2.8949 -0.310632,-0.52087 -0.530319,-1.07245 -0.661423,-1.56615 h -2.68112 z m 8.85598,13.0466 c 10.0206,0 18.1466,8.12605 18.1466,18.1454 0,10.0206 -8.12605,18.1466 -18.1466,18.1466 -10.0206,0 -18.1466,-8.12605 -18.1466,-18.1466 0,-6.98864 3.95436,-13.0548 9.74535,-16.0867 0.171261,0.816148 0.394491,1.6323 0.654336,2.439 -4.74453,2.69884 -7.94534,7.80006 -7.94534,13.6477 0,8.66582 7.02761,15.6922 15.6922,15.6922 8.66464,0 15.6922,-7.02643 15.6922,-15.6922 0,-8.66464 -7.02761,-15.6922 -15.6922,-15.6922 -1.55316,0 -3.05199,0.226773 -4.46933,0.647249 -0.209057,-0.798431 -0.387405,-1.60041 -0.524414,-2.40474 1.58623,-0.453547 3.26223,-0.695675 4.99374,-0.695675 z m 0.322443,17.0671 c 0.568115,0.09685 1.0004,0.590556 1.0004,1.1882 0,0.666147 -0.538587,1.20473 -1.20473,1.20473 -0.666147,0 -1.20473,-0.538587 -1.20473,-1.20473 0,-0.2126 0.05433,-0.412208 0.150001,-0.585831 -2.439,-4.93705 -6.85163,-12.0497 -7.24612,-18.0368 l 2.47089,-0.0012 c 0.692131,5.83587 3.90239,12.1017 6.0343,17.4356 z m -0.204332,0.664966 c 0.289372,0 0.523232,0.23386 0.523232,0.523232 0,0.289372 -0.23386,0.523232 -0.523232,0.523232 -0.289372,0 -0.523232,-0.23386 -0.523232,-0.523232 0,-0.289372 0.23386,-0.523232 0.523232,-0.523232 z m -31.3975,3.21144 0.628351,-0.590556 c -0.114568,-0.177167 -0.248033,-0.343703 -0.401578,-0.496067 -0.01535,-0.01654 -0.03189,-0.03189 -0.04843,-0.04843 l -0.418114,0.785439 c 0.09213,0.108662 0.171261,0.225592 0.239767,0.34961 z m -1.6382,-1.363 -0.18071,-0.604729 c -0.46772,-0.01299 -0.933078,0.08268 -1.36064,0.283467 l 0.612997,0.666147 c 0.24449,-0.0815 0.501972,-0.11693 0.760636,-0.105119 z m -8.78393,5.17563 c 0.41457,-0.890558 0.747644,-1.826 0.990953,-2.79687 l 2.42955,0.347247 c -0.0059,-0.1063 -0.01063,-0.2126 -0.01063,-0.320081 0,-2.89845 2.44018,-5.22169 5.32563,-5.10476 -1.60631,-0.06969 -3.23388,-0.114568 -4.87681,-0.142915 0.03543,0.464177 0.05433,0.933078 0.05433,1.4067 0,0.291735 -0.0083,0.579926 -0.02126,0.866936 l -2.44372,-0.304727 c 0.0059,-0.186616 0.01063,-0.373231 0.01063,-0.562209 0,-0.485437 -0.02244,-0.966149 -0.06614,-1.44096 -4.6335,-0.04606 -9.35086,-0.01772 -13.9844,-0.152363 l -0.09685,0.20197 c 0.07323,0.177167 0.179529,0.455909 0.253939,0.780715 l 15.8588,1.98191 c -0.320081,0.654336 -0.518508,1.37954 -0.562209,2.14608 l -15.6143,-2.21695 c -0.165356,0.194883 -0.390948,0.368507 -0.692131,0.507878 4.56736,1.83545 8.85243,3.40514 13.4446,4.8024 z m 3.42286,-2.41301 c -0.25512,1.07835 -0.607091,2.11891 -1.04528,3.11341 0.282286,0.08032 0.564571,0.15945 0.8504,0.238585 1.05355,0.292916 2.36577,0.810243 3.58822,1.10906 -1.87679,-0.663785 -3.25042,-2.39293 -3.39333,-4.46106 z m 2.5453,-0.236222 -0.460634,-0.06614 c -0.01063,-0.594099 0.155907,-1.17993 0.480712,-1.68308 l 0.54213,0.767723 c -0.1063,0.243309 -0.165356,0.504335 -0.175986,0.768904 l -0.386224,0.2126 z m -20.2667,-4.49295 c 0.242128,0 0.439374,0.196065 0.439374,0.438192 0,0.243309 -0.197246,0.439374 -0.439374,0.439374 -0.242128,0 -0.439374,-0.196065 -0.439374,-0.439374 0,-0.242128 0.197246,-0.438192 0.439374,-0.438192 z m -0.01181,-0.77599 c 0.68032,0 1.23308,0.551579 1.23308,1.2319 0,0.68032 -0.55276,1.23308 -1.23308,1.23308 -0.68032,0 -1.2319,-0.55276 -1.2319,-1.23308 0,-0.68032 0.551579,-1.2319 1.2319,-1.2319 z m 22.8309,1.18584 c 0.629533,0 1.22481,0.146458 1.75277,0.408665 l 0.271656,-0.386224 c -1.54253,-0.793707 -3.4016,-0.609454 -4.75634,0.454728 l 0.316538,0.343703 c 0.668509,-0.514965 1.50592,-0.820873 2.41537,-0.820873 z m 2.0823,0.590556 c 1.39726,0.865755 2.13899,2.51695 1.79883,4.17405 l 0.445279,0.14882 c 0.412208,-1.88387 -0.43583,-3.76657 -2.02561,-4.73508 l -0.218506,0.412208 z m 1.71852,4.49177 c -0.44646,1.52009 -1.77167,2.64569 -3.36853,2.81931 l 0.01772,0.46772 c 1.82718,-0.185435 3.32601,-1.48111 3.81263,-3.20081 l -0.461815,-0.08622 z m -3.74058,2.84175 c -1.57797,0.01535 -2.9575,-0.862212 -3.62365,-2.22521 l -0.438192,0.164175 c 0.732289,1.53781 2.32561,2.58427 4.13743,2.5264 l -0.07559,-0.465358 z m -3.77129,-2.56774 C 40.51099,64.42617 40.912568,62.75017 42.058246,61.66118 L 41.78659,61.277319 c -1.33466,1.22954 -1.79765,3.1642 -1.12324,4.87799 l 0.412208,-0.226773 z m 6.23391,-3.91775 c -0.187797,-0.188978 -0.398035,-0.356696 -0.625989,-0.49961 l -0.923629,1.73978 c 0.402759,0.307089 0.644887,0.781896 0.636619,1.32403 l 1.8945,0.635438 c 0.227955,-1.1882 -0.158269,-2.3764 -0.981504,-3.19963 z m -0.99922,-0.703943 c -1.20119,-0.568115 -2.61971,-0.416932 -3.67208,0.376775 l 1.34411,1.4634 c 0.351971,-0.207876 0.755911,-0.275199 1.16221,-0.183072 l 1.16576,-1.6571 z m -4.02287,0.679139 c -0.986228,0.973236 -1.33702,2.426 -0.862212,3.75003 l 1.76694,-0.970874 c -0.05787,-0.405121 0.0378,-0.804337 0.258663,-1.1315 l -1.16339,-1.64765 z m -0.693313,4.1457 c 0.59528,1.18584 1.81064,1.97128 3.18782,1.97246 L 44.4559,66.111606 c -0.416932,-0.0874 -0.774809,-0.335436 -1.00513,-0.677958 l -1.85671,0.698037 z m 3.61066,1.94765 c 1.41143,-0.165356 2.58309,-1.15631 2.99412,-2.49687 l -1.95474,-0.362601 c -0.210238,0.445279 -0.618903,0.779534 -1.11261,0.888196 l 0.07323,1.97128 z"
       id="path153"
       inkscape:connector-curvature="0"
       style="fill:#000000" /></g></svg>