<?xml version="1.0" encoding="UTF-8" standalone="no"?>
<svg
   xmlns:dc="http://purl.org/dc/elements/1.1/"
   xmlns:cc="http://creativecommons.org/ns#"
   xmlns:rdf="http://www.w3.org/1999/02/22-rdf-syntax-ns#"
   xmlns:svg="http://www.w3.org/2000/svg"
   xmlns="http://www.w3.org/2000/svg"
   xmlns:sodipodi="http://sodipodi.sourceforge.net/DTD/sodipodi-0.dtd"
   xmlns:inkscape="http://www.inkscape.org/namespaces/inkscape"
   xml:space="preserve"
   style="shape-rendering:geometricPrecision;text-rendering:geometricPrecision;image-rendering:optimizeQuality;"
   viewBox="0 0 100 125"
   x="0px"
   y="0px"
   fill-rule="evenodd"
   clip-rule="evenodd"
   version="1.1"
   id="svg161"
   sodipodi:docname="fixie.svg"
   inkscape:version="0.92.5 (2060ec1f9f, 2020-04-08)"><metadata
     id="metadata165"><rdf:RDF><cc:Work
         rdf:about=""><dc:format>image/svg+xml</dc:format><dc:type
           rdf:resource="http://purl.org/dc/dcmitype/StillImage" /></cc:Work></rdf:RDF></metadata><sodipodi:namedview
     pagecolor="#ffffff"
     bordercolor="#666666"
     borderopacity="1"
     objecttolerance="10"
     gridtolerance="10"
     guidetolerance="10"
     inkscape:pageopacity="0"
     inkscape:pageshadow="2"
     inkscape:window-width="1920"
     inkscape:window-height="1029"
     id="namedview163"
     showgrid="false"
     inkscape:zoom="10.680141"
     inkscape:cx="43.705228"
     inkscape:cy="70.348561"
     inkscape:window-x="0"
     inkscape:window-y="27"
     inkscape:window-maximized="1"
     inkscape:current-layer="svg161" /><defs
     id="defs151"><style
       type="text/css"
       id="style149">
   
    .fil0 {fill:black}
   
  </style></defs><g
     id="g155"><path
       class="fil0"
       d="M44.7004 58.8725c3.13585,0 5.67997,2.50986 5.67997,5.60556 0,3.09569 -2.54411,5.60556 -5.67997,5.60556 -1.71261,0 -3.79727,-0.8504 -5.44965,-1.31103 -0.282286,-0.0791345 -0.565752,-0.15945 -0.8504,-0.240947 -2.92443,6.0969 -9.1548,10.3087 -16.3678,10.3087 -10.0206,0 -18.1466,-8.12605 -18.1466,-18.1466 0,-10.0194 8.12605,-18.1454 18.1466,-18.1454 2.31025,0 4.51893,0.432287 6.55045,1.21891l-1.07835 2.21577c-1.70434,-0.634257 -3.54688,-0.981504 -5.47209,-0.981504 -8.66582,0 -15.6922,7.02761 -15.6922,15.6922 0,8.66582 7.02643,15.6922 15.6922,15.6922 6.09808,0 11.3847,-3.48074 13.982,-8.56306 -4.90279,-1.5071 -9.89772,-3.33782 -14.2229,-5.12721l0.00118111 -0.01063c-2.56419,-0.200789 -2.55356,-4.11617 0.207876,-4.12562l12.3981 -25.46 -0.35079 -1.15867 0.200789 0.00236222 -1.91694 -6.36501c-1.1445,0.131103 -2.3138,0.157088 -3.56341,-0.134647 -1.16694,-0.909456 -2.1697,-1.91222 -2.81105,-3.1205 -0.251577,-0.597643 -0.32953,-1.40198 0.814967,-1.09607 4.31578,1.15513 7.57801,1.54135 13.4068,1.93939 1.99726,0.137009 2.16143,1.94883 1.06891,1.96773 -2.39884,0.0401578 -4.74216,-0.178348 -7.1788,0.18071l2.01143 6.64493 30.9995 0.282286 -0.114568 -0.405121 2.29254 0.0153545 2.83585 9.86228 -2.21695 0 -20.2348 19.0029c-0.408665,-0.523232 -0.898826,-0.97796 -1.45277,-1.34765l21.058 -19.4565 -1.60513 -5.68233 -31.0869 -0.406302 7.35006 24.4892c-0.673234,-0.00118111 -1.34647,-0.00472445 -2.02088,-0.00826778l-6.83864 -23.0258 -11.132 23.3163c4.565,0.0732289 9.13354,0.17008 13.7009,0.227955 -0.590556,-4.97012 -3.50554,-9.22684 -7.62644,-11.6564l1.06182 -2.22285c4.95004,2.84057 8.43432,7.94888 9.0355,13.9052 1.53899,0.0141733 3.0768,0.0224411 4.6146,0.0224411zm24.4112 -29.3707l0 1.28269 -1.94883 0 0 -1.28269 -0.80788 0 0 -1.57797 5.5087 0c0.235041,-0.784258 1.95828,-1.00631 2.34923,0.662604 2.41301,0.462996 5.37524,-0.304727 6.73352,-1.77994 1.19174,-1.2945 2.9953,0.0909456 1.91576,1.36655 -2.29372,2.71538 -6.01895,3.27877 -10.408,2.8949 -0.310632,-0.52087 -0.530319,-1.07245 -0.661423,-1.56615l-2.68112 0zm8.85598 13.0466c10.0206,0 18.1466,8.12605 18.1466,18.1454 0,10.0206 -8.12605,18.1466 -18.1466,18.1466 -10.0206,0 -18.1466,-8.12605 -18.1466,-18.1466 0,-6.98864 3.95436,-13.0548 9.74535,-16.0867 0.171261,0.816148 0.394491,1.6323 0.654336,2.439 -4.74453,2.69884 -7.94534,7.80006 -7.94534,13.6477 0,8.66582 7.02761,15.6922 15.6922,15.6922 8.66464,0 15.6922,-7.02643 15.6922,-15.6922 0,-8.66464 -7.02761,-15.6922 -15.6922,-15.6922 -1.55316,0 -3.05199,0.226773 -4.46933,0.647249 -0.209057,-0.798431 -0.387405,-1.60041 -0.524414,-2.40474 1.58623,-0.453547 3.26223,-0.695675 4.99374,-0.695675zm0.322443 17.0671c0.568115,0.0968512 1.0004,0.590556 1.0004,1.1882 0,0.666147 -0.538587,1.20473 -1.20473,1.20473 -0.666147,0 -1.20473,-0.538587 -1.20473,-1.20473 0,-0.2126 0.0543311,-0.412208 0.150001,-0.585831 -2.439,-4.93705 -6.85163,-12.0497 -7.24612,-18.0368l2.47089 -0.00118111c0.692131,5.83587 3.90239,12.1017 6.0343,17.4356zm-0.204332 0.664966c0.289372,0 0.523232,0.23386 0.523232,0.523232 0,0.289372 -0.23386,0.523232 -0.523232,0.523232 -0.289372,0 -0.523232,-0.23386 -0.523232,-0.523232 0,-0.289372 0.23386,-0.523232 0.523232,-0.523232zm-31.3975 3.21144l0.628351 -0.590556c-0.114568,-0.177167 -0.248033,-0.343703 -0.401578,-0.496067 -0.0153545,-0.0165356 -0.03189,-0.03189 -0.0484256,-0.0484256l-0.418114 0.785439c0.0921267,0.108662 0.171261,0.225592 0.239766,0.349609zm-1.6382 -1.363l-0.18071 -0.604729c-0.46772,-0.0129922 -0.933078,0.0826778 -1.36064,0.283467l0.612997 0.666147c0.24449,-0.0814967 0.501972,-0.11693 0.760636,-0.105119l0.167718 -0.239766zm-8.78393 5.17563c0.41457,-0.890558 0.747644,-1.826 0.990953,-2.79687l2.42955 0.347247c-0.00590556,-0.1063 -0.01063,-0.2126 -0.01063,-0.320081 0,-2.89845 2.44018,-5.22169 5.32563,-5.10476 -1.60631,-0.0696856 -3.23388,-0.114568 -4.87681,-0.142915 0.0354333,0.464177 0.0543311,0.933078 0.0543311,1.4067 0,0.291735 -0.00826778,0.579926 -0.02126,0.866936l-2.44372 -0.304727c0.00590556,-0.186616 0.01063,-0.373231 0.01063,-0.562209 0,-0.485437 -0.0224411,-0.966149 -0.0661423,-1.44096 -4.6335,-0.0460634 -9.35086,-0.0177167 -13.9844,-0.152363l-0.0968512 0.20197c0.0732289,0.177167 0.179529,0.455909 0.253939,0.780715l15.8588 1.98191c-0.320081,0.654336 -0.518508,1.37954 -0.562209,2.14608l-15.6143 -2.21695c-0.165356,0.194883 -0.390948,0.368507 -0.692131,0.507878 4.56736,1.83545 8.85243,3.40514 13.4446,4.8024zm3.42286 -2.41301c-0.25512,1.07835 -0.607091,2.11891 -1.04528,3.11341 0.282286,0.0803156 0.564571,0.15945 0.8504,0.238585 1.05355,0.292916 2.36577,0.810243 3.58822,1.10906 -1.87679,-0.663785 -3.25042,-2.39293 -3.39333,-4.46106zm2.5453 -0.236222l-0.460634 -0.0661423c-0.01063,-0.594099 0.155907,-1.17993 0.480712,-1.68308l0.54213 0.767723c-0.1063,0.243309 -0.165356,0.504335 -0.175986,0.768904l-0.386224 0.2126zm-20.2667 -4.49295c0.242128,0 0.439374,0.196065 0.439374,0.438192 0,0.243309 -0.197246,0.439374 -0.439374,0.439374 -0.242128,0 -0.439374,-0.196065 -0.439374,-0.439374 0,-0.242128 0.197246,-0.438192 0.439374,-0.438192zm-0.0118111 -0.77599c0.68032,0 1.23308,0.551579 1.23308,1.2319 0,0.68032 -0.55276,1.23308 -1.23308,1.23308 -0.68032,0 -1.2319,-0.55276 -1.2319,-1.23308 0,-0.68032 0.551579,-1.2319 1.2319,-1.2319zm22.8309 1.18584c0.629533,0 1.22481,0.146458 1.75277,0.408665l0.271656 -0.386224c-1.54253,-0.793707 -3.4016,-0.609454 -4.75634,0.454728l0.316538 0.343703c0.668509,-0.514965 1.50592,-0.820873 2.41537,-0.820873zm2.0823 0.590556c1.39726,0.865755 2.13899,2.51695 1.79883,4.17405l0.445279 0.14882c0.412208,-1.88387 -0.43583,-3.76657 -2.02561,-4.73508l-0.218506 0.412208zm1.71852 4.49177c-0.44646,1.52009 -1.77167,2.64569 -3.36853,2.81931l0.0177167 0.46772c1.82718,-0.185435 3.32601,-1.48111 3.81263,-3.20081l-0.461815 -0.0862212zm-3.74058 2.84175c-1.57797,0.0153545 -2.9575,-0.862212 -3.62365,-2.22521l-0.438192 0.164175c0.732289,1.53781 2.32561,2.58427 4.13743,2.5264l-0.0755911 -0.465358zm-3.77129 -2.56774c-0.564571,-1.50237 -0.162993,-3.17837 0.982685,-4.26736l-0.271656 -0.383861c-1.33466,1.22954 -1.79765,3.1642 -1.12324,4.87799l0.412208 -0.226773zm6.23391 -3.91775c-0.187797,-0.188978 -0.398035,-0.356696 -0.625989,-0.49961l-0.923629 1.73978c0.402759,0.307089 0.644887,0.781896 0.636619,1.32403l1.8945 0.635438c0.227955,-1.1882 -0.158269,-2.3764 -0.981504,-3.19963zm-0.99922 -0.703943c-1.20119,-0.568115 -2.61971,-0.416932 -3.67208,0.376775l1.34411 1.4634c0.351971,-0.207876 0.755911,-0.275199 1.16221,-0.183072l1.16576 -1.6571zm-4.02287 0.679139c-0.986228,0.973236 -1.33702,2.426 -0.862212,3.75003l1.76694 -0.970874c-0.0578745,-0.405121 0.0377956,-0.804337 0.258663,-1.1315l-1.16339 -1.64765zm-0.693313 4.1457c0.59528,1.18584 1.81064,1.97128 3.18782,1.97246l-0.325987 -1.99254c-0.416932,-0.0874023 -0.774809,-0.335436 -1.00513,-0.677958l-1.85671 0.698037zm3.61066 1.94765c1.41143,-0.165356 2.58309,-1.15631 2.99412,-2.49687l-1.95474 -0.362601c-0.210238,0.445279 -0.618903,0.779534 -1.11261,0.888196l0.0732289 1.97128z"
       id="path153" /></g></svg>