<?xml version="1.0" encoding="UTF-8" standalone="no"?>
<svg
   xmlns:dc="http://purl.org/dc/elements/1.1/"
   xmlns:cc="http://creativecommons.org/ns#"
   xmlns:rdf="http://www.w3.org/1999/02/22-rdf-syntax-ns#"
   xmlns:svg="http://www.w3.org/2000/svg"
   xmlns="http://www.w3.org/2000/svg"
   xmlns:sodipodi="http://sodipodi.sourceforge.net/DTD/sodipodi-0.dtd"
   xmlns:inkscape="http://www.inkscape.org/namespaces/inkscape"
   version="1.1"
   x="0px"
   y="0px"
   viewBox="0 0 125 125"
   xml:space="preserve"
   id="svg84"
   sodipodi:docname="gravel.svg"
   width="125"
   height="125"
   inkscape:version="0.92.5 (2060ec1f9f, 2020-04-08)"><metadata
     id="metadata90"><rdf:RDF><cc:Work
         rdf:about=""><dc:format>image/svg+xml</dc:format><dc:type
           rdf:resource="http://purl.org/dc/dcmitype/StillImage" /><dc:title></dc:title></cc:Work></rdf:RDF></metadata><defs
     id="defs88" /><sodipodi:namedview
     pagecolor="#ffffff"
     bordercolor="#666666"
     borderopacity="1"
     objecttolerance="10"
     gridtolerance="10"
     guidetolerance="10"
     inkscape:pageopacity="0"
     inkscape:pageshadow="2"
     inkscape:window-width="1920"
     inkscape:window-height="1029"
     id="namedview86"
     showgrid="false"
     inkscape:zoom="2.3871925"
     inkscape:cx="47.644099"
     inkscape:cy="95.505723"
     inkscape:window-x="0"
     inkscape:window-y="27"
     inkscape:window-maximized="1"
     inkscape:current-layer="svg84" /><path
     d="m 98.17884,42.506628 c -3.389177,0 -6.648002,0.651765 -9.646122,1.955296 l -1.173177,-3.519532 v 0 -0.130353 0 l -3.128473,-10.29789 -0.651765,0.130353 v 0 l -0.391059,-1.433883 5.214121,-1.564236 c 1.042824,-0.260707 2.737414,-0.39106 3.780238,0.130353 0.651765,0.260706 1.694589,1.30353 1.694589,2.737413 -0.130353,1.824943 -2.346354,3.649885 -6.126592,4.823062 -0.651765,0.260706 -1.042824,0.912472 -0.782118,1.69459 0.130353,0.521412 0.651765,0.912471 1.30353,0.912471 0.130353,0 0.260706,0 0.391059,-0.130353 6.387299,-2.085649 7.821182,-5.083768 7.821182,-7.169417 0,-0.651765 0,-1.173177 -0.260706,-1.694589 0.391059,-0.651765 1.173177,-1.173177 2.085653,-1.69459 0.78211,0.260707 1.69458,0.782119 1.17317,1.824943 -0.91247,2.085648 -1.82494,2.085648 -1.30353,3.128473 0.52141,1.042824 2.34636,2.867766 2.73742,2.60706 0.39106,-0.391059 -0.13036,-0.912471 -0.78212,-2.216001 -0.52141,-1.433884 0.65176,-3.780238 0.91247,-4.823062 0.26071,-0.912472 -0.13035,-1.303531 0,-2.476708 0.13035,-0.130353 0.26071,-0.260706 0.26071,-0.391059 0.78211,-1.955296 -0.26071,-2.867767 -1.30354,-2.867767 -1.04282,-0.130353 -2.215997,0.260706 -2.867762,2.60706 -0.521412,1.955296 -1.694589,1.955296 -2.99812,1.433884 -0.260706,-0.260706 -0.651765,-0.391059 -0.912471,-0.521412 -1.824942,-0.782119 -4.171297,-0.651765 -5.60518,-0.260706 l -6.517652,1.824942 c -0.391059,0.130353 -0.651765,0.260706 -0.782118,0.651766 -0.130353,0.260706 -0.260706,0.651765 -0.130353,1.042824 l 0.782118,2.737413 -0.651765,0.130354 0.391059,1.30353 -33.891788,5.865886 -3.910591,-13.035303 h 0.260706 c 0.912471,-0.130353 1.173177,-0.391059 2.085649,-1.042825 0.391059,-0.260706 1.042824,-0.782118 1.824942,-1.30353 0.651765,0 0.912471,0.130353 1.433883,0.130353 0.912472,0 1.69459,-0.651765 2.085649,-1.173177 0.391059,-0.521412 -0.651765,-0.782118 -1.69459,-0.651765 -1.042824,0.130353 -6.648004,0.391059 -7.821181,0.391059 -4.432003,0 -7.560476,-1.173178 -8.342594,-0.782118 -0.39106,0.130353 -0.260707,1.042824 1.30353,1.824942 0.391059,0.260706 1.433883,0.651765 2.476707,0.912471 0.912472,1.303531 1.433884,1.824943 2.607061,1.824943 h 0.391059 0.651765 l 4.171297,14.078128 -5.083768,6.778357 v 0 l -2.085648,3.128473 v 0 L 24.790086,66.491586 c -0.260706,0.391059 -0.391059,0.782118 -0.130353,1.30353 0.130353,0.391059 0.521412,0.782118 1.042824,0.782118 l 20.465426,3.389179 c -2.085649,9.255065 -10.428243,16.033423 -20.20472,16.033423 -11.471067,0 -20.7261318,-9.255065 -20.7261318,-20.726132 0,-11.471067 9.2550648,-20.726132 20.7261318,-20.726132 3.258826,0 6.387298,0.782118 9.124712,2.085649 l 2.346355,-3.128473 c -3.389179,-1.824943 -7.29977,-2.867767 -11.471067,-2.867767 -13.556715,0 -24.6367227,11.080008 -24.6367227,24.636723 0,13.556715 11.0800077,24.636723 24.6367227,24.636723 11.080008,0 20.465426,-7.29977 23.593899,-17.467306 l 0.332774,-1.862428 4.650581,0.962677 c 1.790557,0.503873 3.102111,-0.209048 3.102111,-0.209048 l 25.936675,-32.131224 0.260706,0.912471 v 0 0 c 1.30353,3.910591 3.128473,7.821182 3.128473,7.821182 0.912471,1.955295 1.824942,3.780238 2.737413,5.60518 2.346355,4.30165 4.823062,8.472947 7.430123,12.513891 0.391059,0.521412 1.173182,0.782118 1.694592,0.391059 0.65176,-0.391059 0.78212,-1.173177 0.39106,-1.824942 v 0 c -2.476711,-4.040944 -4.692713,-8.212241 -6.778361,-12.513891 -0.912471,-1.955296 -1.824943,-3.910591 -2.607061,-5.865887 2.476708,-1.042824 5.344475,-1.694589 8.212242,-1.694589 11.47107,0 20.72613,9.255065 20.72613,20.726132 0,11.471067 -9.25506,20.726132 -20.72613,20.726132 -11.471067,0 -20.726133,-9.255065 -20.726133,-20.726132 0,-6.256945 2.867767,-11.992479 7.29977,-15.772717 l -0.260706,-0.521412 -1.30353,-3.128473 c -5.865887,4.562356 -9.515772,11.60142 -9.515772,19.422602 0,13.556715 11.080008,24.636723 24.636721,24.636723 13.55672,0 24.63673,-11.080008 24.63673,-24.636723 0,-13.687068 -11.08001,-24.767076 -24.63673,-24.767076 z M 39.650331,25.039322 c -0.782118,0 -1.042824,0 -1.564236,-0.521413 h 0.912471 c 1.564236,-0.260706 3.258826,-1.173177 5.99624,-1.042824 h 0.651765 c -0.260706,0.260706 -0.521412,0.391059 -0.782119,0.521412 -0.782118,0.651765 -1.042824,0.782118 -1.564236,0.782118 -1.694589,0.130354 -1.694589,0.130354 -3.649885,0.260707 z m 6.778358,44.320031 -18.249425,-2.99812 11.210361,-14.860246 c 4.432003,3.780238 7.29977,9.385419 7.29977,15.772717 -0.130353,0.651765 -0.260706,1.30353 -0.260706,2.085649 z m 3.910591,0.177512 v -2.263161 c 0,-7.560476 -3.389179,-14.338833 -8.864006,-18.901189 l 3.910591,-5.214122 8.019492,26.609238 c 0,0 -1.30353,0.320054 -3.066077,-0.230766 z m 6.266087,-0.900814 c -1.011285,-0.508545 -1.573378,-3.187289 -1.573378,-3.187289 l -7.29977,-24.245664 33.891788,-5.865887 0.391059,1.173178 z"
     id="path78"
     inkscape:connector-curvature="0"
     style="stroke-width:1.30353034"
     sodipodi:nodetypes="sccccccccccccccscscccscccccccccccccccccccccsssscccscccccccccccsssccssscsccccccccccccccsssscccssssccccccccccccccscccccccccc" /><circle
     style="fill:#000000"
     id="path92"
     cx="25.918245"
     cy="67.683655"
     r="7.8495259" /><circle
     style="fill:#ffffff;stroke-width:0.81321704"
     id="path92-3"
     cx="25.867205"
     cy="67.721512"
     r="6.3833685" /><circle
     style="fill:#000000;stroke-width:0.6639151"
     id="path92-6"
     cx="25.927502"
     cy="67.766953"
     r="5.2114186" /><circle
     style="fill:#ffffff;stroke-width:0.5153302"
     id="path92-7"
     cx="25.908991"
     cy="67.748444"
     r="4.0450974" /><circle
     style="fill:#000000;stroke-width:0.3985849"
     id="path92-7-5"
     cx="25.946016"
     cy="67.803993"
     r="3.1287022" /><circle
     style="fill:#ffffff;stroke-width:0.20518865"
     id="path92-7-5-3"
     cx="25.948919"
     cy="67.714867"
     r="1.6106335" /><circle
     style="fill:#000000;stroke-width:0.72972971"
     id="path233"
     cx="56.279617"
     cy="71.608414"
     r="3.9988153" /><path
     style="fill:none;stroke:#000000;stroke-width:0.30000001;stroke-linecap:butt;stroke-linejoin:miter;stroke-miterlimit:4;stroke-dasharray:none;stroke-opacity:1"
     d="m 27.177133,62.944313 c 29.472749,4.739336 29.633944,4.878841 29.633944,4.878841 l -0.827664,7.561917 -30.435427,-2.517772"
     id="path235"
     inkscape:connector-curvature="0"
     sodipodi:nodetypes="cccc" /><path
     style="fill:none;stroke:#000000;stroke-width:2;stroke-linecap:round;stroke-linejoin:miter;stroke-opacity:1;stroke-miterlimit:4;stroke-dasharray:none"
     d="M 61.759478,79.902251 56.649882,72.422986"
     id="path1042"
     inkscape:connector-curvature="0"
     sodipodi:nodetypes="cc" /><path
     style="fill:none;stroke:#000000;stroke-width:2;stroke-linecap:round;stroke-linejoin:miter;stroke-miterlimit:4;stroke-dasharray:none;stroke-opacity:1"
     d="M 64.203199,79.902251 H 60.05628"
     id="path1044"
     inkscape:connector-curvature="0"
     sodipodi:nodetypes="cc" /></svg>