<?xml version="1.0" encoding="UTF-8" standalone="no"?>
<svg
   xmlns:dc="http://purl.org/dc/elements/1.1/"
   xmlns:cc="http://creativecommons.org/ns#"
   xmlns:rdf="http://www.w3.org/1999/02/22-rdf-syntax-ns#"
   xmlns:svg="http://www.w3.org/2000/svg"
   xmlns="http://www.w3.org/2000/svg"
   xmlns:sodipodi="http://sodipodi.sourceforge.net/DTD/sodipodi-0.dtd"
   xmlns:inkscape="http://www.inkscape.org/namespaces/inkscape"
   version="1.1"
   x="0px"
   y="0px"
   viewBox="0 0 125 125"
   xml:space="preserve"
   id="svg84"
   sodipodi:docname="gravel.svg"
   width="125"
   height="125"
   inkscape:version="0.92.5 (2060ec1f9f, 2020-04-08)"><metadata
     id="metadata90"><rdf:RDF><cc:Work
         rdf:about=""><dc:format>image/svg+xml</dc:format><dc:type
           rdf:resource="http://purl.org/dc/dcmitype/StillImage" /><dc:title /></cc:Work></rdf:RDF></metadata><defs
     id="defs88" /><sodipodi:namedview
     pagecolor="#ffffff"
     bordercolor="#666666"
     borderopacity="1"
     objecttolerance="10"
     gridtolerance="10"
     guidetolerance="10"
     inkscape:pageopacity="0"
     inkscape:pageshadow="2"
     inkscape:window-width="1920"
     inkscape:window-height="1029"
     id="namedview86"
     showgrid="false"
     inkscape:zoom="4.774385"
     inkscape:cx="128.95606"
     inkscape:cy="60.714993"
     inkscape:window-x="0"
     inkscape:window-y="27"
     inkscape:window-maximized="1"
     inkscape:current-layer="svg84" /><path
     d="m 88.532718,44.461924 -1.173177,-3.519532 v 0 -0.130353 0 l -3.128473,-10.29789 -0.651765,0.130353 v 0 l -0.391059,-1.433883 5.214121,-1.564236 c 1.042824,-0.260707 2.737414,-0.39106 3.780238,0.130353 0.651765,0.260706 1.694589,1.30353 1.694589,2.737413 -0.130353,1.824943 -2.346354,3.649885 -6.126592,4.823062 -0.651765,0.260706 -1.042824,0.912472 -0.782118,1.69459 0.130353,0.521412 0.651765,0.912471 1.30353,0.912471 0.130353,0 0.260706,0 0.391059,-0.130353 6.387299,-2.085649 7.821182,-5.083768 7.821182,-7.169417 0,-0.651765 0,-1.173177 -0.260706,-1.694589 0.391059,-0.651765 1.173177,-1.173177 2.085653,-1.69459 0.78211,0.260707 1.69458,0.782119 1.17317,1.824943 -0.91247,2.085648 -1.82494,2.085648 -1.30353,3.128473 0.52141,1.042824 2.34636,2.867766 2.73742,2.60706 0.39106,-0.391059 -0.13036,-0.912471 -0.78212,-2.216001 -0.52141,-1.433884 0.65176,-3.780238 0.91247,-4.823062 0.26071,-0.912472 -0.13035,-1.303531 0,-2.476708 0.13035,-0.130353 0.26071,-0.260706 0.26071,-0.391059 0.78211,-1.955296 -0.26071,-2.867767 -1.30354,-2.867767 -1.04282,-0.130353 -2.215997,0.260706 -2.867762,2.60706 -0.521412,1.955296 -1.694589,1.955296 -2.99812,1.433884 -0.260706,-0.260706 -0.651765,-0.391059 -0.912471,-0.521412 -1.824942,-0.782119 -4.171297,-0.651765 -5.60518,-0.260706 l -6.517652,1.824942 c -0.391059,0.130353 -0.651765,0.260706 -0.782118,0.651766 -0.130353,0.260706 -0.260706,0.651765 -0.130353,1.042824 l 0.782118,2.737413 -0.651765,0.130354 0.391059,1.30353 -33.891788,5.865886 -3.910591,-13.035303 h 0.260706 c 0.912471,-0.130353 1.173177,-0.391059 2.085649,-1.042825 0.391059,-0.260706 1.042824,-0.782118 1.824942,-1.30353 0.651765,0 0.912471,0.130353 1.433883,0.130353 0.912472,0 1.69459,-0.651765 2.085649,-1.173177 0.391059,-0.521412 -0.651765,-0.782118 -1.69459,-0.651765 -1.042824,0.130353 -6.648004,0.391059 -7.821181,0.391059 -4.432003,0 -7.560476,-1.173178 -8.342594,-0.782118 -0.39106,0.130353 -0.260707,1.042824 1.30353,1.824942 0.391059,0.260706 1.433883,0.651765 2.476707,0.912471 0.912472,1.303531 1.433884,1.824943 2.607061,1.824943 h 0.391059 l 1.873625,-0.03703 3.714795,13.222417 -0.913462,0.189242 c 8.321998,18.795082 10.703505,32.019993 10.345581,34.216944 1.790557,0.503873 3.102111,-0.209048 3.102111,-0.209048 l 25.936675,-32.131224 0.260706,0.912471 v 0 0 c 1.30353,3.910591 3.128473,7.821182 3.128473,7.821182 0.912471,1.955295 1.824942,3.780238 2.737413,5.60518 2.346355,4.30165 4.823062,8.472947 7.430123,12.513891 0.391059,0.521412 1.173182,0.782118 1.694592,0.391059 0.65176,-0.391059 0.78212,-1.173177 0.39106,-1.824942 v 0 C 96.744959,62.580995 94.528957,58.409698 92.443309,54.108048 89.838584,48.132688 89.712627,48.093491 88.532718,44.461924 Z M 39.650331,25.039322 c -0.782118,0 -1.042824,0 -1.564236,-0.521413 h 0.912471 c 1.564236,-0.260706 3.258826,-1.173177 5.99624,-1.042824 h 0.651765 c -0.260706,0.260706 -0.521412,0.391059 -0.782119,0.521412 -0.782118,0.651765 -1.042824,0.782118 -1.564236,0.782118 -1.694589,0.130354 -1.694589,0.130354 -3.649885,0.260707 z m 5.735534,18.119071 8.019492,26.609238 m 3.20001,-1.13158 c -1.011285,-0.508545 -1.573378,-3.187289 -1.573378,-3.187289 l -7.29977,-24.245664 33.891788,-5.865887 0.391059,1.173178 z"
     id="path78"
     inkscape:connector-curvature="0"
     style="stroke-width:1.30353034"
     sodipodi:nodetypes="ccccccccccccccscscccscccccccccccccccccccccsssscccscccccccccccccccccccccccccccccccccc" /><circle
     style="fill:#000000"
     id="path92"
     cx="25.918245"
     cy="67.683655"
     r="7.8495259" /><circle
     style="fill:#ffffff;stroke-width:0.81321704"
     id="path92-3"
     cx="25.867205"
     cy="67.721512"
     r="6.3833685" /><circle
     style="fill:#000000;stroke-width:0.6639151"
     id="path92-6"
     cx="25.927502"
     cy="67.766953"
     r="5.2114186" /><circle
     style="fill:#ffffff;stroke-width:0.5153302"
     id="path92-7"
     cx="25.908991"
     cy="67.748444"
     r="4.0450974" /><circle
     style="fill:#000000;stroke-width:0.3985849"
     id="path92-7-5"
     cx="25.946016"
     cy="67.803993"
     r="3.1287022" /><circle
     style="fill:#ffffff;stroke-width:0.2429245"
     id="path92-7-5-3"
     cx="25.837841"
     cy="67.677841"
     r="1.906842" /><circle
     style="fill:#000000;stroke-width:0.8445946"
     id="path233"
     cx="56.316643"
     cy="71.571388"
     r="4.6282582" /><path
     style="fill:none;stroke:#000000;stroke-width:0.30000001;stroke-linecap:butt;stroke-linejoin:miter;stroke-miterlimit:4;stroke-dasharray:none;stroke-opacity:1"
     d="m 27.177133,62.944313 c 29.472749,4.739336 29.633944,4.878841 29.633944,4.878841 l -0.67956,7.932178 -30.583531,-2.888033"
     id="path235"
     inkscape:connector-curvature="0"
     sodipodi:nodetypes="cccc" /><path
     style="fill:none;stroke:#000000;stroke-width:2;stroke-linecap:round;stroke-linejoin:miter;stroke-opacity:1;stroke-miterlimit:4;stroke-dasharray:none"
     d="M 61.759478,79.902251 56.649882,72.422986"
     id="path1042"
     inkscape:connector-curvature="0"
     sodipodi:nodetypes="cc" /><path
     style="fill:none;stroke:#000000;stroke-width:2;stroke-linecap:round;stroke-linejoin:miter;stroke-miterlimit:4;stroke-dasharray:none;stroke-opacity:1"
     d="M 64.203199,79.902251 H 60.05628"
     id="path1044"
     inkscape:connector-curvature="0"
     sodipodi:nodetypes="cc" /><circle
     style="fill:none;stroke:#000000;stroke-width:3.20915318;stroke-miterlimit:4;stroke-dasharray:none;stroke-opacity:1"
     id="path17"
     cx="98.965637"
     cy="66.877327"
     r="22.661413" /><path
     style="fill:#000000;fill-opacity:1;stroke:none;stroke-width:1px;stroke-linecap:butt;stroke-linejoin:miter;stroke-opacity:1"
     d="m 26.247089,68.271649 30.387878,4.974402 0.159175,-3.298962 -30.305597,-2.605874 z"
     id="path828"
     inkscape:connector-curvature="0" /><path
     style="fill:#000000;fill-opacity:1;stroke:none;stroke-width:1px;stroke-linecap:butt;stroke-linejoin:miter;stroke-opacity:1"
     d="M 45.824083,42.58472 25.51096,66.943129 26.325534,67.535545 46.75583,45.120775 Z"
     id="path830"
     inkscape:connector-curvature="0"
     sodipodi:nodetypes="ccccc" /><circle
     style="fill:none;stroke:#000000;stroke-width:3.20915318;stroke-miterlimit:4;stroke-dasharray:none;stroke-opacity:1"
     id="path17-3"
     cx="25.553032"
     cy="67.610405"
     r="22.661413" /><circle
     style="fill:#000000;stroke-width:0.12028298"
     id="path92-7-5-3-6"
     cx="25.88122"
     cy="67.646622"
     r="0.94416428" /></svg>